M48
;DRILL file {KiCad 4.0.5} date 06/17/17 09:26:15
;FORMAT={-:-/ absolute / inch / decimal}
FMAT,2
INCH,TZ
T1C0.008
T2C0.021
T3C0.024
T4C0.026
T5C0.031
T6C0.032
T7C0.035
T8C0.037
T9C0.039
T10C0.045
T11C0.052
%
G90
G05
M72
T2
X5.44Y-3.0416
X5.44Y-3.14
X5.44Y-3.2384
T3
X8.33Y-2.8484
X8.33Y-2.95
X8.33Y-3.1516
X8.83Y-2.8484
X8.83Y-3.1516
T4
X8.78Y-2.52
X8.94Y-2.52
T5
X2.32Y-2.74
X2.32Y-3.14
X2.6Y-2.44
X2.6Y-2.84
X2.6Y-3.
X2.6Y-3.4
X2.6Y-3.52
X2.6Y-3.92
X3.04Y-3.82
X3.0717Y-2.8
X3.16Y-4.06
X3.2369Y-3.82
X3.3Y-2.8
X3.3Y-3.0961
X3.5283Y-3.0961
X3.5431Y-3.82
X3.56Y-4.06
X3.74Y-3.82
X3.84Y-2.64
X4.0369Y-2.64
X4.04Y-2.86
X4.16Y-3.94
X4.16Y-4.1369
X4.4Y-3.58
X4.4Y-3.98
X4.4Y-4.14
X4.4Y-4.54
X4.44Y-2.86
X4.46Y-2.28
X4.46Y-2.68
X4.5631Y-2.86
X4.68Y-2.28
X4.68Y-2.68
X4.72Y-4.3
X4.72Y-4.4969
X4.7231Y-4.08
X4.76Y-2.86
X4.905Y-3.82
X4.92Y-4.08
X5.24Y-3.14
X5.24Y-3.54
X5.305Y-3.82
X5.5Y-4.3063
X5.5Y-4.7
X5.64Y-3.0431
X5.64Y-3.24
X5.64Y-3.5
X5.64Y-3.9
X5.88Y-4.14
X6.28Y-4.14
X6.28Y-4.3
X6.28Y-4.7
X6.48Y-3.37
X6.48Y-3.77
X6.68Y-3.67
X6.68Y-4.07
X6.93Y-3.47
X6.93Y-3.87
X7.105Y-3.995
X7.105Y-4.395
X7.16Y-2.4
X7.16Y-2.8
X7.305Y-3.47
X7.305Y-3.87
X7.48Y-2.845
X7.48Y-3.245
X7.48Y-3.47
X7.48Y-3.87
X7.6081Y-2.845
X7.805Y-2.845
X7.98Y-2.8463
X7.98Y-3.24
X8.22Y-2.34
X8.62Y-2.34
X8.705Y-3.545
X9.105Y-3.545
T6
X3.82Y-2.9
X3.82Y-3.1
T7
X2.3Y-3.82
X2.3Y-3.92
X5.1Y-4.2
X5.1Y-4.7
T8
X6.25Y-2.47
X6.25Y-2.97
X6.5Y-2.72
X6.75Y-2.47
X6.75Y-2.97
T9
X2.86Y-3.1
X2.86Y-3.3953
X5.64Y-2.58
X5.64Y-2.7769
X5.96Y-4.5
X5.96Y-4.6969
X7.48Y-4.045
X7.48Y-4.2419
T10
X4.063Y-3.103
X4.337Y-3.377
X4.337Y-3.377
T11
X9.28Y-2.84
X9.28Y-3.0369
T1
X3.4416Y-3.4184G85X3.4416Y-3.3791
G05
X3.54Y-3.3397G85X3.54Y-3.3003
G05
X3.54Y-3.4972G85X3.54Y-3.4578
G05
X4.9206Y-3.1397G85X4.9206Y-3.1003
G05
X5.0191Y-3.0609G85X5.0191Y-3.0216
G05
X5.0191Y-3.2184G85X5.0191Y-3.1791
G05
X5.26Y-4.1397G85X5.26Y-4.1003
G05
X5.3584Y-4.0609G85X5.3584Y-4.0216
G05
X5.3584Y-4.2184G85X5.3584Y-4.1791
G05
X5.7606Y-3.9197G85X5.7606Y-3.8803
G05
X5.8591Y-3.8409G85X5.8591Y-3.8016
G05
X5.8591Y-3.9984G85X5.8591Y-3.9591
G05
X6.4156Y-4.0897G85X6.4156Y-4.0503
G05
X6.5141Y-4.0109G85X6.5141Y-3.9716
G05
X6.5141Y-4.1684G85X6.5141Y-4.1291
G05
X6.8156Y-4.0897G85X6.8156Y-4.0503
G05
X6.9141Y-4.0109G85X6.9141Y-3.9716
G05
X6.9141Y-4.1684G85X6.9141Y-4.1291
G05
X7.8806Y-3.4797G85X7.8806Y-3.4403
G05
X7.9791Y-3.4009G85X7.9791Y-3.3616
G05
X7.9791Y-3.5584G85X7.9791Y-3.5191
G05
T0
M30
