G04 #@! TF.FileFunction,Copper,L2,Bot,Signal*
%FSLAX46Y46*%
G04 Gerber Fmt 4.6, Leading zero omitted, Abs format (unit mm)*
G04 Created by KiCad (PCBNEW 4.0.5) date 06/17/17 09:26:11*
%MOMM*%
%LPD*%
G01*
G04 APERTURE LIST*
%ADD10C,0.100000*%
%ADD11R,1.000000X1.000000*%
%ADD12C,1.524000*%
%ADD13C,2.000000*%
%ADD14C,1.600000*%
%ADD15R,2.000000X2.000000*%
%ADD16R,1.905000X1.905000*%
%ADD17C,1.905000*%
%ADD18C,1.000000*%
%ADD19R,1.800000X1.800000*%
%ADD20C,1.800000*%
%ADD21R,3.960000X1.980000*%
%ADD22O,3.960000X1.980000*%
%ADD23O,1.600000X1.600000*%
%ADD24O,0.600000X1.500000*%
%ADD25O,1.800000X1.800000*%
%ADD26C,0.254000*%
G04 APERTURE END LIST*
D10*
D11*
X223012000Y-64008000D03*
D12*
X171450000Y-62738000D03*
X158750000Y-62738000D03*
X165100000Y-69088000D03*
X171450000Y-75438000D03*
X158750000Y-75438000D03*
D13*
X72644000Y-78740000D03*
X72644000Y-86240000D03*
D14*
X82216000Y-97028000D03*
X77216000Y-97028000D03*
X102536000Y-67056000D03*
X97536000Y-67056000D03*
X94996000Y-97028000D03*
X89996000Y-97028000D03*
X105664000Y-100076000D03*
X105664000Y-105076000D03*
X120904000Y-72644000D03*
X115904000Y-72644000D03*
X119888000Y-109220000D03*
X119888000Y-114220000D03*
X124968000Y-103632000D03*
X119968000Y-103632000D03*
D15*
X143256000Y-70532000D03*
D13*
X143256000Y-65532000D03*
D14*
X143256000Y-77296000D03*
X143256000Y-82296000D03*
X139700000Y-109380000D03*
X139700000Y-119380000D03*
D15*
X151384000Y-114300000D03*
D13*
X151384000Y-119300000D03*
D15*
X189992000Y-102743000D03*
D13*
X189992000Y-107743000D03*
D14*
X198247000Y-72263000D03*
X193247000Y-72263000D03*
X202692000Y-72296000D03*
X202692000Y-82296000D03*
D11*
X227076000Y-64008000D03*
D16*
X97028000Y-78740000D03*
D17*
X97028000Y-73660000D03*
D12*
X110160000Y-85776000D03*
X110160000Y-85776000D03*
X103200000Y-78816000D03*
D18*
X138176000Y-82256000D03*
X138176000Y-79756000D03*
X138176000Y-77256000D03*
D19*
X58420000Y-99568000D03*
D20*
X58420000Y-97028000D03*
D21*
X235712000Y-72136000D03*
D22*
X235712000Y-77136000D03*
D14*
X66040000Y-61976000D03*
D23*
X66040000Y-72136000D03*
D14*
X66040000Y-76200000D03*
D23*
X66040000Y-86360000D03*
D14*
X66040000Y-89408000D03*
D23*
X66040000Y-99568000D03*
D14*
X90424000Y-103124000D03*
D23*
X80264000Y-103124000D03*
D14*
X112776000Y-72644000D03*
D23*
X102616000Y-72644000D03*
D14*
X113284000Y-57912000D03*
D23*
X113284000Y-68072000D03*
D14*
X118872000Y-68072000D03*
D23*
X118872000Y-57912000D03*
D14*
X111760000Y-101092000D03*
D23*
X111760000Y-90932000D03*
D14*
X111760000Y-115316000D03*
D23*
X111760000Y-105156000D03*
D14*
X134747000Y-97028000D03*
D23*
X124587000Y-97028000D03*
D14*
X133096000Y-79756000D03*
D23*
X133096000Y-89916000D03*
D14*
X143256000Y-99060000D03*
D23*
X143256000Y-88900000D03*
D14*
X164592000Y-95758000D03*
D23*
X164592000Y-85598000D03*
D14*
X159512000Y-105156000D03*
D23*
X149352000Y-105156000D03*
D14*
X159512000Y-119380000D03*
D23*
X159512000Y-109220000D03*
D14*
X176022000Y-88138000D03*
D23*
X176022000Y-98298000D03*
D14*
X169672000Y-103378000D03*
D23*
X169672000Y-93218000D03*
D14*
X181864000Y-71120000D03*
D23*
X181864000Y-60960000D03*
D14*
X180467000Y-111633000D03*
D23*
X180467000Y-101473000D03*
D14*
X185547000Y-88138000D03*
D23*
X185547000Y-98298000D03*
D14*
X189992000Y-82423000D03*
D23*
X189992000Y-72263000D03*
D14*
X189992000Y-98298000D03*
D23*
X189992000Y-88138000D03*
D14*
X221107000Y-90043000D03*
D23*
X231267000Y-90043000D03*
D14*
X218948000Y-59436000D03*
D23*
X208788000Y-59436000D03*
D14*
X58928000Y-69596000D03*
D23*
X58928000Y-79756000D03*
D24*
X89916000Y-88328000D03*
X89916000Y-84328000D03*
X87416000Y-86328000D03*
X127484000Y-81248000D03*
X127484000Y-77248000D03*
X124984000Y-79248000D03*
X136104000Y-106648000D03*
X136104000Y-102648000D03*
X133604000Y-104648000D03*
X148820000Y-101060000D03*
X148820000Y-97060000D03*
X146320000Y-99060000D03*
X165457000Y-105378000D03*
X165457000Y-101378000D03*
X162957000Y-103378000D03*
X175617000Y-105378000D03*
X175617000Y-101378000D03*
X173117000Y-103378000D03*
X202668000Y-89884000D03*
X202668000Y-85884000D03*
X200168000Y-87884000D03*
D12*
X78020000Y-71120000D03*
X89620000Y-78640000D03*
X83820000Y-78640000D03*
X83820000Y-71120000D03*
D18*
X224282000Y-80050000D03*
X224282000Y-72350000D03*
X211582000Y-72350000D03*
X211582000Y-74930000D03*
X211582000Y-80050000D03*
D19*
X129540000Y-106680000D03*
D25*
X129540000Y-119380000D03*
D26*
G36*
X112472200Y-56694757D02*
X112068176Y-57098077D01*
X111849250Y-57625309D01*
X111848752Y-58196187D01*
X112066757Y-58723800D01*
X112470077Y-59127824D01*
X112997309Y-59346750D01*
X113568187Y-59347248D01*
X114095800Y-59129243D01*
X114499824Y-58725923D01*
X114718750Y-58198691D01*
X114719248Y-57627813D01*
X114501243Y-57100200D01*
X114097923Y-56696176D01*
X113842223Y-56590000D01*
X115154181Y-56590000D01*
X115168046Y-56659705D01*
X115321954Y-56890046D01*
X115552295Y-57043954D01*
X115824000Y-57098000D01*
X116095705Y-57043954D01*
X116326046Y-56890046D01*
X116479954Y-56659705D01*
X116493819Y-56590000D01*
X118275137Y-56590000D01*
X117857302Y-56869189D01*
X117546233Y-57334736D01*
X117437000Y-57883887D01*
X117437000Y-57940113D01*
X117546233Y-58489264D01*
X117857302Y-58954811D01*
X118322849Y-59265880D01*
X118872000Y-59375113D01*
X119421151Y-59265880D01*
X119886698Y-58954811D01*
X120197767Y-58489264D01*
X120307000Y-57940113D01*
X120307000Y-57883887D01*
X120197767Y-57334736D01*
X119886698Y-56869189D01*
X119468863Y-56590000D01*
X243130000Y-56590000D01*
X243130000Y-126290000D01*
X51510000Y-126290000D01*
X51510000Y-121616787D01*
X51917213Y-121616787D01*
X52218862Y-123133280D01*
X53077886Y-124418901D01*
X54363507Y-125277925D01*
X55880000Y-125579574D01*
X57396493Y-125277925D01*
X58682114Y-124418901D01*
X59541138Y-123133280D01*
X59782474Y-121920000D01*
X234797213Y-121920000D01*
X235098862Y-123436493D01*
X235957886Y-124722114D01*
X237243507Y-125581138D01*
X238760000Y-125882787D01*
X240276493Y-125581138D01*
X241562114Y-124722114D01*
X242421138Y-123436493D01*
X242722787Y-121920000D01*
X242421138Y-120403507D01*
X241562114Y-119117886D01*
X240276493Y-118258862D01*
X238760000Y-117957213D01*
X237243507Y-118258862D01*
X235957886Y-119117886D01*
X235098862Y-120403507D01*
X234797213Y-121920000D01*
X59782474Y-121920000D01*
X59842787Y-121616787D01*
X59541138Y-120100294D01*
X59303566Y-119744742D01*
X128048954Y-119744742D01*
X128302034Y-120287576D01*
X128743583Y-120692240D01*
X129175260Y-120871036D01*
X129413000Y-120750378D01*
X129413000Y-119507000D01*
X129667000Y-119507000D01*
X129667000Y-120750378D01*
X129904740Y-120871036D01*
X130336417Y-120692240D01*
X130668666Y-120387745D01*
X138871861Y-120387745D01*
X138945995Y-120633864D01*
X139483223Y-120826965D01*
X140053454Y-120799778D01*
X140454005Y-120633864D01*
X140508624Y-120452532D01*
X150411073Y-120452532D01*
X150509736Y-120719387D01*
X151119461Y-120945908D01*
X151769460Y-120921856D01*
X152258264Y-120719387D01*
X152356927Y-120452532D01*
X152292140Y-120387745D01*
X158683861Y-120387745D01*
X158757995Y-120633864D01*
X159295223Y-120826965D01*
X159865454Y-120799778D01*
X160266005Y-120633864D01*
X160340139Y-120387745D01*
X159512000Y-119559605D01*
X158683861Y-120387745D01*
X152292140Y-120387745D01*
X151384000Y-119479605D01*
X150411073Y-120452532D01*
X140508624Y-120452532D01*
X140528139Y-120387745D01*
X139700000Y-119559605D01*
X138871861Y-120387745D01*
X130668666Y-120387745D01*
X130777966Y-120287576D01*
X131031046Y-119744742D01*
X130910997Y-119507000D01*
X129667000Y-119507000D01*
X129413000Y-119507000D01*
X128169003Y-119507000D01*
X128048954Y-119744742D01*
X59303566Y-119744742D01*
X58816141Y-119015258D01*
X128048954Y-119015258D01*
X128169003Y-119253000D01*
X129413000Y-119253000D01*
X129413000Y-118009622D01*
X129667000Y-118009622D01*
X129667000Y-119253000D01*
X130910997Y-119253000D01*
X130956330Y-119163223D01*
X138253035Y-119163223D01*
X138280222Y-119733454D01*
X138446136Y-120134005D01*
X138692255Y-120208139D01*
X139520395Y-119380000D01*
X139879605Y-119380000D01*
X140707745Y-120208139D01*
X140953864Y-120134005D01*
X141146965Y-119596777D01*
X141120204Y-119035461D01*
X149738092Y-119035461D01*
X149762144Y-119685460D01*
X149964613Y-120174264D01*
X150231468Y-120272927D01*
X151204395Y-119300000D01*
X151563605Y-119300000D01*
X152536532Y-120272927D01*
X152803387Y-120174264D01*
X153029908Y-119564539D01*
X153015059Y-119163223D01*
X158065035Y-119163223D01*
X158092222Y-119733454D01*
X158258136Y-120134005D01*
X158504255Y-120208139D01*
X159332395Y-119380000D01*
X159691605Y-119380000D01*
X160519745Y-120208139D01*
X160765864Y-120134005D01*
X160958965Y-119596777D01*
X160931778Y-119026546D01*
X160765864Y-118625995D01*
X160519745Y-118551861D01*
X159691605Y-119380000D01*
X159332395Y-119380000D01*
X158504255Y-118551861D01*
X158258136Y-118625995D01*
X158065035Y-119163223D01*
X153015059Y-119163223D01*
X153005856Y-118914540D01*
X152803387Y-118425736D01*
X152658737Y-118372255D01*
X158683861Y-118372255D01*
X159512000Y-119200395D01*
X160340139Y-118372255D01*
X160266005Y-118126136D01*
X159728777Y-117933035D01*
X159158546Y-117960222D01*
X158757995Y-118126136D01*
X158683861Y-118372255D01*
X152658737Y-118372255D01*
X152536532Y-118327073D01*
X151563605Y-119300000D01*
X151204395Y-119300000D01*
X150231468Y-118327073D01*
X149964613Y-118425736D01*
X149738092Y-119035461D01*
X141120204Y-119035461D01*
X141119778Y-119026546D01*
X140953864Y-118625995D01*
X140707745Y-118551861D01*
X139879605Y-119380000D01*
X139520395Y-119380000D01*
X138692255Y-118551861D01*
X138446136Y-118625995D01*
X138253035Y-119163223D01*
X130956330Y-119163223D01*
X131031046Y-119015258D01*
X130777966Y-118472424D01*
X130668667Y-118372255D01*
X138871861Y-118372255D01*
X139700000Y-119200395D01*
X140528139Y-118372255D01*
X140460431Y-118147468D01*
X150411073Y-118147468D01*
X151384000Y-119120395D01*
X152356927Y-118147468D01*
X152258264Y-117880613D01*
X151648539Y-117654092D01*
X150998540Y-117678144D01*
X150509736Y-117880613D01*
X150411073Y-118147468D01*
X140460431Y-118147468D01*
X140454005Y-118126136D01*
X139916777Y-117933035D01*
X139346546Y-117960222D01*
X138945995Y-118126136D01*
X138871861Y-118372255D01*
X130668667Y-118372255D01*
X130336417Y-118067760D01*
X129904740Y-117888964D01*
X129667000Y-118009622D01*
X129413000Y-118009622D01*
X129175260Y-117888964D01*
X128743583Y-118067760D01*
X128302034Y-118472424D01*
X128048954Y-119015258D01*
X58816141Y-119015258D01*
X58682114Y-118814673D01*
X57396493Y-117955649D01*
X55880000Y-117654000D01*
X54363507Y-117955649D01*
X53077886Y-118814673D01*
X52218862Y-120100294D01*
X51917213Y-121616787D01*
X51510000Y-121616787D01*
X51510000Y-116323745D01*
X110931861Y-116323745D01*
X111005995Y-116569864D01*
X111543223Y-116762965D01*
X112113454Y-116735778D01*
X112514005Y-116569864D01*
X112588139Y-116323745D01*
X111760000Y-115495605D01*
X110931861Y-116323745D01*
X51510000Y-116323745D01*
X51510000Y-115099223D01*
X110313035Y-115099223D01*
X110340222Y-115669454D01*
X110506136Y-116070005D01*
X110752255Y-116144139D01*
X111580395Y-115316000D01*
X111939605Y-115316000D01*
X112767745Y-116144139D01*
X113013864Y-116070005D01*
X113206965Y-115532777D01*
X113192422Y-115227745D01*
X119059861Y-115227745D01*
X119133995Y-115473864D01*
X119671223Y-115666965D01*
X120241454Y-115639778D01*
X120642005Y-115473864D01*
X120716139Y-115227745D01*
X119888000Y-114399605D01*
X119059861Y-115227745D01*
X113192422Y-115227745D01*
X113179778Y-114962546D01*
X113013864Y-114561995D01*
X112767745Y-114487861D01*
X111939605Y-115316000D01*
X111580395Y-115316000D01*
X110752255Y-114487861D01*
X110506136Y-114561995D01*
X110313035Y-115099223D01*
X51510000Y-115099223D01*
X51510000Y-114308255D01*
X110931861Y-114308255D01*
X111760000Y-115136395D01*
X112588139Y-114308255D01*
X112514005Y-114062136D01*
X112350103Y-114003223D01*
X118441035Y-114003223D01*
X118468222Y-114573454D01*
X118634136Y-114974005D01*
X118880255Y-115048139D01*
X119708395Y-114220000D01*
X120067605Y-114220000D01*
X120895745Y-115048139D01*
X121141864Y-114974005D01*
X121334965Y-114436777D01*
X121307778Y-113866546D01*
X121141864Y-113465995D01*
X120895745Y-113391861D01*
X120067605Y-114220000D01*
X119708395Y-114220000D01*
X118880255Y-113391861D01*
X118634136Y-113465995D01*
X118441035Y-114003223D01*
X112350103Y-114003223D01*
X111976777Y-113869035D01*
X111406546Y-113896222D01*
X111005995Y-114062136D01*
X110931861Y-114308255D01*
X51510000Y-114308255D01*
X51510000Y-113212255D01*
X119059861Y-113212255D01*
X119888000Y-114040395D01*
X120628394Y-113300000D01*
X149736560Y-113300000D01*
X149736560Y-115300000D01*
X149780838Y-115535317D01*
X149919910Y-115751441D01*
X150132110Y-115896431D01*
X150384000Y-115947440D01*
X152384000Y-115947440D01*
X152619317Y-115903162D01*
X152835441Y-115764090D01*
X152980431Y-115551890D01*
X153031440Y-115300000D01*
X153031440Y-113300000D01*
X152987162Y-113064683D01*
X152848090Y-112848559D01*
X152635890Y-112703569D01*
X152384000Y-112652560D01*
X150384000Y-112652560D01*
X150148683Y-112696838D01*
X149932559Y-112835910D01*
X149787569Y-113048110D01*
X149736560Y-113300000D01*
X120628394Y-113300000D01*
X120716139Y-113212255D01*
X120642005Y-112966136D01*
X120104777Y-112773035D01*
X119534546Y-112800222D01*
X119133995Y-112966136D01*
X119059861Y-113212255D01*
X51510000Y-113212255D01*
X51510000Y-112640745D01*
X179638861Y-112640745D01*
X179712995Y-112886864D01*
X180250223Y-113079965D01*
X180820454Y-113052778D01*
X181221005Y-112886864D01*
X181295139Y-112640745D01*
X180467000Y-111812605D01*
X179638861Y-112640745D01*
X51510000Y-112640745D01*
X51510000Y-111416223D01*
X179020035Y-111416223D01*
X179047222Y-111986454D01*
X179213136Y-112387005D01*
X179459255Y-112461139D01*
X180287395Y-111633000D01*
X180646605Y-111633000D01*
X181474745Y-112461139D01*
X181720864Y-112387005D01*
X181913965Y-111849777D01*
X181886778Y-111279546D01*
X181720864Y-110878995D01*
X181474745Y-110804861D01*
X180646605Y-111633000D01*
X180287395Y-111633000D01*
X179459255Y-110804861D01*
X179213136Y-110878995D01*
X179020035Y-111416223D01*
X51510000Y-111416223D01*
X51510000Y-109504187D01*
X118452752Y-109504187D01*
X118670757Y-110031800D01*
X119074077Y-110435824D01*
X119601309Y-110654750D01*
X120172187Y-110655248D01*
X120699800Y-110437243D01*
X121103824Y-110033923D01*
X121257351Y-109664187D01*
X138264752Y-109664187D01*
X138482757Y-110191800D01*
X138886077Y-110595824D01*
X139413309Y-110814750D01*
X139984187Y-110815248D01*
X140511800Y-110597243D01*
X140915824Y-110193923D01*
X141134750Y-109666691D01*
X141135164Y-109191887D01*
X158077000Y-109191887D01*
X158077000Y-109248113D01*
X158186233Y-109797264D01*
X158497302Y-110262811D01*
X158962849Y-110573880D01*
X159512000Y-110683113D01*
X159802871Y-110625255D01*
X179638861Y-110625255D01*
X180467000Y-111453395D01*
X181295139Y-110625255D01*
X181221005Y-110379136D01*
X180683777Y-110186035D01*
X180113546Y-110213222D01*
X179712995Y-110379136D01*
X179638861Y-110625255D01*
X159802871Y-110625255D01*
X160061151Y-110573880D01*
X160526698Y-110262811D01*
X160837767Y-109797264D01*
X160947000Y-109248113D01*
X160947000Y-109191887D01*
X160888052Y-108895532D01*
X189019073Y-108895532D01*
X189117736Y-109162387D01*
X189727461Y-109388908D01*
X190377460Y-109364856D01*
X190866264Y-109162387D01*
X190964927Y-108895532D01*
X189992000Y-107922605D01*
X189019073Y-108895532D01*
X160888052Y-108895532D01*
X160837767Y-108642736D01*
X160526698Y-108177189D01*
X160061151Y-107866120D01*
X159512000Y-107756887D01*
X158962849Y-107866120D01*
X158497302Y-108177189D01*
X158186233Y-108642736D01*
X158077000Y-109191887D01*
X141135164Y-109191887D01*
X141135248Y-109095813D01*
X140917243Y-108568200D01*
X140513923Y-108164176D01*
X139986691Y-107945250D01*
X139415813Y-107944752D01*
X138888200Y-108162757D01*
X138484176Y-108566077D01*
X138265250Y-109093309D01*
X138264752Y-109664187D01*
X121257351Y-109664187D01*
X121322750Y-109506691D01*
X121323248Y-108935813D01*
X121105243Y-108408200D01*
X120701923Y-108004176D01*
X120174691Y-107785250D01*
X119603813Y-107784752D01*
X119076200Y-108002757D01*
X118672176Y-108406077D01*
X118453250Y-108933309D01*
X118452752Y-109504187D01*
X51510000Y-109504187D01*
X51510000Y-106083745D01*
X104835861Y-106083745D01*
X104909995Y-106329864D01*
X105447223Y-106522965D01*
X106017454Y-106495778D01*
X106418005Y-106329864D01*
X106492139Y-106083745D01*
X105664000Y-105255605D01*
X104835861Y-106083745D01*
X51510000Y-106083745D01*
X51510000Y-104859223D01*
X104217035Y-104859223D01*
X104244222Y-105429454D01*
X104410136Y-105830005D01*
X104656255Y-105904139D01*
X105484395Y-105076000D01*
X105843605Y-105076000D01*
X106671745Y-105904139D01*
X106917864Y-105830005D01*
X107110965Y-105292777D01*
X107103104Y-105127887D01*
X110325000Y-105127887D01*
X110325000Y-105184113D01*
X110434233Y-105733264D01*
X110745302Y-106198811D01*
X111210849Y-106509880D01*
X111760000Y-106619113D01*
X112309151Y-106509880D01*
X112774698Y-106198811D01*
X113054538Y-105780000D01*
X127992560Y-105780000D01*
X127992560Y-107580000D01*
X128036838Y-107815317D01*
X128175910Y-108031441D01*
X128388110Y-108176431D01*
X128640000Y-108227440D01*
X130440000Y-108227440D01*
X130675317Y-108183162D01*
X130891441Y-108044090D01*
X131036431Y-107831890D01*
X131087440Y-107580000D01*
X131087440Y-106775000D01*
X135169000Y-106775000D01*
X135169000Y-107225000D01*
X135288773Y-107573142D01*
X135532657Y-107848948D01*
X135833653Y-107993063D01*
X135977000Y-107863790D01*
X135977000Y-106775000D01*
X136231000Y-106775000D01*
X136231000Y-107863790D01*
X136374347Y-107993063D01*
X136675343Y-107848948D01*
X136919227Y-107573142D01*
X136951800Y-107478461D01*
X188346092Y-107478461D01*
X188370144Y-108128460D01*
X188572613Y-108617264D01*
X188839468Y-108715927D01*
X189812395Y-107743000D01*
X190171605Y-107743000D01*
X191144532Y-108715927D01*
X191411387Y-108617264D01*
X191637908Y-108007539D01*
X191613856Y-107357540D01*
X191411387Y-106868736D01*
X191144532Y-106770073D01*
X190171605Y-107743000D01*
X189812395Y-107743000D01*
X188839468Y-106770073D01*
X188572613Y-106868736D01*
X188346092Y-107478461D01*
X136951800Y-107478461D01*
X137039000Y-107225000D01*
X137039000Y-106775000D01*
X136231000Y-106775000D01*
X135977000Y-106775000D01*
X135169000Y-106775000D01*
X131087440Y-106775000D01*
X131087440Y-106071000D01*
X135169000Y-106071000D01*
X135169000Y-106521000D01*
X135977000Y-106521000D01*
X135977000Y-105432210D01*
X136231000Y-105432210D01*
X136231000Y-106521000D01*
X137039000Y-106521000D01*
X137039000Y-106071000D01*
X136919227Y-105722858D01*
X136675343Y-105447052D01*
X136374347Y-105302937D01*
X136231000Y-105432210D01*
X135977000Y-105432210D01*
X135833653Y-105302937D01*
X135532657Y-105447052D01*
X135288773Y-105722858D01*
X135169000Y-106071000D01*
X131087440Y-106071000D01*
X131087440Y-105780000D01*
X131043162Y-105544683D01*
X130904090Y-105328559D01*
X130691890Y-105183569D01*
X130440000Y-105132560D01*
X128640000Y-105132560D01*
X128404683Y-105176838D01*
X128188559Y-105315910D01*
X128043569Y-105528110D01*
X127992560Y-105780000D01*
X113054538Y-105780000D01*
X113085767Y-105733264D01*
X113195000Y-105184113D01*
X113195000Y-105127887D01*
X113085767Y-104578736D01*
X112774698Y-104113189D01*
X112479865Y-103916187D01*
X118532752Y-103916187D01*
X118750757Y-104443800D01*
X119154077Y-104847824D01*
X119681309Y-105066750D01*
X120252187Y-105067248D01*
X120779800Y-104849243D01*
X121183824Y-104445923D01*
X121402750Y-103918691D01*
X121402752Y-103916187D01*
X123532752Y-103916187D01*
X123750757Y-104443800D01*
X124154077Y-104847824D01*
X124681309Y-105066750D01*
X125252187Y-105067248D01*
X125779800Y-104849243D01*
X126183824Y-104445923D01*
X126298037Y-104170866D01*
X132669000Y-104170866D01*
X132669000Y-105125134D01*
X132740173Y-105482943D01*
X132942855Y-105786279D01*
X133246191Y-105988961D01*
X133604000Y-106060134D01*
X133961809Y-105988961D01*
X134265145Y-105786279D01*
X134467827Y-105482943D01*
X134532860Y-105156000D01*
X147888887Y-105156000D01*
X147998120Y-105705151D01*
X148309189Y-106170698D01*
X148774736Y-106481767D01*
X149323887Y-106591000D01*
X149380113Y-106591000D01*
X149929264Y-106481767D01*
X150394811Y-106170698D01*
X150705880Y-105705151D01*
X150758584Y-105440187D01*
X158076752Y-105440187D01*
X158294757Y-105967800D01*
X158698077Y-106371824D01*
X159225309Y-106590750D01*
X159796187Y-106591248D01*
X160323800Y-106373243D01*
X160727824Y-105969923D01*
X160920877Y-105505000D01*
X164522000Y-105505000D01*
X164522000Y-105955000D01*
X164641773Y-106303142D01*
X164885657Y-106578948D01*
X165186653Y-106723063D01*
X165330000Y-106593790D01*
X165330000Y-105505000D01*
X165584000Y-105505000D01*
X165584000Y-106593790D01*
X165727347Y-106723063D01*
X166028343Y-106578948D01*
X166272227Y-106303142D01*
X166392000Y-105955000D01*
X166392000Y-105505000D01*
X174682000Y-105505000D01*
X174682000Y-105955000D01*
X174801773Y-106303142D01*
X175045657Y-106578948D01*
X175346653Y-106723063D01*
X175490000Y-106593790D01*
X175490000Y-105505000D01*
X175744000Y-105505000D01*
X175744000Y-106593790D01*
X175887347Y-106723063D01*
X176164282Y-106590468D01*
X189019073Y-106590468D01*
X189992000Y-107563395D01*
X190964927Y-106590468D01*
X190866264Y-106323613D01*
X190256539Y-106097092D01*
X189606540Y-106121144D01*
X189117736Y-106323613D01*
X189019073Y-106590468D01*
X176164282Y-106590468D01*
X176188343Y-106578948D01*
X176432227Y-106303142D01*
X176552000Y-105955000D01*
X176552000Y-105505000D01*
X175744000Y-105505000D01*
X175490000Y-105505000D01*
X174682000Y-105505000D01*
X166392000Y-105505000D01*
X165584000Y-105505000D01*
X165330000Y-105505000D01*
X164522000Y-105505000D01*
X160920877Y-105505000D01*
X160946750Y-105442691D01*
X160947248Y-104871813D01*
X160917989Y-104801000D01*
X164522000Y-104801000D01*
X164522000Y-105251000D01*
X165330000Y-105251000D01*
X165330000Y-104162210D01*
X165584000Y-104162210D01*
X165584000Y-105251000D01*
X166392000Y-105251000D01*
X166392000Y-104801000D01*
X166272227Y-104452858D01*
X166028343Y-104177052D01*
X165727347Y-104032937D01*
X165584000Y-104162210D01*
X165330000Y-104162210D01*
X165186653Y-104032937D01*
X164885657Y-104177052D01*
X164641773Y-104452858D01*
X164522000Y-104801000D01*
X160917989Y-104801000D01*
X160729243Y-104344200D01*
X160325923Y-103940176D01*
X159798691Y-103721250D01*
X159227813Y-103720752D01*
X158700200Y-103938757D01*
X158296176Y-104342077D01*
X158077250Y-104869309D01*
X158076752Y-105440187D01*
X150758584Y-105440187D01*
X150815113Y-105156000D01*
X150705880Y-104606849D01*
X150394811Y-104141302D01*
X149929264Y-103830233D01*
X149380113Y-103721000D01*
X149323887Y-103721000D01*
X148774736Y-103830233D01*
X148309189Y-104141302D01*
X147998120Y-104606849D01*
X147888887Y-105156000D01*
X134532860Y-105156000D01*
X134539000Y-105125134D01*
X134539000Y-104170866D01*
X134467827Y-103813057D01*
X134265145Y-103509721D01*
X133961809Y-103307039D01*
X133604000Y-103235866D01*
X133246191Y-103307039D01*
X132942855Y-103509721D01*
X132740173Y-103813057D01*
X132669000Y-104170866D01*
X126298037Y-104170866D01*
X126402750Y-103918691D01*
X126403248Y-103347813D01*
X126185243Y-102820200D01*
X125781923Y-102416176D01*
X125254691Y-102197250D01*
X124683813Y-102196752D01*
X124156200Y-102414757D01*
X123752176Y-102818077D01*
X123533250Y-103345309D01*
X123532752Y-103916187D01*
X121402752Y-103916187D01*
X121403248Y-103347813D01*
X121185243Y-102820200D01*
X120781923Y-102416176D01*
X120254691Y-102197250D01*
X119683813Y-102196752D01*
X119156200Y-102414757D01*
X118752176Y-102818077D01*
X118533250Y-103345309D01*
X118532752Y-103916187D01*
X112479865Y-103916187D01*
X112309151Y-103802120D01*
X111760000Y-103692887D01*
X111210849Y-103802120D01*
X110745302Y-104113189D01*
X110434233Y-104578736D01*
X110325000Y-105127887D01*
X107103104Y-105127887D01*
X107083778Y-104722546D01*
X106917864Y-104321995D01*
X106671745Y-104247861D01*
X105843605Y-105076000D01*
X105484395Y-105076000D01*
X104656255Y-104247861D01*
X104410136Y-104321995D01*
X104217035Y-104859223D01*
X51510000Y-104859223D01*
X51510000Y-103473039D01*
X78872096Y-103473039D01*
X79032959Y-103861423D01*
X79408866Y-104276389D01*
X79914959Y-104515914D01*
X80137000Y-104394629D01*
X80137000Y-103251000D01*
X80391000Y-103251000D01*
X80391000Y-104394629D01*
X80613041Y-104515914D01*
X81119134Y-104276389D01*
X81495041Y-103861423D01*
X81655904Y-103473039D01*
X81620275Y-103408187D01*
X88988752Y-103408187D01*
X89206757Y-103935800D01*
X89610077Y-104339824D01*
X90137309Y-104558750D01*
X90708187Y-104559248D01*
X91235800Y-104341243D01*
X91509264Y-104068255D01*
X104835861Y-104068255D01*
X105664000Y-104896395D01*
X106492139Y-104068255D01*
X106418005Y-103822136D01*
X105880777Y-103629035D01*
X105310546Y-103656222D01*
X104909995Y-103822136D01*
X104835861Y-104068255D01*
X91509264Y-104068255D01*
X91639824Y-103937923D01*
X91858750Y-103410691D01*
X91859248Y-102839813D01*
X91641243Y-102312200D01*
X91237923Y-101908176D01*
X90710691Y-101689250D01*
X90139813Y-101688752D01*
X89612200Y-101906757D01*
X89208176Y-102310077D01*
X88989250Y-102837309D01*
X88988752Y-103408187D01*
X81620275Y-103408187D01*
X81533915Y-103251000D01*
X80391000Y-103251000D01*
X80137000Y-103251000D01*
X78994085Y-103251000D01*
X78872096Y-103473039D01*
X51510000Y-103473039D01*
X51510000Y-102774961D01*
X78872096Y-102774961D01*
X78994085Y-102997000D01*
X80137000Y-102997000D01*
X80137000Y-101853371D01*
X80391000Y-101853371D01*
X80391000Y-102997000D01*
X81533915Y-102997000D01*
X81655904Y-102774961D01*
X81495041Y-102386577D01*
X81119134Y-101971611D01*
X80613041Y-101732086D01*
X80391000Y-101853371D01*
X80137000Y-101853371D01*
X79914959Y-101732086D01*
X79408866Y-101971611D01*
X79032959Y-102386577D01*
X78872096Y-102774961D01*
X51510000Y-102774961D01*
X51510000Y-99853750D01*
X56885000Y-99853750D01*
X56885000Y-100594309D01*
X56981673Y-100827698D01*
X57160301Y-101006327D01*
X57393690Y-101103000D01*
X58134250Y-101103000D01*
X58293000Y-100944250D01*
X58293000Y-99695000D01*
X58547000Y-99695000D01*
X58547000Y-100944250D01*
X58705750Y-101103000D01*
X59446310Y-101103000D01*
X59679699Y-101006327D01*
X59858327Y-100827698D01*
X59955000Y-100594309D01*
X59955000Y-99917041D01*
X64648086Y-99917041D01*
X64887611Y-100423134D01*
X65302577Y-100799041D01*
X65690961Y-100959904D01*
X65913000Y-100837915D01*
X65913000Y-99695000D01*
X66167000Y-99695000D01*
X66167000Y-100837915D01*
X66389039Y-100959904D01*
X66777423Y-100799041D01*
X67192389Y-100423134D01*
X67222180Y-100360187D01*
X104228752Y-100360187D01*
X104446757Y-100887800D01*
X104850077Y-101291824D01*
X105377309Y-101510750D01*
X105948187Y-101511248D01*
X106275059Y-101376187D01*
X110324752Y-101376187D01*
X110542757Y-101903800D01*
X110946077Y-102307824D01*
X111473309Y-102526750D01*
X112044187Y-102527248D01*
X112571800Y-102309243D01*
X112710418Y-102170866D01*
X135169000Y-102170866D01*
X135169000Y-103125134D01*
X135240173Y-103482943D01*
X135442855Y-103786279D01*
X135746191Y-103988961D01*
X136104000Y-104060134D01*
X136461809Y-103988961D01*
X136765145Y-103786279D01*
X136967827Y-103482943D01*
X137039000Y-103125134D01*
X137039000Y-102900866D01*
X162022000Y-102900866D01*
X162022000Y-103855134D01*
X162093173Y-104212943D01*
X162295855Y-104516279D01*
X162599191Y-104718961D01*
X162957000Y-104790134D01*
X163314809Y-104718961D01*
X163618145Y-104516279D01*
X163820827Y-104212943D01*
X163892000Y-103855134D01*
X163892000Y-103662187D01*
X168236752Y-103662187D01*
X168454757Y-104189800D01*
X168858077Y-104593824D01*
X169385309Y-104812750D01*
X169956187Y-104813248D01*
X169985829Y-104801000D01*
X174682000Y-104801000D01*
X174682000Y-105251000D01*
X175490000Y-105251000D01*
X175490000Y-104162210D01*
X175744000Y-104162210D01*
X175744000Y-105251000D01*
X176552000Y-105251000D01*
X176552000Y-104801000D01*
X176432227Y-104452858D01*
X176188343Y-104177052D01*
X175887347Y-104032937D01*
X175744000Y-104162210D01*
X175490000Y-104162210D01*
X175346653Y-104032937D01*
X175045657Y-104177052D01*
X174801773Y-104452858D01*
X174682000Y-104801000D01*
X169985829Y-104801000D01*
X170483800Y-104595243D01*
X170887824Y-104191923D01*
X171106750Y-103664691D01*
X171107248Y-103093813D01*
X171027525Y-102900866D01*
X172182000Y-102900866D01*
X172182000Y-103855134D01*
X172253173Y-104212943D01*
X172455855Y-104516279D01*
X172759191Y-104718961D01*
X173117000Y-104790134D01*
X173474809Y-104718961D01*
X173778145Y-104516279D01*
X173980827Y-104212943D01*
X174052000Y-103855134D01*
X174052000Y-102900866D01*
X173980827Y-102543057D01*
X173778145Y-102239721D01*
X173474809Y-102037039D01*
X173117000Y-101965866D01*
X172759191Y-102037039D01*
X172455855Y-102239721D01*
X172253173Y-102543057D01*
X172182000Y-102900866D01*
X171027525Y-102900866D01*
X170889243Y-102566200D01*
X170485923Y-102162176D01*
X169958691Y-101943250D01*
X169387813Y-101942752D01*
X168860200Y-102160757D01*
X168456176Y-102564077D01*
X168237250Y-103091309D01*
X168236752Y-103662187D01*
X163892000Y-103662187D01*
X163892000Y-102900866D01*
X163820827Y-102543057D01*
X163618145Y-102239721D01*
X163314809Y-102037039D01*
X162957000Y-101965866D01*
X162599191Y-102037039D01*
X162295855Y-102239721D01*
X162093173Y-102543057D01*
X162022000Y-102900866D01*
X137039000Y-102900866D01*
X137039000Y-102170866D01*
X136967827Y-101813057D01*
X136765145Y-101509721D01*
X136461809Y-101307039D01*
X136104000Y-101235866D01*
X135746191Y-101307039D01*
X135442855Y-101509721D01*
X135240173Y-101813057D01*
X135169000Y-102170866D01*
X112710418Y-102170866D01*
X112975824Y-101905923D01*
X113194750Y-101378691D01*
X113195248Y-100807813D01*
X113102302Y-100582866D01*
X147885000Y-100582866D01*
X147885000Y-101537134D01*
X147956173Y-101894943D01*
X148158855Y-102198279D01*
X148462191Y-102400961D01*
X148820000Y-102472134D01*
X149177809Y-102400961D01*
X149481145Y-102198279D01*
X149683827Y-101894943D01*
X149755000Y-101537134D01*
X149755000Y-100900866D01*
X164522000Y-100900866D01*
X164522000Y-101855134D01*
X164593173Y-102212943D01*
X164795855Y-102516279D01*
X165099191Y-102718961D01*
X165457000Y-102790134D01*
X165814809Y-102718961D01*
X166118145Y-102516279D01*
X166320827Y-102212943D01*
X166392000Y-101855134D01*
X166392000Y-100900866D01*
X174682000Y-100900866D01*
X174682000Y-101855134D01*
X174753173Y-102212943D01*
X174955855Y-102516279D01*
X175259191Y-102718961D01*
X175617000Y-102790134D01*
X175974809Y-102718961D01*
X176278145Y-102516279D01*
X176480827Y-102212943D01*
X176552000Y-101855134D01*
X176552000Y-101444887D01*
X179032000Y-101444887D01*
X179032000Y-101501113D01*
X179141233Y-102050264D01*
X179452302Y-102515811D01*
X179917849Y-102826880D01*
X180467000Y-102936113D01*
X181016151Y-102826880D01*
X181481698Y-102515811D01*
X181792767Y-102050264D01*
X181853885Y-101743000D01*
X188344560Y-101743000D01*
X188344560Y-103743000D01*
X188388838Y-103978317D01*
X188527910Y-104194441D01*
X188740110Y-104339431D01*
X188992000Y-104390440D01*
X190992000Y-104390440D01*
X191227317Y-104346162D01*
X191443441Y-104207090D01*
X191588431Y-103994890D01*
X191639440Y-103743000D01*
X191639440Y-101743000D01*
X191595162Y-101507683D01*
X191456090Y-101291559D01*
X191243890Y-101146569D01*
X190992000Y-101095560D01*
X188992000Y-101095560D01*
X188756683Y-101139838D01*
X188540559Y-101278910D01*
X188395569Y-101491110D01*
X188344560Y-101743000D01*
X181853885Y-101743000D01*
X181902000Y-101501113D01*
X181902000Y-101444887D01*
X181792767Y-100895736D01*
X181481698Y-100430189D01*
X181016151Y-100119120D01*
X180467000Y-100009887D01*
X179917849Y-100119120D01*
X179452302Y-100430189D01*
X179141233Y-100895736D01*
X179032000Y-101444887D01*
X176552000Y-101444887D01*
X176552000Y-100900866D01*
X176480827Y-100543057D01*
X176278145Y-100239721D01*
X175974809Y-100037039D01*
X175617000Y-99965866D01*
X175259191Y-100037039D01*
X174955855Y-100239721D01*
X174753173Y-100543057D01*
X174682000Y-100900866D01*
X166392000Y-100900866D01*
X166320827Y-100543057D01*
X166118145Y-100239721D01*
X165814809Y-100037039D01*
X165457000Y-99965866D01*
X165099191Y-100037039D01*
X164795855Y-100239721D01*
X164593173Y-100543057D01*
X164522000Y-100900866D01*
X149755000Y-100900866D01*
X149755000Y-100582866D01*
X149683827Y-100225057D01*
X149481145Y-99921721D01*
X149177809Y-99719039D01*
X148820000Y-99647866D01*
X148462191Y-99719039D01*
X148158855Y-99921721D01*
X147956173Y-100225057D01*
X147885000Y-100582866D01*
X113102302Y-100582866D01*
X112977243Y-100280200D01*
X112573923Y-99876176D01*
X112046691Y-99657250D01*
X111475813Y-99656752D01*
X110948200Y-99874757D01*
X110544176Y-100278077D01*
X110325250Y-100805309D01*
X110324752Y-101376187D01*
X106275059Y-101376187D01*
X106475800Y-101293243D01*
X106879824Y-100889923D01*
X107098750Y-100362691D01*
X107099248Y-99791813D01*
X106914293Y-99344187D01*
X141820752Y-99344187D01*
X142038757Y-99871800D01*
X142442077Y-100275824D01*
X142969309Y-100494750D01*
X143540187Y-100495248D01*
X144067800Y-100277243D01*
X144471824Y-99873923D01*
X144690750Y-99346691D01*
X144691248Y-98775813D01*
X144611525Y-98582866D01*
X145385000Y-98582866D01*
X145385000Y-99537134D01*
X145456173Y-99894943D01*
X145658855Y-100198279D01*
X145962191Y-100400961D01*
X146320000Y-100472134D01*
X146677809Y-100400961D01*
X146981145Y-100198279D01*
X147183827Y-99894943D01*
X147255000Y-99537134D01*
X147255000Y-98582866D01*
X147183827Y-98225057D01*
X146981145Y-97921721D01*
X146677809Y-97719039D01*
X146320000Y-97647866D01*
X145962191Y-97719039D01*
X145658855Y-97921721D01*
X145456173Y-98225057D01*
X145385000Y-98582866D01*
X144611525Y-98582866D01*
X144473243Y-98248200D01*
X144069923Y-97844176D01*
X143542691Y-97625250D01*
X142971813Y-97624752D01*
X142444200Y-97842757D01*
X142040176Y-98246077D01*
X141821250Y-98773309D01*
X141820752Y-99344187D01*
X106914293Y-99344187D01*
X106881243Y-99264200D01*
X106477923Y-98860176D01*
X105950691Y-98641250D01*
X105379813Y-98640752D01*
X104852200Y-98858757D01*
X104448176Y-99262077D01*
X104229250Y-99789309D01*
X104228752Y-100360187D01*
X67222180Y-100360187D01*
X67431914Y-99917041D01*
X67310629Y-99695000D01*
X66167000Y-99695000D01*
X65913000Y-99695000D01*
X64769371Y-99695000D01*
X64648086Y-99917041D01*
X59955000Y-99917041D01*
X59955000Y-99853750D01*
X59796250Y-99695000D01*
X58547000Y-99695000D01*
X58293000Y-99695000D01*
X57043750Y-99695000D01*
X56885000Y-99853750D01*
X51510000Y-99853750D01*
X51510000Y-97331991D01*
X56884735Y-97331991D01*
X57117932Y-97896371D01*
X57295092Y-98073841D01*
X57160301Y-98129673D01*
X56981673Y-98308302D01*
X56885000Y-98541691D01*
X56885000Y-99282250D01*
X57043750Y-99441000D01*
X58293000Y-99441000D01*
X58293000Y-99421000D01*
X58547000Y-99421000D01*
X58547000Y-99441000D01*
X59796250Y-99441000D01*
X59955000Y-99282250D01*
X59955000Y-99218959D01*
X64648086Y-99218959D01*
X64769371Y-99441000D01*
X65913000Y-99441000D01*
X65913000Y-98298085D01*
X66167000Y-98298085D01*
X66167000Y-99441000D01*
X67310629Y-99441000D01*
X67431914Y-99218959D01*
X67192389Y-98712866D01*
X66777423Y-98336959D01*
X66389039Y-98176096D01*
X66167000Y-98298085D01*
X65913000Y-98298085D01*
X65690961Y-98176096D01*
X65302577Y-98336959D01*
X64887611Y-98712866D01*
X64648086Y-99218959D01*
X59955000Y-99218959D01*
X59955000Y-98541691D01*
X59858327Y-98308302D01*
X59679699Y-98129673D01*
X59545006Y-98073881D01*
X59583208Y-98035745D01*
X76387861Y-98035745D01*
X76461995Y-98281864D01*
X76999223Y-98474965D01*
X77569454Y-98447778D01*
X77970005Y-98281864D01*
X78044139Y-98035745D01*
X77216000Y-97207605D01*
X76387861Y-98035745D01*
X59583208Y-98035745D01*
X59720551Y-97898643D01*
X59954733Y-97334670D01*
X59955189Y-96811223D01*
X75769035Y-96811223D01*
X75796222Y-97381454D01*
X75962136Y-97782005D01*
X76208255Y-97856139D01*
X77036395Y-97028000D01*
X77395605Y-97028000D01*
X78223745Y-97856139D01*
X78469864Y-97782005D01*
X78638735Y-97312187D01*
X80780752Y-97312187D01*
X80998757Y-97839800D01*
X81402077Y-98243824D01*
X81929309Y-98462750D01*
X82500187Y-98463248D01*
X83027800Y-98245243D01*
X83431824Y-97841923D01*
X83650750Y-97314691D01*
X83650752Y-97312187D01*
X88560752Y-97312187D01*
X88778757Y-97839800D01*
X89182077Y-98243824D01*
X89709309Y-98462750D01*
X90280187Y-98463248D01*
X90807800Y-98245243D01*
X91211824Y-97841923D01*
X91430750Y-97314691D01*
X91430752Y-97312187D01*
X93560752Y-97312187D01*
X93778757Y-97839800D01*
X94182077Y-98243824D01*
X94709309Y-98462750D01*
X95280187Y-98463248D01*
X95807800Y-98245243D01*
X96211824Y-97841923D01*
X96430750Y-97314691D01*
X96431000Y-97028000D01*
X123123887Y-97028000D01*
X123233120Y-97577151D01*
X123544189Y-98042698D01*
X124009736Y-98353767D01*
X124558887Y-98463000D01*
X124615113Y-98463000D01*
X125164264Y-98353767D01*
X125629811Y-98042698D01*
X125940880Y-97577151D01*
X125993584Y-97312187D01*
X133311752Y-97312187D01*
X133529757Y-97839800D01*
X133933077Y-98243824D01*
X134460309Y-98462750D01*
X135031187Y-98463248D01*
X135558800Y-98245243D01*
X135962824Y-97841923D01*
X136181750Y-97314691D01*
X136182248Y-96743813D01*
X136115747Y-96582866D01*
X147885000Y-96582866D01*
X147885000Y-97537134D01*
X147956173Y-97894943D01*
X148158855Y-98198279D01*
X148462191Y-98400961D01*
X148820000Y-98472134D01*
X149177809Y-98400961D01*
X149373975Y-98269887D01*
X174587000Y-98269887D01*
X174587000Y-98326113D01*
X174696233Y-98875264D01*
X175007302Y-99340811D01*
X175472849Y-99651880D01*
X176022000Y-99761113D01*
X176571151Y-99651880D01*
X177036698Y-99340811D01*
X177347767Y-98875264D01*
X177457000Y-98326113D01*
X177457000Y-98269887D01*
X184112000Y-98269887D01*
X184112000Y-98326113D01*
X184221233Y-98875264D01*
X184532302Y-99340811D01*
X184997849Y-99651880D01*
X185547000Y-99761113D01*
X186096151Y-99651880D01*
X186561698Y-99340811D01*
X186872767Y-98875264D01*
X186931063Y-98582187D01*
X188556752Y-98582187D01*
X188774757Y-99109800D01*
X189178077Y-99513824D01*
X189705309Y-99732750D01*
X190276187Y-99733248D01*
X190803800Y-99515243D01*
X191207824Y-99111923D01*
X191426750Y-98584691D01*
X191427248Y-98013813D01*
X191209243Y-97486200D01*
X190805923Y-97082176D01*
X190278691Y-96863250D01*
X189707813Y-96862752D01*
X189180200Y-97080757D01*
X188776176Y-97484077D01*
X188557250Y-98011309D01*
X188556752Y-98582187D01*
X186931063Y-98582187D01*
X186982000Y-98326113D01*
X186982000Y-98269887D01*
X186872767Y-97720736D01*
X186561698Y-97255189D01*
X186096151Y-96944120D01*
X185547000Y-96834887D01*
X184997849Y-96944120D01*
X184532302Y-97255189D01*
X184221233Y-97720736D01*
X184112000Y-98269887D01*
X177457000Y-98269887D01*
X177347767Y-97720736D01*
X177036698Y-97255189D01*
X176571151Y-96944120D01*
X176022000Y-96834887D01*
X175472849Y-96944120D01*
X175007302Y-97255189D01*
X174696233Y-97720736D01*
X174587000Y-98269887D01*
X149373975Y-98269887D01*
X149481145Y-98198279D01*
X149683827Y-97894943D01*
X149755000Y-97537134D01*
X149755000Y-96582866D01*
X149683827Y-96225057D01*
X149561638Y-96042187D01*
X163156752Y-96042187D01*
X163374757Y-96569800D01*
X163778077Y-96973824D01*
X164305309Y-97192750D01*
X164876187Y-97193248D01*
X165403800Y-96975243D01*
X165807824Y-96571923D01*
X166026750Y-96044691D01*
X166027248Y-95473813D01*
X165809243Y-94946200D01*
X165405923Y-94542176D01*
X164878691Y-94323250D01*
X164307813Y-94322752D01*
X163780200Y-94540757D01*
X163376176Y-94944077D01*
X163157250Y-95471309D01*
X163156752Y-96042187D01*
X149561638Y-96042187D01*
X149481145Y-95921721D01*
X149177809Y-95719039D01*
X148820000Y-95647866D01*
X148462191Y-95719039D01*
X148158855Y-95921721D01*
X147956173Y-96225057D01*
X147885000Y-96582866D01*
X136115747Y-96582866D01*
X135964243Y-96216200D01*
X135560923Y-95812176D01*
X135033691Y-95593250D01*
X134462813Y-95592752D01*
X133935200Y-95810757D01*
X133531176Y-96214077D01*
X133312250Y-96741309D01*
X133311752Y-97312187D01*
X125993584Y-97312187D01*
X126050113Y-97028000D01*
X125940880Y-96478849D01*
X125629811Y-96013302D01*
X125164264Y-95702233D01*
X124615113Y-95593000D01*
X124558887Y-95593000D01*
X124009736Y-95702233D01*
X123544189Y-96013302D01*
X123233120Y-96478849D01*
X123123887Y-97028000D01*
X96431000Y-97028000D01*
X96431248Y-96743813D01*
X96213243Y-96216200D01*
X95809923Y-95812176D01*
X95282691Y-95593250D01*
X94711813Y-95592752D01*
X94184200Y-95810757D01*
X93780176Y-96214077D01*
X93561250Y-96741309D01*
X93560752Y-97312187D01*
X91430752Y-97312187D01*
X91431248Y-96743813D01*
X91213243Y-96216200D01*
X90809923Y-95812176D01*
X90282691Y-95593250D01*
X89711813Y-95592752D01*
X89184200Y-95810757D01*
X88780176Y-96214077D01*
X88561250Y-96741309D01*
X88560752Y-97312187D01*
X83650752Y-97312187D01*
X83651248Y-96743813D01*
X83433243Y-96216200D01*
X83029923Y-95812176D01*
X82502691Y-95593250D01*
X81931813Y-95592752D01*
X81404200Y-95810757D01*
X81000176Y-96214077D01*
X80781250Y-96741309D01*
X80780752Y-97312187D01*
X78638735Y-97312187D01*
X78662965Y-97244777D01*
X78635778Y-96674546D01*
X78469864Y-96273995D01*
X78223745Y-96199861D01*
X77395605Y-97028000D01*
X77036395Y-97028000D01*
X76208255Y-96199861D01*
X75962136Y-96273995D01*
X75769035Y-96811223D01*
X59955189Y-96811223D01*
X59955265Y-96724009D01*
X59722068Y-96159629D01*
X59582938Y-96020255D01*
X76387861Y-96020255D01*
X77216000Y-96848395D01*
X78044139Y-96020255D01*
X77970005Y-95774136D01*
X77432777Y-95581035D01*
X76862546Y-95608222D01*
X76461995Y-95774136D01*
X76387861Y-96020255D01*
X59582938Y-96020255D01*
X59290643Y-95727449D01*
X58726670Y-95493267D01*
X58116009Y-95492735D01*
X57551629Y-95725932D01*
X57119449Y-96157357D01*
X56885267Y-96721330D01*
X56884735Y-97331991D01*
X51510000Y-97331991D01*
X51510000Y-93189887D01*
X168237000Y-93189887D01*
X168237000Y-93246113D01*
X168346233Y-93795264D01*
X168657302Y-94260811D01*
X169122849Y-94571880D01*
X169672000Y-94681113D01*
X170221151Y-94571880D01*
X170686698Y-94260811D01*
X170997767Y-93795264D01*
X171107000Y-93246113D01*
X171107000Y-93189887D01*
X170997767Y-92640736D01*
X170686698Y-92175189D01*
X170221151Y-91864120D01*
X169672000Y-91754887D01*
X169122849Y-91864120D01*
X168657302Y-92175189D01*
X168346233Y-92640736D01*
X168237000Y-93189887D01*
X51510000Y-93189887D01*
X51510000Y-90903887D01*
X110325000Y-90903887D01*
X110325000Y-90960113D01*
X110434233Y-91509264D01*
X110745302Y-91974811D01*
X111210849Y-92285880D01*
X111760000Y-92395113D01*
X112309151Y-92285880D01*
X112774698Y-91974811D01*
X113085767Y-91509264D01*
X113195000Y-90960113D01*
X113195000Y-90903887D01*
X113085767Y-90354736D01*
X112774698Y-89889189D01*
X112772750Y-89887887D01*
X131661000Y-89887887D01*
X131661000Y-89944113D01*
X131770233Y-90493264D01*
X132081302Y-90958811D01*
X132546849Y-91269880D01*
X133096000Y-91379113D01*
X133645151Y-91269880D01*
X134110698Y-90958811D01*
X134421767Y-90493264D01*
X134531000Y-89944113D01*
X134531000Y-89887887D01*
X134421767Y-89338736D01*
X134110698Y-88873189D01*
X134108750Y-88871887D01*
X141821000Y-88871887D01*
X141821000Y-88928113D01*
X141930233Y-89477264D01*
X142241302Y-89942811D01*
X142706849Y-90253880D01*
X143256000Y-90363113D01*
X143805151Y-90253880D01*
X144168646Y-90011000D01*
X201733000Y-90011000D01*
X201733000Y-90461000D01*
X201852773Y-90809142D01*
X202096657Y-91084948D01*
X202397653Y-91229063D01*
X202541000Y-91099790D01*
X202541000Y-90011000D01*
X202795000Y-90011000D01*
X202795000Y-91099790D01*
X202938347Y-91229063D01*
X203239343Y-91084948D01*
X203269587Y-91050745D01*
X220278861Y-91050745D01*
X220352995Y-91296864D01*
X220890223Y-91489965D01*
X221460454Y-91462778D01*
X221861005Y-91296864D01*
X221935139Y-91050745D01*
X221107000Y-90222605D01*
X220278861Y-91050745D01*
X203269587Y-91050745D01*
X203483227Y-90809142D01*
X203603000Y-90461000D01*
X203603000Y-90011000D01*
X202795000Y-90011000D01*
X202541000Y-90011000D01*
X201733000Y-90011000D01*
X144168646Y-90011000D01*
X144270698Y-89942811D01*
X144348599Y-89826223D01*
X219660035Y-89826223D01*
X219687222Y-90396454D01*
X219853136Y-90797005D01*
X220099255Y-90871139D01*
X220927395Y-90043000D01*
X221286605Y-90043000D01*
X222114745Y-90871139D01*
X222360864Y-90797005D01*
X222553965Y-90259777D01*
X222543630Y-90043000D01*
X229803887Y-90043000D01*
X229913120Y-90592151D01*
X230224189Y-91057698D01*
X230689736Y-91368767D01*
X231238887Y-91478000D01*
X231295113Y-91478000D01*
X231844264Y-91368767D01*
X232309811Y-91057698D01*
X232620880Y-90592151D01*
X232730113Y-90043000D01*
X232620880Y-89493849D01*
X232309811Y-89028302D01*
X231844264Y-88717233D01*
X231295113Y-88608000D01*
X231238887Y-88608000D01*
X230689736Y-88717233D01*
X230224189Y-89028302D01*
X229913120Y-89493849D01*
X229803887Y-90043000D01*
X222543630Y-90043000D01*
X222526778Y-89689546D01*
X222360864Y-89288995D01*
X222114745Y-89214861D01*
X221286605Y-90043000D01*
X220927395Y-90043000D01*
X220099255Y-89214861D01*
X219853136Y-89288995D01*
X219660035Y-89826223D01*
X144348599Y-89826223D01*
X144581767Y-89477264D01*
X144691000Y-88928113D01*
X144691000Y-88871887D01*
X144601550Y-88422187D01*
X174586752Y-88422187D01*
X174804757Y-88949800D01*
X175208077Y-89353824D01*
X175735309Y-89572750D01*
X176306187Y-89573248D01*
X176833800Y-89355243D01*
X177237824Y-88951923D01*
X177456750Y-88424691D01*
X177456752Y-88422187D01*
X184111752Y-88422187D01*
X184329757Y-88949800D01*
X184733077Y-89353824D01*
X185260309Y-89572750D01*
X185831187Y-89573248D01*
X186358800Y-89355243D01*
X186762824Y-88951923D01*
X186981750Y-88424691D01*
X186982024Y-88109887D01*
X188557000Y-88109887D01*
X188557000Y-88166113D01*
X188666233Y-88715264D01*
X188977302Y-89180811D01*
X189442849Y-89491880D01*
X189992000Y-89601113D01*
X190541151Y-89491880D01*
X190817843Y-89307000D01*
X201733000Y-89307000D01*
X201733000Y-89757000D01*
X202541000Y-89757000D01*
X202541000Y-88668210D01*
X202795000Y-88668210D01*
X202795000Y-89757000D01*
X203603000Y-89757000D01*
X203603000Y-89307000D01*
X203509511Y-89035255D01*
X220278861Y-89035255D01*
X221107000Y-89863395D01*
X221935139Y-89035255D01*
X221861005Y-88789136D01*
X221323777Y-88596035D01*
X220753546Y-88623222D01*
X220352995Y-88789136D01*
X220278861Y-89035255D01*
X203509511Y-89035255D01*
X203483227Y-88958858D01*
X203239343Y-88683052D01*
X202938347Y-88538937D01*
X202795000Y-88668210D01*
X202541000Y-88668210D01*
X202397653Y-88538937D01*
X202096657Y-88683052D01*
X201852773Y-88958858D01*
X201733000Y-89307000D01*
X190817843Y-89307000D01*
X191006698Y-89180811D01*
X191317767Y-88715264D01*
X191427000Y-88166113D01*
X191427000Y-88109887D01*
X191317767Y-87560736D01*
X191214955Y-87406866D01*
X199233000Y-87406866D01*
X199233000Y-88361134D01*
X199304173Y-88718943D01*
X199506855Y-89022279D01*
X199810191Y-89224961D01*
X200168000Y-89296134D01*
X200525809Y-89224961D01*
X200829145Y-89022279D01*
X201031827Y-88718943D01*
X201103000Y-88361134D01*
X201103000Y-87406866D01*
X201031827Y-87049057D01*
X200829145Y-86745721D01*
X200525809Y-86543039D01*
X200168000Y-86471866D01*
X199810191Y-86543039D01*
X199506855Y-86745721D01*
X199304173Y-87049057D01*
X199233000Y-87406866D01*
X191214955Y-87406866D01*
X191006698Y-87095189D01*
X190541151Y-86784120D01*
X189992000Y-86674887D01*
X189442849Y-86784120D01*
X188977302Y-87095189D01*
X188666233Y-87560736D01*
X188557000Y-88109887D01*
X186982024Y-88109887D01*
X186982248Y-87853813D01*
X186764243Y-87326200D01*
X186360923Y-86922176D01*
X185833691Y-86703250D01*
X185262813Y-86702752D01*
X184735200Y-86920757D01*
X184331176Y-87324077D01*
X184112250Y-87851309D01*
X184111752Y-88422187D01*
X177456752Y-88422187D01*
X177457248Y-87853813D01*
X177239243Y-87326200D01*
X176835923Y-86922176D01*
X176308691Y-86703250D01*
X175737813Y-86702752D01*
X175210200Y-86920757D01*
X174806176Y-87324077D01*
X174587250Y-87851309D01*
X174586752Y-88422187D01*
X144601550Y-88422187D01*
X144581767Y-88322736D01*
X144270698Y-87857189D01*
X143805151Y-87546120D01*
X143256000Y-87436887D01*
X142706849Y-87546120D01*
X142241302Y-87857189D01*
X141930233Y-88322736D01*
X141821000Y-88871887D01*
X134108750Y-88871887D01*
X133645151Y-88562120D01*
X133096000Y-88452887D01*
X132546849Y-88562120D01*
X132081302Y-88873189D01*
X131770233Y-89338736D01*
X131661000Y-89887887D01*
X112772750Y-89887887D01*
X112309151Y-89578120D01*
X111760000Y-89468887D01*
X111210849Y-89578120D01*
X110745302Y-89889189D01*
X110434233Y-90354736D01*
X110325000Y-90903887D01*
X51510000Y-90903887D01*
X51510000Y-89692187D01*
X64604752Y-89692187D01*
X64822757Y-90219800D01*
X65226077Y-90623824D01*
X65753309Y-90842750D01*
X66324187Y-90843248D01*
X66851800Y-90625243D01*
X67255824Y-90221923D01*
X67474750Y-89694691D01*
X67475248Y-89123813D01*
X67257243Y-88596200D01*
X66853923Y-88192176D01*
X66326691Y-87973250D01*
X65755813Y-87972752D01*
X65228200Y-88190757D01*
X64824176Y-88594077D01*
X64605250Y-89121309D01*
X64604752Y-89692187D01*
X51510000Y-89692187D01*
X51510000Y-86331887D01*
X64605000Y-86331887D01*
X64605000Y-86388113D01*
X64714233Y-86937264D01*
X65025302Y-87402811D01*
X65490849Y-87713880D01*
X66040000Y-87823113D01*
X66589151Y-87713880D01*
X67054698Y-87402811D01*
X67365767Y-86937264D01*
X67440054Y-86563795D01*
X71008716Y-86563795D01*
X71257106Y-87164943D01*
X71716637Y-87625278D01*
X72317352Y-87874716D01*
X72967795Y-87875284D01*
X73026890Y-87850866D01*
X88981000Y-87850866D01*
X88981000Y-88805134D01*
X89052173Y-89162943D01*
X89254855Y-89466279D01*
X89558191Y-89668961D01*
X89916000Y-89740134D01*
X90273809Y-89668961D01*
X90577145Y-89466279D01*
X90779827Y-89162943D01*
X90851000Y-88805134D01*
X90851000Y-87850866D01*
X90779827Y-87493057D01*
X90577145Y-87189721D01*
X90273809Y-86987039D01*
X89916000Y-86915866D01*
X89558191Y-86987039D01*
X89254855Y-87189721D01*
X89052173Y-87493057D01*
X88981000Y-87850866D01*
X73026890Y-87850866D01*
X73568943Y-87626894D01*
X74029278Y-87167363D01*
X74278716Y-86566648D01*
X74279284Y-85916205D01*
X74252287Y-85850866D01*
X86481000Y-85850866D01*
X86481000Y-86805134D01*
X86552173Y-87162943D01*
X86754855Y-87466279D01*
X87058191Y-87668961D01*
X87416000Y-87740134D01*
X87773809Y-87668961D01*
X88077145Y-87466279D01*
X88279827Y-87162943D01*
X88351000Y-86805134D01*
X88351000Y-86052661D01*
X108762758Y-86052661D01*
X108974990Y-86566303D01*
X109367630Y-86959629D01*
X109880900Y-87172757D01*
X110436661Y-87173242D01*
X110950303Y-86961010D01*
X111343629Y-86568370D01*
X111556757Y-86055100D01*
X111557180Y-85569887D01*
X163157000Y-85569887D01*
X163157000Y-85626113D01*
X163266233Y-86175264D01*
X163577302Y-86640811D01*
X164042849Y-86951880D01*
X164592000Y-87061113D01*
X165141151Y-86951880D01*
X165606698Y-86640811D01*
X165917767Y-86175264D01*
X166027000Y-85626113D01*
X166027000Y-85569887D01*
X165994574Y-85406866D01*
X201733000Y-85406866D01*
X201733000Y-86361134D01*
X201804173Y-86718943D01*
X202006855Y-87022279D01*
X202310191Y-87224961D01*
X202668000Y-87296134D01*
X203025809Y-87224961D01*
X203329145Y-87022279D01*
X203531827Y-86718943D01*
X203603000Y-86361134D01*
X203603000Y-85406866D01*
X203531827Y-85049057D01*
X203329145Y-84745721D01*
X203025809Y-84543039D01*
X202668000Y-84471866D01*
X202310191Y-84543039D01*
X202006855Y-84745721D01*
X201804173Y-85049057D01*
X201733000Y-85406866D01*
X165994574Y-85406866D01*
X165917767Y-85020736D01*
X165606698Y-84555189D01*
X165141151Y-84244120D01*
X164592000Y-84134887D01*
X164042849Y-84244120D01*
X163577302Y-84555189D01*
X163266233Y-85020736D01*
X163157000Y-85569887D01*
X111557180Y-85569887D01*
X111557242Y-85499339D01*
X111345010Y-84985697D01*
X110952370Y-84592371D01*
X110439100Y-84379243D01*
X109883339Y-84378758D01*
X109369697Y-84590990D01*
X108976371Y-84983630D01*
X108763243Y-85496900D01*
X108762758Y-86052661D01*
X88351000Y-86052661D01*
X88351000Y-85850866D01*
X88279827Y-85493057D01*
X88077145Y-85189721D01*
X87773809Y-84987039D01*
X87416000Y-84915866D01*
X87058191Y-84987039D01*
X86754855Y-85189721D01*
X86552173Y-85493057D01*
X86481000Y-85850866D01*
X74252287Y-85850866D01*
X74030894Y-85315057D01*
X73571363Y-84854722D01*
X72970648Y-84605284D01*
X72320205Y-84604716D01*
X71719057Y-84853106D01*
X71258722Y-85312637D01*
X71009284Y-85913352D01*
X71008716Y-86563795D01*
X67440054Y-86563795D01*
X67475000Y-86388113D01*
X67475000Y-86331887D01*
X67365767Y-85782736D01*
X67054698Y-85317189D01*
X66589151Y-85006120D01*
X66040000Y-84896887D01*
X65490849Y-85006120D01*
X65025302Y-85317189D01*
X64714233Y-85782736D01*
X64605000Y-86331887D01*
X51510000Y-86331887D01*
X51510000Y-83850866D01*
X88981000Y-83850866D01*
X88981000Y-84805134D01*
X89052173Y-85162943D01*
X89254855Y-85466279D01*
X89558191Y-85668961D01*
X89916000Y-85740134D01*
X90273809Y-85668961D01*
X90577145Y-85466279D01*
X90779827Y-85162943D01*
X90851000Y-84805134D01*
X90851000Y-83850866D01*
X90779827Y-83493057D01*
X90577145Y-83189721D01*
X90273809Y-82987039D01*
X89916000Y-82915866D01*
X89558191Y-82987039D01*
X89254855Y-83189721D01*
X89052173Y-83493057D01*
X88981000Y-83850866D01*
X51510000Y-83850866D01*
X51510000Y-79727887D01*
X57493000Y-79727887D01*
X57493000Y-79784113D01*
X57602233Y-80333264D01*
X57913302Y-80798811D01*
X58378849Y-81109880D01*
X58928000Y-81219113D01*
X59477151Y-81109880D01*
X59942698Y-80798811D01*
X59961370Y-80770866D01*
X126549000Y-80770866D01*
X126549000Y-81725134D01*
X126620173Y-82082943D01*
X126822855Y-82386279D01*
X127126191Y-82588961D01*
X127484000Y-82660134D01*
X127841809Y-82588961D01*
X128003721Y-82480775D01*
X137040803Y-82480775D01*
X137213233Y-82898086D01*
X137532235Y-83217645D01*
X137949244Y-83390803D01*
X138400775Y-83391197D01*
X138818086Y-83218767D01*
X139137645Y-82899765D01*
X139270345Y-82580187D01*
X141820752Y-82580187D01*
X142038757Y-83107800D01*
X142442077Y-83511824D01*
X142969309Y-83730750D01*
X143540187Y-83731248D01*
X144067800Y-83513243D01*
X144471824Y-83109923D01*
X144639054Y-82707187D01*
X188556752Y-82707187D01*
X188774757Y-83234800D01*
X189178077Y-83638824D01*
X189705309Y-83857750D01*
X190276187Y-83858248D01*
X190803800Y-83640243D01*
X191207824Y-83236923D01*
X191426750Y-82709691D01*
X191426862Y-82580187D01*
X201256752Y-82580187D01*
X201474757Y-83107800D01*
X201878077Y-83511824D01*
X202405309Y-83730750D01*
X202976187Y-83731248D01*
X203503800Y-83513243D01*
X203907824Y-83109923D01*
X204126750Y-82582691D01*
X204127248Y-82011813D01*
X203909243Y-81484200D01*
X203505923Y-81080176D01*
X202978691Y-80861250D01*
X202407813Y-80860752D01*
X201880200Y-81078757D01*
X201476176Y-81482077D01*
X201257250Y-82009309D01*
X201256752Y-82580187D01*
X191426862Y-82580187D01*
X191427248Y-82138813D01*
X191209243Y-81611200D01*
X190805923Y-81207176D01*
X190278691Y-80988250D01*
X189707813Y-80987752D01*
X189180200Y-81205757D01*
X188776176Y-81609077D01*
X188557250Y-82136309D01*
X188556752Y-82707187D01*
X144639054Y-82707187D01*
X144690750Y-82582691D01*
X144691248Y-82011813D01*
X144473243Y-81484200D01*
X144069923Y-81080176D01*
X143542691Y-80861250D01*
X142971813Y-80860752D01*
X142444200Y-81078757D01*
X142040176Y-81482077D01*
X141821250Y-82009309D01*
X141820752Y-82580187D01*
X139270345Y-82580187D01*
X139310803Y-82482756D01*
X139311197Y-82031225D01*
X139138767Y-81613914D01*
X138819765Y-81294355D01*
X138402756Y-81121197D01*
X137951225Y-81120803D01*
X137533914Y-81293233D01*
X137214355Y-81612235D01*
X137041197Y-82029244D01*
X137040803Y-82480775D01*
X128003721Y-82480775D01*
X128145145Y-82386279D01*
X128347827Y-82082943D01*
X128419000Y-81725134D01*
X128419000Y-80770866D01*
X128347827Y-80413057D01*
X128145145Y-80109721D01*
X128041080Y-80040187D01*
X131660752Y-80040187D01*
X131878757Y-80567800D01*
X132282077Y-80971824D01*
X132809309Y-81190750D01*
X133380187Y-81191248D01*
X133907800Y-80973243D01*
X134311824Y-80569923D01*
X134530750Y-80042691D01*
X134530804Y-79980775D01*
X137040803Y-79980775D01*
X137213233Y-80398086D01*
X137532235Y-80717645D01*
X137949244Y-80890803D01*
X138400775Y-80891197D01*
X138818086Y-80718767D01*
X139137645Y-80399765D01*
X139189545Y-80274775D01*
X210446803Y-80274775D01*
X210619233Y-80692086D01*
X210938235Y-81011645D01*
X211355244Y-81184803D01*
X211806775Y-81185197D01*
X212224086Y-81012767D01*
X212397050Y-80840104D01*
X223671501Y-80840104D01*
X223708648Y-81055217D01*
X224136972Y-81198112D01*
X224587375Y-81166217D01*
X224855352Y-81055217D01*
X224892499Y-80840104D01*
X224282000Y-80229605D01*
X223671501Y-80840104D01*
X212397050Y-80840104D01*
X212543645Y-80693765D01*
X212716803Y-80276756D01*
X212717127Y-79904972D01*
X223133888Y-79904972D01*
X223165783Y-80355375D01*
X223276783Y-80623352D01*
X223491896Y-80660499D01*
X224102395Y-80050000D01*
X224461605Y-80050000D01*
X225072104Y-80660499D01*
X225287217Y-80623352D01*
X225430112Y-80195028D01*
X225398217Y-79744625D01*
X225287217Y-79476648D01*
X225072104Y-79439501D01*
X224461605Y-80050000D01*
X224102395Y-80050000D01*
X223491896Y-79439501D01*
X223276783Y-79476648D01*
X223133888Y-79904972D01*
X212717127Y-79904972D01*
X212717197Y-79825225D01*
X212544767Y-79407914D01*
X212397007Y-79259896D01*
X223671501Y-79259896D01*
X224282000Y-79870395D01*
X224892499Y-79259896D01*
X224855352Y-79044783D01*
X224427028Y-78901888D01*
X223976625Y-78933783D01*
X223708648Y-79044783D01*
X223671501Y-79259896D01*
X212397007Y-79259896D01*
X212225765Y-79088355D01*
X211808756Y-78915197D01*
X211357225Y-78914803D01*
X210939914Y-79087233D01*
X210620355Y-79406235D01*
X210447197Y-79823244D01*
X210446803Y-80274775D01*
X139189545Y-80274775D01*
X139310803Y-79982756D01*
X139311197Y-79531225D01*
X139138767Y-79113914D01*
X138819765Y-78794355D01*
X138402756Y-78621197D01*
X137951225Y-78620803D01*
X137533914Y-78793233D01*
X137214355Y-79112235D01*
X137041197Y-79529244D01*
X137040803Y-79980775D01*
X134530804Y-79980775D01*
X134531248Y-79471813D01*
X134313243Y-78944200D01*
X133909923Y-78540176D01*
X133382691Y-78321250D01*
X132811813Y-78320752D01*
X132284200Y-78538757D01*
X131880176Y-78942077D01*
X131661250Y-79469309D01*
X131660752Y-80040187D01*
X128041080Y-80040187D01*
X127841809Y-79907039D01*
X127484000Y-79835866D01*
X127126191Y-79907039D01*
X126822855Y-80109721D01*
X126620173Y-80413057D01*
X126549000Y-80770866D01*
X59961370Y-80770866D01*
X60253767Y-80333264D01*
X60363000Y-79784113D01*
X60363000Y-79727887D01*
X60253767Y-79178736D01*
X60176966Y-79063795D01*
X71008716Y-79063795D01*
X71257106Y-79664943D01*
X71716637Y-80125278D01*
X72317352Y-80374716D01*
X72967795Y-80375284D01*
X73568943Y-80126894D01*
X74029278Y-79667363D01*
X74278716Y-79066648D01*
X74278846Y-78916661D01*
X82422758Y-78916661D01*
X82634990Y-79430303D01*
X83027630Y-79823629D01*
X83540900Y-80036757D01*
X84096661Y-80037242D01*
X84610303Y-79825010D01*
X85003629Y-79432370D01*
X85216757Y-78919100D01*
X85216759Y-78916661D01*
X88222758Y-78916661D01*
X88434990Y-79430303D01*
X88827630Y-79823629D01*
X89340900Y-80036757D01*
X89896661Y-80037242D01*
X90410303Y-79825010D01*
X90803629Y-79432370D01*
X91016757Y-78919100D01*
X91017242Y-78363339D01*
X90805010Y-77849697D01*
X90742922Y-77787500D01*
X95428060Y-77787500D01*
X95428060Y-79692500D01*
X95472338Y-79927817D01*
X95611410Y-80143941D01*
X95823610Y-80288931D01*
X96075500Y-80339940D01*
X97980500Y-80339940D01*
X98215817Y-80295662D01*
X98431941Y-80156590D01*
X98576931Y-79944390D01*
X98627940Y-79692500D01*
X98627940Y-79092661D01*
X101802758Y-79092661D01*
X102014990Y-79606303D01*
X102407630Y-79999629D01*
X102920900Y-80212757D01*
X103476661Y-80213242D01*
X103990303Y-80001010D01*
X104383629Y-79608370D01*
X104596757Y-79095100D01*
X104597039Y-78770866D01*
X124049000Y-78770866D01*
X124049000Y-79725134D01*
X124120173Y-80082943D01*
X124322855Y-80386279D01*
X124626191Y-80588961D01*
X124984000Y-80660134D01*
X125341809Y-80588961D01*
X125645145Y-80386279D01*
X125847827Y-80082943D01*
X125919000Y-79725134D01*
X125919000Y-78770866D01*
X125847827Y-78413057D01*
X125645145Y-78109721D01*
X125341809Y-77907039D01*
X124984000Y-77835866D01*
X124626191Y-77907039D01*
X124322855Y-78109721D01*
X124120173Y-78413057D01*
X124049000Y-78770866D01*
X104597039Y-78770866D01*
X104597242Y-78539339D01*
X104385010Y-78025697D01*
X103992370Y-77632371D01*
X103479100Y-77419243D01*
X102923339Y-77418758D01*
X102409697Y-77630990D01*
X102016371Y-78023630D01*
X101803243Y-78536900D01*
X101802758Y-79092661D01*
X98627940Y-79092661D01*
X98627940Y-77787500D01*
X98583662Y-77552183D01*
X98444590Y-77336059D01*
X98232390Y-77191069D01*
X97980500Y-77140060D01*
X96075500Y-77140060D01*
X95840183Y-77184338D01*
X95624059Y-77323410D01*
X95479069Y-77535610D01*
X95428060Y-77787500D01*
X90742922Y-77787500D01*
X90412370Y-77456371D01*
X89899100Y-77243243D01*
X89343339Y-77242758D01*
X88829697Y-77454990D01*
X88436371Y-77847630D01*
X88223243Y-78360900D01*
X88222758Y-78916661D01*
X85216759Y-78916661D01*
X85217242Y-78363339D01*
X85005010Y-77849697D01*
X84612370Y-77456371D01*
X84099100Y-77243243D01*
X83543339Y-77242758D01*
X83029697Y-77454990D01*
X82636371Y-77847630D01*
X82423243Y-78360900D01*
X82422758Y-78916661D01*
X74278846Y-78916661D01*
X74279284Y-78416205D01*
X74030894Y-77815057D01*
X73571363Y-77354722D01*
X72970648Y-77105284D01*
X72320205Y-77104716D01*
X71719057Y-77353106D01*
X71258722Y-77812637D01*
X71009284Y-78413352D01*
X71008716Y-79063795D01*
X60176966Y-79063795D01*
X59942698Y-78713189D01*
X59477151Y-78402120D01*
X58928000Y-78292887D01*
X58378849Y-78402120D01*
X57913302Y-78713189D01*
X57602233Y-79178736D01*
X57493000Y-79727887D01*
X51510000Y-79727887D01*
X51510000Y-76484187D01*
X64604752Y-76484187D01*
X64822757Y-77011800D01*
X65226077Y-77415824D01*
X65753309Y-77634750D01*
X66324187Y-77635248D01*
X66851800Y-77417243D01*
X67255824Y-77013923D01*
X67356750Y-76770866D01*
X126549000Y-76770866D01*
X126549000Y-77725134D01*
X126620173Y-78082943D01*
X126822855Y-78386279D01*
X127126191Y-78588961D01*
X127484000Y-78660134D01*
X127841809Y-78588961D01*
X128145145Y-78386279D01*
X128347827Y-78082943D01*
X128419000Y-77725134D01*
X128419000Y-77480775D01*
X137040803Y-77480775D01*
X137213233Y-77898086D01*
X137532235Y-78217645D01*
X137949244Y-78390803D01*
X138400775Y-78391197D01*
X138818086Y-78218767D01*
X139137645Y-77899765D01*
X139270345Y-77580187D01*
X141820752Y-77580187D01*
X142038757Y-78107800D01*
X142442077Y-78511824D01*
X142969309Y-78730750D01*
X143540187Y-78731248D01*
X144067800Y-78513243D01*
X144471824Y-78109923D01*
X144690750Y-77582691D01*
X144691139Y-77136000D01*
X233045769Y-77136000D01*
X233169465Y-77757861D01*
X233521720Y-78285049D01*
X234048908Y-78637304D01*
X234670769Y-78761000D01*
X236753231Y-78761000D01*
X237375092Y-78637304D01*
X237902280Y-78285049D01*
X238254535Y-77757861D01*
X238378231Y-77136000D01*
X238254535Y-76514139D01*
X237902280Y-75986951D01*
X237375092Y-75634696D01*
X236753231Y-75511000D01*
X234670769Y-75511000D01*
X234048908Y-75634696D01*
X233521720Y-75986951D01*
X233169465Y-76514139D01*
X233045769Y-77136000D01*
X144691139Y-77136000D01*
X144691248Y-77011813D01*
X144473243Y-76484200D01*
X144069923Y-76080176D01*
X143542691Y-75861250D01*
X142971813Y-75860752D01*
X142444200Y-76078757D01*
X142040176Y-76482077D01*
X141821250Y-77009309D01*
X141820752Y-77580187D01*
X139270345Y-77580187D01*
X139310803Y-77482756D01*
X139311197Y-77031225D01*
X139138767Y-76613914D01*
X138819765Y-76294355D01*
X138402756Y-76121197D01*
X137951225Y-76120803D01*
X137533914Y-76293233D01*
X137214355Y-76612235D01*
X137041197Y-77029244D01*
X137040803Y-77480775D01*
X128419000Y-77480775D01*
X128419000Y-76770866D01*
X128347827Y-76413057D01*
X128145145Y-76109721D01*
X127841809Y-75907039D01*
X127484000Y-75835866D01*
X127126191Y-75907039D01*
X126822855Y-76109721D01*
X126620173Y-76413057D01*
X126549000Y-76770866D01*
X67356750Y-76770866D01*
X67474750Y-76486691D01*
X67475248Y-75915813D01*
X67392134Y-75714661D01*
X157352758Y-75714661D01*
X157564990Y-76228303D01*
X157957630Y-76621629D01*
X158470900Y-76834757D01*
X159026661Y-76835242D01*
X159540303Y-76623010D01*
X159933629Y-76230370D01*
X160146757Y-75717100D01*
X160146759Y-75714661D01*
X170052758Y-75714661D01*
X170264990Y-76228303D01*
X170657630Y-76621629D01*
X171170900Y-76834757D01*
X171726661Y-76835242D01*
X172240303Y-76623010D01*
X172633629Y-76230370D01*
X172846757Y-75717100D01*
X172847242Y-75161339D01*
X172844530Y-75154775D01*
X210446803Y-75154775D01*
X210619233Y-75572086D01*
X210938235Y-75891645D01*
X211355244Y-76064803D01*
X211806775Y-76065197D01*
X212224086Y-75892767D01*
X212543645Y-75573765D01*
X212716803Y-75156756D01*
X212717197Y-74705225D01*
X212544767Y-74287914D01*
X212225765Y-73968355D01*
X211808756Y-73795197D01*
X211357225Y-73794803D01*
X210939914Y-73967233D01*
X210620355Y-74286235D01*
X210447197Y-74703244D01*
X210446803Y-75154775D01*
X172844530Y-75154775D01*
X172635010Y-74647697D01*
X172242370Y-74254371D01*
X171729100Y-74041243D01*
X171173339Y-74040758D01*
X170659697Y-74252990D01*
X170266371Y-74645630D01*
X170053243Y-75158900D01*
X170052758Y-75714661D01*
X160146759Y-75714661D01*
X160147242Y-75161339D01*
X159935010Y-74647697D01*
X159542370Y-74254371D01*
X159029100Y-74041243D01*
X158473339Y-74040758D01*
X157959697Y-74252990D01*
X157566371Y-74645630D01*
X157353243Y-75158900D01*
X157352758Y-75714661D01*
X67392134Y-75714661D01*
X67257243Y-75388200D01*
X66853923Y-74984176D01*
X66326691Y-74765250D01*
X65755813Y-74764752D01*
X65228200Y-74982757D01*
X64824176Y-75386077D01*
X64605250Y-75913309D01*
X64604752Y-76484187D01*
X51510000Y-76484187D01*
X51510000Y-73974388D01*
X95440225Y-73974388D01*
X95681398Y-74558072D01*
X96127579Y-75005032D01*
X96710841Y-75247224D01*
X97342388Y-75247775D01*
X97926072Y-75006602D01*
X98373032Y-74560421D01*
X98615224Y-73977159D01*
X98615775Y-73345612D01*
X98374602Y-72761928D01*
X98256880Y-72644000D01*
X101152887Y-72644000D01*
X101262120Y-73193151D01*
X101573189Y-73658698D01*
X102038736Y-73969767D01*
X102587887Y-74079000D01*
X102644113Y-74079000D01*
X103193264Y-73969767D01*
X103658811Y-73658698D01*
X103969880Y-73193151D01*
X104022584Y-72928187D01*
X111340752Y-72928187D01*
X111558757Y-73455800D01*
X111962077Y-73859824D01*
X112489309Y-74078750D01*
X113060187Y-74079248D01*
X113587800Y-73861243D01*
X113991824Y-73457923D01*
X114210750Y-72930691D01*
X114210752Y-72928187D01*
X114468752Y-72928187D01*
X114686757Y-73455800D01*
X115090077Y-73859824D01*
X115617309Y-74078750D01*
X116188187Y-74079248D01*
X116715800Y-73861243D01*
X117119824Y-73457923D01*
X117338750Y-72930691D01*
X117338752Y-72928187D01*
X119468752Y-72928187D01*
X119686757Y-73455800D01*
X120090077Y-73859824D01*
X120617309Y-74078750D01*
X121188187Y-74079248D01*
X121715800Y-73861243D01*
X122119824Y-73457923D01*
X122338750Y-72930691D01*
X122339248Y-72359813D01*
X122121243Y-71832200D01*
X121717923Y-71428176D01*
X121190691Y-71209250D01*
X120619813Y-71208752D01*
X120092200Y-71426757D01*
X119688176Y-71830077D01*
X119469250Y-72357309D01*
X119468752Y-72928187D01*
X117338752Y-72928187D01*
X117339248Y-72359813D01*
X117121243Y-71832200D01*
X116717923Y-71428176D01*
X116190691Y-71209250D01*
X115619813Y-71208752D01*
X115092200Y-71426757D01*
X114688176Y-71830077D01*
X114469250Y-72357309D01*
X114468752Y-72928187D01*
X114210752Y-72928187D01*
X114211248Y-72359813D01*
X113993243Y-71832200D01*
X113589923Y-71428176D01*
X113062691Y-71209250D01*
X112491813Y-71208752D01*
X111964200Y-71426757D01*
X111560176Y-71830077D01*
X111341250Y-72357309D01*
X111340752Y-72928187D01*
X104022584Y-72928187D01*
X104079113Y-72644000D01*
X103969880Y-72094849D01*
X103658811Y-71629302D01*
X103193264Y-71318233D01*
X102644113Y-71209000D01*
X102587887Y-71209000D01*
X102038736Y-71318233D01*
X101573189Y-71629302D01*
X101262120Y-72094849D01*
X101152887Y-72644000D01*
X98256880Y-72644000D01*
X97928421Y-72314968D01*
X97345159Y-72072776D01*
X96713612Y-72072225D01*
X96129928Y-72313398D01*
X95682968Y-72759579D01*
X95440776Y-73342841D01*
X95440225Y-73974388D01*
X51510000Y-73974388D01*
X51510000Y-72107887D01*
X64605000Y-72107887D01*
X64605000Y-72164113D01*
X64714233Y-72713264D01*
X65025302Y-73178811D01*
X65490849Y-73489880D01*
X66040000Y-73599113D01*
X66589151Y-73489880D01*
X67054698Y-73178811D01*
X67365767Y-72713264D01*
X67475000Y-72164113D01*
X67475000Y-72107887D01*
X67365767Y-71558736D01*
X67257472Y-71396661D01*
X76622758Y-71396661D01*
X76834990Y-71910303D01*
X77227630Y-72303629D01*
X77740900Y-72516757D01*
X78296661Y-72517242D01*
X78810303Y-72305010D01*
X79203629Y-71912370D01*
X79416757Y-71399100D01*
X79416759Y-71396661D01*
X82422758Y-71396661D01*
X82634990Y-71910303D01*
X83027630Y-72303629D01*
X83540900Y-72516757D01*
X84096661Y-72517242D01*
X84610303Y-72305010D01*
X85003629Y-71912370D01*
X85216757Y-71399100D01*
X85217242Y-70843339D01*
X85005010Y-70329697D01*
X84612370Y-69936371D01*
X84099100Y-69723243D01*
X83543339Y-69722758D01*
X83029697Y-69934990D01*
X82636371Y-70327630D01*
X82423243Y-70840900D01*
X82422758Y-71396661D01*
X79416759Y-71396661D01*
X79417242Y-70843339D01*
X79205010Y-70329697D01*
X78812370Y-69936371D01*
X78299100Y-69723243D01*
X77743339Y-69722758D01*
X77229697Y-69934990D01*
X76836371Y-70327630D01*
X76623243Y-70840900D01*
X76622758Y-71396661D01*
X67257472Y-71396661D01*
X67054698Y-71093189D01*
X66589151Y-70782120D01*
X66040000Y-70672887D01*
X65490849Y-70782120D01*
X65025302Y-71093189D01*
X64714233Y-71558736D01*
X64605000Y-72107887D01*
X51510000Y-72107887D01*
X51510000Y-69880187D01*
X57492752Y-69880187D01*
X57710757Y-70407800D01*
X58114077Y-70811824D01*
X58641309Y-71030750D01*
X59212187Y-71031248D01*
X59739800Y-70813243D01*
X60143824Y-70409923D01*
X60362750Y-69882691D01*
X60363000Y-69596000D01*
X110542000Y-69596000D01*
X110542000Y-69905672D01*
X110596046Y-70177377D01*
X110749954Y-70407718D01*
X110980295Y-70561626D01*
X111252000Y-70615672D01*
X111523705Y-70561626D01*
X111754046Y-70407718D01*
X111907954Y-70177377D01*
X111962000Y-69905672D01*
X111962000Y-69596000D01*
X111907954Y-69324295D01*
X111754046Y-69093954D01*
X111523705Y-68940046D01*
X111252000Y-68886000D01*
X110980295Y-68940046D01*
X110749954Y-69093954D01*
X110596046Y-69324295D01*
X110542000Y-69596000D01*
X60363000Y-69596000D01*
X60363248Y-69311813D01*
X60145243Y-68784200D01*
X59741923Y-68380176D01*
X59214691Y-68161250D01*
X58643813Y-68160752D01*
X58116200Y-68378757D01*
X57712176Y-68782077D01*
X57493250Y-69309309D01*
X57492752Y-69880187D01*
X51510000Y-69880187D01*
X51510000Y-67340187D01*
X96100752Y-67340187D01*
X96318757Y-67867800D01*
X96722077Y-68271824D01*
X97249309Y-68490750D01*
X97820187Y-68491248D01*
X98347800Y-68273243D01*
X98751824Y-67869923D01*
X98970750Y-67342691D01*
X98970752Y-67340187D01*
X101100752Y-67340187D01*
X101318757Y-67867800D01*
X101722077Y-68271824D01*
X102249309Y-68490750D01*
X102820187Y-68491248D01*
X103347800Y-68273243D01*
X103577556Y-68043887D01*
X111849000Y-68043887D01*
X111849000Y-68100113D01*
X111958233Y-68649264D01*
X112269302Y-69114811D01*
X112734849Y-69425880D01*
X113284000Y-69535113D01*
X113299650Y-69532000D01*
X141608560Y-69532000D01*
X141608560Y-71532000D01*
X141652838Y-71767317D01*
X141791910Y-71983441D01*
X142004110Y-72128431D01*
X142256000Y-72179440D01*
X144256000Y-72179440D01*
X144491317Y-72135162D01*
X144707441Y-71996090D01*
X144852431Y-71783890D01*
X144903440Y-71532000D01*
X144903440Y-71404187D01*
X180428752Y-71404187D01*
X180646757Y-71931800D01*
X181050077Y-72335824D01*
X181577309Y-72554750D01*
X182148187Y-72555248D01*
X182675800Y-72337243D01*
X182778334Y-72234887D01*
X188557000Y-72234887D01*
X188557000Y-72291113D01*
X188666233Y-72840264D01*
X188977302Y-73305811D01*
X189442849Y-73616880D01*
X189992000Y-73726113D01*
X190541151Y-73616880D01*
X191006698Y-73305811D01*
X191317767Y-72840264D01*
X191376063Y-72547187D01*
X191811752Y-72547187D01*
X192029757Y-73074800D01*
X192433077Y-73478824D01*
X192960309Y-73697750D01*
X193531187Y-73698248D01*
X194058800Y-73480243D01*
X194462824Y-73076923D01*
X194681750Y-72549691D01*
X194681752Y-72547187D01*
X196811752Y-72547187D01*
X197029757Y-73074800D01*
X197433077Y-73478824D01*
X197960309Y-73697750D01*
X198531187Y-73698248D01*
X199058800Y-73480243D01*
X199462824Y-73076923D01*
X199669086Y-72580187D01*
X201256752Y-72580187D01*
X201474757Y-73107800D01*
X201878077Y-73511824D01*
X202405309Y-73730750D01*
X202976187Y-73731248D01*
X203503800Y-73513243D01*
X203907824Y-73109923D01*
X204126750Y-72582691D01*
X204126756Y-72574775D01*
X210446803Y-72574775D01*
X210619233Y-72992086D01*
X210938235Y-73311645D01*
X211355244Y-73484803D01*
X211806775Y-73485197D01*
X212224086Y-73312767D01*
X212543645Y-72993765D01*
X212716803Y-72576756D01*
X212716804Y-72574775D01*
X223146803Y-72574775D01*
X223319233Y-72992086D01*
X223638235Y-73311645D01*
X224055244Y-73484803D01*
X224506775Y-73485197D01*
X224924086Y-73312767D01*
X225243645Y-72993765D01*
X225416803Y-72576756D01*
X225417197Y-72125225D01*
X225244767Y-71707914D01*
X224925765Y-71388355D01*
X224508756Y-71215197D01*
X224057225Y-71214803D01*
X223639914Y-71387233D01*
X223320355Y-71706235D01*
X223147197Y-72123244D01*
X223146803Y-72574775D01*
X212716804Y-72574775D01*
X212717197Y-72125225D01*
X212544767Y-71707914D01*
X212225765Y-71388355D01*
X211808756Y-71215197D01*
X211357225Y-71214803D01*
X210939914Y-71387233D01*
X210620355Y-71706235D01*
X210447197Y-72123244D01*
X210446803Y-72574775D01*
X204126756Y-72574775D01*
X204127248Y-72011813D01*
X203909243Y-71484200D01*
X203571633Y-71146000D01*
X233084560Y-71146000D01*
X233084560Y-73126000D01*
X233128838Y-73361317D01*
X233267910Y-73577441D01*
X233480110Y-73722431D01*
X233732000Y-73773440D01*
X237692000Y-73773440D01*
X237927317Y-73729162D01*
X238143441Y-73590090D01*
X238288431Y-73377890D01*
X238339440Y-73126000D01*
X238339440Y-71146000D01*
X238295162Y-70910683D01*
X238156090Y-70694559D01*
X237943890Y-70549569D01*
X237692000Y-70498560D01*
X233732000Y-70498560D01*
X233496683Y-70542838D01*
X233280559Y-70681910D01*
X233135569Y-70894110D01*
X233084560Y-71146000D01*
X203571633Y-71146000D01*
X203505923Y-71080176D01*
X202978691Y-70861250D01*
X202407813Y-70860752D01*
X201880200Y-71078757D01*
X201476176Y-71482077D01*
X201257250Y-72009309D01*
X201256752Y-72580187D01*
X199669086Y-72580187D01*
X199681750Y-72549691D01*
X199682248Y-71978813D01*
X199464243Y-71451200D01*
X199060923Y-71047176D01*
X198533691Y-70828250D01*
X197962813Y-70827752D01*
X197435200Y-71045757D01*
X197031176Y-71449077D01*
X196812250Y-71976309D01*
X196811752Y-72547187D01*
X194681752Y-72547187D01*
X194682248Y-71978813D01*
X194464243Y-71451200D01*
X194060923Y-71047176D01*
X193533691Y-70828250D01*
X192962813Y-70827752D01*
X192435200Y-71045757D01*
X192031176Y-71449077D01*
X191812250Y-71976309D01*
X191811752Y-72547187D01*
X191376063Y-72547187D01*
X191427000Y-72291113D01*
X191427000Y-72234887D01*
X191317767Y-71685736D01*
X191006698Y-71220189D01*
X190541151Y-70909120D01*
X189992000Y-70799887D01*
X189442849Y-70909120D01*
X188977302Y-71220189D01*
X188666233Y-71685736D01*
X188557000Y-72234887D01*
X182778334Y-72234887D01*
X183079824Y-71933923D01*
X183298750Y-71406691D01*
X183299248Y-70835813D01*
X183081243Y-70308200D01*
X182677923Y-69904176D01*
X182150691Y-69685250D01*
X181579813Y-69684752D01*
X181052200Y-69902757D01*
X180648176Y-70306077D01*
X180429250Y-70833309D01*
X180428752Y-71404187D01*
X144903440Y-71404187D01*
X144903440Y-69532000D01*
X144871953Y-69364661D01*
X163702758Y-69364661D01*
X163914990Y-69878303D01*
X164307630Y-70271629D01*
X164820900Y-70484757D01*
X165376661Y-70485242D01*
X165890303Y-70273010D01*
X166283629Y-69880370D01*
X166496757Y-69367100D01*
X166497242Y-68811339D01*
X166285010Y-68297697D01*
X165892370Y-67904371D01*
X165379100Y-67691243D01*
X164823339Y-67690758D01*
X164309697Y-67902990D01*
X163916371Y-68295630D01*
X163703243Y-68808900D01*
X163702758Y-69364661D01*
X144871953Y-69364661D01*
X144859162Y-69296683D01*
X144720090Y-69080559D01*
X144507890Y-68935569D01*
X144256000Y-68884560D01*
X142256000Y-68884560D01*
X142020683Y-68928838D01*
X141804559Y-69067910D01*
X141659569Y-69280110D01*
X141608560Y-69532000D01*
X113299650Y-69532000D01*
X113833151Y-69425880D01*
X114298698Y-69114811D01*
X114609767Y-68649264D01*
X114668063Y-68356187D01*
X117436752Y-68356187D01*
X117654757Y-68883800D01*
X118058077Y-69287824D01*
X118585309Y-69506750D01*
X119156187Y-69507248D01*
X119683800Y-69289243D01*
X120087824Y-68885923D01*
X120306750Y-68358691D01*
X120307248Y-67787813D01*
X120089243Y-67260200D01*
X119685923Y-66856176D01*
X119272559Y-66684532D01*
X142283073Y-66684532D01*
X142381736Y-66951387D01*
X142991461Y-67177908D01*
X143641460Y-67153856D01*
X144130264Y-66951387D01*
X144228927Y-66684532D01*
X143256000Y-65711605D01*
X142283073Y-66684532D01*
X119272559Y-66684532D01*
X119158691Y-66637250D01*
X118587813Y-66636752D01*
X118060200Y-66854757D01*
X117656176Y-67258077D01*
X117437250Y-67785309D01*
X117436752Y-68356187D01*
X114668063Y-68356187D01*
X114719000Y-68100113D01*
X114719000Y-68043887D01*
X114609767Y-67494736D01*
X114298698Y-67029189D01*
X113833151Y-66718120D01*
X113284000Y-66608887D01*
X112734849Y-66718120D01*
X112269302Y-67029189D01*
X111958233Y-67494736D01*
X111849000Y-68043887D01*
X103577556Y-68043887D01*
X103751824Y-67869923D01*
X103970750Y-67342691D01*
X103971248Y-66771813D01*
X103753243Y-66244200D01*
X103349923Y-65840176D01*
X102822691Y-65621250D01*
X102251813Y-65620752D01*
X101724200Y-65838757D01*
X101320176Y-66242077D01*
X101101250Y-66769309D01*
X101100752Y-67340187D01*
X98970752Y-67340187D01*
X98971248Y-66771813D01*
X98753243Y-66244200D01*
X98349923Y-65840176D01*
X97822691Y-65621250D01*
X97251813Y-65620752D01*
X96724200Y-65838757D01*
X96320176Y-66242077D01*
X96101250Y-66769309D01*
X96100752Y-67340187D01*
X51510000Y-67340187D01*
X51510000Y-65532000D01*
X68378000Y-65532000D01*
X68378000Y-66040000D01*
X68432046Y-66311705D01*
X68585954Y-66542046D01*
X68816295Y-66695954D01*
X69088000Y-66750000D01*
X69359705Y-66695954D01*
X69590046Y-66542046D01*
X69743954Y-66311705D01*
X69798000Y-66040000D01*
X69798000Y-65532000D01*
X69745380Y-65267461D01*
X141610092Y-65267461D01*
X141634144Y-65917460D01*
X141836613Y-66406264D01*
X142103468Y-66504927D01*
X143076395Y-65532000D01*
X143435605Y-65532000D01*
X144408532Y-66504927D01*
X144675387Y-66406264D01*
X144901908Y-65796539D01*
X144877856Y-65146540D01*
X144675387Y-64657736D01*
X144408532Y-64559073D01*
X143435605Y-65532000D01*
X143076395Y-65532000D01*
X142103468Y-64559073D01*
X141836613Y-64657736D01*
X141610092Y-65267461D01*
X69745380Y-65267461D01*
X69743954Y-65260295D01*
X69590046Y-65029954D01*
X69359705Y-64876046D01*
X69088000Y-64822000D01*
X68816295Y-64876046D01*
X68585954Y-65029954D01*
X68432046Y-65260295D01*
X68378000Y-65532000D01*
X51510000Y-65532000D01*
X51510000Y-60960000D01*
X51712426Y-60960000D01*
X52014075Y-62476493D01*
X52873099Y-63762114D01*
X54158720Y-64621138D01*
X55675213Y-64922787D01*
X57191706Y-64621138D01*
X57553390Y-64379468D01*
X142283073Y-64379468D01*
X143256000Y-65352395D01*
X144228927Y-64379468D01*
X144130264Y-64112613D01*
X143520539Y-63886092D01*
X142870540Y-63910144D01*
X142381736Y-64112613D01*
X142283073Y-64379468D01*
X57553390Y-64379468D01*
X58477327Y-63762114D01*
X59336351Y-62476493D01*
X59379376Y-62260187D01*
X64604752Y-62260187D01*
X64822757Y-62787800D01*
X65226077Y-63191824D01*
X65753309Y-63410750D01*
X66324187Y-63411248D01*
X66851800Y-63193243D01*
X67030693Y-63014661D01*
X157352758Y-63014661D01*
X157564990Y-63528303D01*
X157957630Y-63921629D01*
X158470900Y-64134757D01*
X159026661Y-64135242D01*
X159540303Y-63923010D01*
X159933629Y-63530370D01*
X160146757Y-63017100D01*
X160146759Y-63014661D01*
X170052758Y-63014661D01*
X170264990Y-63528303D01*
X170657630Y-63921629D01*
X171170900Y-64134757D01*
X171726661Y-64135242D01*
X172240303Y-63923010D01*
X172633629Y-63530370D01*
X172642917Y-63508000D01*
X221864560Y-63508000D01*
X221864560Y-64508000D01*
X221908838Y-64743317D01*
X222047910Y-64959441D01*
X222260110Y-65104431D01*
X222512000Y-65155440D01*
X223512000Y-65155440D01*
X223747317Y-65111162D01*
X223963441Y-64972090D01*
X224108431Y-64759890D01*
X224159440Y-64508000D01*
X224159440Y-64293750D01*
X225941000Y-64293750D01*
X225941000Y-64634309D01*
X226037673Y-64867698D01*
X226216301Y-65046327D01*
X226449690Y-65143000D01*
X226790250Y-65143000D01*
X226949000Y-64984250D01*
X226949000Y-64135000D01*
X227203000Y-64135000D01*
X227203000Y-64984250D01*
X227361750Y-65143000D01*
X227702310Y-65143000D01*
X227935699Y-65046327D01*
X228114327Y-64867698D01*
X228211000Y-64634309D01*
X228211000Y-64293750D01*
X228052250Y-64135000D01*
X227203000Y-64135000D01*
X226949000Y-64135000D01*
X226099750Y-64135000D01*
X225941000Y-64293750D01*
X224159440Y-64293750D01*
X224159440Y-63508000D01*
X224135674Y-63381691D01*
X225941000Y-63381691D01*
X225941000Y-63722250D01*
X226099750Y-63881000D01*
X226949000Y-63881000D01*
X226949000Y-63031750D01*
X227203000Y-63031750D01*
X227203000Y-63881000D01*
X228052250Y-63881000D01*
X228211000Y-63722250D01*
X228211000Y-63381691D01*
X228114327Y-63148302D01*
X227935699Y-62969673D01*
X227702310Y-62873000D01*
X227361750Y-62873000D01*
X227203000Y-63031750D01*
X226949000Y-63031750D01*
X226790250Y-62873000D01*
X226449690Y-62873000D01*
X226216301Y-62969673D01*
X226037673Y-63148302D01*
X225941000Y-63381691D01*
X224135674Y-63381691D01*
X224115162Y-63272683D01*
X223976090Y-63056559D01*
X223763890Y-62911569D01*
X223512000Y-62860560D01*
X222512000Y-62860560D01*
X222276683Y-62904838D01*
X222060559Y-63043910D01*
X221915569Y-63256110D01*
X221864560Y-63508000D01*
X172642917Y-63508000D01*
X172846757Y-63017100D01*
X172847242Y-62461339D01*
X172635010Y-61947697D01*
X172242370Y-61554371D01*
X171729100Y-61341243D01*
X171173339Y-61340758D01*
X170659697Y-61552990D01*
X170266371Y-61945630D01*
X170053243Y-62458900D01*
X170052758Y-63014661D01*
X160146759Y-63014661D01*
X160147242Y-62461339D01*
X159935010Y-61947697D01*
X159542370Y-61554371D01*
X159029100Y-61341243D01*
X158473339Y-61340758D01*
X157959697Y-61552990D01*
X157566371Y-61945630D01*
X157353243Y-62458900D01*
X157352758Y-63014661D01*
X67030693Y-63014661D01*
X67255824Y-62789923D01*
X67474750Y-62262691D01*
X67475248Y-61691813D01*
X67257243Y-61164200D01*
X67025335Y-60931887D01*
X180429000Y-60931887D01*
X180429000Y-60988113D01*
X180538233Y-61537264D01*
X180849302Y-62002811D01*
X181314849Y-62313880D01*
X181864000Y-62423113D01*
X182413151Y-62313880D01*
X182878698Y-62002811D01*
X183189767Y-61537264D01*
X183299000Y-60988113D01*
X183299000Y-60931887D01*
X183189767Y-60382736D01*
X182878698Y-59917189D01*
X182413151Y-59606120D01*
X181864000Y-59496887D01*
X181314849Y-59606120D01*
X180849302Y-59917189D01*
X180538233Y-60382736D01*
X180429000Y-60931887D01*
X67025335Y-60931887D01*
X66853923Y-60760176D01*
X66326691Y-60541250D01*
X65755813Y-60540752D01*
X65228200Y-60758757D01*
X64824176Y-61162077D01*
X64605250Y-61689309D01*
X64604752Y-62260187D01*
X59379376Y-62260187D01*
X59638000Y-60960000D01*
X59336351Y-59443507D01*
X59331335Y-59436000D01*
X207324887Y-59436000D01*
X207434120Y-59985151D01*
X207745189Y-60450698D01*
X208210736Y-60761767D01*
X208759887Y-60871000D01*
X208816113Y-60871000D01*
X209365264Y-60761767D01*
X209830811Y-60450698D01*
X210141880Y-59985151D01*
X210194584Y-59720187D01*
X217512752Y-59720187D01*
X217730757Y-60247800D01*
X218134077Y-60651824D01*
X218661309Y-60870750D01*
X219232187Y-60871248D01*
X219751222Y-60656787D01*
X234797213Y-60656787D01*
X235098862Y-62173280D01*
X235957886Y-63458901D01*
X237243507Y-64317925D01*
X238760000Y-64619574D01*
X240276493Y-64317925D01*
X241562114Y-63458901D01*
X242421138Y-62173280D01*
X242722787Y-60656787D01*
X242421138Y-59140294D01*
X241562114Y-57854673D01*
X240276493Y-56995649D01*
X238760000Y-56694000D01*
X237243507Y-56995649D01*
X235957886Y-57854673D01*
X235098862Y-59140294D01*
X234797213Y-60656787D01*
X219751222Y-60656787D01*
X219759800Y-60653243D01*
X220163824Y-60249923D01*
X220382750Y-59722691D01*
X220383248Y-59151813D01*
X220165243Y-58624200D01*
X219761923Y-58220176D01*
X219234691Y-58001250D01*
X218663813Y-58000752D01*
X218136200Y-58218757D01*
X217732176Y-58622077D01*
X217513250Y-59149309D01*
X217512752Y-59720187D01*
X210194584Y-59720187D01*
X210251113Y-59436000D01*
X210141880Y-58886849D01*
X209830811Y-58421302D01*
X209365264Y-58110233D01*
X208816113Y-58001000D01*
X208759887Y-58001000D01*
X208210736Y-58110233D01*
X207745189Y-58421302D01*
X207434120Y-58886849D01*
X207324887Y-59436000D01*
X59331335Y-59436000D01*
X58477327Y-58157886D01*
X57191706Y-57298862D01*
X55675213Y-56997213D01*
X54158720Y-57298862D01*
X52873099Y-58157886D01*
X52014075Y-59443507D01*
X51712426Y-60960000D01*
X51510000Y-60960000D01*
X51510000Y-56590000D01*
X112725732Y-56590000D01*
X112472200Y-56694757D01*
X112472200Y-56694757D01*
G37*
X112472200Y-56694757D02*
X112068176Y-57098077D01*
X111849250Y-57625309D01*
X111848752Y-58196187D01*
X112066757Y-58723800D01*
X112470077Y-59127824D01*
X112997309Y-59346750D01*
X113568187Y-59347248D01*
X114095800Y-59129243D01*
X114499824Y-58725923D01*
X114718750Y-58198691D01*
X114719248Y-57627813D01*
X114501243Y-57100200D01*
X114097923Y-56696176D01*
X113842223Y-56590000D01*
X115154181Y-56590000D01*
X115168046Y-56659705D01*
X115321954Y-56890046D01*
X115552295Y-57043954D01*
X115824000Y-57098000D01*
X116095705Y-57043954D01*
X116326046Y-56890046D01*
X116479954Y-56659705D01*
X116493819Y-56590000D01*
X118275137Y-56590000D01*
X117857302Y-56869189D01*
X117546233Y-57334736D01*
X117437000Y-57883887D01*
X117437000Y-57940113D01*
X117546233Y-58489264D01*
X117857302Y-58954811D01*
X118322849Y-59265880D01*
X118872000Y-59375113D01*
X119421151Y-59265880D01*
X119886698Y-58954811D01*
X120197767Y-58489264D01*
X120307000Y-57940113D01*
X120307000Y-57883887D01*
X120197767Y-57334736D01*
X119886698Y-56869189D01*
X119468863Y-56590000D01*
X243130000Y-56590000D01*
X243130000Y-126290000D01*
X51510000Y-126290000D01*
X51510000Y-121616787D01*
X51917213Y-121616787D01*
X52218862Y-123133280D01*
X53077886Y-124418901D01*
X54363507Y-125277925D01*
X55880000Y-125579574D01*
X57396493Y-125277925D01*
X58682114Y-124418901D01*
X59541138Y-123133280D01*
X59782474Y-121920000D01*
X234797213Y-121920000D01*
X235098862Y-123436493D01*
X235957886Y-124722114D01*
X237243507Y-125581138D01*
X238760000Y-125882787D01*
X240276493Y-125581138D01*
X241562114Y-124722114D01*
X242421138Y-123436493D01*
X242722787Y-121920000D01*
X242421138Y-120403507D01*
X241562114Y-119117886D01*
X240276493Y-118258862D01*
X238760000Y-117957213D01*
X237243507Y-118258862D01*
X235957886Y-119117886D01*
X235098862Y-120403507D01*
X234797213Y-121920000D01*
X59782474Y-121920000D01*
X59842787Y-121616787D01*
X59541138Y-120100294D01*
X59303566Y-119744742D01*
X128048954Y-119744742D01*
X128302034Y-120287576D01*
X128743583Y-120692240D01*
X129175260Y-120871036D01*
X129413000Y-120750378D01*
X129413000Y-119507000D01*
X129667000Y-119507000D01*
X129667000Y-120750378D01*
X129904740Y-120871036D01*
X130336417Y-120692240D01*
X130668666Y-120387745D01*
X138871861Y-120387745D01*
X138945995Y-120633864D01*
X139483223Y-120826965D01*
X140053454Y-120799778D01*
X140454005Y-120633864D01*
X140508624Y-120452532D01*
X150411073Y-120452532D01*
X150509736Y-120719387D01*
X151119461Y-120945908D01*
X151769460Y-120921856D01*
X152258264Y-120719387D01*
X152356927Y-120452532D01*
X152292140Y-120387745D01*
X158683861Y-120387745D01*
X158757995Y-120633864D01*
X159295223Y-120826965D01*
X159865454Y-120799778D01*
X160266005Y-120633864D01*
X160340139Y-120387745D01*
X159512000Y-119559605D01*
X158683861Y-120387745D01*
X152292140Y-120387745D01*
X151384000Y-119479605D01*
X150411073Y-120452532D01*
X140508624Y-120452532D01*
X140528139Y-120387745D01*
X139700000Y-119559605D01*
X138871861Y-120387745D01*
X130668666Y-120387745D01*
X130777966Y-120287576D01*
X131031046Y-119744742D01*
X130910997Y-119507000D01*
X129667000Y-119507000D01*
X129413000Y-119507000D01*
X128169003Y-119507000D01*
X128048954Y-119744742D01*
X59303566Y-119744742D01*
X58816141Y-119015258D01*
X128048954Y-119015258D01*
X128169003Y-119253000D01*
X129413000Y-119253000D01*
X129413000Y-118009622D01*
X129667000Y-118009622D01*
X129667000Y-119253000D01*
X130910997Y-119253000D01*
X130956330Y-119163223D01*
X138253035Y-119163223D01*
X138280222Y-119733454D01*
X138446136Y-120134005D01*
X138692255Y-120208139D01*
X139520395Y-119380000D01*
X139879605Y-119380000D01*
X140707745Y-120208139D01*
X140953864Y-120134005D01*
X141146965Y-119596777D01*
X141120204Y-119035461D01*
X149738092Y-119035461D01*
X149762144Y-119685460D01*
X149964613Y-120174264D01*
X150231468Y-120272927D01*
X151204395Y-119300000D01*
X151563605Y-119300000D01*
X152536532Y-120272927D01*
X152803387Y-120174264D01*
X153029908Y-119564539D01*
X153015059Y-119163223D01*
X158065035Y-119163223D01*
X158092222Y-119733454D01*
X158258136Y-120134005D01*
X158504255Y-120208139D01*
X159332395Y-119380000D01*
X159691605Y-119380000D01*
X160519745Y-120208139D01*
X160765864Y-120134005D01*
X160958965Y-119596777D01*
X160931778Y-119026546D01*
X160765864Y-118625995D01*
X160519745Y-118551861D01*
X159691605Y-119380000D01*
X159332395Y-119380000D01*
X158504255Y-118551861D01*
X158258136Y-118625995D01*
X158065035Y-119163223D01*
X153015059Y-119163223D01*
X153005856Y-118914540D01*
X152803387Y-118425736D01*
X152658737Y-118372255D01*
X158683861Y-118372255D01*
X159512000Y-119200395D01*
X160340139Y-118372255D01*
X160266005Y-118126136D01*
X159728777Y-117933035D01*
X159158546Y-117960222D01*
X158757995Y-118126136D01*
X158683861Y-118372255D01*
X152658737Y-118372255D01*
X152536532Y-118327073D01*
X151563605Y-119300000D01*
X151204395Y-119300000D01*
X150231468Y-118327073D01*
X149964613Y-118425736D01*
X149738092Y-119035461D01*
X141120204Y-119035461D01*
X141119778Y-119026546D01*
X140953864Y-118625995D01*
X140707745Y-118551861D01*
X139879605Y-119380000D01*
X139520395Y-119380000D01*
X138692255Y-118551861D01*
X138446136Y-118625995D01*
X138253035Y-119163223D01*
X130956330Y-119163223D01*
X131031046Y-119015258D01*
X130777966Y-118472424D01*
X130668667Y-118372255D01*
X138871861Y-118372255D01*
X139700000Y-119200395D01*
X140528139Y-118372255D01*
X140460431Y-118147468D01*
X150411073Y-118147468D01*
X151384000Y-119120395D01*
X152356927Y-118147468D01*
X152258264Y-117880613D01*
X151648539Y-117654092D01*
X150998540Y-117678144D01*
X150509736Y-117880613D01*
X150411073Y-118147468D01*
X140460431Y-118147468D01*
X140454005Y-118126136D01*
X139916777Y-117933035D01*
X139346546Y-117960222D01*
X138945995Y-118126136D01*
X138871861Y-118372255D01*
X130668667Y-118372255D01*
X130336417Y-118067760D01*
X129904740Y-117888964D01*
X129667000Y-118009622D01*
X129413000Y-118009622D01*
X129175260Y-117888964D01*
X128743583Y-118067760D01*
X128302034Y-118472424D01*
X128048954Y-119015258D01*
X58816141Y-119015258D01*
X58682114Y-118814673D01*
X57396493Y-117955649D01*
X55880000Y-117654000D01*
X54363507Y-117955649D01*
X53077886Y-118814673D01*
X52218862Y-120100294D01*
X51917213Y-121616787D01*
X51510000Y-121616787D01*
X51510000Y-116323745D01*
X110931861Y-116323745D01*
X111005995Y-116569864D01*
X111543223Y-116762965D01*
X112113454Y-116735778D01*
X112514005Y-116569864D01*
X112588139Y-116323745D01*
X111760000Y-115495605D01*
X110931861Y-116323745D01*
X51510000Y-116323745D01*
X51510000Y-115099223D01*
X110313035Y-115099223D01*
X110340222Y-115669454D01*
X110506136Y-116070005D01*
X110752255Y-116144139D01*
X111580395Y-115316000D01*
X111939605Y-115316000D01*
X112767745Y-116144139D01*
X113013864Y-116070005D01*
X113206965Y-115532777D01*
X113192422Y-115227745D01*
X119059861Y-115227745D01*
X119133995Y-115473864D01*
X119671223Y-115666965D01*
X120241454Y-115639778D01*
X120642005Y-115473864D01*
X120716139Y-115227745D01*
X119888000Y-114399605D01*
X119059861Y-115227745D01*
X113192422Y-115227745D01*
X113179778Y-114962546D01*
X113013864Y-114561995D01*
X112767745Y-114487861D01*
X111939605Y-115316000D01*
X111580395Y-115316000D01*
X110752255Y-114487861D01*
X110506136Y-114561995D01*
X110313035Y-115099223D01*
X51510000Y-115099223D01*
X51510000Y-114308255D01*
X110931861Y-114308255D01*
X111760000Y-115136395D01*
X112588139Y-114308255D01*
X112514005Y-114062136D01*
X112350103Y-114003223D01*
X118441035Y-114003223D01*
X118468222Y-114573454D01*
X118634136Y-114974005D01*
X118880255Y-115048139D01*
X119708395Y-114220000D01*
X120067605Y-114220000D01*
X120895745Y-115048139D01*
X121141864Y-114974005D01*
X121334965Y-114436777D01*
X121307778Y-113866546D01*
X121141864Y-113465995D01*
X120895745Y-113391861D01*
X120067605Y-114220000D01*
X119708395Y-114220000D01*
X118880255Y-113391861D01*
X118634136Y-113465995D01*
X118441035Y-114003223D01*
X112350103Y-114003223D01*
X111976777Y-113869035D01*
X111406546Y-113896222D01*
X111005995Y-114062136D01*
X110931861Y-114308255D01*
X51510000Y-114308255D01*
X51510000Y-113212255D01*
X119059861Y-113212255D01*
X119888000Y-114040395D01*
X120628394Y-113300000D01*
X149736560Y-113300000D01*
X149736560Y-115300000D01*
X149780838Y-115535317D01*
X149919910Y-115751441D01*
X150132110Y-115896431D01*
X150384000Y-115947440D01*
X152384000Y-115947440D01*
X152619317Y-115903162D01*
X152835441Y-115764090D01*
X152980431Y-115551890D01*
X153031440Y-115300000D01*
X153031440Y-113300000D01*
X152987162Y-113064683D01*
X152848090Y-112848559D01*
X152635890Y-112703569D01*
X152384000Y-112652560D01*
X150384000Y-112652560D01*
X150148683Y-112696838D01*
X149932559Y-112835910D01*
X149787569Y-113048110D01*
X149736560Y-113300000D01*
X120628394Y-113300000D01*
X120716139Y-113212255D01*
X120642005Y-112966136D01*
X120104777Y-112773035D01*
X119534546Y-112800222D01*
X119133995Y-112966136D01*
X119059861Y-113212255D01*
X51510000Y-113212255D01*
X51510000Y-112640745D01*
X179638861Y-112640745D01*
X179712995Y-112886864D01*
X180250223Y-113079965D01*
X180820454Y-113052778D01*
X181221005Y-112886864D01*
X181295139Y-112640745D01*
X180467000Y-111812605D01*
X179638861Y-112640745D01*
X51510000Y-112640745D01*
X51510000Y-111416223D01*
X179020035Y-111416223D01*
X179047222Y-111986454D01*
X179213136Y-112387005D01*
X179459255Y-112461139D01*
X180287395Y-111633000D01*
X180646605Y-111633000D01*
X181474745Y-112461139D01*
X181720864Y-112387005D01*
X181913965Y-111849777D01*
X181886778Y-111279546D01*
X181720864Y-110878995D01*
X181474745Y-110804861D01*
X180646605Y-111633000D01*
X180287395Y-111633000D01*
X179459255Y-110804861D01*
X179213136Y-110878995D01*
X179020035Y-111416223D01*
X51510000Y-111416223D01*
X51510000Y-109504187D01*
X118452752Y-109504187D01*
X118670757Y-110031800D01*
X119074077Y-110435824D01*
X119601309Y-110654750D01*
X120172187Y-110655248D01*
X120699800Y-110437243D01*
X121103824Y-110033923D01*
X121257351Y-109664187D01*
X138264752Y-109664187D01*
X138482757Y-110191800D01*
X138886077Y-110595824D01*
X139413309Y-110814750D01*
X139984187Y-110815248D01*
X140511800Y-110597243D01*
X140915824Y-110193923D01*
X141134750Y-109666691D01*
X141135164Y-109191887D01*
X158077000Y-109191887D01*
X158077000Y-109248113D01*
X158186233Y-109797264D01*
X158497302Y-110262811D01*
X158962849Y-110573880D01*
X159512000Y-110683113D01*
X159802871Y-110625255D01*
X179638861Y-110625255D01*
X180467000Y-111453395D01*
X181295139Y-110625255D01*
X181221005Y-110379136D01*
X180683777Y-110186035D01*
X180113546Y-110213222D01*
X179712995Y-110379136D01*
X179638861Y-110625255D01*
X159802871Y-110625255D01*
X160061151Y-110573880D01*
X160526698Y-110262811D01*
X160837767Y-109797264D01*
X160947000Y-109248113D01*
X160947000Y-109191887D01*
X160888052Y-108895532D01*
X189019073Y-108895532D01*
X189117736Y-109162387D01*
X189727461Y-109388908D01*
X190377460Y-109364856D01*
X190866264Y-109162387D01*
X190964927Y-108895532D01*
X189992000Y-107922605D01*
X189019073Y-108895532D01*
X160888052Y-108895532D01*
X160837767Y-108642736D01*
X160526698Y-108177189D01*
X160061151Y-107866120D01*
X159512000Y-107756887D01*
X158962849Y-107866120D01*
X158497302Y-108177189D01*
X158186233Y-108642736D01*
X158077000Y-109191887D01*
X141135164Y-109191887D01*
X141135248Y-109095813D01*
X140917243Y-108568200D01*
X140513923Y-108164176D01*
X139986691Y-107945250D01*
X139415813Y-107944752D01*
X138888200Y-108162757D01*
X138484176Y-108566077D01*
X138265250Y-109093309D01*
X138264752Y-109664187D01*
X121257351Y-109664187D01*
X121322750Y-109506691D01*
X121323248Y-108935813D01*
X121105243Y-108408200D01*
X120701923Y-108004176D01*
X120174691Y-107785250D01*
X119603813Y-107784752D01*
X119076200Y-108002757D01*
X118672176Y-108406077D01*
X118453250Y-108933309D01*
X118452752Y-109504187D01*
X51510000Y-109504187D01*
X51510000Y-106083745D01*
X104835861Y-106083745D01*
X104909995Y-106329864D01*
X105447223Y-106522965D01*
X106017454Y-106495778D01*
X106418005Y-106329864D01*
X106492139Y-106083745D01*
X105664000Y-105255605D01*
X104835861Y-106083745D01*
X51510000Y-106083745D01*
X51510000Y-104859223D01*
X104217035Y-104859223D01*
X104244222Y-105429454D01*
X104410136Y-105830005D01*
X104656255Y-105904139D01*
X105484395Y-105076000D01*
X105843605Y-105076000D01*
X106671745Y-105904139D01*
X106917864Y-105830005D01*
X107110965Y-105292777D01*
X107103104Y-105127887D01*
X110325000Y-105127887D01*
X110325000Y-105184113D01*
X110434233Y-105733264D01*
X110745302Y-106198811D01*
X111210849Y-106509880D01*
X111760000Y-106619113D01*
X112309151Y-106509880D01*
X112774698Y-106198811D01*
X113054538Y-105780000D01*
X127992560Y-105780000D01*
X127992560Y-107580000D01*
X128036838Y-107815317D01*
X128175910Y-108031441D01*
X128388110Y-108176431D01*
X128640000Y-108227440D01*
X130440000Y-108227440D01*
X130675317Y-108183162D01*
X130891441Y-108044090D01*
X131036431Y-107831890D01*
X131087440Y-107580000D01*
X131087440Y-106775000D01*
X135169000Y-106775000D01*
X135169000Y-107225000D01*
X135288773Y-107573142D01*
X135532657Y-107848948D01*
X135833653Y-107993063D01*
X135977000Y-107863790D01*
X135977000Y-106775000D01*
X136231000Y-106775000D01*
X136231000Y-107863790D01*
X136374347Y-107993063D01*
X136675343Y-107848948D01*
X136919227Y-107573142D01*
X136951800Y-107478461D01*
X188346092Y-107478461D01*
X188370144Y-108128460D01*
X188572613Y-108617264D01*
X188839468Y-108715927D01*
X189812395Y-107743000D01*
X190171605Y-107743000D01*
X191144532Y-108715927D01*
X191411387Y-108617264D01*
X191637908Y-108007539D01*
X191613856Y-107357540D01*
X191411387Y-106868736D01*
X191144532Y-106770073D01*
X190171605Y-107743000D01*
X189812395Y-107743000D01*
X188839468Y-106770073D01*
X188572613Y-106868736D01*
X188346092Y-107478461D01*
X136951800Y-107478461D01*
X137039000Y-107225000D01*
X137039000Y-106775000D01*
X136231000Y-106775000D01*
X135977000Y-106775000D01*
X135169000Y-106775000D01*
X131087440Y-106775000D01*
X131087440Y-106071000D01*
X135169000Y-106071000D01*
X135169000Y-106521000D01*
X135977000Y-106521000D01*
X135977000Y-105432210D01*
X136231000Y-105432210D01*
X136231000Y-106521000D01*
X137039000Y-106521000D01*
X137039000Y-106071000D01*
X136919227Y-105722858D01*
X136675343Y-105447052D01*
X136374347Y-105302937D01*
X136231000Y-105432210D01*
X135977000Y-105432210D01*
X135833653Y-105302937D01*
X135532657Y-105447052D01*
X135288773Y-105722858D01*
X135169000Y-106071000D01*
X131087440Y-106071000D01*
X131087440Y-105780000D01*
X131043162Y-105544683D01*
X130904090Y-105328559D01*
X130691890Y-105183569D01*
X130440000Y-105132560D01*
X128640000Y-105132560D01*
X128404683Y-105176838D01*
X128188559Y-105315910D01*
X128043569Y-105528110D01*
X127992560Y-105780000D01*
X113054538Y-105780000D01*
X113085767Y-105733264D01*
X113195000Y-105184113D01*
X113195000Y-105127887D01*
X113085767Y-104578736D01*
X112774698Y-104113189D01*
X112479865Y-103916187D01*
X118532752Y-103916187D01*
X118750757Y-104443800D01*
X119154077Y-104847824D01*
X119681309Y-105066750D01*
X120252187Y-105067248D01*
X120779800Y-104849243D01*
X121183824Y-104445923D01*
X121402750Y-103918691D01*
X121402752Y-103916187D01*
X123532752Y-103916187D01*
X123750757Y-104443800D01*
X124154077Y-104847824D01*
X124681309Y-105066750D01*
X125252187Y-105067248D01*
X125779800Y-104849243D01*
X126183824Y-104445923D01*
X126298037Y-104170866D01*
X132669000Y-104170866D01*
X132669000Y-105125134D01*
X132740173Y-105482943D01*
X132942855Y-105786279D01*
X133246191Y-105988961D01*
X133604000Y-106060134D01*
X133961809Y-105988961D01*
X134265145Y-105786279D01*
X134467827Y-105482943D01*
X134532860Y-105156000D01*
X147888887Y-105156000D01*
X147998120Y-105705151D01*
X148309189Y-106170698D01*
X148774736Y-106481767D01*
X149323887Y-106591000D01*
X149380113Y-106591000D01*
X149929264Y-106481767D01*
X150394811Y-106170698D01*
X150705880Y-105705151D01*
X150758584Y-105440187D01*
X158076752Y-105440187D01*
X158294757Y-105967800D01*
X158698077Y-106371824D01*
X159225309Y-106590750D01*
X159796187Y-106591248D01*
X160323800Y-106373243D01*
X160727824Y-105969923D01*
X160920877Y-105505000D01*
X164522000Y-105505000D01*
X164522000Y-105955000D01*
X164641773Y-106303142D01*
X164885657Y-106578948D01*
X165186653Y-106723063D01*
X165330000Y-106593790D01*
X165330000Y-105505000D01*
X165584000Y-105505000D01*
X165584000Y-106593790D01*
X165727347Y-106723063D01*
X166028343Y-106578948D01*
X166272227Y-106303142D01*
X166392000Y-105955000D01*
X166392000Y-105505000D01*
X174682000Y-105505000D01*
X174682000Y-105955000D01*
X174801773Y-106303142D01*
X175045657Y-106578948D01*
X175346653Y-106723063D01*
X175490000Y-106593790D01*
X175490000Y-105505000D01*
X175744000Y-105505000D01*
X175744000Y-106593790D01*
X175887347Y-106723063D01*
X176164282Y-106590468D01*
X189019073Y-106590468D01*
X189992000Y-107563395D01*
X190964927Y-106590468D01*
X190866264Y-106323613D01*
X190256539Y-106097092D01*
X189606540Y-106121144D01*
X189117736Y-106323613D01*
X189019073Y-106590468D01*
X176164282Y-106590468D01*
X176188343Y-106578948D01*
X176432227Y-106303142D01*
X176552000Y-105955000D01*
X176552000Y-105505000D01*
X175744000Y-105505000D01*
X175490000Y-105505000D01*
X174682000Y-105505000D01*
X166392000Y-105505000D01*
X165584000Y-105505000D01*
X165330000Y-105505000D01*
X164522000Y-105505000D01*
X160920877Y-105505000D01*
X160946750Y-105442691D01*
X160947248Y-104871813D01*
X160917989Y-104801000D01*
X164522000Y-104801000D01*
X164522000Y-105251000D01*
X165330000Y-105251000D01*
X165330000Y-104162210D01*
X165584000Y-104162210D01*
X165584000Y-105251000D01*
X166392000Y-105251000D01*
X166392000Y-104801000D01*
X166272227Y-104452858D01*
X166028343Y-104177052D01*
X165727347Y-104032937D01*
X165584000Y-104162210D01*
X165330000Y-104162210D01*
X165186653Y-104032937D01*
X164885657Y-104177052D01*
X164641773Y-104452858D01*
X164522000Y-104801000D01*
X160917989Y-104801000D01*
X160729243Y-104344200D01*
X160325923Y-103940176D01*
X159798691Y-103721250D01*
X159227813Y-103720752D01*
X158700200Y-103938757D01*
X158296176Y-104342077D01*
X158077250Y-104869309D01*
X158076752Y-105440187D01*
X150758584Y-105440187D01*
X150815113Y-105156000D01*
X150705880Y-104606849D01*
X150394811Y-104141302D01*
X149929264Y-103830233D01*
X149380113Y-103721000D01*
X149323887Y-103721000D01*
X148774736Y-103830233D01*
X148309189Y-104141302D01*
X147998120Y-104606849D01*
X147888887Y-105156000D01*
X134532860Y-105156000D01*
X134539000Y-105125134D01*
X134539000Y-104170866D01*
X134467827Y-103813057D01*
X134265145Y-103509721D01*
X133961809Y-103307039D01*
X133604000Y-103235866D01*
X133246191Y-103307039D01*
X132942855Y-103509721D01*
X132740173Y-103813057D01*
X132669000Y-104170866D01*
X126298037Y-104170866D01*
X126402750Y-103918691D01*
X126403248Y-103347813D01*
X126185243Y-102820200D01*
X125781923Y-102416176D01*
X125254691Y-102197250D01*
X124683813Y-102196752D01*
X124156200Y-102414757D01*
X123752176Y-102818077D01*
X123533250Y-103345309D01*
X123532752Y-103916187D01*
X121402752Y-103916187D01*
X121403248Y-103347813D01*
X121185243Y-102820200D01*
X120781923Y-102416176D01*
X120254691Y-102197250D01*
X119683813Y-102196752D01*
X119156200Y-102414757D01*
X118752176Y-102818077D01*
X118533250Y-103345309D01*
X118532752Y-103916187D01*
X112479865Y-103916187D01*
X112309151Y-103802120D01*
X111760000Y-103692887D01*
X111210849Y-103802120D01*
X110745302Y-104113189D01*
X110434233Y-104578736D01*
X110325000Y-105127887D01*
X107103104Y-105127887D01*
X107083778Y-104722546D01*
X106917864Y-104321995D01*
X106671745Y-104247861D01*
X105843605Y-105076000D01*
X105484395Y-105076000D01*
X104656255Y-104247861D01*
X104410136Y-104321995D01*
X104217035Y-104859223D01*
X51510000Y-104859223D01*
X51510000Y-103473039D01*
X78872096Y-103473039D01*
X79032959Y-103861423D01*
X79408866Y-104276389D01*
X79914959Y-104515914D01*
X80137000Y-104394629D01*
X80137000Y-103251000D01*
X80391000Y-103251000D01*
X80391000Y-104394629D01*
X80613041Y-104515914D01*
X81119134Y-104276389D01*
X81495041Y-103861423D01*
X81655904Y-103473039D01*
X81620275Y-103408187D01*
X88988752Y-103408187D01*
X89206757Y-103935800D01*
X89610077Y-104339824D01*
X90137309Y-104558750D01*
X90708187Y-104559248D01*
X91235800Y-104341243D01*
X91509264Y-104068255D01*
X104835861Y-104068255D01*
X105664000Y-104896395D01*
X106492139Y-104068255D01*
X106418005Y-103822136D01*
X105880777Y-103629035D01*
X105310546Y-103656222D01*
X104909995Y-103822136D01*
X104835861Y-104068255D01*
X91509264Y-104068255D01*
X91639824Y-103937923D01*
X91858750Y-103410691D01*
X91859248Y-102839813D01*
X91641243Y-102312200D01*
X91237923Y-101908176D01*
X90710691Y-101689250D01*
X90139813Y-101688752D01*
X89612200Y-101906757D01*
X89208176Y-102310077D01*
X88989250Y-102837309D01*
X88988752Y-103408187D01*
X81620275Y-103408187D01*
X81533915Y-103251000D01*
X80391000Y-103251000D01*
X80137000Y-103251000D01*
X78994085Y-103251000D01*
X78872096Y-103473039D01*
X51510000Y-103473039D01*
X51510000Y-102774961D01*
X78872096Y-102774961D01*
X78994085Y-102997000D01*
X80137000Y-102997000D01*
X80137000Y-101853371D01*
X80391000Y-101853371D01*
X80391000Y-102997000D01*
X81533915Y-102997000D01*
X81655904Y-102774961D01*
X81495041Y-102386577D01*
X81119134Y-101971611D01*
X80613041Y-101732086D01*
X80391000Y-101853371D01*
X80137000Y-101853371D01*
X79914959Y-101732086D01*
X79408866Y-101971611D01*
X79032959Y-102386577D01*
X78872096Y-102774961D01*
X51510000Y-102774961D01*
X51510000Y-99853750D01*
X56885000Y-99853750D01*
X56885000Y-100594309D01*
X56981673Y-100827698D01*
X57160301Y-101006327D01*
X57393690Y-101103000D01*
X58134250Y-101103000D01*
X58293000Y-100944250D01*
X58293000Y-99695000D01*
X58547000Y-99695000D01*
X58547000Y-100944250D01*
X58705750Y-101103000D01*
X59446310Y-101103000D01*
X59679699Y-101006327D01*
X59858327Y-100827698D01*
X59955000Y-100594309D01*
X59955000Y-99917041D01*
X64648086Y-99917041D01*
X64887611Y-100423134D01*
X65302577Y-100799041D01*
X65690961Y-100959904D01*
X65913000Y-100837915D01*
X65913000Y-99695000D01*
X66167000Y-99695000D01*
X66167000Y-100837915D01*
X66389039Y-100959904D01*
X66777423Y-100799041D01*
X67192389Y-100423134D01*
X67222180Y-100360187D01*
X104228752Y-100360187D01*
X104446757Y-100887800D01*
X104850077Y-101291824D01*
X105377309Y-101510750D01*
X105948187Y-101511248D01*
X106275059Y-101376187D01*
X110324752Y-101376187D01*
X110542757Y-101903800D01*
X110946077Y-102307824D01*
X111473309Y-102526750D01*
X112044187Y-102527248D01*
X112571800Y-102309243D01*
X112710418Y-102170866D01*
X135169000Y-102170866D01*
X135169000Y-103125134D01*
X135240173Y-103482943D01*
X135442855Y-103786279D01*
X135746191Y-103988961D01*
X136104000Y-104060134D01*
X136461809Y-103988961D01*
X136765145Y-103786279D01*
X136967827Y-103482943D01*
X137039000Y-103125134D01*
X137039000Y-102900866D01*
X162022000Y-102900866D01*
X162022000Y-103855134D01*
X162093173Y-104212943D01*
X162295855Y-104516279D01*
X162599191Y-104718961D01*
X162957000Y-104790134D01*
X163314809Y-104718961D01*
X163618145Y-104516279D01*
X163820827Y-104212943D01*
X163892000Y-103855134D01*
X163892000Y-103662187D01*
X168236752Y-103662187D01*
X168454757Y-104189800D01*
X168858077Y-104593824D01*
X169385309Y-104812750D01*
X169956187Y-104813248D01*
X169985829Y-104801000D01*
X174682000Y-104801000D01*
X174682000Y-105251000D01*
X175490000Y-105251000D01*
X175490000Y-104162210D01*
X175744000Y-104162210D01*
X175744000Y-105251000D01*
X176552000Y-105251000D01*
X176552000Y-104801000D01*
X176432227Y-104452858D01*
X176188343Y-104177052D01*
X175887347Y-104032937D01*
X175744000Y-104162210D01*
X175490000Y-104162210D01*
X175346653Y-104032937D01*
X175045657Y-104177052D01*
X174801773Y-104452858D01*
X174682000Y-104801000D01*
X169985829Y-104801000D01*
X170483800Y-104595243D01*
X170887824Y-104191923D01*
X171106750Y-103664691D01*
X171107248Y-103093813D01*
X171027525Y-102900866D01*
X172182000Y-102900866D01*
X172182000Y-103855134D01*
X172253173Y-104212943D01*
X172455855Y-104516279D01*
X172759191Y-104718961D01*
X173117000Y-104790134D01*
X173474809Y-104718961D01*
X173778145Y-104516279D01*
X173980827Y-104212943D01*
X174052000Y-103855134D01*
X174052000Y-102900866D01*
X173980827Y-102543057D01*
X173778145Y-102239721D01*
X173474809Y-102037039D01*
X173117000Y-101965866D01*
X172759191Y-102037039D01*
X172455855Y-102239721D01*
X172253173Y-102543057D01*
X172182000Y-102900866D01*
X171027525Y-102900866D01*
X170889243Y-102566200D01*
X170485923Y-102162176D01*
X169958691Y-101943250D01*
X169387813Y-101942752D01*
X168860200Y-102160757D01*
X168456176Y-102564077D01*
X168237250Y-103091309D01*
X168236752Y-103662187D01*
X163892000Y-103662187D01*
X163892000Y-102900866D01*
X163820827Y-102543057D01*
X163618145Y-102239721D01*
X163314809Y-102037039D01*
X162957000Y-101965866D01*
X162599191Y-102037039D01*
X162295855Y-102239721D01*
X162093173Y-102543057D01*
X162022000Y-102900866D01*
X137039000Y-102900866D01*
X137039000Y-102170866D01*
X136967827Y-101813057D01*
X136765145Y-101509721D01*
X136461809Y-101307039D01*
X136104000Y-101235866D01*
X135746191Y-101307039D01*
X135442855Y-101509721D01*
X135240173Y-101813057D01*
X135169000Y-102170866D01*
X112710418Y-102170866D01*
X112975824Y-101905923D01*
X113194750Y-101378691D01*
X113195248Y-100807813D01*
X113102302Y-100582866D01*
X147885000Y-100582866D01*
X147885000Y-101537134D01*
X147956173Y-101894943D01*
X148158855Y-102198279D01*
X148462191Y-102400961D01*
X148820000Y-102472134D01*
X149177809Y-102400961D01*
X149481145Y-102198279D01*
X149683827Y-101894943D01*
X149755000Y-101537134D01*
X149755000Y-100900866D01*
X164522000Y-100900866D01*
X164522000Y-101855134D01*
X164593173Y-102212943D01*
X164795855Y-102516279D01*
X165099191Y-102718961D01*
X165457000Y-102790134D01*
X165814809Y-102718961D01*
X166118145Y-102516279D01*
X166320827Y-102212943D01*
X166392000Y-101855134D01*
X166392000Y-100900866D01*
X174682000Y-100900866D01*
X174682000Y-101855134D01*
X174753173Y-102212943D01*
X174955855Y-102516279D01*
X175259191Y-102718961D01*
X175617000Y-102790134D01*
X175974809Y-102718961D01*
X176278145Y-102516279D01*
X176480827Y-102212943D01*
X176552000Y-101855134D01*
X176552000Y-101444887D01*
X179032000Y-101444887D01*
X179032000Y-101501113D01*
X179141233Y-102050264D01*
X179452302Y-102515811D01*
X179917849Y-102826880D01*
X180467000Y-102936113D01*
X181016151Y-102826880D01*
X181481698Y-102515811D01*
X181792767Y-102050264D01*
X181853885Y-101743000D01*
X188344560Y-101743000D01*
X188344560Y-103743000D01*
X188388838Y-103978317D01*
X188527910Y-104194441D01*
X188740110Y-104339431D01*
X188992000Y-104390440D01*
X190992000Y-104390440D01*
X191227317Y-104346162D01*
X191443441Y-104207090D01*
X191588431Y-103994890D01*
X191639440Y-103743000D01*
X191639440Y-101743000D01*
X191595162Y-101507683D01*
X191456090Y-101291559D01*
X191243890Y-101146569D01*
X190992000Y-101095560D01*
X188992000Y-101095560D01*
X188756683Y-101139838D01*
X188540559Y-101278910D01*
X188395569Y-101491110D01*
X188344560Y-101743000D01*
X181853885Y-101743000D01*
X181902000Y-101501113D01*
X181902000Y-101444887D01*
X181792767Y-100895736D01*
X181481698Y-100430189D01*
X181016151Y-100119120D01*
X180467000Y-100009887D01*
X179917849Y-100119120D01*
X179452302Y-100430189D01*
X179141233Y-100895736D01*
X179032000Y-101444887D01*
X176552000Y-101444887D01*
X176552000Y-100900866D01*
X176480827Y-100543057D01*
X176278145Y-100239721D01*
X175974809Y-100037039D01*
X175617000Y-99965866D01*
X175259191Y-100037039D01*
X174955855Y-100239721D01*
X174753173Y-100543057D01*
X174682000Y-100900866D01*
X166392000Y-100900866D01*
X166320827Y-100543057D01*
X166118145Y-100239721D01*
X165814809Y-100037039D01*
X165457000Y-99965866D01*
X165099191Y-100037039D01*
X164795855Y-100239721D01*
X164593173Y-100543057D01*
X164522000Y-100900866D01*
X149755000Y-100900866D01*
X149755000Y-100582866D01*
X149683827Y-100225057D01*
X149481145Y-99921721D01*
X149177809Y-99719039D01*
X148820000Y-99647866D01*
X148462191Y-99719039D01*
X148158855Y-99921721D01*
X147956173Y-100225057D01*
X147885000Y-100582866D01*
X113102302Y-100582866D01*
X112977243Y-100280200D01*
X112573923Y-99876176D01*
X112046691Y-99657250D01*
X111475813Y-99656752D01*
X110948200Y-99874757D01*
X110544176Y-100278077D01*
X110325250Y-100805309D01*
X110324752Y-101376187D01*
X106275059Y-101376187D01*
X106475800Y-101293243D01*
X106879824Y-100889923D01*
X107098750Y-100362691D01*
X107099248Y-99791813D01*
X106914293Y-99344187D01*
X141820752Y-99344187D01*
X142038757Y-99871800D01*
X142442077Y-100275824D01*
X142969309Y-100494750D01*
X143540187Y-100495248D01*
X144067800Y-100277243D01*
X144471824Y-99873923D01*
X144690750Y-99346691D01*
X144691248Y-98775813D01*
X144611525Y-98582866D01*
X145385000Y-98582866D01*
X145385000Y-99537134D01*
X145456173Y-99894943D01*
X145658855Y-100198279D01*
X145962191Y-100400961D01*
X146320000Y-100472134D01*
X146677809Y-100400961D01*
X146981145Y-100198279D01*
X147183827Y-99894943D01*
X147255000Y-99537134D01*
X147255000Y-98582866D01*
X147183827Y-98225057D01*
X146981145Y-97921721D01*
X146677809Y-97719039D01*
X146320000Y-97647866D01*
X145962191Y-97719039D01*
X145658855Y-97921721D01*
X145456173Y-98225057D01*
X145385000Y-98582866D01*
X144611525Y-98582866D01*
X144473243Y-98248200D01*
X144069923Y-97844176D01*
X143542691Y-97625250D01*
X142971813Y-97624752D01*
X142444200Y-97842757D01*
X142040176Y-98246077D01*
X141821250Y-98773309D01*
X141820752Y-99344187D01*
X106914293Y-99344187D01*
X106881243Y-99264200D01*
X106477923Y-98860176D01*
X105950691Y-98641250D01*
X105379813Y-98640752D01*
X104852200Y-98858757D01*
X104448176Y-99262077D01*
X104229250Y-99789309D01*
X104228752Y-100360187D01*
X67222180Y-100360187D01*
X67431914Y-99917041D01*
X67310629Y-99695000D01*
X66167000Y-99695000D01*
X65913000Y-99695000D01*
X64769371Y-99695000D01*
X64648086Y-99917041D01*
X59955000Y-99917041D01*
X59955000Y-99853750D01*
X59796250Y-99695000D01*
X58547000Y-99695000D01*
X58293000Y-99695000D01*
X57043750Y-99695000D01*
X56885000Y-99853750D01*
X51510000Y-99853750D01*
X51510000Y-97331991D01*
X56884735Y-97331991D01*
X57117932Y-97896371D01*
X57295092Y-98073841D01*
X57160301Y-98129673D01*
X56981673Y-98308302D01*
X56885000Y-98541691D01*
X56885000Y-99282250D01*
X57043750Y-99441000D01*
X58293000Y-99441000D01*
X58293000Y-99421000D01*
X58547000Y-99421000D01*
X58547000Y-99441000D01*
X59796250Y-99441000D01*
X59955000Y-99282250D01*
X59955000Y-99218959D01*
X64648086Y-99218959D01*
X64769371Y-99441000D01*
X65913000Y-99441000D01*
X65913000Y-98298085D01*
X66167000Y-98298085D01*
X66167000Y-99441000D01*
X67310629Y-99441000D01*
X67431914Y-99218959D01*
X67192389Y-98712866D01*
X66777423Y-98336959D01*
X66389039Y-98176096D01*
X66167000Y-98298085D01*
X65913000Y-98298085D01*
X65690961Y-98176096D01*
X65302577Y-98336959D01*
X64887611Y-98712866D01*
X64648086Y-99218959D01*
X59955000Y-99218959D01*
X59955000Y-98541691D01*
X59858327Y-98308302D01*
X59679699Y-98129673D01*
X59545006Y-98073881D01*
X59583208Y-98035745D01*
X76387861Y-98035745D01*
X76461995Y-98281864D01*
X76999223Y-98474965D01*
X77569454Y-98447778D01*
X77970005Y-98281864D01*
X78044139Y-98035745D01*
X77216000Y-97207605D01*
X76387861Y-98035745D01*
X59583208Y-98035745D01*
X59720551Y-97898643D01*
X59954733Y-97334670D01*
X59955189Y-96811223D01*
X75769035Y-96811223D01*
X75796222Y-97381454D01*
X75962136Y-97782005D01*
X76208255Y-97856139D01*
X77036395Y-97028000D01*
X77395605Y-97028000D01*
X78223745Y-97856139D01*
X78469864Y-97782005D01*
X78638735Y-97312187D01*
X80780752Y-97312187D01*
X80998757Y-97839800D01*
X81402077Y-98243824D01*
X81929309Y-98462750D01*
X82500187Y-98463248D01*
X83027800Y-98245243D01*
X83431824Y-97841923D01*
X83650750Y-97314691D01*
X83650752Y-97312187D01*
X88560752Y-97312187D01*
X88778757Y-97839800D01*
X89182077Y-98243824D01*
X89709309Y-98462750D01*
X90280187Y-98463248D01*
X90807800Y-98245243D01*
X91211824Y-97841923D01*
X91430750Y-97314691D01*
X91430752Y-97312187D01*
X93560752Y-97312187D01*
X93778757Y-97839800D01*
X94182077Y-98243824D01*
X94709309Y-98462750D01*
X95280187Y-98463248D01*
X95807800Y-98245243D01*
X96211824Y-97841923D01*
X96430750Y-97314691D01*
X96431000Y-97028000D01*
X123123887Y-97028000D01*
X123233120Y-97577151D01*
X123544189Y-98042698D01*
X124009736Y-98353767D01*
X124558887Y-98463000D01*
X124615113Y-98463000D01*
X125164264Y-98353767D01*
X125629811Y-98042698D01*
X125940880Y-97577151D01*
X125993584Y-97312187D01*
X133311752Y-97312187D01*
X133529757Y-97839800D01*
X133933077Y-98243824D01*
X134460309Y-98462750D01*
X135031187Y-98463248D01*
X135558800Y-98245243D01*
X135962824Y-97841923D01*
X136181750Y-97314691D01*
X136182248Y-96743813D01*
X136115747Y-96582866D01*
X147885000Y-96582866D01*
X147885000Y-97537134D01*
X147956173Y-97894943D01*
X148158855Y-98198279D01*
X148462191Y-98400961D01*
X148820000Y-98472134D01*
X149177809Y-98400961D01*
X149373975Y-98269887D01*
X174587000Y-98269887D01*
X174587000Y-98326113D01*
X174696233Y-98875264D01*
X175007302Y-99340811D01*
X175472849Y-99651880D01*
X176022000Y-99761113D01*
X176571151Y-99651880D01*
X177036698Y-99340811D01*
X177347767Y-98875264D01*
X177457000Y-98326113D01*
X177457000Y-98269887D01*
X184112000Y-98269887D01*
X184112000Y-98326113D01*
X184221233Y-98875264D01*
X184532302Y-99340811D01*
X184997849Y-99651880D01*
X185547000Y-99761113D01*
X186096151Y-99651880D01*
X186561698Y-99340811D01*
X186872767Y-98875264D01*
X186931063Y-98582187D01*
X188556752Y-98582187D01*
X188774757Y-99109800D01*
X189178077Y-99513824D01*
X189705309Y-99732750D01*
X190276187Y-99733248D01*
X190803800Y-99515243D01*
X191207824Y-99111923D01*
X191426750Y-98584691D01*
X191427248Y-98013813D01*
X191209243Y-97486200D01*
X190805923Y-97082176D01*
X190278691Y-96863250D01*
X189707813Y-96862752D01*
X189180200Y-97080757D01*
X188776176Y-97484077D01*
X188557250Y-98011309D01*
X188556752Y-98582187D01*
X186931063Y-98582187D01*
X186982000Y-98326113D01*
X186982000Y-98269887D01*
X186872767Y-97720736D01*
X186561698Y-97255189D01*
X186096151Y-96944120D01*
X185547000Y-96834887D01*
X184997849Y-96944120D01*
X184532302Y-97255189D01*
X184221233Y-97720736D01*
X184112000Y-98269887D01*
X177457000Y-98269887D01*
X177347767Y-97720736D01*
X177036698Y-97255189D01*
X176571151Y-96944120D01*
X176022000Y-96834887D01*
X175472849Y-96944120D01*
X175007302Y-97255189D01*
X174696233Y-97720736D01*
X174587000Y-98269887D01*
X149373975Y-98269887D01*
X149481145Y-98198279D01*
X149683827Y-97894943D01*
X149755000Y-97537134D01*
X149755000Y-96582866D01*
X149683827Y-96225057D01*
X149561638Y-96042187D01*
X163156752Y-96042187D01*
X163374757Y-96569800D01*
X163778077Y-96973824D01*
X164305309Y-97192750D01*
X164876187Y-97193248D01*
X165403800Y-96975243D01*
X165807824Y-96571923D01*
X166026750Y-96044691D01*
X166027248Y-95473813D01*
X165809243Y-94946200D01*
X165405923Y-94542176D01*
X164878691Y-94323250D01*
X164307813Y-94322752D01*
X163780200Y-94540757D01*
X163376176Y-94944077D01*
X163157250Y-95471309D01*
X163156752Y-96042187D01*
X149561638Y-96042187D01*
X149481145Y-95921721D01*
X149177809Y-95719039D01*
X148820000Y-95647866D01*
X148462191Y-95719039D01*
X148158855Y-95921721D01*
X147956173Y-96225057D01*
X147885000Y-96582866D01*
X136115747Y-96582866D01*
X135964243Y-96216200D01*
X135560923Y-95812176D01*
X135033691Y-95593250D01*
X134462813Y-95592752D01*
X133935200Y-95810757D01*
X133531176Y-96214077D01*
X133312250Y-96741309D01*
X133311752Y-97312187D01*
X125993584Y-97312187D01*
X126050113Y-97028000D01*
X125940880Y-96478849D01*
X125629811Y-96013302D01*
X125164264Y-95702233D01*
X124615113Y-95593000D01*
X124558887Y-95593000D01*
X124009736Y-95702233D01*
X123544189Y-96013302D01*
X123233120Y-96478849D01*
X123123887Y-97028000D01*
X96431000Y-97028000D01*
X96431248Y-96743813D01*
X96213243Y-96216200D01*
X95809923Y-95812176D01*
X95282691Y-95593250D01*
X94711813Y-95592752D01*
X94184200Y-95810757D01*
X93780176Y-96214077D01*
X93561250Y-96741309D01*
X93560752Y-97312187D01*
X91430752Y-97312187D01*
X91431248Y-96743813D01*
X91213243Y-96216200D01*
X90809923Y-95812176D01*
X90282691Y-95593250D01*
X89711813Y-95592752D01*
X89184200Y-95810757D01*
X88780176Y-96214077D01*
X88561250Y-96741309D01*
X88560752Y-97312187D01*
X83650752Y-97312187D01*
X83651248Y-96743813D01*
X83433243Y-96216200D01*
X83029923Y-95812176D01*
X82502691Y-95593250D01*
X81931813Y-95592752D01*
X81404200Y-95810757D01*
X81000176Y-96214077D01*
X80781250Y-96741309D01*
X80780752Y-97312187D01*
X78638735Y-97312187D01*
X78662965Y-97244777D01*
X78635778Y-96674546D01*
X78469864Y-96273995D01*
X78223745Y-96199861D01*
X77395605Y-97028000D01*
X77036395Y-97028000D01*
X76208255Y-96199861D01*
X75962136Y-96273995D01*
X75769035Y-96811223D01*
X59955189Y-96811223D01*
X59955265Y-96724009D01*
X59722068Y-96159629D01*
X59582938Y-96020255D01*
X76387861Y-96020255D01*
X77216000Y-96848395D01*
X78044139Y-96020255D01*
X77970005Y-95774136D01*
X77432777Y-95581035D01*
X76862546Y-95608222D01*
X76461995Y-95774136D01*
X76387861Y-96020255D01*
X59582938Y-96020255D01*
X59290643Y-95727449D01*
X58726670Y-95493267D01*
X58116009Y-95492735D01*
X57551629Y-95725932D01*
X57119449Y-96157357D01*
X56885267Y-96721330D01*
X56884735Y-97331991D01*
X51510000Y-97331991D01*
X51510000Y-93189887D01*
X168237000Y-93189887D01*
X168237000Y-93246113D01*
X168346233Y-93795264D01*
X168657302Y-94260811D01*
X169122849Y-94571880D01*
X169672000Y-94681113D01*
X170221151Y-94571880D01*
X170686698Y-94260811D01*
X170997767Y-93795264D01*
X171107000Y-93246113D01*
X171107000Y-93189887D01*
X170997767Y-92640736D01*
X170686698Y-92175189D01*
X170221151Y-91864120D01*
X169672000Y-91754887D01*
X169122849Y-91864120D01*
X168657302Y-92175189D01*
X168346233Y-92640736D01*
X168237000Y-93189887D01*
X51510000Y-93189887D01*
X51510000Y-90903887D01*
X110325000Y-90903887D01*
X110325000Y-90960113D01*
X110434233Y-91509264D01*
X110745302Y-91974811D01*
X111210849Y-92285880D01*
X111760000Y-92395113D01*
X112309151Y-92285880D01*
X112774698Y-91974811D01*
X113085767Y-91509264D01*
X113195000Y-90960113D01*
X113195000Y-90903887D01*
X113085767Y-90354736D01*
X112774698Y-89889189D01*
X112772750Y-89887887D01*
X131661000Y-89887887D01*
X131661000Y-89944113D01*
X131770233Y-90493264D01*
X132081302Y-90958811D01*
X132546849Y-91269880D01*
X133096000Y-91379113D01*
X133645151Y-91269880D01*
X134110698Y-90958811D01*
X134421767Y-90493264D01*
X134531000Y-89944113D01*
X134531000Y-89887887D01*
X134421767Y-89338736D01*
X134110698Y-88873189D01*
X134108750Y-88871887D01*
X141821000Y-88871887D01*
X141821000Y-88928113D01*
X141930233Y-89477264D01*
X142241302Y-89942811D01*
X142706849Y-90253880D01*
X143256000Y-90363113D01*
X143805151Y-90253880D01*
X144168646Y-90011000D01*
X201733000Y-90011000D01*
X201733000Y-90461000D01*
X201852773Y-90809142D01*
X202096657Y-91084948D01*
X202397653Y-91229063D01*
X202541000Y-91099790D01*
X202541000Y-90011000D01*
X202795000Y-90011000D01*
X202795000Y-91099790D01*
X202938347Y-91229063D01*
X203239343Y-91084948D01*
X203269587Y-91050745D01*
X220278861Y-91050745D01*
X220352995Y-91296864D01*
X220890223Y-91489965D01*
X221460454Y-91462778D01*
X221861005Y-91296864D01*
X221935139Y-91050745D01*
X221107000Y-90222605D01*
X220278861Y-91050745D01*
X203269587Y-91050745D01*
X203483227Y-90809142D01*
X203603000Y-90461000D01*
X203603000Y-90011000D01*
X202795000Y-90011000D01*
X202541000Y-90011000D01*
X201733000Y-90011000D01*
X144168646Y-90011000D01*
X144270698Y-89942811D01*
X144348599Y-89826223D01*
X219660035Y-89826223D01*
X219687222Y-90396454D01*
X219853136Y-90797005D01*
X220099255Y-90871139D01*
X220927395Y-90043000D01*
X221286605Y-90043000D01*
X222114745Y-90871139D01*
X222360864Y-90797005D01*
X222553965Y-90259777D01*
X222543630Y-90043000D01*
X229803887Y-90043000D01*
X229913120Y-90592151D01*
X230224189Y-91057698D01*
X230689736Y-91368767D01*
X231238887Y-91478000D01*
X231295113Y-91478000D01*
X231844264Y-91368767D01*
X232309811Y-91057698D01*
X232620880Y-90592151D01*
X232730113Y-90043000D01*
X232620880Y-89493849D01*
X232309811Y-89028302D01*
X231844264Y-88717233D01*
X231295113Y-88608000D01*
X231238887Y-88608000D01*
X230689736Y-88717233D01*
X230224189Y-89028302D01*
X229913120Y-89493849D01*
X229803887Y-90043000D01*
X222543630Y-90043000D01*
X222526778Y-89689546D01*
X222360864Y-89288995D01*
X222114745Y-89214861D01*
X221286605Y-90043000D01*
X220927395Y-90043000D01*
X220099255Y-89214861D01*
X219853136Y-89288995D01*
X219660035Y-89826223D01*
X144348599Y-89826223D01*
X144581767Y-89477264D01*
X144691000Y-88928113D01*
X144691000Y-88871887D01*
X144601550Y-88422187D01*
X174586752Y-88422187D01*
X174804757Y-88949800D01*
X175208077Y-89353824D01*
X175735309Y-89572750D01*
X176306187Y-89573248D01*
X176833800Y-89355243D01*
X177237824Y-88951923D01*
X177456750Y-88424691D01*
X177456752Y-88422187D01*
X184111752Y-88422187D01*
X184329757Y-88949800D01*
X184733077Y-89353824D01*
X185260309Y-89572750D01*
X185831187Y-89573248D01*
X186358800Y-89355243D01*
X186762824Y-88951923D01*
X186981750Y-88424691D01*
X186982024Y-88109887D01*
X188557000Y-88109887D01*
X188557000Y-88166113D01*
X188666233Y-88715264D01*
X188977302Y-89180811D01*
X189442849Y-89491880D01*
X189992000Y-89601113D01*
X190541151Y-89491880D01*
X190817843Y-89307000D01*
X201733000Y-89307000D01*
X201733000Y-89757000D01*
X202541000Y-89757000D01*
X202541000Y-88668210D01*
X202795000Y-88668210D01*
X202795000Y-89757000D01*
X203603000Y-89757000D01*
X203603000Y-89307000D01*
X203509511Y-89035255D01*
X220278861Y-89035255D01*
X221107000Y-89863395D01*
X221935139Y-89035255D01*
X221861005Y-88789136D01*
X221323777Y-88596035D01*
X220753546Y-88623222D01*
X220352995Y-88789136D01*
X220278861Y-89035255D01*
X203509511Y-89035255D01*
X203483227Y-88958858D01*
X203239343Y-88683052D01*
X202938347Y-88538937D01*
X202795000Y-88668210D01*
X202541000Y-88668210D01*
X202397653Y-88538937D01*
X202096657Y-88683052D01*
X201852773Y-88958858D01*
X201733000Y-89307000D01*
X190817843Y-89307000D01*
X191006698Y-89180811D01*
X191317767Y-88715264D01*
X191427000Y-88166113D01*
X191427000Y-88109887D01*
X191317767Y-87560736D01*
X191214955Y-87406866D01*
X199233000Y-87406866D01*
X199233000Y-88361134D01*
X199304173Y-88718943D01*
X199506855Y-89022279D01*
X199810191Y-89224961D01*
X200168000Y-89296134D01*
X200525809Y-89224961D01*
X200829145Y-89022279D01*
X201031827Y-88718943D01*
X201103000Y-88361134D01*
X201103000Y-87406866D01*
X201031827Y-87049057D01*
X200829145Y-86745721D01*
X200525809Y-86543039D01*
X200168000Y-86471866D01*
X199810191Y-86543039D01*
X199506855Y-86745721D01*
X199304173Y-87049057D01*
X199233000Y-87406866D01*
X191214955Y-87406866D01*
X191006698Y-87095189D01*
X190541151Y-86784120D01*
X189992000Y-86674887D01*
X189442849Y-86784120D01*
X188977302Y-87095189D01*
X188666233Y-87560736D01*
X188557000Y-88109887D01*
X186982024Y-88109887D01*
X186982248Y-87853813D01*
X186764243Y-87326200D01*
X186360923Y-86922176D01*
X185833691Y-86703250D01*
X185262813Y-86702752D01*
X184735200Y-86920757D01*
X184331176Y-87324077D01*
X184112250Y-87851309D01*
X184111752Y-88422187D01*
X177456752Y-88422187D01*
X177457248Y-87853813D01*
X177239243Y-87326200D01*
X176835923Y-86922176D01*
X176308691Y-86703250D01*
X175737813Y-86702752D01*
X175210200Y-86920757D01*
X174806176Y-87324077D01*
X174587250Y-87851309D01*
X174586752Y-88422187D01*
X144601550Y-88422187D01*
X144581767Y-88322736D01*
X144270698Y-87857189D01*
X143805151Y-87546120D01*
X143256000Y-87436887D01*
X142706849Y-87546120D01*
X142241302Y-87857189D01*
X141930233Y-88322736D01*
X141821000Y-88871887D01*
X134108750Y-88871887D01*
X133645151Y-88562120D01*
X133096000Y-88452887D01*
X132546849Y-88562120D01*
X132081302Y-88873189D01*
X131770233Y-89338736D01*
X131661000Y-89887887D01*
X112772750Y-89887887D01*
X112309151Y-89578120D01*
X111760000Y-89468887D01*
X111210849Y-89578120D01*
X110745302Y-89889189D01*
X110434233Y-90354736D01*
X110325000Y-90903887D01*
X51510000Y-90903887D01*
X51510000Y-89692187D01*
X64604752Y-89692187D01*
X64822757Y-90219800D01*
X65226077Y-90623824D01*
X65753309Y-90842750D01*
X66324187Y-90843248D01*
X66851800Y-90625243D01*
X67255824Y-90221923D01*
X67474750Y-89694691D01*
X67475248Y-89123813D01*
X67257243Y-88596200D01*
X66853923Y-88192176D01*
X66326691Y-87973250D01*
X65755813Y-87972752D01*
X65228200Y-88190757D01*
X64824176Y-88594077D01*
X64605250Y-89121309D01*
X64604752Y-89692187D01*
X51510000Y-89692187D01*
X51510000Y-86331887D01*
X64605000Y-86331887D01*
X64605000Y-86388113D01*
X64714233Y-86937264D01*
X65025302Y-87402811D01*
X65490849Y-87713880D01*
X66040000Y-87823113D01*
X66589151Y-87713880D01*
X67054698Y-87402811D01*
X67365767Y-86937264D01*
X67440054Y-86563795D01*
X71008716Y-86563795D01*
X71257106Y-87164943D01*
X71716637Y-87625278D01*
X72317352Y-87874716D01*
X72967795Y-87875284D01*
X73026890Y-87850866D01*
X88981000Y-87850866D01*
X88981000Y-88805134D01*
X89052173Y-89162943D01*
X89254855Y-89466279D01*
X89558191Y-89668961D01*
X89916000Y-89740134D01*
X90273809Y-89668961D01*
X90577145Y-89466279D01*
X90779827Y-89162943D01*
X90851000Y-88805134D01*
X90851000Y-87850866D01*
X90779827Y-87493057D01*
X90577145Y-87189721D01*
X90273809Y-86987039D01*
X89916000Y-86915866D01*
X89558191Y-86987039D01*
X89254855Y-87189721D01*
X89052173Y-87493057D01*
X88981000Y-87850866D01*
X73026890Y-87850866D01*
X73568943Y-87626894D01*
X74029278Y-87167363D01*
X74278716Y-86566648D01*
X74279284Y-85916205D01*
X74252287Y-85850866D01*
X86481000Y-85850866D01*
X86481000Y-86805134D01*
X86552173Y-87162943D01*
X86754855Y-87466279D01*
X87058191Y-87668961D01*
X87416000Y-87740134D01*
X87773809Y-87668961D01*
X88077145Y-87466279D01*
X88279827Y-87162943D01*
X88351000Y-86805134D01*
X88351000Y-86052661D01*
X108762758Y-86052661D01*
X108974990Y-86566303D01*
X109367630Y-86959629D01*
X109880900Y-87172757D01*
X110436661Y-87173242D01*
X110950303Y-86961010D01*
X111343629Y-86568370D01*
X111556757Y-86055100D01*
X111557180Y-85569887D01*
X163157000Y-85569887D01*
X163157000Y-85626113D01*
X163266233Y-86175264D01*
X163577302Y-86640811D01*
X164042849Y-86951880D01*
X164592000Y-87061113D01*
X165141151Y-86951880D01*
X165606698Y-86640811D01*
X165917767Y-86175264D01*
X166027000Y-85626113D01*
X166027000Y-85569887D01*
X165994574Y-85406866D01*
X201733000Y-85406866D01*
X201733000Y-86361134D01*
X201804173Y-86718943D01*
X202006855Y-87022279D01*
X202310191Y-87224961D01*
X202668000Y-87296134D01*
X203025809Y-87224961D01*
X203329145Y-87022279D01*
X203531827Y-86718943D01*
X203603000Y-86361134D01*
X203603000Y-85406866D01*
X203531827Y-85049057D01*
X203329145Y-84745721D01*
X203025809Y-84543039D01*
X202668000Y-84471866D01*
X202310191Y-84543039D01*
X202006855Y-84745721D01*
X201804173Y-85049057D01*
X201733000Y-85406866D01*
X165994574Y-85406866D01*
X165917767Y-85020736D01*
X165606698Y-84555189D01*
X165141151Y-84244120D01*
X164592000Y-84134887D01*
X164042849Y-84244120D01*
X163577302Y-84555189D01*
X163266233Y-85020736D01*
X163157000Y-85569887D01*
X111557180Y-85569887D01*
X111557242Y-85499339D01*
X111345010Y-84985697D01*
X110952370Y-84592371D01*
X110439100Y-84379243D01*
X109883339Y-84378758D01*
X109369697Y-84590990D01*
X108976371Y-84983630D01*
X108763243Y-85496900D01*
X108762758Y-86052661D01*
X88351000Y-86052661D01*
X88351000Y-85850866D01*
X88279827Y-85493057D01*
X88077145Y-85189721D01*
X87773809Y-84987039D01*
X87416000Y-84915866D01*
X87058191Y-84987039D01*
X86754855Y-85189721D01*
X86552173Y-85493057D01*
X86481000Y-85850866D01*
X74252287Y-85850866D01*
X74030894Y-85315057D01*
X73571363Y-84854722D01*
X72970648Y-84605284D01*
X72320205Y-84604716D01*
X71719057Y-84853106D01*
X71258722Y-85312637D01*
X71009284Y-85913352D01*
X71008716Y-86563795D01*
X67440054Y-86563795D01*
X67475000Y-86388113D01*
X67475000Y-86331887D01*
X67365767Y-85782736D01*
X67054698Y-85317189D01*
X66589151Y-85006120D01*
X66040000Y-84896887D01*
X65490849Y-85006120D01*
X65025302Y-85317189D01*
X64714233Y-85782736D01*
X64605000Y-86331887D01*
X51510000Y-86331887D01*
X51510000Y-83850866D01*
X88981000Y-83850866D01*
X88981000Y-84805134D01*
X89052173Y-85162943D01*
X89254855Y-85466279D01*
X89558191Y-85668961D01*
X89916000Y-85740134D01*
X90273809Y-85668961D01*
X90577145Y-85466279D01*
X90779827Y-85162943D01*
X90851000Y-84805134D01*
X90851000Y-83850866D01*
X90779827Y-83493057D01*
X90577145Y-83189721D01*
X90273809Y-82987039D01*
X89916000Y-82915866D01*
X89558191Y-82987039D01*
X89254855Y-83189721D01*
X89052173Y-83493057D01*
X88981000Y-83850866D01*
X51510000Y-83850866D01*
X51510000Y-79727887D01*
X57493000Y-79727887D01*
X57493000Y-79784113D01*
X57602233Y-80333264D01*
X57913302Y-80798811D01*
X58378849Y-81109880D01*
X58928000Y-81219113D01*
X59477151Y-81109880D01*
X59942698Y-80798811D01*
X59961370Y-80770866D01*
X126549000Y-80770866D01*
X126549000Y-81725134D01*
X126620173Y-82082943D01*
X126822855Y-82386279D01*
X127126191Y-82588961D01*
X127484000Y-82660134D01*
X127841809Y-82588961D01*
X128003721Y-82480775D01*
X137040803Y-82480775D01*
X137213233Y-82898086D01*
X137532235Y-83217645D01*
X137949244Y-83390803D01*
X138400775Y-83391197D01*
X138818086Y-83218767D01*
X139137645Y-82899765D01*
X139270345Y-82580187D01*
X141820752Y-82580187D01*
X142038757Y-83107800D01*
X142442077Y-83511824D01*
X142969309Y-83730750D01*
X143540187Y-83731248D01*
X144067800Y-83513243D01*
X144471824Y-83109923D01*
X144639054Y-82707187D01*
X188556752Y-82707187D01*
X188774757Y-83234800D01*
X189178077Y-83638824D01*
X189705309Y-83857750D01*
X190276187Y-83858248D01*
X190803800Y-83640243D01*
X191207824Y-83236923D01*
X191426750Y-82709691D01*
X191426862Y-82580187D01*
X201256752Y-82580187D01*
X201474757Y-83107800D01*
X201878077Y-83511824D01*
X202405309Y-83730750D01*
X202976187Y-83731248D01*
X203503800Y-83513243D01*
X203907824Y-83109923D01*
X204126750Y-82582691D01*
X204127248Y-82011813D01*
X203909243Y-81484200D01*
X203505923Y-81080176D01*
X202978691Y-80861250D01*
X202407813Y-80860752D01*
X201880200Y-81078757D01*
X201476176Y-81482077D01*
X201257250Y-82009309D01*
X201256752Y-82580187D01*
X191426862Y-82580187D01*
X191427248Y-82138813D01*
X191209243Y-81611200D01*
X190805923Y-81207176D01*
X190278691Y-80988250D01*
X189707813Y-80987752D01*
X189180200Y-81205757D01*
X188776176Y-81609077D01*
X188557250Y-82136309D01*
X188556752Y-82707187D01*
X144639054Y-82707187D01*
X144690750Y-82582691D01*
X144691248Y-82011813D01*
X144473243Y-81484200D01*
X144069923Y-81080176D01*
X143542691Y-80861250D01*
X142971813Y-80860752D01*
X142444200Y-81078757D01*
X142040176Y-81482077D01*
X141821250Y-82009309D01*
X141820752Y-82580187D01*
X139270345Y-82580187D01*
X139310803Y-82482756D01*
X139311197Y-82031225D01*
X139138767Y-81613914D01*
X138819765Y-81294355D01*
X138402756Y-81121197D01*
X137951225Y-81120803D01*
X137533914Y-81293233D01*
X137214355Y-81612235D01*
X137041197Y-82029244D01*
X137040803Y-82480775D01*
X128003721Y-82480775D01*
X128145145Y-82386279D01*
X128347827Y-82082943D01*
X128419000Y-81725134D01*
X128419000Y-80770866D01*
X128347827Y-80413057D01*
X128145145Y-80109721D01*
X128041080Y-80040187D01*
X131660752Y-80040187D01*
X131878757Y-80567800D01*
X132282077Y-80971824D01*
X132809309Y-81190750D01*
X133380187Y-81191248D01*
X133907800Y-80973243D01*
X134311824Y-80569923D01*
X134530750Y-80042691D01*
X134530804Y-79980775D01*
X137040803Y-79980775D01*
X137213233Y-80398086D01*
X137532235Y-80717645D01*
X137949244Y-80890803D01*
X138400775Y-80891197D01*
X138818086Y-80718767D01*
X139137645Y-80399765D01*
X139189545Y-80274775D01*
X210446803Y-80274775D01*
X210619233Y-80692086D01*
X210938235Y-81011645D01*
X211355244Y-81184803D01*
X211806775Y-81185197D01*
X212224086Y-81012767D01*
X212397050Y-80840104D01*
X223671501Y-80840104D01*
X223708648Y-81055217D01*
X224136972Y-81198112D01*
X224587375Y-81166217D01*
X224855352Y-81055217D01*
X224892499Y-80840104D01*
X224282000Y-80229605D01*
X223671501Y-80840104D01*
X212397050Y-80840104D01*
X212543645Y-80693765D01*
X212716803Y-80276756D01*
X212717127Y-79904972D01*
X223133888Y-79904972D01*
X223165783Y-80355375D01*
X223276783Y-80623352D01*
X223491896Y-80660499D01*
X224102395Y-80050000D01*
X224461605Y-80050000D01*
X225072104Y-80660499D01*
X225287217Y-80623352D01*
X225430112Y-80195028D01*
X225398217Y-79744625D01*
X225287217Y-79476648D01*
X225072104Y-79439501D01*
X224461605Y-80050000D01*
X224102395Y-80050000D01*
X223491896Y-79439501D01*
X223276783Y-79476648D01*
X223133888Y-79904972D01*
X212717127Y-79904972D01*
X212717197Y-79825225D01*
X212544767Y-79407914D01*
X212397007Y-79259896D01*
X223671501Y-79259896D01*
X224282000Y-79870395D01*
X224892499Y-79259896D01*
X224855352Y-79044783D01*
X224427028Y-78901888D01*
X223976625Y-78933783D01*
X223708648Y-79044783D01*
X223671501Y-79259896D01*
X212397007Y-79259896D01*
X212225765Y-79088355D01*
X211808756Y-78915197D01*
X211357225Y-78914803D01*
X210939914Y-79087233D01*
X210620355Y-79406235D01*
X210447197Y-79823244D01*
X210446803Y-80274775D01*
X139189545Y-80274775D01*
X139310803Y-79982756D01*
X139311197Y-79531225D01*
X139138767Y-79113914D01*
X138819765Y-78794355D01*
X138402756Y-78621197D01*
X137951225Y-78620803D01*
X137533914Y-78793233D01*
X137214355Y-79112235D01*
X137041197Y-79529244D01*
X137040803Y-79980775D01*
X134530804Y-79980775D01*
X134531248Y-79471813D01*
X134313243Y-78944200D01*
X133909923Y-78540176D01*
X133382691Y-78321250D01*
X132811813Y-78320752D01*
X132284200Y-78538757D01*
X131880176Y-78942077D01*
X131661250Y-79469309D01*
X131660752Y-80040187D01*
X128041080Y-80040187D01*
X127841809Y-79907039D01*
X127484000Y-79835866D01*
X127126191Y-79907039D01*
X126822855Y-80109721D01*
X126620173Y-80413057D01*
X126549000Y-80770866D01*
X59961370Y-80770866D01*
X60253767Y-80333264D01*
X60363000Y-79784113D01*
X60363000Y-79727887D01*
X60253767Y-79178736D01*
X60176966Y-79063795D01*
X71008716Y-79063795D01*
X71257106Y-79664943D01*
X71716637Y-80125278D01*
X72317352Y-80374716D01*
X72967795Y-80375284D01*
X73568943Y-80126894D01*
X74029278Y-79667363D01*
X74278716Y-79066648D01*
X74278846Y-78916661D01*
X82422758Y-78916661D01*
X82634990Y-79430303D01*
X83027630Y-79823629D01*
X83540900Y-80036757D01*
X84096661Y-80037242D01*
X84610303Y-79825010D01*
X85003629Y-79432370D01*
X85216757Y-78919100D01*
X85216759Y-78916661D01*
X88222758Y-78916661D01*
X88434990Y-79430303D01*
X88827630Y-79823629D01*
X89340900Y-80036757D01*
X89896661Y-80037242D01*
X90410303Y-79825010D01*
X90803629Y-79432370D01*
X91016757Y-78919100D01*
X91017242Y-78363339D01*
X90805010Y-77849697D01*
X90742922Y-77787500D01*
X95428060Y-77787500D01*
X95428060Y-79692500D01*
X95472338Y-79927817D01*
X95611410Y-80143941D01*
X95823610Y-80288931D01*
X96075500Y-80339940D01*
X97980500Y-80339940D01*
X98215817Y-80295662D01*
X98431941Y-80156590D01*
X98576931Y-79944390D01*
X98627940Y-79692500D01*
X98627940Y-79092661D01*
X101802758Y-79092661D01*
X102014990Y-79606303D01*
X102407630Y-79999629D01*
X102920900Y-80212757D01*
X103476661Y-80213242D01*
X103990303Y-80001010D01*
X104383629Y-79608370D01*
X104596757Y-79095100D01*
X104597039Y-78770866D01*
X124049000Y-78770866D01*
X124049000Y-79725134D01*
X124120173Y-80082943D01*
X124322855Y-80386279D01*
X124626191Y-80588961D01*
X124984000Y-80660134D01*
X125341809Y-80588961D01*
X125645145Y-80386279D01*
X125847827Y-80082943D01*
X125919000Y-79725134D01*
X125919000Y-78770866D01*
X125847827Y-78413057D01*
X125645145Y-78109721D01*
X125341809Y-77907039D01*
X124984000Y-77835866D01*
X124626191Y-77907039D01*
X124322855Y-78109721D01*
X124120173Y-78413057D01*
X124049000Y-78770866D01*
X104597039Y-78770866D01*
X104597242Y-78539339D01*
X104385010Y-78025697D01*
X103992370Y-77632371D01*
X103479100Y-77419243D01*
X102923339Y-77418758D01*
X102409697Y-77630990D01*
X102016371Y-78023630D01*
X101803243Y-78536900D01*
X101802758Y-79092661D01*
X98627940Y-79092661D01*
X98627940Y-77787500D01*
X98583662Y-77552183D01*
X98444590Y-77336059D01*
X98232390Y-77191069D01*
X97980500Y-77140060D01*
X96075500Y-77140060D01*
X95840183Y-77184338D01*
X95624059Y-77323410D01*
X95479069Y-77535610D01*
X95428060Y-77787500D01*
X90742922Y-77787500D01*
X90412370Y-77456371D01*
X89899100Y-77243243D01*
X89343339Y-77242758D01*
X88829697Y-77454990D01*
X88436371Y-77847630D01*
X88223243Y-78360900D01*
X88222758Y-78916661D01*
X85216759Y-78916661D01*
X85217242Y-78363339D01*
X85005010Y-77849697D01*
X84612370Y-77456371D01*
X84099100Y-77243243D01*
X83543339Y-77242758D01*
X83029697Y-77454990D01*
X82636371Y-77847630D01*
X82423243Y-78360900D01*
X82422758Y-78916661D01*
X74278846Y-78916661D01*
X74279284Y-78416205D01*
X74030894Y-77815057D01*
X73571363Y-77354722D01*
X72970648Y-77105284D01*
X72320205Y-77104716D01*
X71719057Y-77353106D01*
X71258722Y-77812637D01*
X71009284Y-78413352D01*
X71008716Y-79063795D01*
X60176966Y-79063795D01*
X59942698Y-78713189D01*
X59477151Y-78402120D01*
X58928000Y-78292887D01*
X58378849Y-78402120D01*
X57913302Y-78713189D01*
X57602233Y-79178736D01*
X57493000Y-79727887D01*
X51510000Y-79727887D01*
X51510000Y-76484187D01*
X64604752Y-76484187D01*
X64822757Y-77011800D01*
X65226077Y-77415824D01*
X65753309Y-77634750D01*
X66324187Y-77635248D01*
X66851800Y-77417243D01*
X67255824Y-77013923D01*
X67356750Y-76770866D01*
X126549000Y-76770866D01*
X126549000Y-77725134D01*
X126620173Y-78082943D01*
X126822855Y-78386279D01*
X127126191Y-78588961D01*
X127484000Y-78660134D01*
X127841809Y-78588961D01*
X128145145Y-78386279D01*
X128347827Y-78082943D01*
X128419000Y-77725134D01*
X128419000Y-77480775D01*
X137040803Y-77480775D01*
X137213233Y-77898086D01*
X137532235Y-78217645D01*
X137949244Y-78390803D01*
X138400775Y-78391197D01*
X138818086Y-78218767D01*
X139137645Y-77899765D01*
X139270345Y-77580187D01*
X141820752Y-77580187D01*
X142038757Y-78107800D01*
X142442077Y-78511824D01*
X142969309Y-78730750D01*
X143540187Y-78731248D01*
X144067800Y-78513243D01*
X144471824Y-78109923D01*
X144690750Y-77582691D01*
X144691139Y-77136000D01*
X233045769Y-77136000D01*
X233169465Y-77757861D01*
X233521720Y-78285049D01*
X234048908Y-78637304D01*
X234670769Y-78761000D01*
X236753231Y-78761000D01*
X237375092Y-78637304D01*
X237902280Y-78285049D01*
X238254535Y-77757861D01*
X238378231Y-77136000D01*
X238254535Y-76514139D01*
X237902280Y-75986951D01*
X237375092Y-75634696D01*
X236753231Y-75511000D01*
X234670769Y-75511000D01*
X234048908Y-75634696D01*
X233521720Y-75986951D01*
X233169465Y-76514139D01*
X233045769Y-77136000D01*
X144691139Y-77136000D01*
X144691248Y-77011813D01*
X144473243Y-76484200D01*
X144069923Y-76080176D01*
X143542691Y-75861250D01*
X142971813Y-75860752D01*
X142444200Y-76078757D01*
X142040176Y-76482077D01*
X141821250Y-77009309D01*
X141820752Y-77580187D01*
X139270345Y-77580187D01*
X139310803Y-77482756D01*
X139311197Y-77031225D01*
X139138767Y-76613914D01*
X138819765Y-76294355D01*
X138402756Y-76121197D01*
X137951225Y-76120803D01*
X137533914Y-76293233D01*
X137214355Y-76612235D01*
X137041197Y-77029244D01*
X137040803Y-77480775D01*
X128419000Y-77480775D01*
X128419000Y-76770866D01*
X128347827Y-76413057D01*
X128145145Y-76109721D01*
X127841809Y-75907039D01*
X127484000Y-75835866D01*
X127126191Y-75907039D01*
X126822855Y-76109721D01*
X126620173Y-76413057D01*
X126549000Y-76770866D01*
X67356750Y-76770866D01*
X67474750Y-76486691D01*
X67475248Y-75915813D01*
X67392134Y-75714661D01*
X157352758Y-75714661D01*
X157564990Y-76228303D01*
X157957630Y-76621629D01*
X158470900Y-76834757D01*
X159026661Y-76835242D01*
X159540303Y-76623010D01*
X159933629Y-76230370D01*
X160146757Y-75717100D01*
X160146759Y-75714661D01*
X170052758Y-75714661D01*
X170264990Y-76228303D01*
X170657630Y-76621629D01*
X171170900Y-76834757D01*
X171726661Y-76835242D01*
X172240303Y-76623010D01*
X172633629Y-76230370D01*
X172846757Y-75717100D01*
X172847242Y-75161339D01*
X172844530Y-75154775D01*
X210446803Y-75154775D01*
X210619233Y-75572086D01*
X210938235Y-75891645D01*
X211355244Y-76064803D01*
X211806775Y-76065197D01*
X212224086Y-75892767D01*
X212543645Y-75573765D01*
X212716803Y-75156756D01*
X212717197Y-74705225D01*
X212544767Y-74287914D01*
X212225765Y-73968355D01*
X211808756Y-73795197D01*
X211357225Y-73794803D01*
X210939914Y-73967233D01*
X210620355Y-74286235D01*
X210447197Y-74703244D01*
X210446803Y-75154775D01*
X172844530Y-75154775D01*
X172635010Y-74647697D01*
X172242370Y-74254371D01*
X171729100Y-74041243D01*
X171173339Y-74040758D01*
X170659697Y-74252990D01*
X170266371Y-74645630D01*
X170053243Y-75158900D01*
X170052758Y-75714661D01*
X160146759Y-75714661D01*
X160147242Y-75161339D01*
X159935010Y-74647697D01*
X159542370Y-74254371D01*
X159029100Y-74041243D01*
X158473339Y-74040758D01*
X157959697Y-74252990D01*
X157566371Y-74645630D01*
X157353243Y-75158900D01*
X157352758Y-75714661D01*
X67392134Y-75714661D01*
X67257243Y-75388200D01*
X66853923Y-74984176D01*
X66326691Y-74765250D01*
X65755813Y-74764752D01*
X65228200Y-74982757D01*
X64824176Y-75386077D01*
X64605250Y-75913309D01*
X64604752Y-76484187D01*
X51510000Y-76484187D01*
X51510000Y-73974388D01*
X95440225Y-73974388D01*
X95681398Y-74558072D01*
X96127579Y-75005032D01*
X96710841Y-75247224D01*
X97342388Y-75247775D01*
X97926072Y-75006602D01*
X98373032Y-74560421D01*
X98615224Y-73977159D01*
X98615775Y-73345612D01*
X98374602Y-72761928D01*
X98256880Y-72644000D01*
X101152887Y-72644000D01*
X101262120Y-73193151D01*
X101573189Y-73658698D01*
X102038736Y-73969767D01*
X102587887Y-74079000D01*
X102644113Y-74079000D01*
X103193264Y-73969767D01*
X103658811Y-73658698D01*
X103969880Y-73193151D01*
X104022584Y-72928187D01*
X111340752Y-72928187D01*
X111558757Y-73455800D01*
X111962077Y-73859824D01*
X112489309Y-74078750D01*
X113060187Y-74079248D01*
X113587800Y-73861243D01*
X113991824Y-73457923D01*
X114210750Y-72930691D01*
X114210752Y-72928187D01*
X114468752Y-72928187D01*
X114686757Y-73455800D01*
X115090077Y-73859824D01*
X115617309Y-74078750D01*
X116188187Y-74079248D01*
X116715800Y-73861243D01*
X117119824Y-73457923D01*
X117338750Y-72930691D01*
X117338752Y-72928187D01*
X119468752Y-72928187D01*
X119686757Y-73455800D01*
X120090077Y-73859824D01*
X120617309Y-74078750D01*
X121188187Y-74079248D01*
X121715800Y-73861243D01*
X122119824Y-73457923D01*
X122338750Y-72930691D01*
X122339248Y-72359813D01*
X122121243Y-71832200D01*
X121717923Y-71428176D01*
X121190691Y-71209250D01*
X120619813Y-71208752D01*
X120092200Y-71426757D01*
X119688176Y-71830077D01*
X119469250Y-72357309D01*
X119468752Y-72928187D01*
X117338752Y-72928187D01*
X117339248Y-72359813D01*
X117121243Y-71832200D01*
X116717923Y-71428176D01*
X116190691Y-71209250D01*
X115619813Y-71208752D01*
X115092200Y-71426757D01*
X114688176Y-71830077D01*
X114469250Y-72357309D01*
X114468752Y-72928187D01*
X114210752Y-72928187D01*
X114211248Y-72359813D01*
X113993243Y-71832200D01*
X113589923Y-71428176D01*
X113062691Y-71209250D01*
X112491813Y-71208752D01*
X111964200Y-71426757D01*
X111560176Y-71830077D01*
X111341250Y-72357309D01*
X111340752Y-72928187D01*
X104022584Y-72928187D01*
X104079113Y-72644000D01*
X103969880Y-72094849D01*
X103658811Y-71629302D01*
X103193264Y-71318233D01*
X102644113Y-71209000D01*
X102587887Y-71209000D01*
X102038736Y-71318233D01*
X101573189Y-71629302D01*
X101262120Y-72094849D01*
X101152887Y-72644000D01*
X98256880Y-72644000D01*
X97928421Y-72314968D01*
X97345159Y-72072776D01*
X96713612Y-72072225D01*
X96129928Y-72313398D01*
X95682968Y-72759579D01*
X95440776Y-73342841D01*
X95440225Y-73974388D01*
X51510000Y-73974388D01*
X51510000Y-72107887D01*
X64605000Y-72107887D01*
X64605000Y-72164113D01*
X64714233Y-72713264D01*
X65025302Y-73178811D01*
X65490849Y-73489880D01*
X66040000Y-73599113D01*
X66589151Y-73489880D01*
X67054698Y-73178811D01*
X67365767Y-72713264D01*
X67475000Y-72164113D01*
X67475000Y-72107887D01*
X67365767Y-71558736D01*
X67257472Y-71396661D01*
X76622758Y-71396661D01*
X76834990Y-71910303D01*
X77227630Y-72303629D01*
X77740900Y-72516757D01*
X78296661Y-72517242D01*
X78810303Y-72305010D01*
X79203629Y-71912370D01*
X79416757Y-71399100D01*
X79416759Y-71396661D01*
X82422758Y-71396661D01*
X82634990Y-71910303D01*
X83027630Y-72303629D01*
X83540900Y-72516757D01*
X84096661Y-72517242D01*
X84610303Y-72305010D01*
X85003629Y-71912370D01*
X85216757Y-71399100D01*
X85217242Y-70843339D01*
X85005010Y-70329697D01*
X84612370Y-69936371D01*
X84099100Y-69723243D01*
X83543339Y-69722758D01*
X83029697Y-69934990D01*
X82636371Y-70327630D01*
X82423243Y-70840900D01*
X82422758Y-71396661D01*
X79416759Y-71396661D01*
X79417242Y-70843339D01*
X79205010Y-70329697D01*
X78812370Y-69936371D01*
X78299100Y-69723243D01*
X77743339Y-69722758D01*
X77229697Y-69934990D01*
X76836371Y-70327630D01*
X76623243Y-70840900D01*
X76622758Y-71396661D01*
X67257472Y-71396661D01*
X67054698Y-71093189D01*
X66589151Y-70782120D01*
X66040000Y-70672887D01*
X65490849Y-70782120D01*
X65025302Y-71093189D01*
X64714233Y-71558736D01*
X64605000Y-72107887D01*
X51510000Y-72107887D01*
X51510000Y-69880187D01*
X57492752Y-69880187D01*
X57710757Y-70407800D01*
X58114077Y-70811824D01*
X58641309Y-71030750D01*
X59212187Y-71031248D01*
X59739800Y-70813243D01*
X60143824Y-70409923D01*
X60362750Y-69882691D01*
X60363000Y-69596000D01*
X110542000Y-69596000D01*
X110542000Y-69905672D01*
X110596046Y-70177377D01*
X110749954Y-70407718D01*
X110980295Y-70561626D01*
X111252000Y-70615672D01*
X111523705Y-70561626D01*
X111754046Y-70407718D01*
X111907954Y-70177377D01*
X111962000Y-69905672D01*
X111962000Y-69596000D01*
X111907954Y-69324295D01*
X111754046Y-69093954D01*
X111523705Y-68940046D01*
X111252000Y-68886000D01*
X110980295Y-68940046D01*
X110749954Y-69093954D01*
X110596046Y-69324295D01*
X110542000Y-69596000D01*
X60363000Y-69596000D01*
X60363248Y-69311813D01*
X60145243Y-68784200D01*
X59741923Y-68380176D01*
X59214691Y-68161250D01*
X58643813Y-68160752D01*
X58116200Y-68378757D01*
X57712176Y-68782077D01*
X57493250Y-69309309D01*
X57492752Y-69880187D01*
X51510000Y-69880187D01*
X51510000Y-67340187D01*
X96100752Y-67340187D01*
X96318757Y-67867800D01*
X96722077Y-68271824D01*
X97249309Y-68490750D01*
X97820187Y-68491248D01*
X98347800Y-68273243D01*
X98751824Y-67869923D01*
X98970750Y-67342691D01*
X98970752Y-67340187D01*
X101100752Y-67340187D01*
X101318757Y-67867800D01*
X101722077Y-68271824D01*
X102249309Y-68490750D01*
X102820187Y-68491248D01*
X103347800Y-68273243D01*
X103577556Y-68043887D01*
X111849000Y-68043887D01*
X111849000Y-68100113D01*
X111958233Y-68649264D01*
X112269302Y-69114811D01*
X112734849Y-69425880D01*
X113284000Y-69535113D01*
X113299650Y-69532000D01*
X141608560Y-69532000D01*
X141608560Y-71532000D01*
X141652838Y-71767317D01*
X141791910Y-71983441D01*
X142004110Y-72128431D01*
X142256000Y-72179440D01*
X144256000Y-72179440D01*
X144491317Y-72135162D01*
X144707441Y-71996090D01*
X144852431Y-71783890D01*
X144903440Y-71532000D01*
X144903440Y-71404187D01*
X180428752Y-71404187D01*
X180646757Y-71931800D01*
X181050077Y-72335824D01*
X181577309Y-72554750D01*
X182148187Y-72555248D01*
X182675800Y-72337243D01*
X182778334Y-72234887D01*
X188557000Y-72234887D01*
X188557000Y-72291113D01*
X188666233Y-72840264D01*
X188977302Y-73305811D01*
X189442849Y-73616880D01*
X189992000Y-73726113D01*
X190541151Y-73616880D01*
X191006698Y-73305811D01*
X191317767Y-72840264D01*
X191376063Y-72547187D01*
X191811752Y-72547187D01*
X192029757Y-73074800D01*
X192433077Y-73478824D01*
X192960309Y-73697750D01*
X193531187Y-73698248D01*
X194058800Y-73480243D01*
X194462824Y-73076923D01*
X194681750Y-72549691D01*
X194681752Y-72547187D01*
X196811752Y-72547187D01*
X197029757Y-73074800D01*
X197433077Y-73478824D01*
X197960309Y-73697750D01*
X198531187Y-73698248D01*
X199058800Y-73480243D01*
X199462824Y-73076923D01*
X199669086Y-72580187D01*
X201256752Y-72580187D01*
X201474757Y-73107800D01*
X201878077Y-73511824D01*
X202405309Y-73730750D01*
X202976187Y-73731248D01*
X203503800Y-73513243D01*
X203907824Y-73109923D01*
X204126750Y-72582691D01*
X204126756Y-72574775D01*
X210446803Y-72574775D01*
X210619233Y-72992086D01*
X210938235Y-73311645D01*
X211355244Y-73484803D01*
X211806775Y-73485197D01*
X212224086Y-73312767D01*
X212543645Y-72993765D01*
X212716803Y-72576756D01*
X212716804Y-72574775D01*
X223146803Y-72574775D01*
X223319233Y-72992086D01*
X223638235Y-73311645D01*
X224055244Y-73484803D01*
X224506775Y-73485197D01*
X224924086Y-73312767D01*
X225243645Y-72993765D01*
X225416803Y-72576756D01*
X225417197Y-72125225D01*
X225244767Y-71707914D01*
X224925765Y-71388355D01*
X224508756Y-71215197D01*
X224057225Y-71214803D01*
X223639914Y-71387233D01*
X223320355Y-71706235D01*
X223147197Y-72123244D01*
X223146803Y-72574775D01*
X212716804Y-72574775D01*
X212717197Y-72125225D01*
X212544767Y-71707914D01*
X212225765Y-71388355D01*
X211808756Y-71215197D01*
X211357225Y-71214803D01*
X210939914Y-71387233D01*
X210620355Y-71706235D01*
X210447197Y-72123244D01*
X210446803Y-72574775D01*
X204126756Y-72574775D01*
X204127248Y-72011813D01*
X203909243Y-71484200D01*
X203571633Y-71146000D01*
X233084560Y-71146000D01*
X233084560Y-73126000D01*
X233128838Y-73361317D01*
X233267910Y-73577441D01*
X233480110Y-73722431D01*
X233732000Y-73773440D01*
X237692000Y-73773440D01*
X237927317Y-73729162D01*
X238143441Y-73590090D01*
X238288431Y-73377890D01*
X238339440Y-73126000D01*
X238339440Y-71146000D01*
X238295162Y-70910683D01*
X238156090Y-70694559D01*
X237943890Y-70549569D01*
X237692000Y-70498560D01*
X233732000Y-70498560D01*
X233496683Y-70542838D01*
X233280559Y-70681910D01*
X233135569Y-70894110D01*
X233084560Y-71146000D01*
X203571633Y-71146000D01*
X203505923Y-71080176D01*
X202978691Y-70861250D01*
X202407813Y-70860752D01*
X201880200Y-71078757D01*
X201476176Y-71482077D01*
X201257250Y-72009309D01*
X201256752Y-72580187D01*
X199669086Y-72580187D01*
X199681750Y-72549691D01*
X199682248Y-71978813D01*
X199464243Y-71451200D01*
X199060923Y-71047176D01*
X198533691Y-70828250D01*
X197962813Y-70827752D01*
X197435200Y-71045757D01*
X197031176Y-71449077D01*
X196812250Y-71976309D01*
X196811752Y-72547187D01*
X194681752Y-72547187D01*
X194682248Y-71978813D01*
X194464243Y-71451200D01*
X194060923Y-71047176D01*
X193533691Y-70828250D01*
X192962813Y-70827752D01*
X192435200Y-71045757D01*
X192031176Y-71449077D01*
X191812250Y-71976309D01*
X191811752Y-72547187D01*
X191376063Y-72547187D01*
X191427000Y-72291113D01*
X191427000Y-72234887D01*
X191317767Y-71685736D01*
X191006698Y-71220189D01*
X190541151Y-70909120D01*
X189992000Y-70799887D01*
X189442849Y-70909120D01*
X188977302Y-71220189D01*
X188666233Y-71685736D01*
X188557000Y-72234887D01*
X182778334Y-72234887D01*
X183079824Y-71933923D01*
X183298750Y-71406691D01*
X183299248Y-70835813D01*
X183081243Y-70308200D01*
X182677923Y-69904176D01*
X182150691Y-69685250D01*
X181579813Y-69684752D01*
X181052200Y-69902757D01*
X180648176Y-70306077D01*
X180429250Y-70833309D01*
X180428752Y-71404187D01*
X144903440Y-71404187D01*
X144903440Y-69532000D01*
X144871953Y-69364661D01*
X163702758Y-69364661D01*
X163914990Y-69878303D01*
X164307630Y-70271629D01*
X164820900Y-70484757D01*
X165376661Y-70485242D01*
X165890303Y-70273010D01*
X166283629Y-69880370D01*
X166496757Y-69367100D01*
X166497242Y-68811339D01*
X166285010Y-68297697D01*
X165892370Y-67904371D01*
X165379100Y-67691243D01*
X164823339Y-67690758D01*
X164309697Y-67902990D01*
X163916371Y-68295630D01*
X163703243Y-68808900D01*
X163702758Y-69364661D01*
X144871953Y-69364661D01*
X144859162Y-69296683D01*
X144720090Y-69080559D01*
X144507890Y-68935569D01*
X144256000Y-68884560D01*
X142256000Y-68884560D01*
X142020683Y-68928838D01*
X141804559Y-69067910D01*
X141659569Y-69280110D01*
X141608560Y-69532000D01*
X113299650Y-69532000D01*
X113833151Y-69425880D01*
X114298698Y-69114811D01*
X114609767Y-68649264D01*
X114668063Y-68356187D01*
X117436752Y-68356187D01*
X117654757Y-68883800D01*
X118058077Y-69287824D01*
X118585309Y-69506750D01*
X119156187Y-69507248D01*
X119683800Y-69289243D01*
X120087824Y-68885923D01*
X120306750Y-68358691D01*
X120307248Y-67787813D01*
X120089243Y-67260200D01*
X119685923Y-66856176D01*
X119272559Y-66684532D01*
X142283073Y-66684532D01*
X142381736Y-66951387D01*
X142991461Y-67177908D01*
X143641460Y-67153856D01*
X144130264Y-66951387D01*
X144228927Y-66684532D01*
X143256000Y-65711605D01*
X142283073Y-66684532D01*
X119272559Y-66684532D01*
X119158691Y-66637250D01*
X118587813Y-66636752D01*
X118060200Y-66854757D01*
X117656176Y-67258077D01*
X117437250Y-67785309D01*
X117436752Y-68356187D01*
X114668063Y-68356187D01*
X114719000Y-68100113D01*
X114719000Y-68043887D01*
X114609767Y-67494736D01*
X114298698Y-67029189D01*
X113833151Y-66718120D01*
X113284000Y-66608887D01*
X112734849Y-66718120D01*
X112269302Y-67029189D01*
X111958233Y-67494736D01*
X111849000Y-68043887D01*
X103577556Y-68043887D01*
X103751824Y-67869923D01*
X103970750Y-67342691D01*
X103971248Y-66771813D01*
X103753243Y-66244200D01*
X103349923Y-65840176D01*
X102822691Y-65621250D01*
X102251813Y-65620752D01*
X101724200Y-65838757D01*
X101320176Y-66242077D01*
X101101250Y-66769309D01*
X101100752Y-67340187D01*
X98970752Y-67340187D01*
X98971248Y-66771813D01*
X98753243Y-66244200D01*
X98349923Y-65840176D01*
X97822691Y-65621250D01*
X97251813Y-65620752D01*
X96724200Y-65838757D01*
X96320176Y-66242077D01*
X96101250Y-66769309D01*
X96100752Y-67340187D01*
X51510000Y-67340187D01*
X51510000Y-65532000D01*
X68378000Y-65532000D01*
X68378000Y-66040000D01*
X68432046Y-66311705D01*
X68585954Y-66542046D01*
X68816295Y-66695954D01*
X69088000Y-66750000D01*
X69359705Y-66695954D01*
X69590046Y-66542046D01*
X69743954Y-66311705D01*
X69798000Y-66040000D01*
X69798000Y-65532000D01*
X69745380Y-65267461D01*
X141610092Y-65267461D01*
X141634144Y-65917460D01*
X141836613Y-66406264D01*
X142103468Y-66504927D01*
X143076395Y-65532000D01*
X143435605Y-65532000D01*
X144408532Y-66504927D01*
X144675387Y-66406264D01*
X144901908Y-65796539D01*
X144877856Y-65146540D01*
X144675387Y-64657736D01*
X144408532Y-64559073D01*
X143435605Y-65532000D01*
X143076395Y-65532000D01*
X142103468Y-64559073D01*
X141836613Y-64657736D01*
X141610092Y-65267461D01*
X69745380Y-65267461D01*
X69743954Y-65260295D01*
X69590046Y-65029954D01*
X69359705Y-64876046D01*
X69088000Y-64822000D01*
X68816295Y-64876046D01*
X68585954Y-65029954D01*
X68432046Y-65260295D01*
X68378000Y-65532000D01*
X51510000Y-65532000D01*
X51510000Y-60960000D01*
X51712426Y-60960000D01*
X52014075Y-62476493D01*
X52873099Y-63762114D01*
X54158720Y-64621138D01*
X55675213Y-64922787D01*
X57191706Y-64621138D01*
X57553390Y-64379468D01*
X142283073Y-64379468D01*
X143256000Y-65352395D01*
X144228927Y-64379468D01*
X144130264Y-64112613D01*
X143520539Y-63886092D01*
X142870540Y-63910144D01*
X142381736Y-64112613D01*
X142283073Y-64379468D01*
X57553390Y-64379468D01*
X58477327Y-63762114D01*
X59336351Y-62476493D01*
X59379376Y-62260187D01*
X64604752Y-62260187D01*
X64822757Y-62787800D01*
X65226077Y-63191824D01*
X65753309Y-63410750D01*
X66324187Y-63411248D01*
X66851800Y-63193243D01*
X67030693Y-63014661D01*
X157352758Y-63014661D01*
X157564990Y-63528303D01*
X157957630Y-63921629D01*
X158470900Y-64134757D01*
X159026661Y-64135242D01*
X159540303Y-63923010D01*
X159933629Y-63530370D01*
X160146757Y-63017100D01*
X160146759Y-63014661D01*
X170052758Y-63014661D01*
X170264990Y-63528303D01*
X170657630Y-63921629D01*
X171170900Y-64134757D01*
X171726661Y-64135242D01*
X172240303Y-63923010D01*
X172633629Y-63530370D01*
X172642917Y-63508000D01*
X221864560Y-63508000D01*
X221864560Y-64508000D01*
X221908838Y-64743317D01*
X222047910Y-64959441D01*
X222260110Y-65104431D01*
X222512000Y-65155440D01*
X223512000Y-65155440D01*
X223747317Y-65111162D01*
X223963441Y-64972090D01*
X224108431Y-64759890D01*
X224159440Y-64508000D01*
X224159440Y-64293750D01*
X225941000Y-64293750D01*
X225941000Y-64634309D01*
X226037673Y-64867698D01*
X226216301Y-65046327D01*
X226449690Y-65143000D01*
X226790250Y-65143000D01*
X226949000Y-64984250D01*
X226949000Y-64135000D01*
X227203000Y-64135000D01*
X227203000Y-64984250D01*
X227361750Y-65143000D01*
X227702310Y-65143000D01*
X227935699Y-65046327D01*
X228114327Y-64867698D01*
X228211000Y-64634309D01*
X228211000Y-64293750D01*
X228052250Y-64135000D01*
X227203000Y-64135000D01*
X226949000Y-64135000D01*
X226099750Y-64135000D01*
X225941000Y-64293750D01*
X224159440Y-64293750D01*
X224159440Y-63508000D01*
X224135674Y-63381691D01*
X225941000Y-63381691D01*
X225941000Y-63722250D01*
X226099750Y-63881000D01*
X226949000Y-63881000D01*
X226949000Y-63031750D01*
X227203000Y-63031750D01*
X227203000Y-63881000D01*
X228052250Y-63881000D01*
X228211000Y-63722250D01*
X228211000Y-63381691D01*
X228114327Y-63148302D01*
X227935699Y-62969673D01*
X227702310Y-62873000D01*
X227361750Y-62873000D01*
X227203000Y-63031750D01*
X226949000Y-63031750D01*
X226790250Y-62873000D01*
X226449690Y-62873000D01*
X226216301Y-62969673D01*
X226037673Y-63148302D01*
X225941000Y-63381691D01*
X224135674Y-63381691D01*
X224115162Y-63272683D01*
X223976090Y-63056559D01*
X223763890Y-62911569D01*
X223512000Y-62860560D01*
X222512000Y-62860560D01*
X222276683Y-62904838D01*
X222060559Y-63043910D01*
X221915569Y-63256110D01*
X221864560Y-63508000D01*
X172642917Y-63508000D01*
X172846757Y-63017100D01*
X172847242Y-62461339D01*
X172635010Y-61947697D01*
X172242370Y-61554371D01*
X171729100Y-61341243D01*
X171173339Y-61340758D01*
X170659697Y-61552990D01*
X170266371Y-61945630D01*
X170053243Y-62458900D01*
X170052758Y-63014661D01*
X160146759Y-63014661D01*
X160147242Y-62461339D01*
X159935010Y-61947697D01*
X159542370Y-61554371D01*
X159029100Y-61341243D01*
X158473339Y-61340758D01*
X157959697Y-61552990D01*
X157566371Y-61945630D01*
X157353243Y-62458900D01*
X157352758Y-63014661D01*
X67030693Y-63014661D01*
X67255824Y-62789923D01*
X67474750Y-62262691D01*
X67475248Y-61691813D01*
X67257243Y-61164200D01*
X67025335Y-60931887D01*
X180429000Y-60931887D01*
X180429000Y-60988113D01*
X180538233Y-61537264D01*
X180849302Y-62002811D01*
X181314849Y-62313880D01*
X181864000Y-62423113D01*
X182413151Y-62313880D01*
X182878698Y-62002811D01*
X183189767Y-61537264D01*
X183299000Y-60988113D01*
X183299000Y-60931887D01*
X183189767Y-60382736D01*
X182878698Y-59917189D01*
X182413151Y-59606120D01*
X181864000Y-59496887D01*
X181314849Y-59606120D01*
X180849302Y-59917189D01*
X180538233Y-60382736D01*
X180429000Y-60931887D01*
X67025335Y-60931887D01*
X66853923Y-60760176D01*
X66326691Y-60541250D01*
X65755813Y-60540752D01*
X65228200Y-60758757D01*
X64824176Y-61162077D01*
X64605250Y-61689309D01*
X64604752Y-62260187D01*
X59379376Y-62260187D01*
X59638000Y-60960000D01*
X59336351Y-59443507D01*
X59331335Y-59436000D01*
X207324887Y-59436000D01*
X207434120Y-59985151D01*
X207745189Y-60450698D01*
X208210736Y-60761767D01*
X208759887Y-60871000D01*
X208816113Y-60871000D01*
X209365264Y-60761767D01*
X209830811Y-60450698D01*
X210141880Y-59985151D01*
X210194584Y-59720187D01*
X217512752Y-59720187D01*
X217730757Y-60247800D01*
X218134077Y-60651824D01*
X218661309Y-60870750D01*
X219232187Y-60871248D01*
X219751222Y-60656787D01*
X234797213Y-60656787D01*
X235098862Y-62173280D01*
X235957886Y-63458901D01*
X237243507Y-64317925D01*
X238760000Y-64619574D01*
X240276493Y-64317925D01*
X241562114Y-63458901D01*
X242421138Y-62173280D01*
X242722787Y-60656787D01*
X242421138Y-59140294D01*
X241562114Y-57854673D01*
X240276493Y-56995649D01*
X238760000Y-56694000D01*
X237243507Y-56995649D01*
X235957886Y-57854673D01*
X235098862Y-59140294D01*
X234797213Y-60656787D01*
X219751222Y-60656787D01*
X219759800Y-60653243D01*
X220163824Y-60249923D01*
X220382750Y-59722691D01*
X220383248Y-59151813D01*
X220165243Y-58624200D01*
X219761923Y-58220176D01*
X219234691Y-58001250D01*
X218663813Y-58000752D01*
X218136200Y-58218757D01*
X217732176Y-58622077D01*
X217513250Y-59149309D01*
X217512752Y-59720187D01*
X210194584Y-59720187D01*
X210251113Y-59436000D01*
X210141880Y-58886849D01*
X209830811Y-58421302D01*
X209365264Y-58110233D01*
X208816113Y-58001000D01*
X208759887Y-58001000D01*
X208210736Y-58110233D01*
X207745189Y-58421302D01*
X207434120Y-58886849D01*
X207324887Y-59436000D01*
X59331335Y-59436000D01*
X58477327Y-58157886D01*
X57191706Y-57298862D01*
X55675213Y-56997213D01*
X54158720Y-57298862D01*
X52873099Y-58157886D01*
X52014075Y-59443507D01*
X51712426Y-60960000D01*
X51510000Y-60960000D01*
X51510000Y-56590000D01*
X112725732Y-56590000D01*
X112472200Y-56694757D01*
M02*
