G04 #@! TF.FileFunction,Copper,L1,Top,Signal*
%FSLAX46Y46*%
G04 Gerber Fmt 4.6, Leading zero omitted, Abs format (unit mm)*
G04 Created by KiCad (PCBNEW 4.0.5) date 06/17/17 09:26:11*
%MOMM*%
%LPD*%
G01*
G04 APERTURE LIST*
%ADD10C,0.100000*%
%ADD11R,1.000000X1.000000*%
%ADD12C,1.524000*%
%ADD13C,2.000000*%
%ADD14C,1.600000*%
%ADD15R,2.000000X2.000000*%
%ADD16R,1.905000X1.905000*%
%ADD17C,1.905000*%
%ADD18C,1.000000*%
%ADD19R,1.800000X1.800000*%
%ADD20C,1.800000*%
%ADD21R,3.960000X1.980000*%
%ADD22O,3.960000X1.980000*%
%ADD23O,1.600000X1.600000*%
%ADD24O,0.600000X1.500000*%
%ADD25O,1.800000X1.800000*%
%ADD26C,0.250000*%
%ADD27C,0.254000*%
G04 APERTURE END LIST*
D10*
D11*
X223012000Y-64008000D03*
D12*
X171450000Y-62738000D03*
X158750000Y-62738000D03*
X165100000Y-69088000D03*
X171450000Y-75438000D03*
X158750000Y-75438000D03*
D13*
X72644000Y-78740000D03*
X72644000Y-86240000D03*
D14*
X82216000Y-97028000D03*
X77216000Y-97028000D03*
X102536000Y-67056000D03*
X97536000Y-67056000D03*
X94996000Y-97028000D03*
X89996000Y-97028000D03*
X105664000Y-100076000D03*
X105664000Y-105076000D03*
X120904000Y-72644000D03*
X115904000Y-72644000D03*
X119888000Y-109220000D03*
X119888000Y-114220000D03*
X124968000Y-103632000D03*
X119968000Y-103632000D03*
D15*
X143256000Y-70532000D03*
D13*
X143256000Y-65532000D03*
D14*
X143256000Y-77296000D03*
X143256000Y-82296000D03*
X139700000Y-109380000D03*
X139700000Y-119380000D03*
D15*
X151384000Y-114300000D03*
D13*
X151384000Y-119300000D03*
D15*
X189992000Y-102743000D03*
D13*
X189992000Y-107743000D03*
D14*
X198247000Y-72263000D03*
X193247000Y-72263000D03*
X202692000Y-72296000D03*
X202692000Y-82296000D03*
D11*
X227076000Y-64008000D03*
D16*
X97028000Y-78740000D03*
D17*
X97028000Y-73660000D03*
D12*
X110160000Y-85776000D03*
X110160000Y-85776000D03*
X103200000Y-78816000D03*
D18*
X138176000Y-82256000D03*
X138176000Y-79756000D03*
X138176000Y-77256000D03*
D19*
X58420000Y-99568000D03*
D20*
X58420000Y-97028000D03*
D21*
X235712000Y-72136000D03*
D22*
X235712000Y-77136000D03*
D14*
X66040000Y-61976000D03*
D23*
X66040000Y-72136000D03*
D14*
X66040000Y-76200000D03*
D23*
X66040000Y-86360000D03*
D14*
X66040000Y-89408000D03*
D23*
X66040000Y-99568000D03*
D14*
X90424000Y-103124000D03*
D23*
X80264000Y-103124000D03*
D14*
X112776000Y-72644000D03*
D23*
X102616000Y-72644000D03*
D14*
X113284000Y-57912000D03*
D23*
X113284000Y-68072000D03*
D14*
X118872000Y-68072000D03*
D23*
X118872000Y-57912000D03*
D14*
X111760000Y-101092000D03*
D23*
X111760000Y-90932000D03*
D14*
X111760000Y-115316000D03*
D23*
X111760000Y-105156000D03*
D14*
X134747000Y-97028000D03*
D23*
X124587000Y-97028000D03*
D14*
X133096000Y-79756000D03*
D23*
X133096000Y-89916000D03*
D14*
X143256000Y-99060000D03*
D23*
X143256000Y-88900000D03*
D14*
X164592000Y-95758000D03*
D23*
X164592000Y-85598000D03*
D14*
X159512000Y-105156000D03*
D23*
X149352000Y-105156000D03*
D14*
X159512000Y-119380000D03*
D23*
X159512000Y-109220000D03*
D14*
X176022000Y-88138000D03*
D23*
X176022000Y-98298000D03*
D14*
X169672000Y-103378000D03*
D23*
X169672000Y-93218000D03*
D14*
X181864000Y-71120000D03*
D23*
X181864000Y-60960000D03*
D14*
X180467000Y-111633000D03*
D23*
X180467000Y-101473000D03*
D14*
X185547000Y-88138000D03*
D23*
X185547000Y-98298000D03*
D14*
X189992000Y-82423000D03*
D23*
X189992000Y-72263000D03*
D14*
X189992000Y-98298000D03*
D23*
X189992000Y-88138000D03*
D14*
X221107000Y-90043000D03*
D23*
X231267000Y-90043000D03*
D14*
X218948000Y-59436000D03*
D23*
X208788000Y-59436000D03*
D14*
X58928000Y-69596000D03*
D23*
X58928000Y-79756000D03*
D24*
X89916000Y-88328000D03*
X89916000Y-84328000D03*
X87416000Y-86328000D03*
X127484000Y-81248000D03*
X127484000Y-77248000D03*
X124984000Y-79248000D03*
X136104000Y-106648000D03*
X136104000Y-102648000D03*
X133604000Y-104648000D03*
X148820000Y-101060000D03*
X148820000Y-97060000D03*
X146320000Y-99060000D03*
X165457000Y-105378000D03*
X165457000Y-101378000D03*
X162957000Y-103378000D03*
X175617000Y-105378000D03*
X175617000Y-101378000D03*
X173117000Y-103378000D03*
X202668000Y-89884000D03*
X202668000Y-85884000D03*
X200168000Y-87884000D03*
D12*
X78020000Y-71120000D03*
X89620000Y-78640000D03*
X83820000Y-78640000D03*
X83820000Y-71120000D03*
D18*
X224282000Y-80050000D03*
X224282000Y-72350000D03*
X211582000Y-72350000D03*
X211582000Y-74930000D03*
X211582000Y-80050000D03*
D19*
X129540000Y-106680000D03*
D25*
X129540000Y-119380000D03*
D26*
X61468000Y-67056000D02*
X61468000Y-66548000D01*
X61468000Y-66548000D02*
X66040000Y-61976000D01*
X58928000Y-69596000D02*
X61468000Y-67056000D01*
X113284000Y-57912000D02*
X70104000Y-57912000D01*
X70104000Y-57912000D02*
X66040000Y-61976000D01*
X118872000Y-57912000D02*
X117740630Y-57912000D01*
X117740630Y-57912000D02*
X113284000Y-57912000D01*
X127484000Y-77248000D02*
X127484000Y-66524000D01*
X127484000Y-66524000D02*
X118872000Y-57912000D01*
X138176000Y-77256000D02*
X127492000Y-77256000D01*
X127492000Y-77256000D02*
X127484000Y-77248000D01*
X143256000Y-77296000D02*
X138216000Y-77296000D01*
X138216000Y-77296000D02*
X138176000Y-77256000D01*
X143256000Y-70532000D02*
X143256000Y-71782000D01*
X143256000Y-71782000D02*
X143256000Y-77296000D01*
X176022000Y-88138000D02*
X173482000Y-85598000D01*
X173482000Y-85598000D02*
X164592000Y-85598000D01*
X165100000Y-69088000D02*
X165100000Y-85090000D01*
X165100000Y-85090000D02*
X164592000Y-85598000D01*
X165100000Y-69088000D02*
X143450000Y-69088000D01*
X143450000Y-69088000D02*
X143256000Y-69282000D01*
X143256000Y-69282000D02*
X143256000Y-70532000D01*
X165100000Y-69088000D02*
X165861999Y-68326001D01*
X165861999Y-68326001D02*
X174497999Y-68326001D01*
X174497999Y-68326001D02*
X181064001Y-61759999D01*
X181064001Y-61759999D02*
X181864000Y-60960000D01*
X208788000Y-59436000D02*
X183388000Y-59436000D01*
X183388000Y-59436000D02*
X181864000Y-60960000D01*
X83820000Y-78640000D02*
X72744000Y-78640000D01*
X72744000Y-78640000D02*
X72644000Y-78740000D01*
X72644000Y-86240000D02*
X87328000Y-86240000D01*
X87328000Y-86240000D02*
X87416000Y-86328000D01*
X66040000Y-86360000D02*
X72524000Y-86360000D01*
X72524000Y-86360000D02*
X72644000Y-86240000D01*
X66040000Y-86360000D02*
X66040000Y-89408000D01*
X89996000Y-97028000D02*
X89996000Y-88408000D01*
X89996000Y-88408000D02*
X89916000Y-88328000D01*
X89996000Y-97028000D02*
X89196001Y-96228001D01*
X89196001Y-96228001D02*
X83015999Y-96228001D01*
X83015999Y-96228001D02*
X82216000Y-97028000D01*
X90424000Y-103124000D02*
X91223999Y-102324001D01*
X91223999Y-102324001D02*
X91223999Y-98255999D01*
X91223999Y-98255999D02*
X90795999Y-97827999D01*
X90795999Y-97827999D02*
X89996000Y-97028000D01*
X227076000Y-64008000D02*
X227076000Y-64758000D01*
X222504000Y-69330000D02*
X222504000Y-78272000D01*
X223782001Y-79550001D02*
X224282000Y-80050000D01*
X227076000Y-64758000D02*
X222504000Y-69330000D01*
X222504000Y-78272000D02*
X223782001Y-79550001D01*
X165457000Y-105378000D02*
X166007000Y-105378000D01*
X166007000Y-105378000D02*
X175617000Y-105378000D01*
X163576000Y-119380000D02*
X165457000Y-117499000D01*
X165457000Y-117499000D02*
X165457000Y-105378000D01*
X159512000Y-119380000D02*
X163576000Y-119380000D01*
X151384000Y-119300000D02*
X139780000Y-119300000D01*
X139780000Y-119300000D02*
X139700000Y-119380000D01*
X159512000Y-119380000D02*
X151464000Y-119380000D01*
X151464000Y-119380000D02*
X151384000Y-119300000D01*
X138568630Y-119380000D02*
X136144000Y-119380000D01*
X136144000Y-119380000D02*
X129540000Y-119380000D01*
X136104000Y-106648000D02*
X136104000Y-119340000D01*
X136104000Y-119340000D02*
X136144000Y-119380000D01*
X139700000Y-119380000D02*
X138568630Y-119380000D01*
X125476000Y-119380000D02*
X129540000Y-119380000D01*
X125476000Y-115316000D02*
X125476000Y-119380000D01*
X119888000Y-114220000D02*
X124380000Y-114220000D01*
X124380000Y-114220000D02*
X125476000Y-115316000D01*
X111760000Y-115316000D02*
X118792000Y-115316000D01*
X118792000Y-115316000D02*
X119888000Y-114220000D01*
X105664000Y-105076000D02*
X82216000Y-105076000D01*
X82216000Y-105076000D02*
X80264000Y-103124000D01*
X111760000Y-115316000D02*
X105664000Y-109220000D01*
X105664000Y-109220000D02*
X105664000Y-105076000D01*
X80264000Y-103124000D02*
X78232000Y-103124000D01*
X78232000Y-103124000D02*
X74676000Y-99568000D01*
X66040000Y-99568000D02*
X74676000Y-99568000D01*
X74676000Y-99568000D02*
X77216000Y-97028000D01*
X58420000Y-99568000D02*
X66040000Y-99568000D01*
X180467000Y-111633000D02*
X178181000Y-111633000D01*
X178181000Y-111633000D02*
X175617000Y-109069000D01*
X175617000Y-109069000D02*
X175617000Y-105378000D01*
X187071000Y-111633000D02*
X187071000Y-110664000D01*
X187071000Y-110664000D02*
X189992000Y-107743000D01*
X180467000Y-111633000D02*
X187071000Y-111633000D01*
X221107000Y-90043000D02*
X202827000Y-90043000D01*
X202827000Y-90043000D02*
X202668000Y-89884000D01*
X224282000Y-80050000D02*
X224282000Y-86868000D01*
X224282000Y-86868000D02*
X221107000Y-90043000D01*
X202668000Y-89884000D02*
X202668000Y-95067000D01*
X202668000Y-95067000D02*
X189992000Y-107743000D01*
X94996000Y-97028000D02*
X106248000Y-85776000D01*
X106248000Y-85776000D02*
X110160000Y-85776000D01*
X102616000Y-72644000D02*
X110160000Y-80188000D01*
X110160000Y-80188000D02*
X110160000Y-85776000D01*
X102536000Y-67056000D02*
X102536000Y-72564000D01*
X102536000Y-72564000D02*
X102616000Y-72644000D01*
X97028000Y-73660000D02*
X89916000Y-80772000D01*
X89916000Y-80772000D02*
X89916000Y-84328000D01*
X97536000Y-67056000D02*
X96736001Y-67855999D01*
X96736001Y-67855999D02*
X96736001Y-68871999D01*
X96736001Y-68871999D02*
X94488000Y-71120000D01*
X83820000Y-71120000D02*
X94488000Y-71120000D01*
X94488000Y-71120000D02*
X97028000Y-73660000D01*
X113284000Y-68072000D02*
X113284000Y-72136000D01*
X113284000Y-72136000D02*
X112776000Y-72644000D01*
X112776000Y-72644000D02*
X115904000Y-72644000D01*
X111760000Y-88900000D02*
X112776000Y-87884000D01*
X112776000Y-87884000D02*
X112776000Y-72644000D01*
X108204000Y-88900000D02*
X111760000Y-88900000D01*
X106463999Y-90640001D02*
X108204000Y-88900000D01*
X105664000Y-100076000D02*
X106463999Y-99276001D01*
X106463999Y-99276001D02*
X106463999Y-90640001D01*
X123444000Y-78232000D02*
X120904000Y-75692000D01*
X123444000Y-79248000D02*
X123444000Y-78232000D01*
X124984000Y-79248000D02*
X123444000Y-79248000D01*
X123444000Y-79248000D02*
X111760000Y-90932000D01*
X120904000Y-72644000D02*
X120904000Y-75718000D01*
X124434000Y-79248000D02*
X124984000Y-79248000D01*
X118872000Y-68072000D02*
X118872000Y-70612000D01*
X118872000Y-70612000D02*
X120904000Y-72644000D01*
X119888000Y-90932000D02*
X119968000Y-91012000D01*
X119968000Y-91012000D02*
X119968000Y-103632000D01*
X127484000Y-83336000D02*
X119888000Y-90932000D01*
X127484000Y-81248000D02*
X127484000Y-83336000D01*
X119968000Y-103632000D02*
X119968000Y-109140000D01*
X119968000Y-109140000D02*
X119888000Y-109220000D01*
X111760000Y-101092000D02*
X113284000Y-102616000D01*
X113284000Y-102616000D02*
X113284000Y-103632000D01*
X111760000Y-105156000D02*
X113284000Y-103632000D01*
X113284000Y-103632000D02*
X119968000Y-103632000D01*
X133604000Y-104648000D02*
X130422000Y-104648000D01*
X130422000Y-104648000D02*
X129540000Y-105530000D01*
X129540000Y-105530000D02*
X129540000Y-106680000D01*
X124968000Y-103632000D02*
X127642000Y-103632000D01*
X127642000Y-103632000D02*
X129540000Y-105530000D01*
X124587000Y-97028000D02*
X124587000Y-103251000D01*
X124587000Y-103251000D02*
X124968000Y-103632000D01*
X143256000Y-88900000D02*
X143256000Y-82296000D01*
X138176000Y-82256000D02*
X143216000Y-82256000D01*
X143216000Y-82256000D02*
X143256000Y-82296000D01*
X139700000Y-109380000D02*
X148020000Y-101060000D01*
X148020000Y-101060000D02*
X148820000Y-101060000D01*
X149352000Y-105156000D02*
X149352000Y-113518000D01*
X149352000Y-113518000D02*
X150134000Y-114300000D01*
X150134000Y-114300000D02*
X151384000Y-114300000D01*
X189992000Y-98298000D02*
X189992000Y-102743000D01*
X202692000Y-72296000D02*
X203491999Y-71496001D01*
X203491999Y-71496001D02*
X210728001Y-71496001D01*
X210728001Y-71496001D02*
X211082001Y-71850001D01*
X211082001Y-71850001D02*
X211582000Y-72350000D01*
X198247000Y-72263000D02*
X202659000Y-72263000D01*
X202659000Y-72263000D02*
X202692000Y-72296000D01*
X193247000Y-72263000D02*
X192115630Y-72263000D01*
X192115630Y-72263000D02*
X189992000Y-72263000D01*
X202668000Y-85884000D02*
X202668000Y-82320000D01*
X202668000Y-82320000D02*
X202692000Y-82296000D01*
X202692000Y-82296000D02*
X209336000Y-82296000D01*
X209336000Y-82296000D02*
X211582000Y-80050000D01*
X103200000Y-78816000D02*
X97104000Y-78816000D01*
X97104000Y-78816000D02*
X97028000Y-78740000D01*
X133096000Y-79756000D02*
X133895999Y-78956001D01*
X133895999Y-78956001D02*
X137376001Y-78956001D01*
X137376001Y-78956001D02*
X137676001Y-79256001D01*
X137676001Y-79256001D02*
X138176000Y-79756000D01*
X58928000Y-79756000D02*
X58928000Y-96520000D01*
X58928000Y-96520000D02*
X58420000Y-97028000D01*
X224282000Y-72350000D02*
X235498000Y-72350000D01*
X235498000Y-72350000D02*
X235712000Y-72136000D01*
X231267000Y-85725000D02*
X235712000Y-81280000D01*
X235712000Y-81280000D02*
X235712000Y-77136000D01*
X231267000Y-90043000D02*
X231267000Y-85725000D01*
X66040000Y-72136000D02*
X66040000Y-76200000D01*
X134747000Y-97028000D02*
X134747000Y-91567000D01*
X134747000Y-91567000D02*
X133096000Y-89916000D01*
X136104000Y-102648000D02*
X136104000Y-98385000D01*
X136104000Y-98385000D02*
X134747000Y-97028000D01*
X146320000Y-99060000D02*
X143256000Y-99060000D01*
X148820000Y-97060000D02*
X163290000Y-97060000D01*
X163290000Y-97060000D02*
X164592000Y-95758000D01*
X159512000Y-109220000D02*
X159512000Y-108088630D01*
X159512000Y-108088630D02*
X159512000Y-105156000D01*
X159512000Y-105156000D02*
X161290000Y-103378000D01*
X161290000Y-103378000D02*
X162957000Y-103378000D01*
X166624000Y-99211000D02*
X165457000Y-100378000D01*
X165457000Y-100378000D02*
X165457000Y-101378000D01*
X166624000Y-94563998D02*
X166624000Y-99211000D01*
X167169999Y-94017999D02*
X166624000Y-94563998D01*
X169672000Y-93218000D02*
X168872001Y-94017999D01*
X168872001Y-94017999D02*
X167169999Y-94017999D01*
X176022000Y-98298000D02*
X174752000Y-98298000D01*
X174752000Y-98298000D02*
X169672000Y-93218000D01*
X175617000Y-101378000D02*
X180372000Y-101378000D01*
X180372000Y-101378000D02*
X180467000Y-101473000D01*
X180467000Y-101473000D02*
X180467000Y-99441000D01*
X180467000Y-99441000D02*
X181864000Y-98044000D01*
X181864000Y-98044000D02*
X182118000Y-98298000D01*
X182118000Y-98298000D02*
X185547000Y-98298000D01*
X181864000Y-71120000D02*
X181864000Y-98044000D01*
X189992000Y-88138000D02*
X185547000Y-88138000D01*
X200168000Y-87884000D02*
X190246000Y-87884000D01*
X190246000Y-87884000D02*
X189992000Y-88138000D01*
X189992000Y-88138000D02*
X189992000Y-82423000D01*
X218948000Y-67564000D02*
X218948000Y-64516000D01*
X218948000Y-64516000D02*
X218948000Y-59436000D01*
X223012000Y-64008000D02*
X222262000Y-64008000D01*
X222262000Y-64008000D02*
X221754000Y-64516000D01*
X221754000Y-64516000D02*
X218948000Y-64516000D01*
X211582000Y-74930000D02*
X218948000Y-67564000D01*
X219075000Y-59563000D02*
X218948000Y-59436000D01*
D27*
G36*
X112472200Y-56694757D02*
X112068176Y-57098077D01*
X112045785Y-57152000D01*
X70104000Y-57152000D01*
X69813161Y-57209852D01*
X69566599Y-57374599D01*
X66378454Y-60562744D01*
X66326691Y-60541250D01*
X65755813Y-60540752D01*
X65228200Y-60758757D01*
X64824176Y-61162077D01*
X64605250Y-61689309D01*
X64604752Y-62260187D01*
X64627049Y-62314149D01*
X60930599Y-66010599D01*
X60765852Y-66257161D01*
X60708000Y-66548000D01*
X60708000Y-66741198D01*
X59266454Y-68182744D01*
X59214691Y-68161250D01*
X58643813Y-68160752D01*
X58116200Y-68378757D01*
X57712176Y-68782077D01*
X57493250Y-69309309D01*
X57492752Y-69880187D01*
X57710757Y-70407800D01*
X58114077Y-70811824D01*
X58641309Y-71030750D01*
X59212187Y-71031248D01*
X59739800Y-70813243D01*
X60143824Y-70409923D01*
X60362750Y-69882691D01*
X60363248Y-69311813D01*
X60340951Y-69257851D01*
X62005401Y-67593401D01*
X62170148Y-67346840D01*
X62182648Y-67284000D01*
X62228000Y-67056000D01*
X62228000Y-66862802D01*
X63558802Y-65532000D01*
X68378000Y-65532000D01*
X68378000Y-66040000D01*
X68432046Y-66311705D01*
X68585954Y-66542046D01*
X68816295Y-66695954D01*
X69088000Y-66750000D01*
X69359705Y-66695954D01*
X69590046Y-66542046D01*
X69743954Y-66311705D01*
X69798000Y-66040000D01*
X69798000Y-65532000D01*
X69743954Y-65260295D01*
X69590046Y-65029954D01*
X69359705Y-64876046D01*
X69088000Y-64822000D01*
X68816295Y-64876046D01*
X68585954Y-65029954D01*
X68432046Y-65260295D01*
X68378000Y-65532000D01*
X63558802Y-65532000D01*
X65701546Y-63389256D01*
X65753309Y-63410750D01*
X66324187Y-63411248D01*
X66851800Y-63193243D01*
X67255824Y-62789923D01*
X67474750Y-62262691D01*
X67475248Y-61691813D01*
X67452951Y-61637851D01*
X70418802Y-58672000D01*
X112045354Y-58672000D01*
X112066757Y-58723800D01*
X112470077Y-59127824D01*
X112997309Y-59346750D01*
X113568187Y-59347248D01*
X114095800Y-59129243D01*
X114499824Y-58725923D01*
X114522215Y-58672000D01*
X117668333Y-58672000D01*
X117857302Y-58954811D01*
X118322849Y-59265880D01*
X118872000Y-59375113D01*
X119195886Y-59310688D01*
X126724000Y-66838802D01*
X126724000Y-76257668D01*
X126620173Y-76413057D01*
X126549000Y-76770866D01*
X126549000Y-77725134D01*
X126620173Y-78082943D01*
X126822855Y-78386279D01*
X127126191Y-78588961D01*
X127484000Y-78660134D01*
X127841809Y-78588961D01*
X128145145Y-78386279D01*
X128347827Y-78082943D01*
X128361143Y-78016000D01*
X137330941Y-78016000D01*
X137532235Y-78217645D01*
X137575842Y-78235752D01*
X137376001Y-78196001D01*
X133895999Y-78196001D01*
X133653413Y-78244255D01*
X133605159Y-78253853D01*
X133457687Y-78352391D01*
X133382691Y-78321250D01*
X132811813Y-78320752D01*
X132284200Y-78538757D01*
X131880176Y-78942077D01*
X131661250Y-79469309D01*
X131660752Y-80040187D01*
X131878757Y-80567800D01*
X132282077Y-80971824D01*
X132809309Y-81190750D01*
X133380187Y-81191248D01*
X133907800Y-80973243D01*
X134311824Y-80569923D01*
X134530750Y-80042691D01*
X134531035Y-79716001D01*
X137041034Y-79716001D01*
X137040803Y-79980775D01*
X137213233Y-80398086D01*
X137532235Y-80717645D01*
X137949244Y-80890803D01*
X138400775Y-80891197D01*
X138818086Y-80718767D01*
X139137645Y-80399765D01*
X139310803Y-79982756D01*
X139311197Y-79531225D01*
X139138767Y-79113914D01*
X138819765Y-78794355D01*
X138402756Y-78621197D01*
X138115749Y-78620947D01*
X137913402Y-78418600D01*
X137744666Y-78305854D01*
X137949244Y-78390803D01*
X138400775Y-78391197D01*
X138818086Y-78218767D01*
X138981137Y-78056000D01*
X142017354Y-78056000D01*
X142038757Y-78107800D01*
X142442077Y-78511824D01*
X142969309Y-78730750D01*
X143540187Y-78731248D01*
X144067800Y-78513243D01*
X144471824Y-78109923D01*
X144690750Y-77582691D01*
X144691248Y-77011813D01*
X144473243Y-76484200D01*
X144069923Y-76080176D01*
X144016000Y-76057785D01*
X144016000Y-75714661D01*
X157352758Y-75714661D01*
X157564990Y-76228303D01*
X157957630Y-76621629D01*
X158470900Y-76834757D01*
X159026661Y-76835242D01*
X159540303Y-76623010D01*
X159933629Y-76230370D01*
X160146757Y-75717100D01*
X160147242Y-75161339D01*
X159935010Y-74647697D01*
X159542370Y-74254371D01*
X159029100Y-74041243D01*
X158473339Y-74040758D01*
X157959697Y-74252990D01*
X157566371Y-74645630D01*
X157353243Y-75158900D01*
X157352758Y-75714661D01*
X144016000Y-75714661D01*
X144016000Y-72179440D01*
X144256000Y-72179440D01*
X144491317Y-72135162D01*
X144707441Y-71996090D01*
X144852431Y-71783890D01*
X144903440Y-71532000D01*
X144903440Y-69848000D01*
X163902469Y-69848000D01*
X163914990Y-69878303D01*
X164307630Y-70271629D01*
X164340000Y-70285070D01*
X164340000Y-84185013D01*
X164042849Y-84244120D01*
X163577302Y-84555189D01*
X163266233Y-85020736D01*
X163157000Y-85569887D01*
X163157000Y-85626113D01*
X163266233Y-86175264D01*
X163577302Y-86640811D01*
X164042849Y-86951880D01*
X164592000Y-87061113D01*
X165141151Y-86951880D01*
X165606698Y-86640811D01*
X165795667Y-86358000D01*
X173167198Y-86358000D01*
X174608744Y-87799546D01*
X174587250Y-87851309D01*
X174586752Y-88422187D01*
X174804757Y-88949800D01*
X175208077Y-89353824D01*
X175735309Y-89572750D01*
X176306187Y-89573248D01*
X176833800Y-89355243D01*
X177237824Y-88951923D01*
X177456750Y-88424691D01*
X177457248Y-87853813D01*
X177239243Y-87326200D01*
X176835923Y-86922176D01*
X176308691Y-86703250D01*
X175737813Y-86702752D01*
X175683851Y-86725049D01*
X174019401Y-85060599D01*
X173772839Y-84895852D01*
X173482000Y-84838000D01*
X165860000Y-84838000D01*
X165860000Y-75714661D01*
X170052758Y-75714661D01*
X170264990Y-76228303D01*
X170657630Y-76621629D01*
X171170900Y-76834757D01*
X171726661Y-76835242D01*
X172240303Y-76623010D01*
X172633629Y-76230370D01*
X172846757Y-75717100D01*
X172847242Y-75161339D01*
X172635010Y-74647697D01*
X172242370Y-74254371D01*
X171729100Y-74041243D01*
X171173339Y-74040758D01*
X170659697Y-74252990D01*
X170266371Y-74645630D01*
X170053243Y-75158900D01*
X170052758Y-75714661D01*
X165860000Y-75714661D01*
X165860000Y-70285531D01*
X165890303Y-70273010D01*
X166283629Y-69880370D01*
X166496757Y-69367100D01*
X166497002Y-69086001D01*
X174497999Y-69086001D01*
X174788838Y-69028149D01*
X175035400Y-68863402D01*
X181540114Y-62358688D01*
X181864000Y-62423113D01*
X182413151Y-62313880D01*
X182878698Y-62002811D01*
X183189767Y-61537264D01*
X183299000Y-60988113D01*
X183299000Y-60931887D01*
X183243904Y-60654898D01*
X183702802Y-60196000D01*
X207575005Y-60196000D01*
X207745189Y-60450698D01*
X208210736Y-60761767D01*
X208759887Y-60871000D01*
X208816113Y-60871000D01*
X209365264Y-60761767D01*
X209830811Y-60450698D01*
X210141880Y-59985151D01*
X210251113Y-59436000D01*
X210141880Y-58886849D01*
X209830811Y-58421302D01*
X209365264Y-58110233D01*
X208816113Y-58001000D01*
X208759887Y-58001000D01*
X208210736Y-58110233D01*
X207745189Y-58421302D01*
X207575005Y-58676000D01*
X183388000Y-58676000D01*
X183147695Y-58723800D01*
X183097160Y-58733852D01*
X182850599Y-58898599D01*
X182187886Y-59561312D01*
X181864000Y-59496887D01*
X181314849Y-59606120D01*
X180849302Y-59917189D01*
X180538233Y-60382736D01*
X180429000Y-60931887D01*
X180429000Y-60988113D01*
X180484096Y-61265102D01*
X174183197Y-67566001D01*
X165861999Y-67566001D01*
X165571159Y-67623853D01*
X165435348Y-67714599D01*
X165379100Y-67691243D01*
X164823339Y-67690758D01*
X164309697Y-67902990D01*
X163916371Y-68295630D01*
X163902930Y-68328000D01*
X143450000Y-68328000D01*
X143207414Y-68376254D01*
X143159160Y-68385852D01*
X142912599Y-68550599D01*
X142718599Y-68744599D01*
X142625080Y-68884560D01*
X142256000Y-68884560D01*
X142020683Y-68928838D01*
X141804559Y-69067910D01*
X141659569Y-69280110D01*
X141608560Y-69532000D01*
X141608560Y-71532000D01*
X141652838Y-71767317D01*
X141791910Y-71983441D01*
X142004110Y-72128431D01*
X142256000Y-72179440D01*
X142496000Y-72179440D01*
X142496000Y-76057354D01*
X142444200Y-76078757D01*
X142040176Y-76482077D01*
X142017785Y-76536000D01*
X139060989Y-76536000D01*
X138819765Y-76294355D01*
X138402756Y-76121197D01*
X137951225Y-76120803D01*
X137533914Y-76293233D01*
X137330793Y-76496000D01*
X128364325Y-76496000D01*
X128347827Y-76413057D01*
X128244000Y-76257668D01*
X128244000Y-66684532D01*
X142283073Y-66684532D01*
X142381736Y-66951387D01*
X142991461Y-67177908D01*
X143641460Y-67153856D01*
X144130264Y-66951387D01*
X144228927Y-66684532D01*
X143256000Y-65711605D01*
X142283073Y-66684532D01*
X128244000Y-66684532D01*
X128244000Y-66524000D01*
X128186148Y-66233161D01*
X128186148Y-66233160D01*
X128021401Y-65986599D01*
X127302263Y-65267461D01*
X141610092Y-65267461D01*
X141634144Y-65917460D01*
X141836613Y-66406264D01*
X142103468Y-66504927D01*
X143076395Y-65532000D01*
X143435605Y-65532000D01*
X144408532Y-66504927D01*
X144675387Y-66406264D01*
X144901908Y-65796539D01*
X144877856Y-65146540D01*
X144675387Y-64657736D01*
X144408532Y-64559073D01*
X143435605Y-65532000D01*
X143076395Y-65532000D01*
X142103468Y-64559073D01*
X141836613Y-64657736D01*
X141610092Y-65267461D01*
X127302263Y-65267461D01*
X126414270Y-64379468D01*
X142283073Y-64379468D01*
X143256000Y-65352395D01*
X144228927Y-64379468D01*
X144130264Y-64112613D01*
X143520539Y-63886092D01*
X142870540Y-63910144D01*
X142381736Y-64112613D01*
X142283073Y-64379468D01*
X126414270Y-64379468D01*
X125049463Y-63014661D01*
X157352758Y-63014661D01*
X157564990Y-63528303D01*
X157957630Y-63921629D01*
X158470900Y-64134757D01*
X159026661Y-64135242D01*
X159540303Y-63923010D01*
X159933629Y-63530370D01*
X160146757Y-63017100D01*
X160146759Y-63014661D01*
X170052758Y-63014661D01*
X170264990Y-63528303D01*
X170657630Y-63921629D01*
X171170900Y-64134757D01*
X171726661Y-64135242D01*
X172240303Y-63923010D01*
X172633629Y-63530370D01*
X172846757Y-63017100D01*
X172847242Y-62461339D01*
X172635010Y-61947697D01*
X172242370Y-61554371D01*
X171729100Y-61341243D01*
X171173339Y-61340758D01*
X170659697Y-61552990D01*
X170266371Y-61945630D01*
X170053243Y-62458900D01*
X170052758Y-63014661D01*
X160146759Y-63014661D01*
X160147242Y-62461339D01*
X159935010Y-61947697D01*
X159542370Y-61554371D01*
X159029100Y-61341243D01*
X158473339Y-61340758D01*
X157959697Y-61552990D01*
X157566371Y-61945630D01*
X157353243Y-62458900D01*
X157352758Y-63014661D01*
X125049463Y-63014661D01*
X120251904Y-58217102D01*
X120307000Y-57940113D01*
X120307000Y-57883887D01*
X120197767Y-57334736D01*
X119886698Y-56869189D01*
X119468863Y-56590000D01*
X243130000Y-56590000D01*
X243130000Y-126290000D01*
X51510000Y-126290000D01*
X51510000Y-121616787D01*
X51917213Y-121616787D01*
X52218862Y-123133280D01*
X53077886Y-124418901D01*
X54363507Y-125277925D01*
X55880000Y-125579574D01*
X57396493Y-125277925D01*
X58682114Y-124418901D01*
X59541138Y-123133280D01*
X59782474Y-121920000D01*
X234797213Y-121920000D01*
X235098862Y-123436493D01*
X235957886Y-124722114D01*
X237243507Y-125581138D01*
X238760000Y-125882787D01*
X240276493Y-125581138D01*
X241562114Y-124722114D01*
X242421138Y-123436493D01*
X242722787Y-121920000D01*
X242421138Y-120403507D01*
X241562114Y-119117886D01*
X240276493Y-118258862D01*
X238760000Y-117957213D01*
X237243507Y-118258862D01*
X235957886Y-119117886D01*
X235098862Y-120403507D01*
X234797213Y-121920000D01*
X59782474Y-121920000D01*
X59842787Y-121616787D01*
X59541138Y-120100294D01*
X59303566Y-119744742D01*
X128048954Y-119744742D01*
X128302034Y-120287576D01*
X128743583Y-120692240D01*
X129175260Y-120871036D01*
X129413000Y-120750378D01*
X129413000Y-119507000D01*
X129667000Y-119507000D01*
X129667000Y-120750378D01*
X129904740Y-120871036D01*
X130336417Y-120692240D01*
X130668666Y-120387745D01*
X138871861Y-120387745D01*
X138945995Y-120633864D01*
X139483223Y-120826965D01*
X140053454Y-120799778D01*
X140454005Y-120633864D01*
X140508624Y-120452532D01*
X150411073Y-120452532D01*
X150509736Y-120719387D01*
X151119461Y-120945908D01*
X151769460Y-120921856D01*
X152258264Y-120719387D01*
X152356927Y-120452532D01*
X152292140Y-120387745D01*
X158683861Y-120387745D01*
X158757995Y-120633864D01*
X159295223Y-120826965D01*
X159865454Y-120799778D01*
X160266005Y-120633864D01*
X160340139Y-120387745D01*
X159512000Y-119559605D01*
X158683861Y-120387745D01*
X152292140Y-120387745D01*
X151384000Y-119479605D01*
X150411073Y-120452532D01*
X140508624Y-120452532D01*
X140528139Y-120387745D01*
X139700000Y-119559605D01*
X138871861Y-120387745D01*
X130668666Y-120387745D01*
X130777966Y-120287576D01*
X131031046Y-119744742D01*
X130910997Y-119507000D01*
X129667000Y-119507000D01*
X129413000Y-119507000D01*
X128169003Y-119507000D01*
X128048954Y-119744742D01*
X59303566Y-119744742D01*
X58816141Y-119015258D01*
X128048954Y-119015258D01*
X128169003Y-119253000D01*
X129413000Y-119253000D01*
X129413000Y-118009622D01*
X129667000Y-118009622D01*
X129667000Y-119253000D01*
X130910997Y-119253000D01*
X130956330Y-119163223D01*
X138253035Y-119163223D01*
X138280222Y-119733454D01*
X138446136Y-120134005D01*
X138692255Y-120208139D01*
X139520395Y-119380000D01*
X139879605Y-119380000D01*
X140707745Y-120208139D01*
X140953864Y-120134005D01*
X141146965Y-119596777D01*
X141120204Y-119035461D01*
X149738092Y-119035461D01*
X149762144Y-119685460D01*
X149964613Y-120174264D01*
X150231468Y-120272927D01*
X151204395Y-119300000D01*
X151563605Y-119300000D01*
X152536532Y-120272927D01*
X152803387Y-120174264D01*
X153029908Y-119564539D01*
X153015059Y-119163223D01*
X158065035Y-119163223D01*
X158092222Y-119733454D01*
X158258136Y-120134005D01*
X158504255Y-120208139D01*
X159332395Y-119380000D01*
X159691605Y-119380000D01*
X160519745Y-120208139D01*
X160765864Y-120134005D01*
X160958965Y-119596777D01*
X160931778Y-119026546D01*
X160765864Y-118625995D01*
X160519745Y-118551861D01*
X159691605Y-119380000D01*
X159332395Y-119380000D01*
X158504255Y-118551861D01*
X158258136Y-118625995D01*
X158065035Y-119163223D01*
X153015059Y-119163223D01*
X153005856Y-118914540D01*
X152803387Y-118425736D01*
X152658737Y-118372255D01*
X158683861Y-118372255D01*
X159512000Y-119200395D01*
X160340139Y-118372255D01*
X160266005Y-118126136D01*
X159728777Y-117933035D01*
X159158546Y-117960222D01*
X158757995Y-118126136D01*
X158683861Y-118372255D01*
X152658737Y-118372255D01*
X152536532Y-118327073D01*
X151563605Y-119300000D01*
X151204395Y-119300000D01*
X150231468Y-118327073D01*
X149964613Y-118425736D01*
X149738092Y-119035461D01*
X141120204Y-119035461D01*
X141119778Y-119026546D01*
X140953864Y-118625995D01*
X140707745Y-118551861D01*
X139879605Y-119380000D01*
X139520395Y-119380000D01*
X138692255Y-118551861D01*
X138446136Y-118625995D01*
X138253035Y-119163223D01*
X130956330Y-119163223D01*
X131031046Y-119015258D01*
X130777966Y-118472424D01*
X130668667Y-118372255D01*
X138871861Y-118372255D01*
X139700000Y-119200395D01*
X140528139Y-118372255D01*
X140460431Y-118147468D01*
X150411073Y-118147468D01*
X151384000Y-119120395D01*
X152356927Y-118147468D01*
X152258264Y-117880613D01*
X151648539Y-117654092D01*
X150998540Y-117678144D01*
X150509736Y-117880613D01*
X150411073Y-118147468D01*
X140460431Y-118147468D01*
X140454005Y-118126136D01*
X139916777Y-117933035D01*
X139346546Y-117960222D01*
X138945995Y-118126136D01*
X138871861Y-118372255D01*
X130668667Y-118372255D01*
X130336417Y-118067760D01*
X129904740Y-117888964D01*
X129667000Y-118009622D01*
X129413000Y-118009622D01*
X129175260Y-117888964D01*
X128743583Y-118067760D01*
X128302034Y-118472424D01*
X128048954Y-119015258D01*
X58816141Y-119015258D01*
X58682114Y-118814673D01*
X57396493Y-117955649D01*
X55880000Y-117654000D01*
X54363507Y-117955649D01*
X53077886Y-118814673D01*
X52218862Y-120100294D01*
X51917213Y-121616787D01*
X51510000Y-121616787D01*
X51510000Y-116323745D01*
X110931861Y-116323745D01*
X111005995Y-116569864D01*
X111543223Y-116762965D01*
X112113454Y-116735778D01*
X112514005Y-116569864D01*
X112588139Y-116323745D01*
X111760000Y-115495605D01*
X110931861Y-116323745D01*
X51510000Y-116323745D01*
X51510000Y-115099223D01*
X110313035Y-115099223D01*
X110340222Y-115669454D01*
X110506136Y-116070005D01*
X110752255Y-116144139D01*
X111580395Y-115316000D01*
X111939605Y-115316000D01*
X112767745Y-116144139D01*
X113013864Y-116070005D01*
X113206965Y-115532777D01*
X113192422Y-115227745D01*
X119059861Y-115227745D01*
X119133995Y-115473864D01*
X119671223Y-115666965D01*
X120241454Y-115639778D01*
X120642005Y-115473864D01*
X120716139Y-115227745D01*
X119888000Y-114399605D01*
X119059861Y-115227745D01*
X113192422Y-115227745D01*
X113179778Y-114962546D01*
X113013864Y-114561995D01*
X112767745Y-114487861D01*
X111939605Y-115316000D01*
X111580395Y-115316000D01*
X110752255Y-114487861D01*
X110506136Y-114561995D01*
X110313035Y-115099223D01*
X51510000Y-115099223D01*
X51510000Y-114308255D01*
X110931861Y-114308255D01*
X111760000Y-115136395D01*
X112588139Y-114308255D01*
X112514005Y-114062136D01*
X112350103Y-114003223D01*
X118441035Y-114003223D01*
X118468222Y-114573454D01*
X118634136Y-114974005D01*
X118880255Y-115048139D01*
X119708395Y-114220000D01*
X120067605Y-114220000D01*
X120895745Y-115048139D01*
X121141864Y-114974005D01*
X121334965Y-114436777D01*
X121307778Y-113866546D01*
X121141864Y-113465995D01*
X120895745Y-113391861D01*
X120067605Y-114220000D01*
X119708395Y-114220000D01*
X118880255Y-113391861D01*
X118634136Y-113465995D01*
X118441035Y-114003223D01*
X112350103Y-114003223D01*
X111976777Y-113869035D01*
X111406546Y-113896222D01*
X111005995Y-114062136D01*
X110931861Y-114308255D01*
X51510000Y-114308255D01*
X51510000Y-113212255D01*
X119059861Y-113212255D01*
X119888000Y-114040395D01*
X120716139Y-113212255D01*
X120642005Y-112966136D01*
X120104777Y-112773035D01*
X119534546Y-112800222D01*
X119133995Y-112966136D01*
X119059861Y-113212255D01*
X51510000Y-113212255D01*
X51510000Y-106083745D01*
X104835861Y-106083745D01*
X104909995Y-106329864D01*
X105447223Y-106522965D01*
X106017454Y-106495778D01*
X106418005Y-106329864D01*
X106492139Y-106083745D01*
X105664000Y-105255605D01*
X104835861Y-106083745D01*
X51510000Y-106083745D01*
X51510000Y-104859223D01*
X104217035Y-104859223D01*
X104244222Y-105429454D01*
X104410136Y-105830005D01*
X104656255Y-105904139D01*
X105484395Y-105076000D01*
X105843605Y-105076000D01*
X106671745Y-105904139D01*
X106917864Y-105830005D01*
X107110965Y-105292777D01*
X107083778Y-104722546D01*
X106917864Y-104321995D01*
X106671745Y-104247861D01*
X105843605Y-105076000D01*
X105484395Y-105076000D01*
X104656255Y-104247861D01*
X104410136Y-104321995D01*
X104217035Y-104859223D01*
X51510000Y-104859223D01*
X51510000Y-103473039D01*
X78872096Y-103473039D01*
X79032959Y-103861423D01*
X79408866Y-104276389D01*
X79914959Y-104515914D01*
X80137000Y-104394629D01*
X80137000Y-103251000D01*
X80391000Y-103251000D01*
X80391000Y-104394629D01*
X80613041Y-104515914D01*
X81119134Y-104276389D01*
X81495041Y-103861423D01*
X81655904Y-103473039D01*
X81533915Y-103251000D01*
X80391000Y-103251000D01*
X80137000Y-103251000D01*
X78994085Y-103251000D01*
X78872096Y-103473039D01*
X51510000Y-103473039D01*
X51510000Y-102774961D01*
X78872096Y-102774961D01*
X78994085Y-102997000D01*
X80137000Y-102997000D01*
X80137000Y-101853371D01*
X80391000Y-101853371D01*
X80391000Y-102997000D01*
X81533915Y-102997000D01*
X81655904Y-102774961D01*
X81495041Y-102386577D01*
X81119134Y-101971611D01*
X80613041Y-101732086D01*
X80391000Y-101853371D01*
X80137000Y-101853371D01*
X79914959Y-101732086D01*
X79408866Y-101971611D01*
X79032959Y-102386577D01*
X78872096Y-102774961D01*
X51510000Y-102774961D01*
X51510000Y-99853750D01*
X56885000Y-99853750D01*
X56885000Y-100594309D01*
X56981673Y-100827698D01*
X57160301Y-101006327D01*
X57393690Y-101103000D01*
X58134250Y-101103000D01*
X58293000Y-100944250D01*
X58293000Y-99695000D01*
X58547000Y-99695000D01*
X58547000Y-100944250D01*
X58705750Y-101103000D01*
X59446310Y-101103000D01*
X59679699Y-101006327D01*
X59858327Y-100827698D01*
X59955000Y-100594309D01*
X59955000Y-99917041D01*
X64648086Y-99917041D01*
X64887611Y-100423134D01*
X65302577Y-100799041D01*
X65690961Y-100959904D01*
X65913000Y-100837915D01*
X65913000Y-99695000D01*
X66167000Y-99695000D01*
X66167000Y-100837915D01*
X66389039Y-100959904D01*
X66777423Y-100799041D01*
X67192389Y-100423134D01*
X67431914Y-99917041D01*
X67310629Y-99695000D01*
X66167000Y-99695000D01*
X65913000Y-99695000D01*
X64769371Y-99695000D01*
X64648086Y-99917041D01*
X59955000Y-99917041D01*
X59955000Y-99853750D01*
X59796250Y-99695000D01*
X58547000Y-99695000D01*
X58293000Y-99695000D01*
X57043750Y-99695000D01*
X56885000Y-99853750D01*
X51510000Y-99853750D01*
X51510000Y-97331991D01*
X56884735Y-97331991D01*
X57117932Y-97896371D01*
X57295092Y-98073841D01*
X57160301Y-98129673D01*
X56981673Y-98308302D01*
X56885000Y-98541691D01*
X56885000Y-99282250D01*
X57043750Y-99441000D01*
X58293000Y-99441000D01*
X58293000Y-99421000D01*
X58547000Y-99421000D01*
X58547000Y-99441000D01*
X59796250Y-99441000D01*
X59955000Y-99282250D01*
X59955000Y-99218959D01*
X64648086Y-99218959D01*
X64769371Y-99441000D01*
X65913000Y-99441000D01*
X65913000Y-98298085D01*
X66167000Y-98298085D01*
X66167000Y-99441000D01*
X67310629Y-99441000D01*
X67431914Y-99218959D01*
X67192389Y-98712866D01*
X66777423Y-98336959D01*
X66389039Y-98176096D01*
X66167000Y-98298085D01*
X65913000Y-98298085D01*
X65690961Y-98176096D01*
X65302577Y-98336959D01*
X64887611Y-98712866D01*
X64648086Y-99218959D01*
X59955000Y-99218959D01*
X59955000Y-98541691D01*
X59858327Y-98308302D01*
X59679699Y-98129673D01*
X59545006Y-98073881D01*
X59583208Y-98035745D01*
X76387861Y-98035745D01*
X76461995Y-98281864D01*
X76999223Y-98474965D01*
X77569454Y-98447778D01*
X77970005Y-98281864D01*
X78044139Y-98035745D01*
X77216000Y-97207605D01*
X76387861Y-98035745D01*
X59583208Y-98035745D01*
X59720551Y-97898643D01*
X59954733Y-97334670D01*
X59955189Y-96811223D01*
X75769035Y-96811223D01*
X75796222Y-97381454D01*
X75962136Y-97782005D01*
X76208255Y-97856139D01*
X77036395Y-97028000D01*
X77395605Y-97028000D01*
X78223745Y-97856139D01*
X78469864Y-97782005D01*
X78638735Y-97312187D01*
X80780752Y-97312187D01*
X80998757Y-97839800D01*
X81402077Y-98243824D01*
X81929309Y-98462750D01*
X82500187Y-98463248D01*
X83027800Y-98245243D01*
X83431824Y-97841923D01*
X83650750Y-97314691D01*
X83651035Y-96988001D01*
X88561035Y-96988001D01*
X88560752Y-97312187D01*
X88778757Y-97839800D01*
X89182077Y-98243824D01*
X89709309Y-98462750D01*
X90280187Y-98463248D01*
X90334149Y-98440951D01*
X90463999Y-98570801D01*
X90463999Y-101689035D01*
X90139813Y-101688752D01*
X89612200Y-101906757D01*
X89208176Y-102310077D01*
X88989250Y-102837309D01*
X88988752Y-103408187D01*
X89206757Y-103935800D01*
X89610077Y-104339824D01*
X90137309Y-104558750D01*
X90708187Y-104559248D01*
X91235800Y-104341243D01*
X91509264Y-104068255D01*
X104835861Y-104068255D01*
X105664000Y-104896395D01*
X106492139Y-104068255D01*
X106418005Y-103822136D01*
X105880777Y-103629035D01*
X105310546Y-103656222D01*
X104909995Y-103822136D01*
X104835861Y-104068255D01*
X91509264Y-104068255D01*
X91639824Y-103937923D01*
X91858750Y-103410691D01*
X91859248Y-102839813D01*
X91827372Y-102762668D01*
X91926147Y-102614841D01*
X91945845Y-102515811D01*
X91983999Y-102324001D01*
X91983999Y-100360187D01*
X104228752Y-100360187D01*
X104446757Y-100887800D01*
X104850077Y-101291824D01*
X105377309Y-101510750D01*
X105948187Y-101511248D01*
X106275059Y-101376187D01*
X110324752Y-101376187D01*
X110542757Y-101903800D01*
X110946077Y-102307824D01*
X111473309Y-102526750D01*
X112044187Y-102527248D01*
X112098149Y-102504951D01*
X112524000Y-102930802D01*
X112524000Y-103317198D01*
X112083886Y-103757312D01*
X111760000Y-103692887D01*
X111210849Y-103802120D01*
X110745302Y-104113189D01*
X110434233Y-104578736D01*
X110325000Y-105127887D01*
X110325000Y-105184113D01*
X110434233Y-105733264D01*
X110745302Y-106198811D01*
X111210849Y-106509880D01*
X111760000Y-106619113D01*
X112309151Y-106509880D01*
X112774698Y-106198811D01*
X113085767Y-105733264D01*
X113195000Y-105184113D01*
X113195000Y-105127887D01*
X113139904Y-104850898D01*
X113598802Y-104392000D01*
X118729354Y-104392000D01*
X118750757Y-104443800D01*
X119154077Y-104847824D01*
X119208000Y-104870215D01*
X119208000Y-107948298D01*
X119076200Y-108002757D01*
X118672176Y-108406077D01*
X118453250Y-108933309D01*
X118452752Y-109504187D01*
X118670757Y-110031800D01*
X119074077Y-110435824D01*
X119601309Y-110654750D01*
X120172187Y-110655248D01*
X120699800Y-110437243D01*
X121103824Y-110033923D01*
X121257351Y-109664187D01*
X138264752Y-109664187D01*
X138482757Y-110191800D01*
X138886077Y-110595824D01*
X139413309Y-110814750D01*
X139984187Y-110815248D01*
X140511800Y-110597243D01*
X140915824Y-110193923D01*
X141134750Y-109666691D01*
X141135248Y-109095813D01*
X141112951Y-109041851D01*
X144998802Y-105156000D01*
X147888887Y-105156000D01*
X147998120Y-105705151D01*
X148309189Y-106170698D01*
X148592000Y-106359667D01*
X148592000Y-113518000D01*
X148649852Y-113808839D01*
X148814599Y-114055401D01*
X149596599Y-114837401D01*
X149736560Y-114930920D01*
X149736560Y-115300000D01*
X149780838Y-115535317D01*
X149919910Y-115751441D01*
X150132110Y-115896431D01*
X150384000Y-115947440D01*
X152384000Y-115947440D01*
X152619317Y-115903162D01*
X152835441Y-115764090D01*
X152980431Y-115551890D01*
X153031440Y-115300000D01*
X153031440Y-113300000D01*
X152987162Y-113064683D01*
X152848090Y-112848559D01*
X152635890Y-112703569D01*
X152384000Y-112652560D01*
X150384000Y-112652560D01*
X150148683Y-112696838D01*
X150112000Y-112720443D01*
X150112000Y-112640745D01*
X179638861Y-112640745D01*
X179712995Y-112886864D01*
X180250223Y-113079965D01*
X180820454Y-113052778D01*
X181221005Y-112886864D01*
X181295139Y-112640745D01*
X180467000Y-111812605D01*
X179638861Y-112640745D01*
X150112000Y-112640745D01*
X150112000Y-111416223D01*
X179020035Y-111416223D01*
X179047222Y-111986454D01*
X179213136Y-112387005D01*
X179459255Y-112461139D01*
X180287395Y-111633000D01*
X180646605Y-111633000D01*
X181474745Y-112461139D01*
X181720864Y-112387005D01*
X181913965Y-111849777D01*
X181886778Y-111279546D01*
X181720864Y-110878995D01*
X181474745Y-110804861D01*
X180646605Y-111633000D01*
X180287395Y-111633000D01*
X179459255Y-110804861D01*
X179213136Y-110878995D01*
X179020035Y-111416223D01*
X150112000Y-111416223D01*
X150112000Y-106359667D01*
X150394811Y-106170698D01*
X150705880Y-105705151D01*
X150758584Y-105440187D01*
X158076752Y-105440187D01*
X158294757Y-105967800D01*
X158698077Y-106371824D01*
X158752000Y-106394215D01*
X158752000Y-108007005D01*
X158497302Y-108177189D01*
X158186233Y-108642736D01*
X158077000Y-109191887D01*
X158077000Y-109248113D01*
X158186233Y-109797264D01*
X158497302Y-110262811D01*
X158962849Y-110573880D01*
X159512000Y-110683113D01*
X159802871Y-110625255D01*
X179638861Y-110625255D01*
X180467000Y-111453395D01*
X181295139Y-110625255D01*
X181221005Y-110379136D01*
X180683777Y-110186035D01*
X180113546Y-110213222D01*
X179712995Y-110379136D01*
X179638861Y-110625255D01*
X159802871Y-110625255D01*
X160061151Y-110573880D01*
X160526698Y-110262811D01*
X160837767Y-109797264D01*
X160947000Y-109248113D01*
X160947000Y-109191887D01*
X160888052Y-108895532D01*
X189019073Y-108895532D01*
X189117736Y-109162387D01*
X189727461Y-109388908D01*
X190377460Y-109364856D01*
X190866264Y-109162387D01*
X190964927Y-108895532D01*
X189992000Y-107922605D01*
X189019073Y-108895532D01*
X160888052Y-108895532D01*
X160837767Y-108642736D01*
X160526698Y-108177189D01*
X160272000Y-108007005D01*
X160272000Y-107478461D01*
X188346092Y-107478461D01*
X188370144Y-108128460D01*
X188572613Y-108617264D01*
X188839468Y-108715927D01*
X189812395Y-107743000D01*
X190171605Y-107743000D01*
X191144532Y-108715927D01*
X191411387Y-108617264D01*
X191637908Y-108007539D01*
X191613856Y-107357540D01*
X191411387Y-106868736D01*
X191144532Y-106770073D01*
X190171605Y-107743000D01*
X189812395Y-107743000D01*
X188839468Y-106770073D01*
X188572613Y-106868736D01*
X188346092Y-107478461D01*
X160272000Y-107478461D01*
X160272000Y-106394646D01*
X160323800Y-106373243D01*
X160727824Y-105969923D01*
X160920877Y-105505000D01*
X164522000Y-105505000D01*
X164522000Y-105955000D01*
X164641773Y-106303142D01*
X164885657Y-106578948D01*
X165186653Y-106723063D01*
X165330000Y-106593790D01*
X165330000Y-105505000D01*
X165584000Y-105505000D01*
X165584000Y-106593790D01*
X165727347Y-106723063D01*
X166028343Y-106578948D01*
X166272227Y-106303142D01*
X166392000Y-105955000D01*
X166392000Y-105505000D01*
X174682000Y-105505000D01*
X174682000Y-105955000D01*
X174801773Y-106303142D01*
X175045657Y-106578948D01*
X175346653Y-106723063D01*
X175490000Y-106593790D01*
X175490000Y-105505000D01*
X175744000Y-105505000D01*
X175744000Y-106593790D01*
X175887347Y-106723063D01*
X176164282Y-106590468D01*
X189019073Y-106590468D01*
X189992000Y-107563395D01*
X190964927Y-106590468D01*
X190866264Y-106323613D01*
X190256539Y-106097092D01*
X189606540Y-106121144D01*
X189117736Y-106323613D01*
X189019073Y-106590468D01*
X176164282Y-106590468D01*
X176188343Y-106578948D01*
X176432227Y-106303142D01*
X176552000Y-105955000D01*
X176552000Y-105505000D01*
X175744000Y-105505000D01*
X175490000Y-105505000D01*
X174682000Y-105505000D01*
X166392000Y-105505000D01*
X165584000Y-105505000D01*
X165330000Y-105505000D01*
X164522000Y-105505000D01*
X160920877Y-105505000D01*
X160946750Y-105442691D01*
X160947248Y-104871813D01*
X160924951Y-104817851D01*
X160941802Y-104801000D01*
X164522000Y-104801000D01*
X164522000Y-105251000D01*
X165330000Y-105251000D01*
X165330000Y-104162210D01*
X165584000Y-104162210D01*
X165584000Y-105251000D01*
X166392000Y-105251000D01*
X166392000Y-104801000D01*
X166272227Y-104452858D01*
X166028343Y-104177052D01*
X165727347Y-104032937D01*
X165584000Y-104162210D01*
X165330000Y-104162210D01*
X165186653Y-104032937D01*
X164885657Y-104177052D01*
X164641773Y-104452858D01*
X164522000Y-104801000D01*
X160941802Y-104801000D01*
X161604802Y-104138000D01*
X162078266Y-104138000D01*
X162093173Y-104212943D01*
X162295855Y-104516279D01*
X162599191Y-104718961D01*
X162957000Y-104790134D01*
X163314809Y-104718961D01*
X163618145Y-104516279D01*
X163820827Y-104212943D01*
X163892000Y-103855134D01*
X163892000Y-103662187D01*
X168236752Y-103662187D01*
X168454757Y-104189800D01*
X168858077Y-104593824D01*
X169385309Y-104812750D01*
X169956187Y-104813248D01*
X169985829Y-104801000D01*
X174682000Y-104801000D01*
X174682000Y-105251000D01*
X175490000Y-105251000D01*
X175490000Y-104162210D01*
X175744000Y-104162210D01*
X175744000Y-105251000D01*
X176552000Y-105251000D01*
X176552000Y-104801000D01*
X176432227Y-104452858D01*
X176188343Y-104177052D01*
X175887347Y-104032937D01*
X175744000Y-104162210D01*
X175490000Y-104162210D01*
X175346653Y-104032937D01*
X175045657Y-104177052D01*
X174801773Y-104452858D01*
X174682000Y-104801000D01*
X169985829Y-104801000D01*
X170483800Y-104595243D01*
X170887824Y-104191923D01*
X171106750Y-103664691D01*
X171107248Y-103093813D01*
X171027525Y-102900866D01*
X172182000Y-102900866D01*
X172182000Y-103855134D01*
X172253173Y-104212943D01*
X172455855Y-104516279D01*
X172759191Y-104718961D01*
X173117000Y-104790134D01*
X173474809Y-104718961D01*
X173778145Y-104516279D01*
X173980827Y-104212943D01*
X174052000Y-103855134D01*
X174052000Y-102900866D01*
X173980827Y-102543057D01*
X173778145Y-102239721D01*
X173474809Y-102037039D01*
X173117000Y-101965866D01*
X172759191Y-102037039D01*
X172455855Y-102239721D01*
X172253173Y-102543057D01*
X172182000Y-102900866D01*
X171027525Y-102900866D01*
X170889243Y-102566200D01*
X170485923Y-102162176D01*
X169958691Y-101943250D01*
X169387813Y-101942752D01*
X168860200Y-102160757D01*
X168456176Y-102564077D01*
X168237250Y-103091309D01*
X168236752Y-103662187D01*
X163892000Y-103662187D01*
X163892000Y-102900866D01*
X163820827Y-102543057D01*
X163618145Y-102239721D01*
X163314809Y-102037039D01*
X162957000Y-101965866D01*
X162599191Y-102037039D01*
X162295855Y-102239721D01*
X162093173Y-102543057D01*
X162078266Y-102618000D01*
X161290000Y-102618000D01*
X160999161Y-102675852D01*
X160752599Y-102840599D01*
X159850454Y-103742744D01*
X159798691Y-103721250D01*
X159227813Y-103720752D01*
X158700200Y-103938757D01*
X158296176Y-104342077D01*
X158077250Y-104869309D01*
X158076752Y-105440187D01*
X150758584Y-105440187D01*
X150815113Y-105156000D01*
X150705880Y-104606849D01*
X150394811Y-104141302D01*
X149929264Y-103830233D01*
X149380113Y-103721000D01*
X149323887Y-103721000D01*
X148774736Y-103830233D01*
X148309189Y-104141302D01*
X147998120Y-104606849D01*
X147888887Y-105156000D01*
X144998802Y-105156000D01*
X148077812Y-102076990D01*
X148158855Y-102198279D01*
X148462191Y-102400961D01*
X148820000Y-102472134D01*
X149177809Y-102400961D01*
X149481145Y-102198279D01*
X149683827Y-101894943D01*
X149755000Y-101537134D01*
X149755000Y-100582866D01*
X149683827Y-100225057D01*
X149481145Y-99921721D01*
X149177809Y-99719039D01*
X148820000Y-99647866D01*
X148462191Y-99719039D01*
X148158855Y-99921721D01*
X147956173Y-100225057D01*
X147938022Y-100316307D01*
X147729161Y-100357852D01*
X147482599Y-100522599D01*
X140038454Y-107966744D01*
X139986691Y-107945250D01*
X139415813Y-107944752D01*
X138888200Y-108162757D01*
X138484176Y-108566077D01*
X138265250Y-109093309D01*
X138264752Y-109664187D01*
X121257351Y-109664187D01*
X121322750Y-109506691D01*
X121323248Y-108935813D01*
X121105243Y-108408200D01*
X120728000Y-108030299D01*
X120728000Y-104870646D01*
X120779800Y-104849243D01*
X121183824Y-104445923D01*
X121402750Y-103918691D01*
X121403248Y-103347813D01*
X121185243Y-102820200D01*
X120781923Y-102416176D01*
X120728000Y-102393785D01*
X120728000Y-97028000D01*
X123123887Y-97028000D01*
X123233120Y-97577151D01*
X123544189Y-98042698D01*
X123827000Y-98231667D01*
X123827000Y-102743383D01*
X123752176Y-102818077D01*
X123533250Y-103345309D01*
X123532752Y-103916187D01*
X123750757Y-104443800D01*
X124154077Y-104847824D01*
X124681309Y-105066750D01*
X125252187Y-105067248D01*
X125779800Y-104849243D01*
X126183824Y-104445923D01*
X126206215Y-104392000D01*
X127327198Y-104392000D01*
X128226618Y-105291420D01*
X128188559Y-105315910D01*
X128043569Y-105528110D01*
X127992560Y-105780000D01*
X127992560Y-107580000D01*
X128036838Y-107815317D01*
X128175910Y-108031441D01*
X128388110Y-108176431D01*
X128640000Y-108227440D01*
X130440000Y-108227440D01*
X130675317Y-108183162D01*
X130891441Y-108044090D01*
X131036431Y-107831890D01*
X131087440Y-107580000D01*
X131087440Y-106775000D01*
X135169000Y-106775000D01*
X135169000Y-107225000D01*
X135288773Y-107573142D01*
X135532657Y-107848948D01*
X135833653Y-107993063D01*
X135977000Y-107863790D01*
X135977000Y-106775000D01*
X136231000Y-106775000D01*
X136231000Y-107863790D01*
X136374347Y-107993063D01*
X136675343Y-107848948D01*
X136919227Y-107573142D01*
X137039000Y-107225000D01*
X137039000Y-106775000D01*
X136231000Y-106775000D01*
X135977000Y-106775000D01*
X135169000Y-106775000D01*
X131087440Y-106775000D01*
X131087440Y-106071000D01*
X135169000Y-106071000D01*
X135169000Y-106521000D01*
X135977000Y-106521000D01*
X135977000Y-105432210D01*
X136231000Y-105432210D01*
X136231000Y-106521000D01*
X137039000Y-106521000D01*
X137039000Y-106071000D01*
X136919227Y-105722858D01*
X136675343Y-105447052D01*
X136374347Y-105302937D01*
X136231000Y-105432210D01*
X135977000Y-105432210D01*
X135833653Y-105302937D01*
X135532657Y-105447052D01*
X135288773Y-105722858D01*
X135169000Y-106071000D01*
X131087440Y-106071000D01*
X131087440Y-105780000D01*
X131043162Y-105544683D01*
X130955209Y-105408000D01*
X132725266Y-105408000D01*
X132740173Y-105482943D01*
X132942855Y-105786279D01*
X133246191Y-105988961D01*
X133604000Y-106060134D01*
X133961809Y-105988961D01*
X134265145Y-105786279D01*
X134467827Y-105482943D01*
X134539000Y-105125134D01*
X134539000Y-104170866D01*
X134467827Y-103813057D01*
X134265145Y-103509721D01*
X133961809Y-103307039D01*
X133604000Y-103235866D01*
X133246191Y-103307039D01*
X132942855Y-103509721D01*
X132740173Y-103813057D01*
X132725266Y-103888000D01*
X130422000Y-103888000D01*
X130131160Y-103945852D01*
X129884599Y-104110599D01*
X129540000Y-104455198D01*
X128179401Y-103094599D01*
X127932839Y-102929852D01*
X127642000Y-102872000D01*
X126206646Y-102872000D01*
X126185243Y-102820200D01*
X125781923Y-102416176D01*
X125347000Y-102235580D01*
X125347000Y-98231667D01*
X125629811Y-98042698D01*
X125940880Y-97577151D01*
X126050113Y-97028000D01*
X125940880Y-96478849D01*
X125629811Y-96013302D01*
X125164264Y-95702233D01*
X124615113Y-95593000D01*
X124558887Y-95593000D01*
X124009736Y-95702233D01*
X123544189Y-96013302D01*
X123233120Y-96478849D01*
X123123887Y-97028000D01*
X120728000Y-97028000D01*
X120728000Y-91166802D01*
X122006915Y-89887887D01*
X131661000Y-89887887D01*
X131661000Y-89944113D01*
X131770233Y-90493264D01*
X132081302Y-90958811D01*
X132546849Y-91269880D01*
X133096000Y-91379113D01*
X133419886Y-91314688D01*
X133987000Y-91881802D01*
X133987000Y-95789354D01*
X133935200Y-95810757D01*
X133531176Y-96214077D01*
X133312250Y-96741309D01*
X133311752Y-97312187D01*
X133529757Y-97839800D01*
X133933077Y-98243824D01*
X134460309Y-98462750D01*
X135031187Y-98463248D01*
X135085149Y-98440951D01*
X135344000Y-98699802D01*
X135344000Y-101657668D01*
X135240173Y-101813057D01*
X135169000Y-102170866D01*
X135169000Y-103125134D01*
X135240173Y-103482943D01*
X135442855Y-103786279D01*
X135746191Y-103988961D01*
X136104000Y-104060134D01*
X136461809Y-103988961D01*
X136765145Y-103786279D01*
X136967827Y-103482943D01*
X137039000Y-103125134D01*
X137039000Y-102170866D01*
X136967827Y-101813057D01*
X136864000Y-101657668D01*
X136864000Y-99344187D01*
X141820752Y-99344187D01*
X142038757Y-99871800D01*
X142442077Y-100275824D01*
X142969309Y-100494750D01*
X143540187Y-100495248D01*
X144067800Y-100277243D01*
X144471824Y-99873923D01*
X144494215Y-99820000D01*
X145441266Y-99820000D01*
X145456173Y-99894943D01*
X145658855Y-100198279D01*
X145962191Y-100400961D01*
X146320000Y-100472134D01*
X146677809Y-100400961D01*
X146981145Y-100198279D01*
X147183827Y-99894943D01*
X147255000Y-99537134D01*
X147255000Y-98582866D01*
X147183827Y-98225057D01*
X146981145Y-97921721D01*
X146677809Y-97719039D01*
X146320000Y-97647866D01*
X145962191Y-97719039D01*
X145658855Y-97921721D01*
X145456173Y-98225057D01*
X145441266Y-98300000D01*
X144494646Y-98300000D01*
X144473243Y-98248200D01*
X144069923Y-97844176D01*
X143542691Y-97625250D01*
X142971813Y-97624752D01*
X142444200Y-97842757D01*
X142040176Y-98246077D01*
X141821250Y-98773309D01*
X141820752Y-99344187D01*
X136864000Y-99344187D01*
X136864000Y-98385000D01*
X136806148Y-98094161D01*
X136641401Y-97847599D01*
X136160256Y-97366454D01*
X136181750Y-97314691D01*
X136182248Y-96743813D01*
X136115747Y-96582866D01*
X147885000Y-96582866D01*
X147885000Y-97537134D01*
X147956173Y-97894943D01*
X148158855Y-98198279D01*
X148462191Y-98400961D01*
X148820000Y-98472134D01*
X149177809Y-98400961D01*
X149481145Y-98198279D01*
X149683827Y-97894943D01*
X149698734Y-97820000D01*
X163290000Y-97820000D01*
X163580839Y-97762148D01*
X163827401Y-97597401D01*
X164253546Y-97171256D01*
X164305309Y-97192750D01*
X164876187Y-97193248D01*
X165403800Y-96975243D01*
X165807824Y-96571923D01*
X165864000Y-96436636D01*
X165864000Y-98896198D01*
X164919599Y-99840599D01*
X164754852Y-100087161D01*
X164697000Y-100378000D01*
X164697000Y-100387668D01*
X164593173Y-100543057D01*
X164522000Y-100900866D01*
X164522000Y-101855134D01*
X164593173Y-102212943D01*
X164795855Y-102516279D01*
X165099191Y-102718961D01*
X165457000Y-102790134D01*
X165814809Y-102718961D01*
X166118145Y-102516279D01*
X166320827Y-102212943D01*
X166392000Y-101855134D01*
X166392000Y-100900866D01*
X174682000Y-100900866D01*
X174682000Y-101855134D01*
X174753173Y-102212943D01*
X174955855Y-102516279D01*
X175259191Y-102718961D01*
X175617000Y-102790134D01*
X175974809Y-102718961D01*
X176278145Y-102516279D01*
X176480827Y-102212943D01*
X176495734Y-102138000D01*
X179199856Y-102138000D01*
X179452302Y-102515811D01*
X179917849Y-102826880D01*
X180467000Y-102936113D01*
X181016151Y-102826880D01*
X181481698Y-102515811D01*
X181792767Y-102050264D01*
X181853885Y-101743000D01*
X188344560Y-101743000D01*
X188344560Y-103743000D01*
X188388838Y-103978317D01*
X188527910Y-104194441D01*
X188740110Y-104339431D01*
X188992000Y-104390440D01*
X190992000Y-104390440D01*
X191227317Y-104346162D01*
X191443441Y-104207090D01*
X191588431Y-103994890D01*
X191639440Y-103743000D01*
X191639440Y-101743000D01*
X191595162Y-101507683D01*
X191456090Y-101291559D01*
X191243890Y-101146569D01*
X190992000Y-101095560D01*
X190752000Y-101095560D01*
X190752000Y-99536646D01*
X190803800Y-99515243D01*
X191207824Y-99111923D01*
X191426750Y-98584691D01*
X191427248Y-98013813D01*
X191209243Y-97486200D01*
X190805923Y-97082176D01*
X190278691Y-96863250D01*
X189707813Y-96862752D01*
X189180200Y-97080757D01*
X188776176Y-97484077D01*
X188557250Y-98011309D01*
X188556752Y-98582187D01*
X188774757Y-99109800D01*
X189178077Y-99513824D01*
X189232000Y-99536215D01*
X189232000Y-101095560D01*
X188992000Y-101095560D01*
X188756683Y-101139838D01*
X188540559Y-101278910D01*
X188395569Y-101491110D01*
X188344560Y-101743000D01*
X181853885Y-101743000D01*
X181902000Y-101501113D01*
X181902000Y-101444887D01*
X181792767Y-100895736D01*
X181481698Y-100430189D01*
X181227000Y-100260005D01*
X181227000Y-99755802D01*
X181956856Y-99025946D01*
X182118000Y-99058000D01*
X184343333Y-99058000D01*
X184532302Y-99340811D01*
X184997849Y-99651880D01*
X185547000Y-99761113D01*
X186096151Y-99651880D01*
X186561698Y-99340811D01*
X186872767Y-98875264D01*
X186982000Y-98326113D01*
X186982000Y-98269887D01*
X186872767Y-97720736D01*
X186561698Y-97255189D01*
X186096151Y-96944120D01*
X185547000Y-96834887D01*
X184997849Y-96944120D01*
X184532302Y-97255189D01*
X184343333Y-97538000D01*
X182624000Y-97538000D01*
X182624000Y-90011000D01*
X201733000Y-90011000D01*
X201733000Y-90461000D01*
X201852773Y-90809142D01*
X202096657Y-91084948D01*
X202397653Y-91229063D01*
X202541000Y-91099790D01*
X202541000Y-90011000D01*
X202795000Y-90011000D01*
X202795000Y-91099790D01*
X202938347Y-91229063D01*
X203239343Y-91084948D01*
X203269587Y-91050745D01*
X220278861Y-91050745D01*
X220352995Y-91296864D01*
X220890223Y-91489965D01*
X221460454Y-91462778D01*
X221861005Y-91296864D01*
X221935139Y-91050745D01*
X221107000Y-90222605D01*
X220278861Y-91050745D01*
X203269587Y-91050745D01*
X203483227Y-90809142D01*
X203603000Y-90461000D01*
X203603000Y-90011000D01*
X202795000Y-90011000D01*
X202541000Y-90011000D01*
X201733000Y-90011000D01*
X182624000Y-90011000D01*
X182624000Y-89826223D01*
X219660035Y-89826223D01*
X219687222Y-90396454D01*
X219853136Y-90797005D01*
X220099255Y-90871139D01*
X220927395Y-90043000D01*
X221286605Y-90043000D01*
X222114745Y-90871139D01*
X222360864Y-90797005D01*
X222553965Y-90259777D01*
X222543630Y-90043000D01*
X229803887Y-90043000D01*
X229913120Y-90592151D01*
X230224189Y-91057698D01*
X230689736Y-91368767D01*
X231238887Y-91478000D01*
X231295113Y-91478000D01*
X231844264Y-91368767D01*
X232309811Y-91057698D01*
X232620880Y-90592151D01*
X232730113Y-90043000D01*
X232620880Y-89493849D01*
X232309811Y-89028302D01*
X232027000Y-88839333D01*
X232027000Y-86039802D01*
X236249401Y-81817401D01*
X236414148Y-81570840D01*
X236472000Y-81280000D01*
X236472000Y-78761000D01*
X236753231Y-78761000D01*
X237375092Y-78637304D01*
X237902280Y-78285049D01*
X238254535Y-77757861D01*
X238378231Y-77136000D01*
X238254535Y-76514139D01*
X237902280Y-75986951D01*
X237375092Y-75634696D01*
X236753231Y-75511000D01*
X234670769Y-75511000D01*
X234048908Y-75634696D01*
X233521720Y-75986951D01*
X233169465Y-76514139D01*
X233045769Y-77136000D01*
X233169465Y-77757861D01*
X233521720Y-78285049D01*
X234048908Y-78637304D01*
X234670769Y-78761000D01*
X234952000Y-78761000D01*
X234952000Y-80965198D01*
X230729599Y-85187599D01*
X230564852Y-85434161D01*
X230507000Y-85725000D01*
X230507000Y-88839333D01*
X230224189Y-89028302D01*
X229913120Y-89493849D01*
X229803887Y-90043000D01*
X222543630Y-90043000D01*
X222526778Y-89689546D01*
X222360864Y-89288995D01*
X222114745Y-89214861D01*
X221286605Y-90043000D01*
X220927395Y-90043000D01*
X220099255Y-89214861D01*
X219853136Y-89288995D01*
X219660035Y-89826223D01*
X182624000Y-89826223D01*
X182624000Y-88422187D01*
X184111752Y-88422187D01*
X184329757Y-88949800D01*
X184733077Y-89353824D01*
X185260309Y-89572750D01*
X185831187Y-89573248D01*
X186358800Y-89355243D01*
X186762824Y-88951923D01*
X186785215Y-88898000D01*
X188788333Y-88898000D01*
X188977302Y-89180811D01*
X189442849Y-89491880D01*
X189992000Y-89601113D01*
X190541151Y-89491880D01*
X190817843Y-89307000D01*
X201733000Y-89307000D01*
X201733000Y-89757000D01*
X202541000Y-89757000D01*
X202541000Y-88668210D01*
X202795000Y-88668210D01*
X202795000Y-89757000D01*
X203603000Y-89757000D01*
X203603000Y-89307000D01*
X203509511Y-89035255D01*
X220278861Y-89035255D01*
X221107000Y-89863395D01*
X221935139Y-89035255D01*
X221861005Y-88789136D01*
X221323777Y-88596035D01*
X220753546Y-88623222D01*
X220352995Y-88789136D01*
X220278861Y-89035255D01*
X203509511Y-89035255D01*
X203483227Y-88958858D01*
X203239343Y-88683052D01*
X202938347Y-88538937D01*
X202795000Y-88668210D01*
X202541000Y-88668210D01*
X202397653Y-88538937D01*
X202096657Y-88683052D01*
X201852773Y-88958858D01*
X201733000Y-89307000D01*
X190817843Y-89307000D01*
X191006698Y-89180811D01*
X191317767Y-88715264D01*
X191331942Y-88644000D01*
X199289266Y-88644000D01*
X199304173Y-88718943D01*
X199506855Y-89022279D01*
X199810191Y-89224961D01*
X200168000Y-89296134D01*
X200525809Y-89224961D01*
X200829145Y-89022279D01*
X201031827Y-88718943D01*
X201103000Y-88361134D01*
X201103000Y-87406866D01*
X201031827Y-87049057D01*
X200829145Y-86745721D01*
X200525809Y-86543039D01*
X200168000Y-86471866D01*
X199810191Y-86543039D01*
X199506855Y-86745721D01*
X199304173Y-87049057D01*
X199289266Y-87124000D01*
X191025949Y-87124000D01*
X191006698Y-87095189D01*
X190752000Y-86925005D01*
X190752000Y-83661646D01*
X190803800Y-83640243D01*
X191207824Y-83236923D01*
X191426750Y-82709691D01*
X191426862Y-82580187D01*
X201256752Y-82580187D01*
X201474757Y-83107800D01*
X201878077Y-83511824D01*
X201908000Y-83524249D01*
X201908000Y-84893668D01*
X201804173Y-85049057D01*
X201733000Y-85406866D01*
X201733000Y-86361134D01*
X201804173Y-86718943D01*
X202006855Y-87022279D01*
X202310191Y-87224961D01*
X202668000Y-87296134D01*
X203025809Y-87224961D01*
X203329145Y-87022279D01*
X203531827Y-86718943D01*
X203603000Y-86361134D01*
X203603000Y-85406866D01*
X203531827Y-85049057D01*
X203428000Y-84893668D01*
X203428000Y-83544563D01*
X203503800Y-83513243D01*
X203907824Y-83109923D01*
X203930215Y-83056000D01*
X209336000Y-83056000D01*
X209626839Y-82998148D01*
X209873401Y-82833401D01*
X211521854Y-81184948D01*
X211806775Y-81185197D01*
X212224086Y-81012767D01*
X212397050Y-80840104D01*
X223671501Y-80840104D01*
X223708648Y-81055217D01*
X224136972Y-81198112D01*
X224587375Y-81166217D01*
X224855352Y-81055217D01*
X224892499Y-80840104D01*
X224282000Y-80229605D01*
X223671501Y-80840104D01*
X212397050Y-80840104D01*
X212543645Y-80693765D01*
X212716803Y-80276756D01*
X212717127Y-79904972D01*
X223133888Y-79904972D01*
X223165783Y-80355375D01*
X223276783Y-80623352D01*
X223491896Y-80660499D01*
X224102395Y-80050000D01*
X224461605Y-80050000D01*
X225072104Y-80660499D01*
X225287217Y-80623352D01*
X225430112Y-80195028D01*
X225398217Y-79744625D01*
X225287217Y-79476648D01*
X225072104Y-79439501D01*
X224461605Y-80050000D01*
X224102395Y-80050000D01*
X223491896Y-79439501D01*
X223276783Y-79476648D01*
X223133888Y-79904972D01*
X212717127Y-79904972D01*
X212717197Y-79825225D01*
X212544767Y-79407914D01*
X212397007Y-79259896D01*
X223671501Y-79259896D01*
X224282000Y-79870395D01*
X224892499Y-79259896D01*
X224855352Y-79044783D01*
X224427028Y-78901888D01*
X223976625Y-78933783D01*
X223708648Y-79044783D01*
X223671501Y-79259896D01*
X212397007Y-79259896D01*
X212225765Y-79088355D01*
X211808756Y-78915197D01*
X211357225Y-78914803D01*
X210939914Y-79087233D01*
X210620355Y-79406235D01*
X210447197Y-79823244D01*
X210446947Y-80110251D01*
X209021198Y-81536000D01*
X203930646Y-81536000D01*
X203909243Y-81484200D01*
X203505923Y-81080176D01*
X202978691Y-80861250D01*
X202407813Y-80860752D01*
X201880200Y-81078757D01*
X201476176Y-81482077D01*
X201257250Y-82009309D01*
X201256752Y-82580187D01*
X191426862Y-82580187D01*
X191427248Y-82138813D01*
X191209243Y-81611200D01*
X190805923Y-81207176D01*
X190278691Y-80988250D01*
X189707813Y-80987752D01*
X189180200Y-81205757D01*
X188776176Y-81609077D01*
X188557250Y-82136309D01*
X188556752Y-82707187D01*
X188774757Y-83234800D01*
X189178077Y-83638824D01*
X189232000Y-83661215D01*
X189232000Y-86925005D01*
X188977302Y-87095189D01*
X188788333Y-87378000D01*
X186785646Y-87378000D01*
X186764243Y-87326200D01*
X186360923Y-86922176D01*
X185833691Y-86703250D01*
X185262813Y-86702752D01*
X184735200Y-86920757D01*
X184331176Y-87324077D01*
X184112250Y-87851309D01*
X184111752Y-88422187D01*
X182624000Y-88422187D01*
X182624000Y-72358646D01*
X182675800Y-72337243D01*
X182778334Y-72234887D01*
X188557000Y-72234887D01*
X188557000Y-72291113D01*
X188666233Y-72840264D01*
X188977302Y-73305811D01*
X189442849Y-73616880D01*
X189992000Y-73726113D01*
X190541151Y-73616880D01*
X191006698Y-73305811D01*
X191195667Y-73023000D01*
X192008354Y-73023000D01*
X192029757Y-73074800D01*
X192433077Y-73478824D01*
X192960309Y-73697750D01*
X193531187Y-73698248D01*
X194058800Y-73480243D01*
X194462824Y-73076923D01*
X194681750Y-72549691D01*
X194681752Y-72547187D01*
X196811752Y-72547187D01*
X197029757Y-73074800D01*
X197433077Y-73478824D01*
X197960309Y-73697750D01*
X198531187Y-73698248D01*
X199058800Y-73480243D01*
X199462824Y-73076923D01*
X199485215Y-73023000D01*
X201439718Y-73023000D01*
X201474757Y-73107800D01*
X201878077Y-73511824D01*
X202405309Y-73730750D01*
X202976187Y-73731248D01*
X203503800Y-73513243D01*
X203907824Y-73109923D01*
X204126750Y-72582691D01*
X204127035Y-72256001D01*
X210413199Y-72256001D01*
X210447052Y-72289854D01*
X210446803Y-72574775D01*
X210619233Y-72992086D01*
X210938235Y-73311645D01*
X211355244Y-73484803D01*
X211806775Y-73485197D01*
X212054260Y-73382938D01*
X211642146Y-73795052D01*
X211357225Y-73794803D01*
X210939914Y-73967233D01*
X210620355Y-74286235D01*
X210447197Y-74703244D01*
X210446803Y-75154775D01*
X210619233Y-75572086D01*
X210938235Y-75891645D01*
X211355244Y-76064803D01*
X211806775Y-76065197D01*
X212224086Y-75892767D01*
X212543645Y-75573765D01*
X212716803Y-75156756D01*
X212717053Y-74869749D01*
X215012027Y-72574775D01*
X223146803Y-72574775D01*
X223319233Y-72992086D01*
X223638235Y-73311645D01*
X224055244Y-73484803D01*
X224506775Y-73485197D01*
X224924086Y-73312767D01*
X225127207Y-73110000D01*
X233084560Y-73110000D01*
X233084560Y-73126000D01*
X233128838Y-73361317D01*
X233267910Y-73577441D01*
X233480110Y-73722431D01*
X233732000Y-73773440D01*
X237692000Y-73773440D01*
X237927317Y-73729162D01*
X238143441Y-73590090D01*
X238288431Y-73377890D01*
X238339440Y-73126000D01*
X238339440Y-71146000D01*
X238295162Y-70910683D01*
X238156090Y-70694559D01*
X237943890Y-70549569D01*
X237692000Y-70498560D01*
X233732000Y-70498560D01*
X233496683Y-70542838D01*
X233280559Y-70681910D01*
X233135569Y-70894110D01*
X233084560Y-71146000D01*
X233084560Y-71590000D01*
X225127059Y-71590000D01*
X224925765Y-71388355D01*
X224508756Y-71215197D01*
X224057225Y-71214803D01*
X223639914Y-71387233D01*
X223320355Y-71706235D01*
X223147197Y-72123244D01*
X223146803Y-72574775D01*
X215012027Y-72574775D01*
X219485401Y-68101401D01*
X219650148Y-67854839D01*
X219708000Y-67564000D01*
X219708000Y-65276000D01*
X221754000Y-65276000D01*
X222044839Y-65218148D01*
X222237821Y-65089202D01*
X222260110Y-65104431D01*
X222512000Y-65155440D01*
X223512000Y-65155440D01*
X223747317Y-65111162D01*
X223963441Y-64972090D01*
X224108431Y-64759890D01*
X224159440Y-64508000D01*
X224159440Y-64293750D01*
X225941000Y-64293750D01*
X225941000Y-64634309D01*
X226037673Y-64867698D01*
X226216301Y-65046327D01*
X226449690Y-65143000D01*
X226790250Y-65143000D01*
X226949000Y-64984250D01*
X226949000Y-64135000D01*
X227203000Y-64135000D01*
X227203000Y-64984250D01*
X227361750Y-65143000D01*
X227702310Y-65143000D01*
X227935699Y-65046327D01*
X228114327Y-64867698D01*
X228211000Y-64634309D01*
X228211000Y-64293750D01*
X228052250Y-64135000D01*
X227203000Y-64135000D01*
X226949000Y-64135000D01*
X226099750Y-64135000D01*
X225941000Y-64293750D01*
X224159440Y-64293750D01*
X224159440Y-63508000D01*
X224135674Y-63381691D01*
X225941000Y-63381691D01*
X225941000Y-63722250D01*
X226099750Y-63881000D01*
X226949000Y-63881000D01*
X226949000Y-63031750D01*
X227203000Y-63031750D01*
X227203000Y-63881000D01*
X228052250Y-63881000D01*
X228211000Y-63722250D01*
X228211000Y-63381691D01*
X228114327Y-63148302D01*
X227935699Y-62969673D01*
X227702310Y-62873000D01*
X227361750Y-62873000D01*
X227203000Y-63031750D01*
X226949000Y-63031750D01*
X226790250Y-62873000D01*
X226449690Y-62873000D01*
X226216301Y-62969673D01*
X226037673Y-63148302D01*
X225941000Y-63381691D01*
X224135674Y-63381691D01*
X224115162Y-63272683D01*
X223976090Y-63056559D01*
X223763890Y-62911569D01*
X223512000Y-62860560D01*
X222512000Y-62860560D01*
X222276683Y-62904838D01*
X222060559Y-63043910D01*
X221915569Y-63256110D01*
X221895221Y-63356594D01*
X221724599Y-63470599D01*
X221439198Y-63756000D01*
X219708000Y-63756000D01*
X219708000Y-60674646D01*
X219751222Y-60656787D01*
X234797213Y-60656787D01*
X235098862Y-62173280D01*
X235957886Y-63458901D01*
X237243507Y-64317925D01*
X238760000Y-64619574D01*
X240276493Y-64317925D01*
X241562114Y-63458901D01*
X242421138Y-62173280D01*
X242722787Y-60656787D01*
X242421138Y-59140294D01*
X241562114Y-57854673D01*
X240276493Y-56995649D01*
X238760000Y-56694000D01*
X237243507Y-56995649D01*
X235957886Y-57854673D01*
X235098862Y-59140294D01*
X234797213Y-60656787D01*
X219751222Y-60656787D01*
X219759800Y-60653243D01*
X220163824Y-60249923D01*
X220382750Y-59722691D01*
X220383248Y-59151813D01*
X220165243Y-58624200D01*
X219761923Y-58220176D01*
X219234691Y-58001250D01*
X218663813Y-58000752D01*
X218136200Y-58218757D01*
X217732176Y-58622077D01*
X217513250Y-59149309D01*
X217512752Y-59720187D01*
X217730757Y-60247800D01*
X218134077Y-60651824D01*
X218188000Y-60674215D01*
X218188000Y-67249198D01*
X212614805Y-72822393D01*
X212716803Y-72576756D01*
X212717197Y-72125225D01*
X212544767Y-71707914D01*
X212225765Y-71388355D01*
X211808756Y-71215197D01*
X211521749Y-71214947D01*
X211265402Y-70958600D01*
X211018840Y-70793853D01*
X210728001Y-70736001D01*
X203491999Y-70736001D01*
X203260145Y-70782120D01*
X203201159Y-70793853D01*
X203053687Y-70892391D01*
X202978691Y-70861250D01*
X202407813Y-70860752D01*
X201880200Y-71078757D01*
X201476176Y-71482077D01*
X201467488Y-71503000D01*
X199485646Y-71503000D01*
X199464243Y-71451200D01*
X199060923Y-71047176D01*
X198533691Y-70828250D01*
X197962813Y-70827752D01*
X197435200Y-71045757D01*
X197031176Y-71449077D01*
X196812250Y-71976309D01*
X196811752Y-72547187D01*
X194681752Y-72547187D01*
X194682248Y-71978813D01*
X194464243Y-71451200D01*
X194060923Y-71047176D01*
X193533691Y-70828250D01*
X192962813Y-70827752D01*
X192435200Y-71045757D01*
X192031176Y-71449077D01*
X192008785Y-71503000D01*
X191195667Y-71503000D01*
X191006698Y-71220189D01*
X190541151Y-70909120D01*
X189992000Y-70799887D01*
X189442849Y-70909120D01*
X188977302Y-71220189D01*
X188666233Y-71685736D01*
X188557000Y-72234887D01*
X182778334Y-72234887D01*
X183079824Y-71933923D01*
X183298750Y-71406691D01*
X183299248Y-70835813D01*
X183081243Y-70308200D01*
X182677923Y-69904176D01*
X182150691Y-69685250D01*
X181579813Y-69684752D01*
X181052200Y-69902757D01*
X180648176Y-70306077D01*
X180429250Y-70833309D01*
X180428752Y-71404187D01*
X180646757Y-71931800D01*
X181050077Y-72335824D01*
X181104000Y-72358215D01*
X181104000Y-97729198D01*
X179929599Y-98903599D01*
X179764852Y-99150161D01*
X179707000Y-99441000D01*
X179707000Y-100260005D01*
X179452302Y-100430189D01*
X179326811Y-100618000D01*
X176495734Y-100618000D01*
X176480827Y-100543057D01*
X176278145Y-100239721D01*
X175974809Y-100037039D01*
X175617000Y-99965866D01*
X175259191Y-100037039D01*
X174955855Y-100239721D01*
X174753173Y-100543057D01*
X174682000Y-100900866D01*
X166392000Y-100900866D01*
X166328445Y-100581357D01*
X167161401Y-99748401D01*
X167326148Y-99501840D01*
X167384000Y-99211000D01*
X167384000Y-94878800D01*
X167484801Y-94777999D01*
X168872001Y-94777999D01*
X169162840Y-94720147D01*
X169324660Y-94612023D01*
X169672000Y-94681113D01*
X169995886Y-94616688D01*
X174214599Y-98835401D01*
X174461161Y-99000148D01*
X174752000Y-99058000D01*
X174818333Y-99058000D01*
X175007302Y-99340811D01*
X175472849Y-99651880D01*
X176022000Y-99761113D01*
X176571151Y-99651880D01*
X177036698Y-99340811D01*
X177347767Y-98875264D01*
X177457000Y-98326113D01*
X177457000Y-98269887D01*
X177347767Y-97720736D01*
X177036698Y-97255189D01*
X176571151Y-96944120D01*
X176022000Y-96834887D01*
X175472849Y-96944120D01*
X175007302Y-97255189D01*
X174917856Y-97389054D01*
X171051904Y-93523102D01*
X171107000Y-93246113D01*
X171107000Y-93189887D01*
X170997767Y-92640736D01*
X170686698Y-92175189D01*
X170221151Y-91864120D01*
X169672000Y-91754887D01*
X169122849Y-91864120D01*
X168657302Y-92175189D01*
X168346233Y-92640736D01*
X168237000Y-93189887D01*
X168237000Y-93246113D01*
X168239364Y-93257999D01*
X167169999Y-93257999D01*
X166879159Y-93315851D01*
X166632598Y-93480598D01*
X166086599Y-94026597D01*
X165921852Y-94273159D01*
X165864000Y-94563998D01*
X165864000Y-95078722D01*
X165809243Y-94946200D01*
X165405923Y-94542176D01*
X164878691Y-94323250D01*
X164307813Y-94322752D01*
X163780200Y-94540757D01*
X163376176Y-94944077D01*
X163157250Y-95471309D01*
X163156752Y-96042187D01*
X163179049Y-96096149D01*
X162975198Y-96300000D01*
X149698734Y-96300000D01*
X149683827Y-96225057D01*
X149481145Y-95921721D01*
X149177809Y-95719039D01*
X148820000Y-95647866D01*
X148462191Y-95719039D01*
X148158855Y-95921721D01*
X147956173Y-96225057D01*
X147885000Y-96582866D01*
X136115747Y-96582866D01*
X135964243Y-96216200D01*
X135560923Y-95812176D01*
X135507000Y-95789785D01*
X135507000Y-91567000D01*
X135449148Y-91276161D01*
X135284401Y-91029599D01*
X134475904Y-90221102D01*
X134531000Y-89944113D01*
X134531000Y-89887887D01*
X134421767Y-89338736D01*
X134110698Y-88873189D01*
X133645151Y-88562120D01*
X133096000Y-88452887D01*
X132546849Y-88562120D01*
X132081302Y-88873189D01*
X131770233Y-89338736D01*
X131661000Y-89887887D01*
X122006915Y-89887887D01*
X128021401Y-83873401D01*
X128186148Y-83626840D01*
X128244000Y-83336000D01*
X128244000Y-82480775D01*
X137040803Y-82480775D01*
X137213233Y-82898086D01*
X137532235Y-83217645D01*
X137949244Y-83390803D01*
X138400775Y-83391197D01*
X138818086Y-83218767D01*
X139021207Y-83016000D01*
X142000826Y-83016000D01*
X142038757Y-83107800D01*
X142442077Y-83511824D01*
X142496000Y-83534215D01*
X142496000Y-87687005D01*
X142241302Y-87857189D01*
X141930233Y-88322736D01*
X141821000Y-88871887D01*
X141821000Y-88928113D01*
X141930233Y-89477264D01*
X142241302Y-89942811D01*
X142706849Y-90253880D01*
X143256000Y-90363113D01*
X143805151Y-90253880D01*
X144270698Y-89942811D01*
X144581767Y-89477264D01*
X144691000Y-88928113D01*
X144691000Y-88871887D01*
X144581767Y-88322736D01*
X144270698Y-87857189D01*
X144016000Y-87687005D01*
X144016000Y-83534646D01*
X144067800Y-83513243D01*
X144471824Y-83109923D01*
X144690750Y-82582691D01*
X144691248Y-82011813D01*
X144473243Y-81484200D01*
X144069923Y-81080176D01*
X143542691Y-80861250D01*
X142971813Y-80860752D01*
X142444200Y-81078757D01*
X142040176Y-81482077D01*
X142034395Y-81496000D01*
X139021059Y-81496000D01*
X138819765Y-81294355D01*
X138402756Y-81121197D01*
X137951225Y-81120803D01*
X137533914Y-81293233D01*
X137214355Y-81612235D01*
X137041197Y-82029244D01*
X137040803Y-82480775D01*
X128244000Y-82480775D01*
X128244000Y-82238332D01*
X128347827Y-82082943D01*
X128419000Y-81725134D01*
X128419000Y-80770866D01*
X128347827Y-80413057D01*
X128145145Y-80109721D01*
X127841809Y-79907039D01*
X127484000Y-79835866D01*
X127126191Y-79907039D01*
X126822855Y-80109721D01*
X126620173Y-80413057D01*
X126549000Y-80770866D01*
X126549000Y-81725134D01*
X126620173Y-82082943D01*
X126724000Y-82238332D01*
X126724000Y-83021198D01*
X119350599Y-90394599D01*
X119185852Y-90641161D01*
X119128000Y-90932000D01*
X119185852Y-91222839D01*
X119208000Y-91255986D01*
X119208000Y-102393354D01*
X119156200Y-102414757D01*
X118752176Y-102818077D01*
X118729785Y-102872000D01*
X114044000Y-102872000D01*
X114044000Y-102616000D01*
X113986148Y-102325161D01*
X113986148Y-102325160D01*
X113821401Y-102078599D01*
X113173256Y-101430454D01*
X113194750Y-101378691D01*
X113195248Y-100807813D01*
X112977243Y-100280200D01*
X112573923Y-99876176D01*
X112046691Y-99657250D01*
X111475813Y-99656752D01*
X110948200Y-99874757D01*
X110544176Y-100278077D01*
X110325250Y-100805309D01*
X110324752Y-101376187D01*
X106275059Y-101376187D01*
X106475800Y-101293243D01*
X106879824Y-100889923D01*
X107098750Y-100362691D01*
X107099248Y-99791813D01*
X107067372Y-99714668D01*
X107166147Y-99566841D01*
X107191178Y-99441000D01*
X107223999Y-99276001D01*
X107223999Y-90954803D01*
X108518802Y-89660000D01*
X111088307Y-89660000D01*
X110745302Y-89889189D01*
X110434233Y-90354736D01*
X110325000Y-90903887D01*
X110325000Y-90960113D01*
X110434233Y-91509264D01*
X110745302Y-91974811D01*
X111210849Y-92285880D01*
X111760000Y-92395113D01*
X112309151Y-92285880D01*
X112774698Y-91974811D01*
X113085767Y-91509264D01*
X113195000Y-90960113D01*
X113195000Y-90903887D01*
X113139904Y-90626898D01*
X123758802Y-80008000D01*
X124105266Y-80008000D01*
X124120173Y-80082943D01*
X124322855Y-80386279D01*
X124626191Y-80588961D01*
X124984000Y-80660134D01*
X125341809Y-80588961D01*
X125645145Y-80386279D01*
X125847827Y-80082943D01*
X125919000Y-79725134D01*
X125919000Y-78770866D01*
X125847827Y-78413057D01*
X125645145Y-78109721D01*
X125341809Y-77907039D01*
X124984000Y-77835866D01*
X124626191Y-77907039D01*
X124322855Y-78109721D01*
X124204000Y-78287601D01*
X124204000Y-78232000D01*
X124146148Y-77941161D01*
X124146148Y-77941160D01*
X123981401Y-77694599D01*
X121664000Y-75377198D01*
X121664000Y-73882646D01*
X121715800Y-73861243D01*
X122119824Y-73457923D01*
X122338750Y-72930691D01*
X122339248Y-72359813D01*
X122121243Y-71832200D01*
X121717923Y-71428176D01*
X121190691Y-71209250D01*
X120619813Y-71208752D01*
X120565851Y-71231049D01*
X119632000Y-70297198D01*
X119632000Y-69310646D01*
X119683800Y-69289243D01*
X120087824Y-68885923D01*
X120306750Y-68358691D01*
X120307248Y-67787813D01*
X120089243Y-67260200D01*
X119685923Y-66856176D01*
X119158691Y-66637250D01*
X118587813Y-66636752D01*
X118060200Y-66854757D01*
X117656176Y-67258077D01*
X117437250Y-67785309D01*
X117436752Y-68356187D01*
X117654757Y-68883800D01*
X118058077Y-69287824D01*
X118112000Y-69310215D01*
X118112000Y-70612000D01*
X118169852Y-70902839D01*
X118334599Y-71149401D01*
X119490744Y-72305546D01*
X119469250Y-72357309D01*
X119468752Y-72928187D01*
X119686757Y-73455800D01*
X120090077Y-73859824D01*
X120144000Y-73882215D01*
X120144000Y-75718000D01*
X120201852Y-76008839D01*
X120366599Y-76255401D01*
X120444954Y-76307756D01*
X122684000Y-78546802D01*
X122684000Y-78933198D01*
X113487035Y-88130163D01*
X113536000Y-87884000D01*
X113536000Y-73882646D01*
X113587800Y-73861243D01*
X113991824Y-73457923D01*
X114014215Y-73404000D01*
X114665354Y-73404000D01*
X114686757Y-73455800D01*
X115090077Y-73859824D01*
X115617309Y-74078750D01*
X116188187Y-74079248D01*
X116715800Y-73861243D01*
X117119824Y-73457923D01*
X117338750Y-72930691D01*
X117339248Y-72359813D01*
X117121243Y-71832200D01*
X116717923Y-71428176D01*
X116190691Y-71209250D01*
X115619813Y-71208752D01*
X115092200Y-71426757D01*
X114688176Y-71830077D01*
X114665785Y-71884000D01*
X114044000Y-71884000D01*
X114044000Y-69284995D01*
X114298698Y-69114811D01*
X114609767Y-68649264D01*
X114719000Y-68100113D01*
X114719000Y-68043887D01*
X114609767Y-67494736D01*
X114298698Y-67029189D01*
X113833151Y-66718120D01*
X113284000Y-66608887D01*
X112734849Y-66718120D01*
X112269302Y-67029189D01*
X111958233Y-67494736D01*
X111849000Y-68043887D01*
X111849000Y-68100113D01*
X111958233Y-68649264D01*
X112269302Y-69114811D01*
X112524000Y-69284995D01*
X112524000Y-71208780D01*
X112491813Y-71208752D01*
X111964200Y-71426757D01*
X111560176Y-71830077D01*
X111341250Y-72357309D01*
X111340752Y-72928187D01*
X111558757Y-73455800D01*
X111962077Y-73859824D01*
X112016000Y-73882215D01*
X112016000Y-87569198D01*
X111445198Y-88140000D01*
X108204000Y-88140000D01*
X107913161Y-88197852D01*
X107666599Y-88362599D01*
X105926598Y-90102600D01*
X105761851Y-90349162D01*
X105703999Y-90640001D01*
X105703999Y-98641035D01*
X105379813Y-98640752D01*
X104852200Y-98858757D01*
X104448176Y-99262077D01*
X104229250Y-99789309D01*
X104228752Y-100360187D01*
X91983999Y-100360187D01*
X91983999Y-98255999D01*
X91926147Y-97965160D01*
X91926147Y-97965159D01*
X91761400Y-97718598D01*
X91409256Y-97366454D01*
X91430750Y-97314691D01*
X91430752Y-97312187D01*
X93560752Y-97312187D01*
X93778757Y-97839800D01*
X94182077Y-98243824D01*
X94709309Y-98462750D01*
X95280187Y-98463248D01*
X95807800Y-98245243D01*
X96211824Y-97841923D01*
X96430750Y-97314691D01*
X96431248Y-96743813D01*
X96408951Y-96689851D01*
X106562802Y-86536000D01*
X108962469Y-86536000D01*
X108974990Y-86566303D01*
X109367630Y-86959629D01*
X109880900Y-87172757D01*
X110436661Y-87173242D01*
X110950303Y-86961010D01*
X111343629Y-86568370D01*
X111556757Y-86055100D01*
X111557242Y-85499339D01*
X111345010Y-84985697D01*
X110952370Y-84592371D01*
X110920000Y-84578930D01*
X110920000Y-80188000D01*
X110862148Y-79897161D01*
X110697401Y-79650599D01*
X104014688Y-72967886D01*
X104079113Y-72644000D01*
X103969880Y-72094849D01*
X103658811Y-71629302D01*
X103296000Y-71386879D01*
X103296000Y-69596000D01*
X110542000Y-69596000D01*
X110542000Y-69905672D01*
X110596046Y-70177377D01*
X110749954Y-70407718D01*
X110980295Y-70561626D01*
X111252000Y-70615672D01*
X111523705Y-70561626D01*
X111754046Y-70407718D01*
X111907954Y-70177377D01*
X111962000Y-69905672D01*
X111962000Y-69596000D01*
X111907954Y-69324295D01*
X111754046Y-69093954D01*
X111523705Y-68940046D01*
X111252000Y-68886000D01*
X110980295Y-68940046D01*
X110749954Y-69093954D01*
X110596046Y-69324295D01*
X110542000Y-69596000D01*
X103296000Y-69596000D01*
X103296000Y-68294646D01*
X103347800Y-68273243D01*
X103751824Y-67869923D01*
X103970750Y-67342691D01*
X103971248Y-66771813D01*
X103753243Y-66244200D01*
X103349923Y-65840176D01*
X102822691Y-65621250D01*
X102251813Y-65620752D01*
X101724200Y-65838757D01*
X101320176Y-66242077D01*
X101101250Y-66769309D01*
X101100752Y-67340187D01*
X101318757Y-67867800D01*
X101722077Y-68271824D01*
X101776000Y-68294215D01*
X101776000Y-71493788D01*
X101573189Y-71629302D01*
X101262120Y-72094849D01*
X101152887Y-72644000D01*
X101262120Y-73193151D01*
X101573189Y-73658698D01*
X102038736Y-73969767D01*
X102587887Y-74079000D01*
X102644113Y-74079000D01*
X102921102Y-74023904D01*
X109400000Y-80502802D01*
X109400000Y-84578469D01*
X109369697Y-84590990D01*
X108976371Y-84983630D01*
X108962930Y-85016000D01*
X106248000Y-85016000D01*
X105957161Y-85073852D01*
X105710599Y-85238599D01*
X95334454Y-95614744D01*
X95282691Y-95593250D01*
X94711813Y-95592752D01*
X94184200Y-95810757D01*
X93780176Y-96214077D01*
X93561250Y-96741309D01*
X93560752Y-97312187D01*
X91430752Y-97312187D01*
X91431248Y-96743813D01*
X91213243Y-96216200D01*
X90809923Y-95812176D01*
X90756000Y-95789785D01*
X90756000Y-89198603D01*
X90779827Y-89162943D01*
X90851000Y-88805134D01*
X90851000Y-87850866D01*
X90779827Y-87493057D01*
X90577145Y-87189721D01*
X90273809Y-86987039D01*
X89916000Y-86915866D01*
X89558191Y-86987039D01*
X89254855Y-87189721D01*
X89052173Y-87493057D01*
X88981000Y-87850866D01*
X88981000Y-88805134D01*
X89052173Y-89162943D01*
X89236000Y-89438060D01*
X89236000Y-95475957D01*
X89196001Y-95468001D01*
X83015999Y-95468001D01*
X82773413Y-95516255D01*
X82725159Y-95525853D01*
X82577687Y-95624391D01*
X82502691Y-95593250D01*
X81931813Y-95592752D01*
X81404200Y-95810757D01*
X81000176Y-96214077D01*
X80781250Y-96741309D01*
X80780752Y-97312187D01*
X78638735Y-97312187D01*
X78662965Y-97244777D01*
X78635778Y-96674546D01*
X78469864Y-96273995D01*
X78223745Y-96199861D01*
X77395605Y-97028000D01*
X77036395Y-97028000D01*
X76208255Y-96199861D01*
X75962136Y-96273995D01*
X75769035Y-96811223D01*
X59955189Y-96811223D01*
X59955265Y-96724009D01*
X59722068Y-96159629D01*
X59688000Y-96125501D01*
X59688000Y-96020255D01*
X76387861Y-96020255D01*
X77216000Y-96848395D01*
X78044139Y-96020255D01*
X77970005Y-95774136D01*
X77432777Y-95581035D01*
X76862546Y-95608222D01*
X76461995Y-95774136D01*
X76387861Y-96020255D01*
X59688000Y-96020255D01*
X59688000Y-89692187D01*
X64604752Y-89692187D01*
X64822757Y-90219800D01*
X65226077Y-90623824D01*
X65753309Y-90842750D01*
X66324187Y-90843248D01*
X66851800Y-90625243D01*
X67255824Y-90221923D01*
X67474750Y-89694691D01*
X67475248Y-89123813D01*
X67257243Y-88596200D01*
X66853923Y-88192176D01*
X66800000Y-88169785D01*
X66800000Y-87572995D01*
X67054698Y-87402811D01*
X67243667Y-87120000D01*
X71238536Y-87120000D01*
X71257106Y-87164943D01*
X71716637Y-87625278D01*
X72317352Y-87874716D01*
X72967795Y-87875284D01*
X73568943Y-87626894D01*
X74029278Y-87167363D01*
X74098773Y-87000000D01*
X86519761Y-87000000D01*
X86552173Y-87162943D01*
X86754855Y-87466279D01*
X87058191Y-87668961D01*
X87416000Y-87740134D01*
X87773809Y-87668961D01*
X88077145Y-87466279D01*
X88279827Y-87162943D01*
X88351000Y-86805134D01*
X88351000Y-85850866D01*
X88279827Y-85493057D01*
X88077145Y-85189721D01*
X87773809Y-84987039D01*
X87416000Y-84915866D01*
X87058191Y-84987039D01*
X86754855Y-85189721D01*
X86560897Y-85480000D01*
X74099047Y-85480000D01*
X74030894Y-85315057D01*
X73571363Y-84854722D01*
X72970648Y-84605284D01*
X72320205Y-84604716D01*
X71719057Y-84853106D01*
X71258722Y-85312637D01*
X71139399Y-85600000D01*
X67243667Y-85600000D01*
X67054698Y-85317189D01*
X66589151Y-85006120D01*
X66040000Y-84896887D01*
X65490849Y-85006120D01*
X65025302Y-85317189D01*
X64714233Y-85782736D01*
X64605000Y-86331887D01*
X64605000Y-86388113D01*
X64714233Y-86937264D01*
X65025302Y-87402811D01*
X65280000Y-87572995D01*
X65280000Y-88169354D01*
X65228200Y-88190757D01*
X64824176Y-88594077D01*
X64605250Y-89121309D01*
X64604752Y-89692187D01*
X59688000Y-89692187D01*
X59688000Y-80968995D01*
X59942698Y-80798811D01*
X60253767Y-80333264D01*
X60363000Y-79784113D01*
X60363000Y-79727887D01*
X60253767Y-79178736D01*
X60176966Y-79063795D01*
X71008716Y-79063795D01*
X71257106Y-79664943D01*
X71716637Y-80125278D01*
X72317352Y-80374716D01*
X72967795Y-80375284D01*
X73568943Y-80126894D01*
X74029278Y-79667363D01*
X74140297Y-79400000D01*
X82622469Y-79400000D01*
X82634990Y-79430303D01*
X83027630Y-79823629D01*
X83540900Y-80036757D01*
X84096661Y-80037242D01*
X84610303Y-79825010D01*
X85003629Y-79432370D01*
X85216757Y-78919100D01*
X85217242Y-78363339D01*
X85005010Y-77849697D01*
X84612370Y-77456371D01*
X84099100Y-77243243D01*
X83543339Y-77242758D01*
X83029697Y-77454990D01*
X82636371Y-77847630D01*
X82622930Y-77880000D01*
X74057728Y-77880000D01*
X74030894Y-77815057D01*
X73571363Y-77354722D01*
X72970648Y-77105284D01*
X72320205Y-77104716D01*
X71719057Y-77353106D01*
X71258722Y-77812637D01*
X71009284Y-78413352D01*
X71008716Y-79063795D01*
X60176966Y-79063795D01*
X59942698Y-78713189D01*
X59477151Y-78402120D01*
X58928000Y-78292887D01*
X58378849Y-78402120D01*
X57913302Y-78713189D01*
X57602233Y-79178736D01*
X57493000Y-79727887D01*
X57493000Y-79784113D01*
X57602233Y-80333264D01*
X57913302Y-80798811D01*
X58168000Y-80968995D01*
X58168000Y-95492780D01*
X58116009Y-95492735D01*
X57551629Y-95725932D01*
X57119449Y-96157357D01*
X56885267Y-96721330D01*
X56884735Y-97331991D01*
X51510000Y-97331991D01*
X51510000Y-76484187D01*
X64604752Y-76484187D01*
X64822757Y-77011800D01*
X65226077Y-77415824D01*
X65753309Y-77634750D01*
X66324187Y-77635248D01*
X66851800Y-77417243D01*
X67255824Y-77013923D01*
X67474750Y-76486691D01*
X67475248Y-75915813D01*
X67257243Y-75388200D01*
X66853923Y-74984176D01*
X66800000Y-74961785D01*
X66800000Y-73348995D01*
X67054698Y-73178811D01*
X67365767Y-72713264D01*
X67475000Y-72164113D01*
X67475000Y-72107887D01*
X67365767Y-71558736D01*
X67257472Y-71396661D01*
X76622758Y-71396661D01*
X76834990Y-71910303D01*
X77227630Y-72303629D01*
X77740900Y-72516757D01*
X78296661Y-72517242D01*
X78810303Y-72305010D01*
X79203629Y-71912370D01*
X79416757Y-71399100D01*
X79416759Y-71396661D01*
X82422758Y-71396661D01*
X82634990Y-71910303D01*
X83027630Y-72303629D01*
X83540900Y-72516757D01*
X84096661Y-72517242D01*
X84610303Y-72305010D01*
X85003629Y-71912370D01*
X85017070Y-71880000D01*
X94173198Y-71880000D01*
X95498067Y-73204869D01*
X95440776Y-73342841D01*
X95440225Y-73974388D01*
X95498288Y-74114910D01*
X91017039Y-78596159D01*
X91017242Y-78363339D01*
X90805010Y-77849697D01*
X90412370Y-77456371D01*
X89899100Y-77243243D01*
X89343339Y-77242758D01*
X88829697Y-77454990D01*
X88436371Y-77847630D01*
X88223243Y-78360900D01*
X88222758Y-78916661D01*
X88434990Y-79430303D01*
X88827630Y-79823629D01*
X89340900Y-80036757D01*
X89576236Y-80036962D01*
X89378599Y-80234599D01*
X89213852Y-80481161D01*
X89156000Y-80772000D01*
X89156000Y-83337668D01*
X89052173Y-83493057D01*
X88981000Y-83850866D01*
X88981000Y-84805134D01*
X89052173Y-85162943D01*
X89254855Y-85466279D01*
X89558191Y-85668961D01*
X89916000Y-85740134D01*
X90273809Y-85668961D01*
X90577145Y-85466279D01*
X90779827Y-85162943D01*
X90851000Y-84805134D01*
X90851000Y-83850866D01*
X90779827Y-83493057D01*
X90676000Y-83337668D01*
X90676000Y-81086802D01*
X93975302Y-77787500D01*
X95428060Y-77787500D01*
X95428060Y-79692500D01*
X95472338Y-79927817D01*
X95611410Y-80143941D01*
X95823610Y-80288931D01*
X96075500Y-80339940D01*
X97980500Y-80339940D01*
X98215817Y-80295662D01*
X98431941Y-80156590D01*
X98576931Y-79944390D01*
X98627940Y-79692500D01*
X98627940Y-79576000D01*
X102002469Y-79576000D01*
X102014990Y-79606303D01*
X102407630Y-79999629D01*
X102920900Y-80212757D01*
X103476661Y-80213242D01*
X103990303Y-80001010D01*
X104383629Y-79608370D01*
X104596757Y-79095100D01*
X104597242Y-78539339D01*
X104385010Y-78025697D01*
X103992370Y-77632371D01*
X103479100Y-77419243D01*
X102923339Y-77418758D01*
X102409697Y-77630990D01*
X102016371Y-78023630D01*
X102002930Y-78056000D01*
X98627940Y-78056000D01*
X98627940Y-77787500D01*
X98583662Y-77552183D01*
X98444590Y-77336059D01*
X98232390Y-77191069D01*
X97980500Y-77140060D01*
X96075500Y-77140060D01*
X95840183Y-77184338D01*
X95624059Y-77323410D01*
X95479069Y-77535610D01*
X95428060Y-77787500D01*
X93975302Y-77787500D01*
X96572869Y-75189933D01*
X96710841Y-75247224D01*
X97342388Y-75247775D01*
X97926072Y-75006602D01*
X98373032Y-74560421D01*
X98615224Y-73977159D01*
X98615775Y-73345612D01*
X98374602Y-72761928D01*
X97928421Y-72314968D01*
X97345159Y-72072776D01*
X96713612Y-72072225D01*
X96573090Y-72130288D01*
X95562802Y-71120000D01*
X97273403Y-69409400D01*
X97438149Y-69162838D01*
X97496001Y-68871999D01*
X97496001Y-68490965D01*
X97820187Y-68491248D01*
X98347800Y-68273243D01*
X98751824Y-67869923D01*
X98970750Y-67342691D01*
X98971248Y-66771813D01*
X98753243Y-66244200D01*
X98349923Y-65840176D01*
X97822691Y-65621250D01*
X97251813Y-65620752D01*
X96724200Y-65838757D01*
X96320176Y-66242077D01*
X96101250Y-66769309D01*
X96100752Y-67340187D01*
X96132628Y-67417333D01*
X96033853Y-67565160D01*
X95976001Y-67855999D01*
X95976001Y-68557196D01*
X94173198Y-70360000D01*
X85017531Y-70360000D01*
X85005010Y-70329697D01*
X84612370Y-69936371D01*
X84099100Y-69723243D01*
X83543339Y-69722758D01*
X83029697Y-69934990D01*
X82636371Y-70327630D01*
X82423243Y-70840900D01*
X82422758Y-71396661D01*
X79416759Y-71396661D01*
X79417242Y-70843339D01*
X79205010Y-70329697D01*
X78812370Y-69936371D01*
X78299100Y-69723243D01*
X77743339Y-69722758D01*
X77229697Y-69934990D01*
X76836371Y-70327630D01*
X76623243Y-70840900D01*
X76622758Y-71396661D01*
X67257472Y-71396661D01*
X67054698Y-71093189D01*
X66589151Y-70782120D01*
X66040000Y-70672887D01*
X65490849Y-70782120D01*
X65025302Y-71093189D01*
X64714233Y-71558736D01*
X64605000Y-72107887D01*
X64605000Y-72164113D01*
X64714233Y-72713264D01*
X65025302Y-73178811D01*
X65280000Y-73348995D01*
X65280000Y-74961354D01*
X65228200Y-74982757D01*
X64824176Y-75386077D01*
X64605250Y-75913309D01*
X64604752Y-76484187D01*
X51510000Y-76484187D01*
X51510000Y-60960000D01*
X51712426Y-60960000D01*
X52014075Y-62476493D01*
X52873099Y-63762114D01*
X54158720Y-64621138D01*
X55675213Y-64922787D01*
X57191706Y-64621138D01*
X58477327Y-63762114D01*
X59336351Y-62476493D01*
X59638000Y-60960000D01*
X59336351Y-59443507D01*
X58477327Y-58157886D01*
X57191706Y-57298862D01*
X55675213Y-56997213D01*
X54158720Y-57298862D01*
X52873099Y-58157886D01*
X52014075Y-59443507D01*
X51712426Y-60960000D01*
X51510000Y-60960000D01*
X51510000Y-56590000D01*
X112725732Y-56590000D01*
X112472200Y-56694757D01*
X112472200Y-56694757D01*
G37*
X112472200Y-56694757D02*
X112068176Y-57098077D01*
X112045785Y-57152000D01*
X70104000Y-57152000D01*
X69813161Y-57209852D01*
X69566599Y-57374599D01*
X66378454Y-60562744D01*
X66326691Y-60541250D01*
X65755813Y-60540752D01*
X65228200Y-60758757D01*
X64824176Y-61162077D01*
X64605250Y-61689309D01*
X64604752Y-62260187D01*
X64627049Y-62314149D01*
X60930599Y-66010599D01*
X60765852Y-66257161D01*
X60708000Y-66548000D01*
X60708000Y-66741198D01*
X59266454Y-68182744D01*
X59214691Y-68161250D01*
X58643813Y-68160752D01*
X58116200Y-68378757D01*
X57712176Y-68782077D01*
X57493250Y-69309309D01*
X57492752Y-69880187D01*
X57710757Y-70407800D01*
X58114077Y-70811824D01*
X58641309Y-71030750D01*
X59212187Y-71031248D01*
X59739800Y-70813243D01*
X60143824Y-70409923D01*
X60362750Y-69882691D01*
X60363248Y-69311813D01*
X60340951Y-69257851D01*
X62005401Y-67593401D01*
X62170148Y-67346840D01*
X62182648Y-67284000D01*
X62228000Y-67056000D01*
X62228000Y-66862802D01*
X63558802Y-65532000D01*
X68378000Y-65532000D01*
X68378000Y-66040000D01*
X68432046Y-66311705D01*
X68585954Y-66542046D01*
X68816295Y-66695954D01*
X69088000Y-66750000D01*
X69359705Y-66695954D01*
X69590046Y-66542046D01*
X69743954Y-66311705D01*
X69798000Y-66040000D01*
X69798000Y-65532000D01*
X69743954Y-65260295D01*
X69590046Y-65029954D01*
X69359705Y-64876046D01*
X69088000Y-64822000D01*
X68816295Y-64876046D01*
X68585954Y-65029954D01*
X68432046Y-65260295D01*
X68378000Y-65532000D01*
X63558802Y-65532000D01*
X65701546Y-63389256D01*
X65753309Y-63410750D01*
X66324187Y-63411248D01*
X66851800Y-63193243D01*
X67255824Y-62789923D01*
X67474750Y-62262691D01*
X67475248Y-61691813D01*
X67452951Y-61637851D01*
X70418802Y-58672000D01*
X112045354Y-58672000D01*
X112066757Y-58723800D01*
X112470077Y-59127824D01*
X112997309Y-59346750D01*
X113568187Y-59347248D01*
X114095800Y-59129243D01*
X114499824Y-58725923D01*
X114522215Y-58672000D01*
X117668333Y-58672000D01*
X117857302Y-58954811D01*
X118322849Y-59265880D01*
X118872000Y-59375113D01*
X119195886Y-59310688D01*
X126724000Y-66838802D01*
X126724000Y-76257668D01*
X126620173Y-76413057D01*
X126549000Y-76770866D01*
X126549000Y-77725134D01*
X126620173Y-78082943D01*
X126822855Y-78386279D01*
X127126191Y-78588961D01*
X127484000Y-78660134D01*
X127841809Y-78588961D01*
X128145145Y-78386279D01*
X128347827Y-78082943D01*
X128361143Y-78016000D01*
X137330941Y-78016000D01*
X137532235Y-78217645D01*
X137575842Y-78235752D01*
X137376001Y-78196001D01*
X133895999Y-78196001D01*
X133653413Y-78244255D01*
X133605159Y-78253853D01*
X133457687Y-78352391D01*
X133382691Y-78321250D01*
X132811813Y-78320752D01*
X132284200Y-78538757D01*
X131880176Y-78942077D01*
X131661250Y-79469309D01*
X131660752Y-80040187D01*
X131878757Y-80567800D01*
X132282077Y-80971824D01*
X132809309Y-81190750D01*
X133380187Y-81191248D01*
X133907800Y-80973243D01*
X134311824Y-80569923D01*
X134530750Y-80042691D01*
X134531035Y-79716001D01*
X137041034Y-79716001D01*
X137040803Y-79980775D01*
X137213233Y-80398086D01*
X137532235Y-80717645D01*
X137949244Y-80890803D01*
X138400775Y-80891197D01*
X138818086Y-80718767D01*
X139137645Y-80399765D01*
X139310803Y-79982756D01*
X139311197Y-79531225D01*
X139138767Y-79113914D01*
X138819765Y-78794355D01*
X138402756Y-78621197D01*
X138115749Y-78620947D01*
X137913402Y-78418600D01*
X137744666Y-78305854D01*
X137949244Y-78390803D01*
X138400775Y-78391197D01*
X138818086Y-78218767D01*
X138981137Y-78056000D01*
X142017354Y-78056000D01*
X142038757Y-78107800D01*
X142442077Y-78511824D01*
X142969309Y-78730750D01*
X143540187Y-78731248D01*
X144067800Y-78513243D01*
X144471824Y-78109923D01*
X144690750Y-77582691D01*
X144691248Y-77011813D01*
X144473243Y-76484200D01*
X144069923Y-76080176D01*
X144016000Y-76057785D01*
X144016000Y-75714661D01*
X157352758Y-75714661D01*
X157564990Y-76228303D01*
X157957630Y-76621629D01*
X158470900Y-76834757D01*
X159026661Y-76835242D01*
X159540303Y-76623010D01*
X159933629Y-76230370D01*
X160146757Y-75717100D01*
X160147242Y-75161339D01*
X159935010Y-74647697D01*
X159542370Y-74254371D01*
X159029100Y-74041243D01*
X158473339Y-74040758D01*
X157959697Y-74252990D01*
X157566371Y-74645630D01*
X157353243Y-75158900D01*
X157352758Y-75714661D01*
X144016000Y-75714661D01*
X144016000Y-72179440D01*
X144256000Y-72179440D01*
X144491317Y-72135162D01*
X144707441Y-71996090D01*
X144852431Y-71783890D01*
X144903440Y-71532000D01*
X144903440Y-69848000D01*
X163902469Y-69848000D01*
X163914990Y-69878303D01*
X164307630Y-70271629D01*
X164340000Y-70285070D01*
X164340000Y-84185013D01*
X164042849Y-84244120D01*
X163577302Y-84555189D01*
X163266233Y-85020736D01*
X163157000Y-85569887D01*
X163157000Y-85626113D01*
X163266233Y-86175264D01*
X163577302Y-86640811D01*
X164042849Y-86951880D01*
X164592000Y-87061113D01*
X165141151Y-86951880D01*
X165606698Y-86640811D01*
X165795667Y-86358000D01*
X173167198Y-86358000D01*
X174608744Y-87799546D01*
X174587250Y-87851309D01*
X174586752Y-88422187D01*
X174804757Y-88949800D01*
X175208077Y-89353824D01*
X175735309Y-89572750D01*
X176306187Y-89573248D01*
X176833800Y-89355243D01*
X177237824Y-88951923D01*
X177456750Y-88424691D01*
X177457248Y-87853813D01*
X177239243Y-87326200D01*
X176835923Y-86922176D01*
X176308691Y-86703250D01*
X175737813Y-86702752D01*
X175683851Y-86725049D01*
X174019401Y-85060599D01*
X173772839Y-84895852D01*
X173482000Y-84838000D01*
X165860000Y-84838000D01*
X165860000Y-75714661D01*
X170052758Y-75714661D01*
X170264990Y-76228303D01*
X170657630Y-76621629D01*
X171170900Y-76834757D01*
X171726661Y-76835242D01*
X172240303Y-76623010D01*
X172633629Y-76230370D01*
X172846757Y-75717100D01*
X172847242Y-75161339D01*
X172635010Y-74647697D01*
X172242370Y-74254371D01*
X171729100Y-74041243D01*
X171173339Y-74040758D01*
X170659697Y-74252990D01*
X170266371Y-74645630D01*
X170053243Y-75158900D01*
X170052758Y-75714661D01*
X165860000Y-75714661D01*
X165860000Y-70285531D01*
X165890303Y-70273010D01*
X166283629Y-69880370D01*
X166496757Y-69367100D01*
X166497002Y-69086001D01*
X174497999Y-69086001D01*
X174788838Y-69028149D01*
X175035400Y-68863402D01*
X181540114Y-62358688D01*
X181864000Y-62423113D01*
X182413151Y-62313880D01*
X182878698Y-62002811D01*
X183189767Y-61537264D01*
X183299000Y-60988113D01*
X183299000Y-60931887D01*
X183243904Y-60654898D01*
X183702802Y-60196000D01*
X207575005Y-60196000D01*
X207745189Y-60450698D01*
X208210736Y-60761767D01*
X208759887Y-60871000D01*
X208816113Y-60871000D01*
X209365264Y-60761767D01*
X209830811Y-60450698D01*
X210141880Y-59985151D01*
X210251113Y-59436000D01*
X210141880Y-58886849D01*
X209830811Y-58421302D01*
X209365264Y-58110233D01*
X208816113Y-58001000D01*
X208759887Y-58001000D01*
X208210736Y-58110233D01*
X207745189Y-58421302D01*
X207575005Y-58676000D01*
X183388000Y-58676000D01*
X183147695Y-58723800D01*
X183097160Y-58733852D01*
X182850599Y-58898599D01*
X182187886Y-59561312D01*
X181864000Y-59496887D01*
X181314849Y-59606120D01*
X180849302Y-59917189D01*
X180538233Y-60382736D01*
X180429000Y-60931887D01*
X180429000Y-60988113D01*
X180484096Y-61265102D01*
X174183197Y-67566001D01*
X165861999Y-67566001D01*
X165571159Y-67623853D01*
X165435348Y-67714599D01*
X165379100Y-67691243D01*
X164823339Y-67690758D01*
X164309697Y-67902990D01*
X163916371Y-68295630D01*
X163902930Y-68328000D01*
X143450000Y-68328000D01*
X143207414Y-68376254D01*
X143159160Y-68385852D01*
X142912599Y-68550599D01*
X142718599Y-68744599D01*
X142625080Y-68884560D01*
X142256000Y-68884560D01*
X142020683Y-68928838D01*
X141804559Y-69067910D01*
X141659569Y-69280110D01*
X141608560Y-69532000D01*
X141608560Y-71532000D01*
X141652838Y-71767317D01*
X141791910Y-71983441D01*
X142004110Y-72128431D01*
X142256000Y-72179440D01*
X142496000Y-72179440D01*
X142496000Y-76057354D01*
X142444200Y-76078757D01*
X142040176Y-76482077D01*
X142017785Y-76536000D01*
X139060989Y-76536000D01*
X138819765Y-76294355D01*
X138402756Y-76121197D01*
X137951225Y-76120803D01*
X137533914Y-76293233D01*
X137330793Y-76496000D01*
X128364325Y-76496000D01*
X128347827Y-76413057D01*
X128244000Y-76257668D01*
X128244000Y-66684532D01*
X142283073Y-66684532D01*
X142381736Y-66951387D01*
X142991461Y-67177908D01*
X143641460Y-67153856D01*
X144130264Y-66951387D01*
X144228927Y-66684532D01*
X143256000Y-65711605D01*
X142283073Y-66684532D01*
X128244000Y-66684532D01*
X128244000Y-66524000D01*
X128186148Y-66233161D01*
X128186148Y-66233160D01*
X128021401Y-65986599D01*
X127302263Y-65267461D01*
X141610092Y-65267461D01*
X141634144Y-65917460D01*
X141836613Y-66406264D01*
X142103468Y-66504927D01*
X143076395Y-65532000D01*
X143435605Y-65532000D01*
X144408532Y-66504927D01*
X144675387Y-66406264D01*
X144901908Y-65796539D01*
X144877856Y-65146540D01*
X144675387Y-64657736D01*
X144408532Y-64559073D01*
X143435605Y-65532000D01*
X143076395Y-65532000D01*
X142103468Y-64559073D01*
X141836613Y-64657736D01*
X141610092Y-65267461D01*
X127302263Y-65267461D01*
X126414270Y-64379468D01*
X142283073Y-64379468D01*
X143256000Y-65352395D01*
X144228927Y-64379468D01*
X144130264Y-64112613D01*
X143520539Y-63886092D01*
X142870540Y-63910144D01*
X142381736Y-64112613D01*
X142283073Y-64379468D01*
X126414270Y-64379468D01*
X125049463Y-63014661D01*
X157352758Y-63014661D01*
X157564990Y-63528303D01*
X157957630Y-63921629D01*
X158470900Y-64134757D01*
X159026661Y-64135242D01*
X159540303Y-63923010D01*
X159933629Y-63530370D01*
X160146757Y-63017100D01*
X160146759Y-63014661D01*
X170052758Y-63014661D01*
X170264990Y-63528303D01*
X170657630Y-63921629D01*
X171170900Y-64134757D01*
X171726661Y-64135242D01*
X172240303Y-63923010D01*
X172633629Y-63530370D01*
X172846757Y-63017100D01*
X172847242Y-62461339D01*
X172635010Y-61947697D01*
X172242370Y-61554371D01*
X171729100Y-61341243D01*
X171173339Y-61340758D01*
X170659697Y-61552990D01*
X170266371Y-61945630D01*
X170053243Y-62458900D01*
X170052758Y-63014661D01*
X160146759Y-63014661D01*
X160147242Y-62461339D01*
X159935010Y-61947697D01*
X159542370Y-61554371D01*
X159029100Y-61341243D01*
X158473339Y-61340758D01*
X157959697Y-61552990D01*
X157566371Y-61945630D01*
X157353243Y-62458900D01*
X157352758Y-63014661D01*
X125049463Y-63014661D01*
X120251904Y-58217102D01*
X120307000Y-57940113D01*
X120307000Y-57883887D01*
X120197767Y-57334736D01*
X119886698Y-56869189D01*
X119468863Y-56590000D01*
X243130000Y-56590000D01*
X243130000Y-126290000D01*
X51510000Y-126290000D01*
X51510000Y-121616787D01*
X51917213Y-121616787D01*
X52218862Y-123133280D01*
X53077886Y-124418901D01*
X54363507Y-125277925D01*
X55880000Y-125579574D01*
X57396493Y-125277925D01*
X58682114Y-124418901D01*
X59541138Y-123133280D01*
X59782474Y-121920000D01*
X234797213Y-121920000D01*
X235098862Y-123436493D01*
X235957886Y-124722114D01*
X237243507Y-125581138D01*
X238760000Y-125882787D01*
X240276493Y-125581138D01*
X241562114Y-124722114D01*
X242421138Y-123436493D01*
X242722787Y-121920000D01*
X242421138Y-120403507D01*
X241562114Y-119117886D01*
X240276493Y-118258862D01*
X238760000Y-117957213D01*
X237243507Y-118258862D01*
X235957886Y-119117886D01*
X235098862Y-120403507D01*
X234797213Y-121920000D01*
X59782474Y-121920000D01*
X59842787Y-121616787D01*
X59541138Y-120100294D01*
X59303566Y-119744742D01*
X128048954Y-119744742D01*
X128302034Y-120287576D01*
X128743583Y-120692240D01*
X129175260Y-120871036D01*
X129413000Y-120750378D01*
X129413000Y-119507000D01*
X129667000Y-119507000D01*
X129667000Y-120750378D01*
X129904740Y-120871036D01*
X130336417Y-120692240D01*
X130668666Y-120387745D01*
X138871861Y-120387745D01*
X138945995Y-120633864D01*
X139483223Y-120826965D01*
X140053454Y-120799778D01*
X140454005Y-120633864D01*
X140508624Y-120452532D01*
X150411073Y-120452532D01*
X150509736Y-120719387D01*
X151119461Y-120945908D01*
X151769460Y-120921856D01*
X152258264Y-120719387D01*
X152356927Y-120452532D01*
X152292140Y-120387745D01*
X158683861Y-120387745D01*
X158757995Y-120633864D01*
X159295223Y-120826965D01*
X159865454Y-120799778D01*
X160266005Y-120633864D01*
X160340139Y-120387745D01*
X159512000Y-119559605D01*
X158683861Y-120387745D01*
X152292140Y-120387745D01*
X151384000Y-119479605D01*
X150411073Y-120452532D01*
X140508624Y-120452532D01*
X140528139Y-120387745D01*
X139700000Y-119559605D01*
X138871861Y-120387745D01*
X130668666Y-120387745D01*
X130777966Y-120287576D01*
X131031046Y-119744742D01*
X130910997Y-119507000D01*
X129667000Y-119507000D01*
X129413000Y-119507000D01*
X128169003Y-119507000D01*
X128048954Y-119744742D01*
X59303566Y-119744742D01*
X58816141Y-119015258D01*
X128048954Y-119015258D01*
X128169003Y-119253000D01*
X129413000Y-119253000D01*
X129413000Y-118009622D01*
X129667000Y-118009622D01*
X129667000Y-119253000D01*
X130910997Y-119253000D01*
X130956330Y-119163223D01*
X138253035Y-119163223D01*
X138280222Y-119733454D01*
X138446136Y-120134005D01*
X138692255Y-120208139D01*
X139520395Y-119380000D01*
X139879605Y-119380000D01*
X140707745Y-120208139D01*
X140953864Y-120134005D01*
X141146965Y-119596777D01*
X141120204Y-119035461D01*
X149738092Y-119035461D01*
X149762144Y-119685460D01*
X149964613Y-120174264D01*
X150231468Y-120272927D01*
X151204395Y-119300000D01*
X151563605Y-119300000D01*
X152536532Y-120272927D01*
X152803387Y-120174264D01*
X153029908Y-119564539D01*
X153015059Y-119163223D01*
X158065035Y-119163223D01*
X158092222Y-119733454D01*
X158258136Y-120134005D01*
X158504255Y-120208139D01*
X159332395Y-119380000D01*
X159691605Y-119380000D01*
X160519745Y-120208139D01*
X160765864Y-120134005D01*
X160958965Y-119596777D01*
X160931778Y-119026546D01*
X160765864Y-118625995D01*
X160519745Y-118551861D01*
X159691605Y-119380000D01*
X159332395Y-119380000D01*
X158504255Y-118551861D01*
X158258136Y-118625995D01*
X158065035Y-119163223D01*
X153015059Y-119163223D01*
X153005856Y-118914540D01*
X152803387Y-118425736D01*
X152658737Y-118372255D01*
X158683861Y-118372255D01*
X159512000Y-119200395D01*
X160340139Y-118372255D01*
X160266005Y-118126136D01*
X159728777Y-117933035D01*
X159158546Y-117960222D01*
X158757995Y-118126136D01*
X158683861Y-118372255D01*
X152658737Y-118372255D01*
X152536532Y-118327073D01*
X151563605Y-119300000D01*
X151204395Y-119300000D01*
X150231468Y-118327073D01*
X149964613Y-118425736D01*
X149738092Y-119035461D01*
X141120204Y-119035461D01*
X141119778Y-119026546D01*
X140953864Y-118625995D01*
X140707745Y-118551861D01*
X139879605Y-119380000D01*
X139520395Y-119380000D01*
X138692255Y-118551861D01*
X138446136Y-118625995D01*
X138253035Y-119163223D01*
X130956330Y-119163223D01*
X131031046Y-119015258D01*
X130777966Y-118472424D01*
X130668667Y-118372255D01*
X138871861Y-118372255D01*
X139700000Y-119200395D01*
X140528139Y-118372255D01*
X140460431Y-118147468D01*
X150411073Y-118147468D01*
X151384000Y-119120395D01*
X152356927Y-118147468D01*
X152258264Y-117880613D01*
X151648539Y-117654092D01*
X150998540Y-117678144D01*
X150509736Y-117880613D01*
X150411073Y-118147468D01*
X140460431Y-118147468D01*
X140454005Y-118126136D01*
X139916777Y-117933035D01*
X139346546Y-117960222D01*
X138945995Y-118126136D01*
X138871861Y-118372255D01*
X130668667Y-118372255D01*
X130336417Y-118067760D01*
X129904740Y-117888964D01*
X129667000Y-118009622D01*
X129413000Y-118009622D01*
X129175260Y-117888964D01*
X128743583Y-118067760D01*
X128302034Y-118472424D01*
X128048954Y-119015258D01*
X58816141Y-119015258D01*
X58682114Y-118814673D01*
X57396493Y-117955649D01*
X55880000Y-117654000D01*
X54363507Y-117955649D01*
X53077886Y-118814673D01*
X52218862Y-120100294D01*
X51917213Y-121616787D01*
X51510000Y-121616787D01*
X51510000Y-116323745D01*
X110931861Y-116323745D01*
X111005995Y-116569864D01*
X111543223Y-116762965D01*
X112113454Y-116735778D01*
X112514005Y-116569864D01*
X112588139Y-116323745D01*
X111760000Y-115495605D01*
X110931861Y-116323745D01*
X51510000Y-116323745D01*
X51510000Y-115099223D01*
X110313035Y-115099223D01*
X110340222Y-115669454D01*
X110506136Y-116070005D01*
X110752255Y-116144139D01*
X111580395Y-115316000D01*
X111939605Y-115316000D01*
X112767745Y-116144139D01*
X113013864Y-116070005D01*
X113206965Y-115532777D01*
X113192422Y-115227745D01*
X119059861Y-115227745D01*
X119133995Y-115473864D01*
X119671223Y-115666965D01*
X120241454Y-115639778D01*
X120642005Y-115473864D01*
X120716139Y-115227745D01*
X119888000Y-114399605D01*
X119059861Y-115227745D01*
X113192422Y-115227745D01*
X113179778Y-114962546D01*
X113013864Y-114561995D01*
X112767745Y-114487861D01*
X111939605Y-115316000D01*
X111580395Y-115316000D01*
X110752255Y-114487861D01*
X110506136Y-114561995D01*
X110313035Y-115099223D01*
X51510000Y-115099223D01*
X51510000Y-114308255D01*
X110931861Y-114308255D01*
X111760000Y-115136395D01*
X112588139Y-114308255D01*
X112514005Y-114062136D01*
X112350103Y-114003223D01*
X118441035Y-114003223D01*
X118468222Y-114573454D01*
X118634136Y-114974005D01*
X118880255Y-115048139D01*
X119708395Y-114220000D01*
X120067605Y-114220000D01*
X120895745Y-115048139D01*
X121141864Y-114974005D01*
X121334965Y-114436777D01*
X121307778Y-113866546D01*
X121141864Y-113465995D01*
X120895745Y-113391861D01*
X120067605Y-114220000D01*
X119708395Y-114220000D01*
X118880255Y-113391861D01*
X118634136Y-113465995D01*
X118441035Y-114003223D01*
X112350103Y-114003223D01*
X111976777Y-113869035D01*
X111406546Y-113896222D01*
X111005995Y-114062136D01*
X110931861Y-114308255D01*
X51510000Y-114308255D01*
X51510000Y-113212255D01*
X119059861Y-113212255D01*
X119888000Y-114040395D01*
X120716139Y-113212255D01*
X120642005Y-112966136D01*
X120104777Y-112773035D01*
X119534546Y-112800222D01*
X119133995Y-112966136D01*
X119059861Y-113212255D01*
X51510000Y-113212255D01*
X51510000Y-106083745D01*
X104835861Y-106083745D01*
X104909995Y-106329864D01*
X105447223Y-106522965D01*
X106017454Y-106495778D01*
X106418005Y-106329864D01*
X106492139Y-106083745D01*
X105664000Y-105255605D01*
X104835861Y-106083745D01*
X51510000Y-106083745D01*
X51510000Y-104859223D01*
X104217035Y-104859223D01*
X104244222Y-105429454D01*
X104410136Y-105830005D01*
X104656255Y-105904139D01*
X105484395Y-105076000D01*
X105843605Y-105076000D01*
X106671745Y-105904139D01*
X106917864Y-105830005D01*
X107110965Y-105292777D01*
X107083778Y-104722546D01*
X106917864Y-104321995D01*
X106671745Y-104247861D01*
X105843605Y-105076000D01*
X105484395Y-105076000D01*
X104656255Y-104247861D01*
X104410136Y-104321995D01*
X104217035Y-104859223D01*
X51510000Y-104859223D01*
X51510000Y-103473039D01*
X78872096Y-103473039D01*
X79032959Y-103861423D01*
X79408866Y-104276389D01*
X79914959Y-104515914D01*
X80137000Y-104394629D01*
X80137000Y-103251000D01*
X80391000Y-103251000D01*
X80391000Y-104394629D01*
X80613041Y-104515914D01*
X81119134Y-104276389D01*
X81495041Y-103861423D01*
X81655904Y-103473039D01*
X81533915Y-103251000D01*
X80391000Y-103251000D01*
X80137000Y-103251000D01*
X78994085Y-103251000D01*
X78872096Y-103473039D01*
X51510000Y-103473039D01*
X51510000Y-102774961D01*
X78872096Y-102774961D01*
X78994085Y-102997000D01*
X80137000Y-102997000D01*
X80137000Y-101853371D01*
X80391000Y-101853371D01*
X80391000Y-102997000D01*
X81533915Y-102997000D01*
X81655904Y-102774961D01*
X81495041Y-102386577D01*
X81119134Y-101971611D01*
X80613041Y-101732086D01*
X80391000Y-101853371D01*
X80137000Y-101853371D01*
X79914959Y-101732086D01*
X79408866Y-101971611D01*
X79032959Y-102386577D01*
X78872096Y-102774961D01*
X51510000Y-102774961D01*
X51510000Y-99853750D01*
X56885000Y-99853750D01*
X56885000Y-100594309D01*
X56981673Y-100827698D01*
X57160301Y-101006327D01*
X57393690Y-101103000D01*
X58134250Y-101103000D01*
X58293000Y-100944250D01*
X58293000Y-99695000D01*
X58547000Y-99695000D01*
X58547000Y-100944250D01*
X58705750Y-101103000D01*
X59446310Y-101103000D01*
X59679699Y-101006327D01*
X59858327Y-100827698D01*
X59955000Y-100594309D01*
X59955000Y-99917041D01*
X64648086Y-99917041D01*
X64887611Y-100423134D01*
X65302577Y-100799041D01*
X65690961Y-100959904D01*
X65913000Y-100837915D01*
X65913000Y-99695000D01*
X66167000Y-99695000D01*
X66167000Y-100837915D01*
X66389039Y-100959904D01*
X66777423Y-100799041D01*
X67192389Y-100423134D01*
X67431914Y-99917041D01*
X67310629Y-99695000D01*
X66167000Y-99695000D01*
X65913000Y-99695000D01*
X64769371Y-99695000D01*
X64648086Y-99917041D01*
X59955000Y-99917041D01*
X59955000Y-99853750D01*
X59796250Y-99695000D01*
X58547000Y-99695000D01*
X58293000Y-99695000D01*
X57043750Y-99695000D01*
X56885000Y-99853750D01*
X51510000Y-99853750D01*
X51510000Y-97331991D01*
X56884735Y-97331991D01*
X57117932Y-97896371D01*
X57295092Y-98073841D01*
X57160301Y-98129673D01*
X56981673Y-98308302D01*
X56885000Y-98541691D01*
X56885000Y-99282250D01*
X57043750Y-99441000D01*
X58293000Y-99441000D01*
X58293000Y-99421000D01*
X58547000Y-99421000D01*
X58547000Y-99441000D01*
X59796250Y-99441000D01*
X59955000Y-99282250D01*
X59955000Y-99218959D01*
X64648086Y-99218959D01*
X64769371Y-99441000D01*
X65913000Y-99441000D01*
X65913000Y-98298085D01*
X66167000Y-98298085D01*
X66167000Y-99441000D01*
X67310629Y-99441000D01*
X67431914Y-99218959D01*
X67192389Y-98712866D01*
X66777423Y-98336959D01*
X66389039Y-98176096D01*
X66167000Y-98298085D01*
X65913000Y-98298085D01*
X65690961Y-98176096D01*
X65302577Y-98336959D01*
X64887611Y-98712866D01*
X64648086Y-99218959D01*
X59955000Y-99218959D01*
X59955000Y-98541691D01*
X59858327Y-98308302D01*
X59679699Y-98129673D01*
X59545006Y-98073881D01*
X59583208Y-98035745D01*
X76387861Y-98035745D01*
X76461995Y-98281864D01*
X76999223Y-98474965D01*
X77569454Y-98447778D01*
X77970005Y-98281864D01*
X78044139Y-98035745D01*
X77216000Y-97207605D01*
X76387861Y-98035745D01*
X59583208Y-98035745D01*
X59720551Y-97898643D01*
X59954733Y-97334670D01*
X59955189Y-96811223D01*
X75769035Y-96811223D01*
X75796222Y-97381454D01*
X75962136Y-97782005D01*
X76208255Y-97856139D01*
X77036395Y-97028000D01*
X77395605Y-97028000D01*
X78223745Y-97856139D01*
X78469864Y-97782005D01*
X78638735Y-97312187D01*
X80780752Y-97312187D01*
X80998757Y-97839800D01*
X81402077Y-98243824D01*
X81929309Y-98462750D01*
X82500187Y-98463248D01*
X83027800Y-98245243D01*
X83431824Y-97841923D01*
X83650750Y-97314691D01*
X83651035Y-96988001D01*
X88561035Y-96988001D01*
X88560752Y-97312187D01*
X88778757Y-97839800D01*
X89182077Y-98243824D01*
X89709309Y-98462750D01*
X90280187Y-98463248D01*
X90334149Y-98440951D01*
X90463999Y-98570801D01*
X90463999Y-101689035D01*
X90139813Y-101688752D01*
X89612200Y-101906757D01*
X89208176Y-102310077D01*
X88989250Y-102837309D01*
X88988752Y-103408187D01*
X89206757Y-103935800D01*
X89610077Y-104339824D01*
X90137309Y-104558750D01*
X90708187Y-104559248D01*
X91235800Y-104341243D01*
X91509264Y-104068255D01*
X104835861Y-104068255D01*
X105664000Y-104896395D01*
X106492139Y-104068255D01*
X106418005Y-103822136D01*
X105880777Y-103629035D01*
X105310546Y-103656222D01*
X104909995Y-103822136D01*
X104835861Y-104068255D01*
X91509264Y-104068255D01*
X91639824Y-103937923D01*
X91858750Y-103410691D01*
X91859248Y-102839813D01*
X91827372Y-102762668D01*
X91926147Y-102614841D01*
X91945845Y-102515811D01*
X91983999Y-102324001D01*
X91983999Y-100360187D01*
X104228752Y-100360187D01*
X104446757Y-100887800D01*
X104850077Y-101291824D01*
X105377309Y-101510750D01*
X105948187Y-101511248D01*
X106275059Y-101376187D01*
X110324752Y-101376187D01*
X110542757Y-101903800D01*
X110946077Y-102307824D01*
X111473309Y-102526750D01*
X112044187Y-102527248D01*
X112098149Y-102504951D01*
X112524000Y-102930802D01*
X112524000Y-103317198D01*
X112083886Y-103757312D01*
X111760000Y-103692887D01*
X111210849Y-103802120D01*
X110745302Y-104113189D01*
X110434233Y-104578736D01*
X110325000Y-105127887D01*
X110325000Y-105184113D01*
X110434233Y-105733264D01*
X110745302Y-106198811D01*
X111210849Y-106509880D01*
X111760000Y-106619113D01*
X112309151Y-106509880D01*
X112774698Y-106198811D01*
X113085767Y-105733264D01*
X113195000Y-105184113D01*
X113195000Y-105127887D01*
X113139904Y-104850898D01*
X113598802Y-104392000D01*
X118729354Y-104392000D01*
X118750757Y-104443800D01*
X119154077Y-104847824D01*
X119208000Y-104870215D01*
X119208000Y-107948298D01*
X119076200Y-108002757D01*
X118672176Y-108406077D01*
X118453250Y-108933309D01*
X118452752Y-109504187D01*
X118670757Y-110031800D01*
X119074077Y-110435824D01*
X119601309Y-110654750D01*
X120172187Y-110655248D01*
X120699800Y-110437243D01*
X121103824Y-110033923D01*
X121257351Y-109664187D01*
X138264752Y-109664187D01*
X138482757Y-110191800D01*
X138886077Y-110595824D01*
X139413309Y-110814750D01*
X139984187Y-110815248D01*
X140511800Y-110597243D01*
X140915824Y-110193923D01*
X141134750Y-109666691D01*
X141135248Y-109095813D01*
X141112951Y-109041851D01*
X144998802Y-105156000D01*
X147888887Y-105156000D01*
X147998120Y-105705151D01*
X148309189Y-106170698D01*
X148592000Y-106359667D01*
X148592000Y-113518000D01*
X148649852Y-113808839D01*
X148814599Y-114055401D01*
X149596599Y-114837401D01*
X149736560Y-114930920D01*
X149736560Y-115300000D01*
X149780838Y-115535317D01*
X149919910Y-115751441D01*
X150132110Y-115896431D01*
X150384000Y-115947440D01*
X152384000Y-115947440D01*
X152619317Y-115903162D01*
X152835441Y-115764090D01*
X152980431Y-115551890D01*
X153031440Y-115300000D01*
X153031440Y-113300000D01*
X152987162Y-113064683D01*
X152848090Y-112848559D01*
X152635890Y-112703569D01*
X152384000Y-112652560D01*
X150384000Y-112652560D01*
X150148683Y-112696838D01*
X150112000Y-112720443D01*
X150112000Y-112640745D01*
X179638861Y-112640745D01*
X179712995Y-112886864D01*
X180250223Y-113079965D01*
X180820454Y-113052778D01*
X181221005Y-112886864D01*
X181295139Y-112640745D01*
X180467000Y-111812605D01*
X179638861Y-112640745D01*
X150112000Y-112640745D01*
X150112000Y-111416223D01*
X179020035Y-111416223D01*
X179047222Y-111986454D01*
X179213136Y-112387005D01*
X179459255Y-112461139D01*
X180287395Y-111633000D01*
X180646605Y-111633000D01*
X181474745Y-112461139D01*
X181720864Y-112387005D01*
X181913965Y-111849777D01*
X181886778Y-111279546D01*
X181720864Y-110878995D01*
X181474745Y-110804861D01*
X180646605Y-111633000D01*
X180287395Y-111633000D01*
X179459255Y-110804861D01*
X179213136Y-110878995D01*
X179020035Y-111416223D01*
X150112000Y-111416223D01*
X150112000Y-106359667D01*
X150394811Y-106170698D01*
X150705880Y-105705151D01*
X150758584Y-105440187D01*
X158076752Y-105440187D01*
X158294757Y-105967800D01*
X158698077Y-106371824D01*
X158752000Y-106394215D01*
X158752000Y-108007005D01*
X158497302Y-108177189D01*
X158186233Y-108642736D01*
X158077000Y-109191887D01*
X158077000Y-109248113D01*
X158186233Y-109797264D01*
X158497302Y-110262811D01*
X158962849Y-110573880D01*
X159512000Y-110683113D01*
X159802871Y-110625255D01*
X179638861Y-110625255D01*
X180467000Y-111453395D01*
X181295139Y-110625255D01*
X181221005Y-110379136D01*
X180683777Y-110186035D01*
X180113546Y-110213222D01*
X179712995Y-110379136D01*
X179638861Y-110625255D01*
X159802871Y-110625255D01*
X160061151Y-110573880D01*
X160526698Y-110262811D01*
X160837767Y-109797264D01*
X160947000Y-109248113D01*
X160947000Y-109191887D01*
X160888052Y-108895532D01*
X189019073Y-108895532D01*
X189117736Y-109162387D01*
X189727461Y-109388908D01*
X190377460Y-109364856D01*
X190866264Y-109162387D01*
X190964927Y-108895532D01*
X189992000Y-107922605D01*
X189019073Y-108895532D01*
X160888052Y-108895532D01*
X160837767Y-108642736D01*
X160526698Y-108177189D01*
X160272000Y-108007005D01*
X160272000Y-107478461D01*
X188346092Y-107478461D01*
X188370144Y-108128460D01*
X188572613Y-108617264D01*
X188839468Y-108715927D01*
X189812395Y-107743000D01*
X190171605Y-107743000D01*
X191144532Y-108715927D01*
X191411387Y-108617264D01*
X191637908Y-108007539D01*
X191613856Y-107357540D01*
X191411387Y-106868736D01*
X191144532Y-106770073D01*
X190171605Y-107743000D01*
X189812395Y-107743000D01*
X188839468Y-106770073D01*
X188572613Y-106868736D01*
X188346092Y-107478461D01*
X160272000Y-107478461D01*
X160272000Y-106394646D01*
X160323800Y-106373243D01*
X160727824Y-105969923D01*
X160920877Y-105505000D01*
X164522000Y-105505000D01*
X164522000Y-105955000D01*
X164641773Y-106303142D01*
X164885657Y-106578948D01*
X165186653Y-106723063D01*
X165330000Y-106593790D01*
X165330000Y-105505000D01*
X165584000Y-105505000D01*
X165584000Y-106593790D01*
X165727347Y-106723063D01*
X166028343Y-106578948D01*
X166272227Y-106303142D01*
X166392000Y-105955000D01*
X166392000Y-105505000D01*
X174682000Y-105505000D01*
X174682000Y-105955000D01*
X174801773Y-106303142D01*
X175045657Y-106578948D01*
X175346653Y-106723063D01*
X175490000Y-106593790D01*
X175490000Y-105505000D01*
X175744000Y-105505000D01*
X175744000Y-106593790D01*
X175887347Y-106723063D01*
X176164282Y-106590468D01*
X189019073Y-106590468D01*
X189992000Y-107563395D01*
X190964927Y-106590468D01*
X190866264Y-106323613D01*
X190256539Y-106097092D01*
X189606540Y-106121144D01*
X189117736Y-106323613D01*
X189019073Y-106590468D01*
X176164282Y-106590468D01*
X176188343Y-106578948D01*
X176432227Y-106303142D01*
X176552000Y-105955000D01*
X176552000Y-105505000D01*
X175744000Y-105505000D01*
X175490000Y-105505000D01*
X174682000Y-105505000D01*
X166392000Y-105505000D01*
X165584000Y-105505000D01*
X165330000Y-105505000D01*
X164522000Y-105505000D01*
X160920877Y-105505000D01*
X160946750Y-105442691D01*
X160947248Y-104871813D01*
X160924951Y-104817851D01*
X160941802Y-104801000D01*
X164522000Y-104801000D01*
X164522000Y-105251000D01*
X165330000Y-105251000D01*
X165330000Y-104162210D01*
X165584000Y-104162210D01*
X165584000Y-105251000D01*
X166392000Y-105251000D01*
X166392000Y-104801000D01*
X166272227Y-104452858D01*
X166028343Y-104177052D01*
X165727347Y-104032937D01*
X165584000Y-104162210D01*
X165330000Y-104162210D01*
X165186653Y-104032937D01*
X164885657Y-104177052D01*
X164641773Y-104452858D01*
X164522000Y-104801000D01*
X160941802Y-104801000D01*
X161604802Y-104138000D01*
X162078266Y-104138000D01*
X162093173Y-104212943D01*
X162295855Y-104516279D01*
X162599191Y-104718961D01*
X162957000Y-104790134D01*
X163314809Y-104718961D01*
X163618145Y-104516279D01*
X163820827Y-104212943D01*
X163892000Y-103855134D01*
X163892000Y-103662187D01*
X168236752Y-103662187D01*
X168454757Y-104189800D01*
X168858077Y-104593824D01*
X169385309Y-104812750D01*
X169956187Y-104813248D01*
X169985829Y-104801000D01*
X174682000Y-104801000D01*
X174682000Y-105251000D01*
X175490000Y-105251000D01*
X175490000Y-104162210D01*
X175744000Y-104162210D01*
X175744000Y-105251000D01*
X176552000Y-105251000D01*
X176552000Y-104801000D01*
X176432227Y-104452858D01*
X176188343Y-104177052D01*
X175887347Y-104032937D01*
X175744000Y-104162210D01*
X175490000Y-104162210D01*
X175346653Y-104032937D01*
X175045657Y-104177052D01*
X174801773Y-104452858D01*
X174682000Y-104801000D01*
X169985829Y-104801000D01*
X170483800Y-104595243D01*
X170887824Y-104191923D01*
X171106750Y-103664691D01*
X171107248Y-103093813D01*
X171027525Y-102900866D01*
X172182000Y-102900866D01*
X172182000Y-103855134D01*
X172253173Y-104212943D01*
X172455855Y-104516279D01*
X172759191Y-104718961D01*
X173117000Y-104790134D01*
X173474809Y-104718961D01*
X173778145Y-104516279D01*
X173980827Y-104212943D01*
X174052000Y-103855134D01*
X174052000Y-102900866D01*
X173980827Y-102543057D01*
X173778145Y-102239721D01*
X173474809Y-102037039D01*
X173117000Y-101965866D01*
X172759191Y-102037039D01*
X172455855Y-102239721D01*
X172253173Y-102543057D01*
X172182000Y-102900866D01*
X171027525Y-102900866D01*
X170889243Y-102566200D01*
X170485923Y-102162176D01*
X169958691Y-101943250D01*
X169387813Y-101942752D01*
X168860200Y-102160757D01*
X168456176Y-102564077D01*
X168237250Y-103091309D01*
X168236752Y-103662187D01*
X163892000Y-103662187D01*
X163892000Y-102900866D01*
X163820827Y-102543057D01*
X163618145Y-102239721D01*
X163314809Y-102037039D01*
X162957000Y-101965866D01*
X162599191Y-102037039D01*
X162295855Y-102239721D01*
X162093173Y-102543057D01*
X162078266Y-102618000D01*
X161290000Y-102618000D01*
X160999161Y-102675852D01*
X160752599Y-102840599D01*
X159850454Y-103742744D01*
X159798691Y-103721250D01*
X159227813Y-103720752D01*
X158700200Y-103938757D01*
X158296176Y-104342077D01*
X158077250Y-104869309D01*
X158076752Y-105440187D01*
X150758584Y-105440187D01*
X150815113Y-105156000D01*
X150705880Y-104606849D01*
X150394811Y-104141302D01*
X149929264Y-103830233D01*
X149380113Y-103721000D01*
X149323887Y-103721000D01*
X148774736Y-103830233D01*
X148309189Y-104141302D01*
X147998120Y-104606849D01*
X147888887Y-105156000D01*
X144998802Y-105156000D01*
X148077812Y-102076990D01*
X148158855Y-102198279D01*
X148462191Y-102400961D01*
X148820000Y-102472134D01*
X149177809Y-102400961D01*
X149481145Y-102198279D01*
X149683827Y-101894943D01*
X149755000Y-101537134D01*
X149755000Y-100582866D01*
X149683827Y-100225057D01*
X149481145Y-99921721D01*
X149177809Y-99719039D01*
X148820000Y-99647866D01*
X148462191Y-99719039D01*
X148158855Y-99921721D01*
X147956173Y-100225057D01*
X147938022Y-100316307D01*
X147729161Y-100357852D01*
X147482599Y-100522599D01*
X140038454Y-107966744D01*
X139986691Y-107945250D01*
X139415813Y-107944752D01*
X138888200Y-108162757D01*
X138484176Y-108566077D01*
X138265250Y-109093309D01*
X138264752Y-109664187D01*
X121257351Y-109664187D01*
X121322750Y-109506691D01*
X121323248Y-108935813D01*
X121105243Y-108408200D01*
X120728000Y-108030299D01*
X120728000Y-104870646D01*
X120779800Y-104849243D01*
X121183824Y-104445923D01*
X121402750Y-103918691D01*
X121403248Y-103347813D01*
X121185243Y-102820200D01*
X120781923Y-102416176D01*
X120728000Y-102393785D01*
X120728000Y-97028000D01*
X123123887Y-97028000D01*
X123233120Y-97577151D01*
X123544189Y-98042698D01*
X123827000Y-98231667D01*
X123827000Y-102743383D01*
X123752176Y-102818077D01*
X123533250Y-103345309D01*
X123532752Y-103916187D01*
X123750757Y-104443800D01*
X124154077Y-104847824D01*
X124681309Y-105066750D01*
X125252187Y-105067248D01*
X125779800Y-104849243D01*
X126183824Y-104445923D01*
X126206215Y-104392000D01*
X127327198Y-104392000D01*
X128226618Y-105291420D01*
X128188559Y-105315910D01*
X128043569Y-105528110D01*
X127992560Y-105780000D01*
X127992560Y-107580000D01*
X128036838Y-107815317D01*
X128175910Y-108031441D01*
X128388110Y-108176431D01*
X128640000Y-108227440D01*
X130440000Y-108227440D01*
X130675317Y-108183162D01*
X130891441Y-108044090D01*
X131036431Y-107831890D01*
X131087440Y-107580000D01*
X131087440Y-106775000D01*
X135169000Y-106775000D01*
X135169000Y-107225000D01*
X135288773Y-107573142D01*
X135532657Y-107848948D01*
X135833653Y-107993063D01*
X135977000Y-107863790D01*
X135977000Y-106775000D01*
X136231000Y-106775000D01*
X136231000Y-107863790D01*
X136374347Y-107993063D01*
X136675343Y-107848948D01*
X136919227Y-107573142D01*
X137039000Y-107225000D01*
X137039000Y-106775000D01*
X136231000Y-106775000D01*
X135977000Y-106775000D01*
X135169000Y-106775000D01*
X131087440Y-106775000D01*
X131087440Y-106071000D01*
X135169000Y-106071000D01*
X135169000Y-106521000D01*
X135977000Y-106521000D01*
X135977000Y-105432210D01*
X136231000Y-105432210D01*
X136231000Y-106521000D01*
X137039000Y-106521000D01*
X137039000Y-106071000D01*
X136919227Y-105722858D01*
X136675343Y-105447052D01*
X136374347Y-105302937D01*
X136231000Y-105432210D01*
X135977000Y-105432210D01*
X135833653Y-105302937D01*
X135532657Y-105447052D01*
X135288773Y-105722858D01*
X135169000Y-106071000D01*
X131087440Y-106071000D01*
X131087440Y-105780000D01*
X131043162Y-105544683D01*
X130955209Y-105408000D01*
X132725266Y-105408000D01*
X132740173Y-105482943D01*
X132942855Y-105786279D01*
X133246191Y-105988961D01*
X133604000Y-106060134D01*
X133961809Y-105988961D01*
X134265145Y-105786279D01*
X134467827Y-105482943D01*
X134539000Y-105125134D01*
X134539000Y-104170866D01*
X134467827Y-103813057D01*
X134265145Y-103509721D01*
X133961809Y-103307039D01*
X133604000Y-103235866D01*
X133246191Y-103307039D01*
X132942855Y-103509721D01*
X132740173Y-103813057D01*
X132725266Y-103888000D01*
X130422000Y-103888000D01*
X130131160Y-103945852D01*
X129884599Y-104110599D01*
X129540000Y-104455198D01*
X128179401Y-103094599D01*
X127932839Y-102929852D01*
X127642000Y-102872000D01*
X126206646Y-102872000D01*
X126185243Y-102820200D01*
X125781923Y-102416176D01*
X125347000Y-102235580D01*
X125347000Y-98231667D01*
X125629811Y-98042698D01*
X125940880Y-97577151D01*
X126050113Y-97028000D01*
X125940880Y-96478849D01*
X125629811Y-96013302D01*
X125164264Y-95702233D01*
X124615113Y-95593000D01*
X124558887Y-95593000D01*
X124009736Y-95702233D01*
X123544189Y-96013302D01*
X123233120Y-96478849D01*
X123123887Y-97028000D01*
X120728000Y-97028000D01*
X120728000Y-91166802D01*
X122006915Y-89887887D01*
X131661000Y-89887887D01*
X131661000Y-89944113D01*
X131770233Y-90493264D01*
X132081302Y-90958811D01*
X132546849Y-91269880D01*
X133096000Y-91379113D01*
X133419886Y-91314688D01*
X133987000Y-91881802D01*
X133987000Y-95789354D01*
X133935200Y-95810757D01*
X133531176Y-96214077D01*
X133312250Y-96741309D01*
X133311752Y-97312187D01*
X133529757Y-97839800D01*
X133933077Y-98243824D01*
X134460309Y-98462750D01*
X135031187Y-98463248D01*
X135085149Y-98440951D01*
X135344000Y-98699802D01*
X135344000Y-101657668D01*
X135240173Y-101813057D01*
X135169000Y-102170866D01*
X135169000Y-103125134D01*
X135240173Y-103482943D01*
X135442855Y-103786279D01*
X135746191Y-103988961D01*
X136104000Y-104060134D01*
X136461809Y-103988961D01*
X136765145Y-103786279D01*
X136967827Y-103482943D01*
X137039000Y-103125134D01*
X137039000Y-102170866D01*
X136967827Y-101813057D01*
X136864000Y-101657668D01*
X136864000Y-99344187D01*
X141820752Y-99344187D01*
X142038757Y-99871800D01*
X142442077Y-100275824D01*
X142969309Y-100494750D01*
X143540187Y-100495248D01*
X144067800Y-100277243D01*
X144471824Y-99873923D01*
X144494215Y-99820000D01*
X145441266Y-99820000D01*
X145456173Y-99894943D01*
X145658855Y-100198279D01*
X145962191Y-100400961D01*
X146320000Y-100472134D01*
X146677809Y-100400961D01*
X146981145Y-100198279D01*
X147183827Y-99894943D01*
X147255000Y-99537134D01*
X147255000Y-98582866D01*
X147183827Y-98225057D01*
X146981145Y-97921721D01*
X146677809Y-97719039D01*
X146320000Y-97647866D01*
X145962191Y-97719039D01*
X145658855Y-97921721D01*
X145456173Y-98225057D01*
X145441266Y-98300000D01*
X144494646Y-98300000D01*
X144473243Y-98248200D01*
X144069923Y-97844176D01*
X143542691Y-97625250D01*
X142971813Y-97624752D01*
X142444200Y-97842757D01*
X142040176Y-98246077D01*
X141821250Y-98773309D01*
X141820752Y-99344187D01*
X136864000Y-99344187D01*
X136864000Y-98385000D01*
X136806148Y-98094161D01*
X136641401Y-97847599D01*
X136160256Y-97366454D01*
X136181750Y-97314691D01*
X136182248Y-96743813D01*
X136115747Y-96582866D01*
X147885000Y-96582866D01*
X147885000Y-97537134D01*
X147956173Y-97894943D01*
X148158855Y-98198279D01*
X148462191Y-98400961D01*
X148820000Y-98472134D01*
X149177809Y-98400961D01*
X149481145Y-98198279D01*
X149683827Y-97894943D01*
X149698734Y-97820000D01*
X163290000Y-97820000D01*
X163580839Y-97762148D01*
X163827401Y-97597401D01*
X164253546Y-97171256D01*
X164305309Y-97192750D01*
X164876187Y-97193248D01*
X165403800Y-96975243D01*
X165807824Y-96571923D01*
X165864000Y-96436636D01*
X165864000Y-98896198D01*
X164919599Y-99840599D01*
X164754852Y-100087161D01*
X164697000Y-100378000D01*
X164697000Y-100387668D01*
X164593173Y-100543057D01*
X164522000Y-100900866D01*
X164522000Y-101855134D01*
X164593173Y-102212943D01*
X164795855Y-102516279D01*
X165099191Y-102718961D01*
X165457000Y-102790134D01*
X165814809Y-102718961D01*
X166118145Y-102516279D01*
X166320827Y-102212943D01*
X166392000Y-101855134D01*
X166392000Y-100900866D01*
X174682000Y-100900866D01*
X174682000Y-101855134D01*
X174753173Y-102212943D01*
X174955855Y-102516279D01*
X175259191Y-102718961D01*
X175617000Y-102790134D01*
X175974809Y-102718961D01*
X176278145Y-102516279D01*
X176480827Y-102212943D01*
X176495734Y-102138000D01*
X179199856Y-102138000D01*
X179452302Y-102515811D01*
X179917849Y-102826880D01*
X180467000Y-102936113D01*
X181016151Y-102826880D01*
X181481698Y-102515811D01*
X181792767Y-102050264D01*
X181853885Y-101743000D01*
X188344560Y-101743000D01*
X188344560Y-103743000D01*
X188388838Y-103978317D01*
X188527910Y-104194441D01*
X188740110Y-104339431D01*
X188992000Y-104390440D01*
X190992000Y-104390440D01*
X191227317Y-104346162D01*
X191443441Y-104207090D01*
X191588431Y-103994890D01*
X191639440Y-103743000D01*
X191639440Y-101743000D01*
X191595162Y-101507683D01*
X191456090Y-101291559D01*
X191243890Y-101146569D01*
X190992000Y-101095560D01*
X190752000Y-101095560D01*
X190752000Y-99536646D01*
X190803800Y-99515243D01*
X191207824Y-99111923D01*
X191426750Y-98584691D01*
X191427248Y-98013813D01*
X191209243Y-97486200D01*
X190805923Y-97082176D01*
X190278691Y-96863250D01*
X189707813Y-96862752D01*
X189180200Y-97080757D01*
X188776176Y-97484077D01*
X188557250Y-98011309D01*
X188556752Y-98582187D01*
X188774757Y-99109800D01*
X189178077Y-99513824D01*
X189232000Y-99536215D01*
X189232000Y-101095560D01*
X188992000Y-101095560D01*
X188756683Y-101139838D01*
X188540559Y-101278910D01*
X188395569Y-101491110D01*
X188344560Y-101743000D01*
X181853885Y-101743000D01*
X181902000Y-101501113D01*
X181902000Y-101444887D01*
X181792767Y-100895736D01*
X181481698Y-100430189D01*
X181227000Y-100260005D01*
X181227000Y-99755802D01*
X181956856Y-99025946D01*
X182118000Y-99058000D01*
X184343333Y-99058000D01*
X184532302Y-99340811D01*
X184997849Y-99651880D01*
X185547000Y-99761113D01*
X186096151Y-99651880D01*
X186561698Y-99340811D01*
X186872767Y-98875264D01*
X186982000Y-98326113D01*
X186982000Y-98269887D01*
X186872767Y-97720736D01*
X186561698Y-97255189D01*
X186096151Y-96944120D01*
X185547000Y-96834887D01*
X184997849Y-96944120D01*
X184532302Y-97255189D01*
X184343333Y-97538000D01*
X182624000Y-97538000D01*
X182624000Y-90011000D01*
X201733000Y-90011000D01*
X201733000Y-90461000D01*
X201852773Y-90809142D01*
X202096657Y-91084948D01*
X202397653Y-91229063D01*
X202541000Y-91099790D01*
X202541000Y-90011000D01*
X202795000Y-90011000D01*
X202795000Y-91099790D01*
X202938347Y-91229063D01*
X203239343Y-91084948D01*
X203269587Y-91050745D01*
X220278861Y-91050745D01*
X220352995Y-91296864D01*
X220890223Y-91489965D01*
X221460454Y-91462778D01*
X221861005Y-91296864D01*
X221935139Y-91050745D01*
X221107000Y-90222605D01*
X220278861Y-91050745D01*
X203269587Y-91050745D01*
X203483227Y-90809142D01*
X203603000Y-90461000D01*
X203603000Y-90011000D01*
X202795000Y-90011000D01*
X202541000Y-90011000D01*
X201733000Y-90011000D01*
X182624000Y-90011000D01*
X182624000Y-89826223D01*
X219660035Y-89826223D01*
X219687222Y-90396454D01*
X219853136Y-90797005D01*
X220099255Y-90871139D01*
X220927395Y-90043000D01*
X221286605Y-90043000D01*
X222114745Y-90871139D01*
X222360864Y-90797005D01*
X222553965Y-90259777D01*
X222543630Y-90043000D01*
X229803887Y-90043000D01*
X229913120Y-90592151D01*
X230224189Y-91057698D01*
X230689736Y-91368767D01*
X231238887Y-91478000D01*
X231295113Y-91478000D01*
X231844264Y-91368767D01*
X232309811Y-91057698D01*
X232620880Y-90592151D01*
X232730113Y-90043000D01*
X232620880Y-89493849D01*
X232309811Y-89028302D01*
X232027000Y-88839333D01*
X232027000Y-86039802D01*
X236249401Y-81817401D01*
X236414148Y-81570840D01*
X236472000Y-81280000D01*
X236472000Y-78761000D01*
X236753231Y-78761000D01*
X237375092Y-78637304D01*
X237902280Y-78285049D01*
X238254535Y-77757861D01*
X238378231Y-77136000D01*
X238254535Y-76514139D01*
X237902280Y-75986951D01*
X237375092Y-75634696D01*
X236753231Y-75511000D01*
X234670769Y-75511000D01*
X234048908Y-75634696D01*
X233521720Y-75986951D01*
X233169465Y-76514139D01*
X233045769Y-77136000D01*
X233169465Y-77757861D01*
X233521720Y-78285049D01*
X234048908Y-78637304D01*
X234670769Y-78761000D01*
X234952000Y-78761000D01*
X234952000Y-80965198D01*
X230729599Y-85187599D01*
X230564852Y-85434161D01*
X230507000Y-85725000D01*
X230507000Y-88839333D01*
X230224189Y-89028302D01*
X229913120Y-89493849D01*
X229803887Y-90043000D01*
X222543630Y-90043000D01*
X222526778Y-89689546D01*
X222360864Y-89288995D01*
X222114745Y-89214861D01*
X221286605Y-90043000D01*
X220927395Y-90043000D01*
X220099255Y-89214861D01*
X219853136Y-89288995D01*
X219660035Y-89826223D01*
X182624000Y-89826223D01*
X182624000Y-88422187D01*
X184111752Y-88422187D01*
X184329757Y-88949800D01*
X184733077Y-89353824D01*
X185260309Y-89572750D01*
X185831187Y-89573248D01*
X186358800Y-89355243D01*
X186762824Y-88951923D01*
X186785215Y-88898000D01*
X188788333Y-88898000D01*
X188977302Y-89180811D01*
X189442849Y-89491880D01*
X189992000Y-89601113D01*
X190541151Y-89491880D01*
X190817843Y-89307000D01*
X201733000Y-89307000D01*
X201733000Y-89757000D01*
X202541000Y-89757000D01*
X202541000Y-88668210D01*
X202795000Y-88668210D01*
X202795000Y-89757000D01*
X203603000Y-89757000D01*
X203603000Y-89307000D01*
X203509511Y-89035255D01*
X220278861Y-89035255D01*
X221107000Y-89863395D01*
X221935139Y-89035255D01*
X221861005Y-88789136D01*
X221323777Y-88596035D01*
X220753546Y-88623222D01*
X220352995Y-88789136D01*
X220278861Y-89035255D01*
X203509511Y-89035255D01*
X203483227Y-88958858D01*
X203239343Y-88683052D01*
X202938347Y-88538937D01*
X202795000Y-88668210D01*
X202541000Y-88668210D01*
X202397653Y-88538937D01*
X202096657Y-88683052D01*
X201852773Y-88958858D01*
X201733000Y-89307000D01*
X190817843Y-89307000D01*
X191006698Y-89180811D01*
X191317767Y-88715264D01*
X191331942Y-88644000D01*
X199289266Y-88644000D01*
X199304173Y-88718943D01*
X199506855Y-89022279D01*
X199810191Y-89224961D01*
X200168000Y-89296134D01*
X200525809Y-89224961D01*
X200829145Y-89022279D01*
X201031827Y-88718943D01*
X201103000Y-88361134D01*
X201103000Y-87406866D01*
X201031827Y-87049057D01*
X200829145Y-86745721D01*
X200525809Y-86543039D01*
X200168000Y-86471866D01*
X199810191Y-86543039D01*
X199506855Y-86745721D01*
X199304173Y-87049057D01*
X199289266Y-87124000D01*
X191025949Y-87124000D01*
X191006698Y-87095189D01*
X190752000Y-86925005D01*
X190752000Y-83661646D01*
X190803800Y-83640243D01*
X191207824Y-83236923D01*
X191426750Y-82709691D01*
X191426862Y-82580187D01*
X201256752Y-82580187D01*
X201474757Y-83107800D01*
X201878077Y-83511824D01*
X201908000Y-83524249D01*
X201908000Y-84893668D01*
X201804173Y-85049057D01*
X201733000Y-85406866D01*
X201733000Y-86361134D01*
X201804173Y-86718943D01*
X202006855Y-87022279D01*
X202310191Y-87224961D01*
X202668000Y-87296134D01*
X203025809Y-87224961D01*
X203329145Y-87022279D01*
X203531827Y-86718943D01*
X203603000Y-86361134D01*
X203603000Y-85406866D01*
X203531827Y-85049057D01*
X203428000Y-84893668D01*
X203428000Y-83544563D01*
X203503800Y-83513243D01*
X203907824Y-83109923D01*
X203930215Y-83056000D01*
X209336000Y-83056000D01*
X209626839Y-82998148D01*
X209873401Y-82833401D01*
X211521854Y-81184948D01*
X211806775Y-81185197D01*
X212224086Y-81012767D01*
X212397050Y-80840104D01*
X223671501Y-80840104D01*
X223708648Y-81055217D01*
X224136972Y-81198112D01*
X224587375Y-81166217D01*
X224855352Y-81055217D01*
X224892499Y-80840104D01*
X224282000Y-80229605D01*
X223671501Y-80840104D01*
X212397050Y-80840104D01*
X212543645Y-80693765D01*
X212716803Y-80276756D01*
X212717127Y-79904972D01*
X223133888Y-79904972D01*
X223165783Y-80355375D01*
X223276783Y-80623352D01*
X223491896Y-80660499D01*
X224102395Y-80050000D01*
X224461605Y-80050000D01*
X225072104Y-80660499D01*
X225287217Y-80623352D01*
X225430112Y-80195028D01*
X225398217Y-79744625D01*
X225287217Y-79476648D01*
X225072104Y-79439501D01*
X224461605Y-80050000D01*
X224102395Y-80050000D01*
X223491896Y-79439501D01*
X223276783Y-79476648D01*
X223133888Y-79904972D01*
X212717127Y-79904972D01*
X212717197Y-79825225D01*
X212544767Y-79407914D01*
X212397007Y-79259896D01*
X223671501Y-79259896D01*
X224282000Y-79870395D01*
X224892499Y-79259896D01*
X224855352Y-79044783D01*
X224427028Y-78901888D01*
X223976625Y-78933783D01*
X223708648Y-79044783D01*
X223671501Y-79259896D01*
X212397007Y-79259896D01*
X212225765Y-79088355D01*
X211808756Y-78915197D01*
X211357225Y-78914803D01*
X210939914Y-79087233D01*
X210620355Y-79406235D01*
X210447197Y-79823244D01*
X210446947Y-80110251D01*
X209021198Y-81536000D01*
X203930646Y-81536000D01*
X203909243Y-81484200D01*
X203505923Y-81080176D01*
X202978691Y-80861250D01*
X202407813Y-80860752D01*
X201880200Y-81078757D01*
X201476176Y-81482077D01*
X201257250Y-82009309D01*
X201256752Y-82580187D01*
X191426862Y-82580187D01*
X191427248Y-82138813D01*
X191209243Y-81611200D01*
X190805923Y-81207176D01*
X190278691Y-80988250D01*
X189707813Y-80987752D01*
X189180200Y-81205757D01*
X188776176Y-81609077D01*
X188557250Y-82136309D01*
X188556752Y-82707187D01*
X188774757Y-83234800D01*
X189178077Y-83638824D01*
X189232000Y-83661215D01*
X189232000Y-86925005D01*
X188977302Y-87095189D01*
X188788333Y-87378000D01*
X186785646Y-87378000D01*
X186764243Y-87326200D01*
X186360923Y-86922176D01*
X185833691Y-86703250D01*
X185262813Y-86702752D01*
X184735200Y-86920757D01*
X184331176Y-87324077D01*
X184112250Y-87851309D01*
X184111752Y-88422187D01*
X182624000Y-88422187D01*
X182624000Y-72358646D01*
X182675800Y-72337243D01*
X182778334Y-72234887D01*
X188557000Y-72234887D01*
X188557000Y-72291113D01*
X188666233Y-72840264D01*
X188977302Y-73305811D01*
X189442849Y-73616880D01*
X189992000Y-73726113D01*
X190541151Y-73616880D01*
X191006698Y-73305811D01*
X191195667Y-73023000D01*
X192008354Y-73023000D01*
X192029757Y-73074800D01*
X192433077Y-73478824D01*
X192960309Y-73697750D01*
X193531187Y-73698248D01*
X194058800Y-73480243D01*
X194462824Y-73076923D01*
X194681750Y-72549691D01*
X194681752Y-72547187D01*
X196811752Y-72547187D01*
X197029757Y-73074800D01*
X197433077Y-73478824D01*
X197960309Y-73697750D01*
X198531187Y-73698248D01*
X199058800Y-73480243D01*
X199462824Y-73076923D01*
X199485215Y-73023000D01*
X201439718Y-73023000D01*
X201474757Y-73107800D01*
X201878077Y-73511824D01*
X202405309Y-73730750D01*
X202976187Y-73731248D01*
X203503800Y-73513243D01*
X203907824Y-73109923D01*
X204126750Y-72582691D01*
X204127035Y-72256001D01*
X210413199Y-72256001D01*
X210447052Y-72289854D01*
X210446803Y-72574775D01*
X210619233Y-72992086D01*
X210938235Y-73311645D01*
X211355244Y-73484803D01*
X211806775Y-73485197D01*
X212054260Y-73382938D01*
X211642146Y-73795052D01*
X211357225Y-73794803D01*
X210939914Y-73967233D01*
X210620355Y-74286235D01*
X210447197Y-74703244D01*
X210446803Y-75154775D01*
X210619233Y-75572086D01*
X210938235Y-75891645D01*
X211355244Y-76064803D01*
X211806775Y-76065197D01*
X212224086Y-75892767D01*
X212543645Y-75573765D01*
X212716803Y-75156756D01*
X212717053Y-74869749D01*
X215012027Y-72574775D01*
X223146803Y-72574775D01*
X223319233Y-72992086D01*
X223638235Y-73311645D01*
X224055244Y-73484803D01*
X224506775Y-73485197D01*
X224924086Y-73312767D01*
X225127207Y-73110000D01*
X233084560Y-73110000D01*
X233084560Y-73126000D01*
X233128838Y-73361317D01*
X233267910Y-73577441D01*
X233480110Y-73722431D01*
X233732000Y-73773440D01*
X237692000Y-73773440D01*
X237927317Y-73729162D01*
X238143441Y-73590090D01*
X238288431Y-73377890D01*
X238339440Y-73126000D01*
X238339440Y-71146000D01*
X238295162Y-70910683D01*
X238156090Y-70694559D01*
X237943890Y-70549569D01*
X237692000Y-70498560D01*
X233732000Y-70498560D01*
X233496683Y-70542838D01*
X233280559Y-70681910D01*
X233135569Y-70894110D01*
X233084560Y-71146000D01*
X233084560Y-71590000D01*
X225127059Y-71590000D01*
X224925765Y-71388355D01*
X224508756Y-71215197D01*
X224057225Y-71214803D01*
X223639914Y-71387233D01*
X223320355Y-71706235D01*
X223147197Y-72123244D01*
X223146803Y-72574775D01*
X215012027Y-72574775D01*
X219485401Y-68101401D01*
X219650148Y-67854839D01*
X219708000Y-67564000D01*
X219708000Y-65276000D01*
X221754000Y-65276000D01*
X222044839Y-65218148D01*
X222237821Y-65089202D01*
X222260110Y-65104431D01*
X222512000Y-65155440D01*
X223512000Y-65155440D01*
X223747317Y-65111162D01*
X223963441Y-64972090D01*
X224108431Y-64759890D01*
X224159440Y-64508000D01*
X224159440Y-64293750D01*
X225941000Y-64293750D01*
X225941000Y-64634309D01*
X226037673Y-64867698D01*
X226216301Y-65046327D01*
X226449690Y-65143000D01*
X226790250Y-65143000D01*
X226949000Y-64984250D01*
X226949000Y-64135000D01*
X227203000Y-64135000D01*
X227203000Y-64984250D01*
X227361750Y-65143000D01*
X227702310Y-65143000D01*
X227935699Y-65046327D01*
X228114327Y-64867698D01*
X228211000Y-64634309D01*
X228211000Y-64293750D01*
X228052250Y-64135000D01*
X227203000Y-64135000D01*
X226949000Y-64135000D01*
X226099750Y-64135000D01*
X225941000Y-64293750D01*
X224159440Y-64293750D01*
X224159440Y-63508000D01*
X224135674Y-63381691D01*
X225941000Y-63381691D01*
X225941000Y-63722250D01*
X226099750Y-63881000D01*
X226949000Y-63881000D01*
X226949000Y-63031750D01*
X227203000Y-63031750D01*
X227203000Y-63881000D01*
X228052250Y-63881000D01*
X228211000Y-63722250D01*
X228211000Y-63381691D01*
X228114327Y-63148302D01*
X227935699Y-62969673D01*
X227702310Y-62873000D01*
X227361750Y-62873000D01*
X227203000Y-63031750D01*
X226949000Y-63031750D01*
X226790250Y-62873000D01*
X226449690Y-62873000D01*
X226216301Y-62969673D01*
X226037673Y-63148302D01*
X225941000Y-63381691D01*
X224135674Y-63381691D01*
X224115162Y-63272683D01*
X223976090Y-63056559D01*
X223763890Y-62911569D01*
X223512000Y-62860560D01*
X222512000Y-62860560D01*
X222276683Y-62904838D01*
X222060559Y-63043910D01*
X221915569Y-63256110D01*
X221895221Y-63356594D01*
X221724599Y-63470599D01*
X221439198Y-63756000D01*
X219708000Y-63756000D01*
X219708000Y-60674646D01*
X219751222Y-60656787D01*
X234797213Y-60656787D01*
X235098862Y-62173280D01*
X235957886Y-63458901D01*
X237243507Y-64317925D01*
X238760000Y-64619574D01*
X240276493Y-64317925D01*
X241562114Y-63458901D01*
X242421138Y-62173280D01*
X242722787Y-60656787D01*
X242421138Y-59140294D01*
X241562114Y-57854673D01*
X240276493Y-56995649D01*
X238760000Y-56694000D01*
X237243507Y-56995649D01*
X235957886Y-57854673D01*
X235098862Y-59140294D01*
X234797213Y-60656787D01*
X219751222Y-60656787D01*
X219759800Y-60653243D01*
X220163824Y-60249923D01*
X220382750Y-59722691D01*
X220383248Y-59151813D01*
X220165243Y-58624200D01*
X219761923Y-58220176D01*
X219234691Y-58001250D01*
X218663813Y-58000752D01*
X218136200Y-58218757D01*
X217732176Y-58622077D01*
X217513250Y-59149309D01*
X217512752Y-59720187D01*
X217730757Y-60247800D01*
X218134077Y-60651824D01*
X218188000Y-60674215D01*
X218188000Y-67249198D01*
X212614805Y-72822393D01*
X212716803Y-72576756D01*
X212717197Y-72125225D01*
X212544767Y-71707914D01*
X212225765Y-71388355D01*
X211808756Y-71215197D01*
X211521749Y-71214947D01*
X211265402Y-70958600D01*
X211018840Y-70793853D01*
X210728001Y-70736001D01*
X203491999Y-70736001D01*
X203260145Y-70782120D01*
X203201159Y-70793853D01*
X203053687Y-70892391D01*
X202978691Y-70861250D01*
X202407813Y-70860752D01*
X201880200Y-71078757D01*
X201476176Y-71482077D01*
X201467488Y-71503000D01*
X199485646Y-71503000D01*
X199464243Y-71451200D01*
X199060923Y-71047176D01*
X198533691Y-70828250D01*
X197962813Y-70827752D01*
X197435200Y-71045757D01*
X197031176Y-71449077D01*
X196812250Y-71976309D01*
X196811752Y-72547187D01*
X194681752Y-72547187D01*
X194682248Y-71978813D01*
X194464243Y-71451200D01*
X194060923Y-71047176D01*
X193533691Y-70828250D01*
X192962813Y-70827752D01*
X192435200Y-71045757D01*
X192031176Y-71449077D01*
X192008785Y-71503000D01*
X191195667Y-71503000D01*
X191006698Y-71220189D01*
X190541151Y-70909120D01*
X189992000Y-70799887D01*
X189442849Y-70909120D01*
X188977302Y-71220189D01*
X188666233Y-71685736D01*
X188557000Y-72234887D01*
X182778334Y-72234887D01*
X183079824Y-71933923D01*
X183298750Y-71406691D01*
X183299248Y-70835813D01*
X183081243Y-70308200D01*
X182677923Y-69904176D01*
X182150691Y-69685250D01*
X181579813Y-69684752D01*
X181052200Y-69902757D01*
X180648176Y-70306077D01*
X180429250Y-70833309D01*
X180428752Y-71404187D01*
X180646757Y-71931800D01*
X181050077Y-72335824D01*
X181104000Y-72358215D01*
X181104000Y-97729198D01*
X179929599Y-98903599D01*
X179764852Y-99150161D01*
X179707000Y-99441000D01*
X179707000Y-100260005D01*
X179452302Y-100430189D01*
X179326811Y-100618000D01*
X176495734Y-100618000D01*
X176480827Y-100543057D01*
X176278145Y-100239721D01*
X175974809Y-100037039D01*
X175617000Y-99965866D01*
X175259191Y-100037039D01*
X174955855Y-100239721D01*
X174753173Y-100543057D01*
X174682000Y-100900866D01*
X166392000Y-100900866D01*
X166328445Y-100581357D01*
X167161401Y-99748401D01*
X167326148Y-99501840D01*
X167384000Y-99211000D01*
X167384000Y-94878800D01*
X167484801Y-94777999D01*
X168872001Y-94777999D01*
X169162840Y-94720147D01*
X169324660Y-94612023D01*
X169672000Y-94681113D01*
X169995886Y-94616688D01*
X174214599Y-98835401D01*
X174461161Y-99000148D01*
X174752000Y-99058000D01*
X174818333Y-99058000D01*
X175007302Y-99340811D01*
X175472849Y-99651880D01*
X176022000Y-99761113D01*
X176571151Y-99651880D01*
X177036698Y-99340811D01*
X177347767Y-98875264D01*
X177457000Y-98326113D01*
X177457000Y-98269887D01*
X177347767Y-97720736D01*
X177036698Y-97255189D01*
X176571151Y-96944120D01*
X176022000Y-96834887D01*
X175472849Y-96944120D01*
X175007302Y-97255189D01*
X174917856Y-97389054D01*
X171051904Y-93523102D01*
X171107000Y-93246113D01*
X171107000Y-93189887D01*
X170997767Y-92640736D01*
X170686698Y-92175189D01*
X170221151Y-91864120D01*
X169672000Y-91754887D01*
X169122849Y-91864120D01*
X168657302Y-92175189D01*
X168346233Y-92640736D01*
X168237000Y-93189887D01*
X168237000Y-93246113D01*
X168239364Y-93257999D01*
X167169999Y-93257999D01*
X166879159Y-93315851D01*
X166632598Y-93480598D01*
X166086599Y-94026597D01*
X165921852Y-94273159D01*
X165864000Y-94563998D01*
X165864000Y-95078722D01*
X165809243Y-94946200D01*
X165405923Y-94542176D01*
X164878691Y-94323250D01*
X164307813Y-94322752D01*
X163780200Y-94540757D01*
X163376176Y-94944077D01*
X163157250Y-95471309D01*
X163156752Y-96042187D01*
X163179049Y-96096149D01*
X162975198Y-96300000D01*
X149698734Y-96300000D01*
X149683827Y-96225057D01*
X149481145Y-95921721D01*
X149177809Y-95719039D01*
X148820000Y-95647866D01*
X148462191Y-95719039D01*
X148158855Y-95921721D01*
X147956173Y-96225057D01*
X147885000Y-96582866D01*
X136115747Y-96582866D01*
X135964243Y-96216200D01*
X135560923Y-95812176D01*
X135507000Y-95789785D01*
X135507000Y-91567000D01*
X135449148Y-91276161D01*
X135284401Y-91029599D01*
X134475904Y-90221102D01*
X134531000Y-89944113D01*
X134531000Y-89887887D01*
X134421767Y-89338736D01*
X134110698Y-88873189D01*
X133645151Y-88562120D01*
X133096000Y-88452887D01*
X132546849Y-88562120D01*
X132081302Y-88873189D01*
X131770233Y-89338736D01*
X131661000Y-89887887D01*
X122006915Y-89887887D01*
X128021401Y-83873401D01*
X128186148Y-83626840D01*
X128244000Y-83336000D01*
X128244000Y-82480775D01*
X137040803Y-82480775D01*
X137213233Y-82898086D01*
X137532235Y-83217645D01*
X137949244Y-83390803D01*
X138400775Y-83391197D01*
X138818086Y-83218767D01*
X139021207Y-83016000D01*
X142000826Y-83016000D01*
X142038757Y-83107800D01*
X142442077Y-83511824D01*
X142496000Y-83534215D01*
X142496000Y-87687005D01*
X142241302Y-87857189D01*
X141930233Y-88322736D01*
X141821000Y-88871887D01*
X141821000Y-88928113D01*
X141930233Y-89477264D01*
X142241302Y-89942811D01*
X142706849Y-90253880D01*
X143256000Y-90363113D01*
X143805151Y-90253880D01*
X144270698Y-89942811D01*
X144581767Y-89477264D01*
X144691000Y-88928113D01*
X144691000Y-88871887D01*
X144581767Y-88322736D01*
X144270698Y-87857189D01*
X144016000Y-87687005D01*
X144016000Y-83534646D01*
X144067800Y-83513243D01*
X144471824Y-83109923D01*
X144690750Y-82582691D01*
X144691248Y-82011813D01*
X144473243Y-81484200D01*
X144069923Y-81080176D01*
X143542691Y-80861250D01*
X142971813Y-80860752D01*
X142444200Y-81078757D01*
X142040176Y-81482077D01*
X142034395Y-81496000D01*
X139021059Y-81496000D01*
X138819765Y-81294355D01*
X138402756Y-81121197D01*
X137951225Y-81120803D01*
X137533914Y-81293233D01*
X137214355Y-81612235D01*
X137041197Y-82029244D01*
X137040803Y-82480775D01*
X128244000Y-82480775D01*
X128244000Y-82238332D01*
X128347827Y-82082943D01*
X128419000Y-81725134D01*
X128419000Y-80770866D01*
X128347827Y-80413057D01*
X128145145Y-80109721D01*
X127841809Y-79907039D01*
X127484000Y-79835866D01*
X127126191Y-79907039D01*
X126822855Y-80109721D01*
X126620173Y-80413057D01*
X126549000Y-80770866D01*
X126549000Y-81725134D01*
X126620173Y-82082943D01*
X126724000Y-82238332D01*
X126724000Y-83021198D01*
X119350599Y-90394599D01*
X119185852Y-90641161D01*
X119128000Y-90932000D01*
X119185852Y-91222839D01*
X119208000Y-91255986D01*
X119208000Y-102393354D01*
X119156200Y-102414757D01*
X118752176Y-102818077D01*
X118729785Y-102872000D01*
X114044000Y-102872000D01*
X114044000Y-102616000D01*
X113986148Y-102325161D01*
X113986148Y-102325160D01*
X113821401Y-102078599D01*
X113173256Y-101430454D01*
X113194750Y-101378691D01*
X113195248Y-100807813D01*
X112977243Y-100280200D01*
X112573923Y-99876176D01*
X112046691Y-99657250D01*
X111475813Y-99656752D01*
X110948200Y-99874757D01*
X110544176Y-100278077D01*
X110325250Y-100805309D01*
X110324752Y-101376187D01*
X106275059Y-101376187D01*
X106475800Y-101293243D01*
X106879824Y-100889923D01*
X107098750Y-100362691D01*
X107099248Y-99791813D01*
X107067372Y-99714668D01*
X107166147Y-99566841D01*
X107191178Y-99441000D01*
X107223999Y-99276001D01*
X107223999Y-90954803D01*
X108518802Y-89660000D01*
X111088307Y-89660000D01*
X110745302Y-89889189D01*
X110434233Y-90354736D01*
X110325000Y-90903887D01*
X110325000Y-90960113D01*
X110434233Y-91509264D01*
X110745302Y-91974811D01*
X111210849Y-92285880D01*
X111760000Y-92395113D01*
X112309151Y-92285880D01*
X112774698Y-91974811D01*
X113085767Y-91509264D01*
X113195000Y-90960113D01*
X113195000Y-90903887D01*
X113139904Y-90626898D01*
X123758802Y-80008000D01*
X124105266Y-80008000D01*
X124120173Y-80082943D01*
X124322855Y-80386279D01*
X124626191Y-80588961D01*
X124984000Y-80660134D01*
X125341809Y-80588961D01*
X125645145Y-80386279D01*
X125847827Y-80082943D01*
X125919000Y-79725134D01*
X125919000Y-78770866D01*
X125847827Y-78413057D01*
X125645145Y-78109721D01*
X125341809Y-77907039D01*
X124984000Y-77835866D01*
X124626191Y-77907039D01*
X124322855Y-78109721D01*
X124204000Y-78287601D01*
X124204000Y-78232000D01*
X124146148Y-77941161D01*
X124146148Y-77941160D01*
X123981401Y-77694599D01*
X121664000Y-75377198D01*
X121664000Y-73882646D01*
X121715800Y-73861243D01*
X122119824Y-73457923D01*
X122338750Y-72930691D01*
X122339248Y-72359813D01*
X122121243Y-71832200D01*
X121717923Y-71428176D01*
X121190691Y-71209250D01*
X120619813Y-71208752D01*
X120565851Y-71231049D01*
X119632000Y-70297198D01*
X119632000Y-69310646D01*
X119683800Y-69289243D01*
X120087824Y-68885923D01*
X120306750Y-68358691D01*
X120307248Y-67787813D01*
X120089243Y-67260200D01*
X119685923Y-66856176D01*
X119158691Y-66637250D01*
X118587813Y-66636752D01*
X118060200Y-66854757D01*
X117656176Y-67258077D01*
X117437250Y-67785309D01*
X117436752Y-68356187D01*
X117654757Y-68883800D01*
X118058077Y-69287824D01*
X118112000Y-69310215D01*
X118112000Y-70612000D01*
X118169852Y-70902839D01*
X118334599Y-71149401D01*
X119490744Y-72305546D01*
X119469250Y-72357309D01*
X119468752Y-72928187D01*
X119686757Y-73455800D01*
X120090077Y-73859824D01*
X120144000Y-73882215D01*
X120144000Y-75718000D01*
X120201852Y-76008839D01*
X120366599Y-76255401D01*
X120444954Y-76307756D01*
X122684000Y-78546802D01*
X122684000Y-78933198D01*
X113487035Y-88130163D01*
X113536000Y-87884000D01*
X113536000Y-73882646D01*
X113587800Y-73861243D01*
X113991824Y-73457923D01*
X114014215Y-73404000D01*
X114665354Y-73404000D01*
X114686757Y-73455800D01*
X115090077Y-73859824D01*
X115617309Y-74078750D01*
X116188187Y-74079248D01*
X116715800Y-73861243D01*
X117119824Y-73457923D01*
X117338750Y-72930691D01*
X117339248Y-72359813D01*
X117121243Y-71832200D01*
X116717923Y-71428176D01*
X116190691Y-71209250D01*
X115619813Y-71208752D01*
X115092200Y-71426757D01*
X114688176Y-71830077D01*
X114665785Y-71884000D01*
X114044000Y-71884000D01*
X114044000Y-69284995D01*
X114298698Y-69114811D01*
X114609767Y-68649264D01*
X114719000Y-68100113D01*
X114719000Y-68043887D01*
X114609767Y-67494736D01*
X114298698Y-67029189D01*
X113833151Y-66718120D01*
X113284000Y-66608887D01*
X112734849Y-66718120D01*
X112269302Y-67029189D01*
X111958233Y-67494736D01*
X111849000Y-68043887D01*
X111849000Y-68100113D01*
X111958233Y-68649264D01*
X112269302Y-69114811D01*
X112524000Y-69284995D01*
X112524000Y-71208780D01*
X112491813Y-71208752D01*
X111964200Y-71426757D01*
X111560176Y-71830077D01*
X111341250Y-72357309D01*
X111340752Y-72928187D01*
X111558757Y-73455800D01*
X111962077Y-73859824D01*
X112016000Y-73882215D01*
X112016000Y-87569198D01*
X111445198Y-88140000D01*
X108204000Y-88140000D01*
X107913161Y-88197852D01*
X107666599Y-88362599D01*
X105926598Y-90102600D01*
X105761851Y-90349162D01*
X105703999Y-90640001D01*
X105703999Y-98641035D01*
X105379813Y-98640752D01*
X104852200Y-98858757D01*
X104448176Y-99262077D01*
X104229250Y-99789309D01*
X104228752Y-100360187D01*
X91983999Y-100360187D01*
X91983999Y-98255999D01*
X91926147Y-97965160D01*
X91926147Y-97965159D01*
X91761400Y-97718598D01*
X91409256Y-97366454D01*
X91430750Y-97314691D01*
X91430752Y-97312187D01*
X93560752Y-97312187D01*
X93778757Y-97839800D01*
X94182077Y-98243824D01*
X94709309Y-98462750D01*
X95280187Y-98463248D01*
X95807800Y-98245243D01*
X96211824Y-97841923D01*
X96430750Y-97314691D01*
X96431248Y-96743813D01*
X96408951Y-96689851D01*
X106562802Y-86536000D01*
X108962469Y-86536000D01*
X108974990Y-86566303D01*
X109367630Y-86959629D01*
X109880900Y-87172757D01*
X110436661Y-87173242D01*
X110950303Y-86961010D01*
X111343629Y-86568370D01*
X111556757Y-86055100D01*
X111557242Y-85499339D01*
X111345010Y-84985697D01*
X110952370Y-84592371D01*
X110920000Y-84578930D01*
X110920000Y-80188000D01*
X110862148Y-79897161D01*
X110697401Y-79650599D01*
X104014688Y-72967886D01*
X104079113Y-72644000D01*
X103969880Y-72094849D01*
X103658811Y-71629302D01*
X103296000Y-71386879D01*
X103296000Y-69596000D01*
X110542000Y-69596000D01*
X110542000Y-69905672D01*
X110596046Y-70177377D01*
X110749954Y-70407718D01*
X110980295Y-70561626D01*
X111252000Y-70615672D01*
X111523705Y-70561626D01*
X111754046Y-70407718D01*
X111907954Y-70177377D01*
X111962000Y-69905672D01*
X111962000Y-69596000D01*
X111907954Y-69324295D01*
X111754046Y-69093954D01*
X111523705Y-68940046D01*
X111252000Y-68886000D01*
X110980295Y-68940046D01*
X110749954Y-69093954D01*
X110596046Y-69324295D01*
X110542000Y-69596000D01*
X103296000Y-69596000D01*
X103296000Y-68294646D01*
X103347800Y-68273243D01*
X103751824Y-67869923D01*
X103970750Y-67342691D01*
X103971248Y-66771813D01*
X103753243Y-66244200D01*
X103349923Y-65840176D01*
X102822691Y-65621250D01*
X102251813Y-65620752D01*
X101724200Y-65838757D01*
X101320176Y-66242077D01*
X101101250Y-66769309D01*
X101100752Y-67340187D01*
X101318757Y-67867800D01*
X101722077Y-68271824D01*
X101776000Y-68294215D01*
X101776000Y-71493788D01*
X101573189Y-71629302D01*
X101262120Y-72094849D01*
X101152887Y-72644000D01*
X101262120Y-73193151D01*
X101573189Y-73658698D01*
X102038736Y-73969767D01*
X102587887Y-74079000D01*
X102644113Y-74079000D01*
X102921102Y-74023904D01*
X109400000Y-80502802D01*
X109400000Y-84578469D01*
X109369697Y-84590990D01*
X108976371Y-84983630D01*
X108962930Y-85016000D01*
X106248000Y-85016000D01*
X105957161Y-85073852D01*
X105710599Y-85238599D01*
X95334454Y-95614744D01*
X95282691Y-95593250D01*
X94711813Y-95592752D01*
X94184200Y-95810757D01*
X93780176Y-96214077D01*
X93561250Y-96741309D01*
X93560752Y-97312187D01*
X91430752Y-97312187D01*
X91431248Y-96743813D01*
X91213243Y-96216200D01*
X90809923Y-95812176D01*
X90756000Y-95789785D01*
X90756000Y-89198603D01*
X90779827Y-89162943D01*
X90851000Y-88805134D01*
X90851000Y-87850866D01*
X90779827Y-87493057D01*
X90577145Y-87189721D01*
X90273809Y-86987039D01*
X89916000Y-86915866D01*
X89558191Y-86987039D01*
X89254855Y-87189721D01*
X89052173Y-87493057D01*
X88981000Y-87850866D01*
X88981000Y-88805134D01*
X89052173Y-89162943D01*
X89236000Y-89438060D01*
X89236000Y-95475957D01*
X89196001Y-95468001D01*
X83015999Y-95468001D01*
X82773413Y-95516255D01*
X82725159Y-95525853D01*
X82577687Y-95624391D01*
X82502691Y-95593250D01*
X81931813Y-95592752D01*
X81404200Y-95810757D01*
X81000176Y-96214077D01*
X80781250Y-96741309D01*
X80780752Y-97312187D01*
X78638735Y-97312187D01*
X78662965Y-97244777D01*
X78635778Y-96674546D01*
X78469864Y-96273995D01*
X78223745Y-96199861D01*
X77395605Y-97028000D01*
X77036395Y-97028000D01*
X76208255Y-96199861D01*
X75962136Y-96273995D01*
X75769035Y-96811223D01*
X59955189Y-96811223D01*
X59955265Y-96724009D01*
X59722068Y-96159629D01*
X59688000Y-96125501D01*
X59688000Y-96020255D01*
X76387861Y-96020255D01*
X77216000Y-96848395D01*
X78044139Y-96020255D01*
X77970005Y-95774136D01*
X77432777Y-95581035D01*
X76862546Y-95608222D01*
X76461995Y-95774136D01*
X76387861Y-96020255D01*
X59688000Y-96020255D01*
X59688000Y-89692187D01*
X64604752Y-89692187D01*
X64822757Y-90219800D01*
X65226077Y-90623824D01*
X65753309Y-90842750D01*
X66324187Y-90843248D01*
X66851800Y-90625243D01*
X67255824Y-90221923D01*
X67474750Y-89694691D01*
X67475248Y-89123813D01*
X67257243Y-88596200D01*
X66853923Y-88192176D01*
X66800000Y-88169785D01*
X66800000Y-87572995D01*
X67054698Y-87402811D01*
X67243667Y-87120000D01*
X71238536Y-87120000D01*
X71257106Y-87164943D01*
X71716637Y-87625278D01*
X72317352Y-87874716D01*
X72967795Y-87875284D01*
X73568943Y-87626894D01*
X74029278Y-87167363D01*
X74098773Y-87000000D01*
X86519761Y-87000000D01*
X86552173Y-87162943D01*
X86754855Y-87466279D01*
X87058191Y-87668961D01*
X87416000Y-87740134D01*
X87773809Y-87668961D01*
X88077145Y-87466279D01*
X88279827Y-87162943D01*
X88351000Y-86805134D01*
X88351000Y-85850866D01*
X88279827Y-85493057D01*
X88077145Y-85189721D01*
X87773809Y-84987039D01*
X87416000Y-84915866D01*
X87058191Y-84987039D01*
X86754855Y-85189721D01*
X86560897Y-85480000D01*
X74099047Y-85480000D01*
X74030894Y-85315057D01*
X73571363Y-84854722D01*
X72970648Y-84605284D01*
X72320205Y-84604716D01*
X71719057Y-84853106D01*
X71258722Y-85312637D01*
X71139399Y-85600000D01*
X67243667Y-85600000D01*
X67054698Y-85317189D01*
X66589151Y-85006120D01*
X66040000Y-84896887D01*
X65490849Y-85006120D01*
X65025302Y-85317189D01*
X64714233Y-85782736D01*
X64605000Y-86331887D01*
X64605000Y-86388113D01*
X64714233Y-86937264D01*
X65025302Y-87402811D01*
X65280000Y-87572995D01*
X65280000Y-88169354D01*
X65228200Y-88190757D01*
X64824176Y-88594077D01*
X64605250Y-89121309D01*
X64604752Y-89692187D01*
X59688000Y-89692187D01*
X59688000Y-80968995D01*
X59942698Y-80798811D01*
X60253767Y-80333264D01*
X60363000Y-79784113D01*
X60363000Y-79727887D01*
X60253767Y-79178736D01*
X60176966Y-79063795D01*
X71008716Y-79063795D01*
X71257106Y-79664943D01*
X71716637Y-80125278D01*
X72317352Y-80374716D01*
X72967795Y-80375284D01*
X73568943Y-80126894D01*
X74029278Y-79667363D01*
X74140297Y-79400000D01*
X82622469Y-79400000D01*
X82634990Y-79430303D01*
X83027630Y-79823629D01*
X83540900Y-80036757D01*
X84096661Y-80037242D01*
X84610303Y-79825010D01*
X85003629Y-79432370D01*
X85216757Y-78919100D01*
X85217242Y-78363339D01*
X85005010Y-77849697D01*
X84612370Y-77456371D01*
X84099100Y-77243243D01*
X83543339Y-77242758D01*
X83029697Y-77454990D01*
X82636371Y-77847630D01*
X82622930Y-77880000D01*
X74057728Y-77880000D01*
X74030894Y-77815057D01*
X73571363Y-77354722D01*
X72970648Y-77105284D01*
X72320205Y-77104716D01*
X71719057Y-77353106D01*
X71258722Y-77812637D01*
X71009284Y-78413352D01*
X71008716Y-79063795D01*
X60176966Y-79063795D01*
X59942698Y-78713189D01*
X59477151Y-78402120D01*
X58928000Y-78292887D01*
X58378849Y-78402120D01*
X57913302Y-78713189D01*
X57602233Y-79178736D01*
X57493000Y-79727887D01*
X57493000Y-79784113D01*
X57602233Y-80333264D01*
X57913302Y-80798811D01*
X58168000Y-80968995D01*
X58168000Y-95492780D01*
X58116009Y-95492735D01*
X57551629Y-95725932D01*
X57119449Y-96157357D01*
X56885267Y-96721330D01*
X56884735Y-97331991D01*
X51510000Y-97331991D01*
X51510000Y-76484187D01*
X64604752Y-76484187D01*
X64822757Y-77011800D01*
X65226077Y-77415824D01*
X65753309Y-77634750D01*
X66324187Y-77635248D01*
X66851800Y-77417243D01*
X67255824Y-77013923D01*
X67474750Y-76486691D01*
X67475248Y-75915813D01*
X67257243Y-75388200D01*
X66853923Y-74984176D01*
X66800000Y-74961785D01*
X66800000Y-73348995D01*
X67054698Y-73178811D01*
X67365767Y-72713264D01*
X67475000Y-72164113D01*
X67475000Y-72107887D01*
X67365767Y-71558736D01*
X67257472Y-71396661D01*
X76622758Y-71396661D01*
X76834990Y-71910303D01*
X77227630Y-72303629D01*
X77740900Y-72516757D01*
X78296661Y-72517242D01*
X78810303Y-72305010D01*
X79203629Y-71912370D01*
X79416757Y-71399100D01*
X79416759Y-71396661D01*
X82422758Y-71396661D01*
X82634990Y-71910303D01*
X83027630Y-72303629D01*
X83540900Y-72516757D01*
X84096661Y-72517242D01*
X84610303Y-72305010D01*
X85003629Y-71912370D01*
X85017070Y-71880000D01*
X94173198Y-71880000D01*
X95498067Y-73204869D01*
X95440776Y-73342841D01*
X95440225Y-73974388D01*
X95498288Y-74114910D01*
X91017039Y-78596159D01*
X91017242Y-78363339D01*
X90805010Y-77849697D01*
X90412370Y-77456371D01*
X89899100Y-77243243D01*
X89343339Y-77242758D01*
X88829697Y-77454990D01*
X88436371Y-77847630D01*
X88223243Y-78360900D01*
X88222758Y-78916661D01*
X88434990Y-79430303D01*
X88827630Y-79823629D01*
X89340900Y-80036757D01*
X89576236Y-80036962D01*
X89378599Y-80234599D01*
X89213852Y-80481161D01*
X89156000Y-80772000D01*
X89156000Y-83337668D01*
X89052173Y-83493057D01*
X88981000Y-83850866D01*
X88981000Y-84805134D01*
X89052173Y-85162943D01*
X89254855Y-85466279D01*
X89558191Y-85668961D01*
X89916000Y-85740134D01*
X90273809Y-85668961D01*
X90577145Y-85466279D01*
X90779827Y-85162943D01*
X90851000Y-84805134D01*
X90851000Y-83850866D01*
X90779827Y-83493057D01*
X90676000Y-83337668D01*
X90676000Y-81086802D01*
X93975302Y-77787500D01*
X95428060Y-77787500D01*
X95428060Y-79692500D01*
X95472338Y-79927817D01*
X95611410Y-80143941D01*
X95823610Y-80288931D01*
X96075500Y-80339940D01*
X97980500Y-80339940D01*
X98215817Y-80295662D01*
X98431941Y-80156590D01*
X98576931Y-79944390D01*
X98627940Y-79692500D01*
X98627940Y-79576000D01*
X102002469Y-79576000D01*
X102014990Y-79606303D01*
X102407630Y-79999629D01*
X102920900Y-80212757D01*
X103476661Y-80213242D01*
X103990303Y-80001010D01*
X104383629Y-79608370D01*
X104596757Y-79095100D01*
X104597242Y-78539339D01*
X104385010Y-78025697D01*
X103992370Y-77632371D01*
X103479100Y-77419243D01*
X102923339Y-77418758D01*
X102409697Y-77630990D01*
X102016371Y-78023630D01*
X102002930Y-78056000D01*
X98627940Y-78056000D01*
X98627940Y-77787500D01*
X98583662Y-77552183D01*
X98444590Y-77336059D01*
X98232390Y-77191069D01*
X97980500Y-77140060D01*
X96075500Y-77140060D01*
X95840183Y-77184338D01*
X95624059Y-77323410D01*
X95479069Y-77535610D01*
X95428060Y-77787500D01*
X93975302Y-77787500D01*
X96572869Y-75189933D01*
X96710841Y-75247224D01*
X97342388Y-75247775D01*
X97926072Y-75006602D01*
X98373032Y-74560421D01*
X98615224Y-73977159D01*
X98615775Y-73345612D01*
X98374602Y-72761928D01*
X97928421Y-72314968D01*
X97345159Y-72072776D01*
X96713612Y-72072225D01*
X96573090Y-72130288D01*
X95562802Y-71120000D01*
X97273403Y-69409400D01*
X97438149Y-69162838D01*
X97496001Y-68871999D01*
X97496001Y-68490965D01*
X97820187Y-68491248D01*
X98347800Y-68273243D01*
X98751824Y-67869923D01*
X98970750Y-67342691D01*
X98971248Y-66771813D01*
X98753243Y-66244200D01*
X98349923Y-65840176D01*
X97822691Y-65621250D01*
X97251813Y-65620752D01*
X96724200Y-65838757D01*
X96320176Y-66242077D01*
X96101250Y-66769309D01*
X96100752Y-67340187D01*
X96132628Y-67417333D01*
X96033853Y-67565160D01*
X95976001Y-67855999D01*
X95976001Y-68557196D01*
X94173198Y-70360000D01*
X85017531Y-70360000D01*
X85005010Y-70329697D01*
X84612370Y-69936371D01*
X84099100Y-69723243D01*
X83543339Y-69722758D01*
X83029697Y-69934990D01*
X82636371Y-70327630D01*
X82423243Y-70840900D01*
X82422758Y-71396661D01*
X79416759Y-71396661D01*
X79417242Y-70843339D01*
X79205010Y-70329697D01*
X78812370Y-69936371D01*
X78299100Y-69723243D01*
X77743339Y-69722758D01*
X77229697Y-69934990D01*
X76836371Y-70327630D01*
X76623243Y-70840900D01*
X76622758Y-71396661D01*
X67257472Y-71396661D01*
X67054698Y-71093189D01*
X66589151Y-70782120D01*
X66040000Y-70672887D01*
X65490849Y-70782120D01*
X65025302Y-71093189D01*
X64714233Y-71558736D01*
X64605000Y-72107887D01*
X64605000Y-72164113D01*
X64714233Y-72713264D01*
X65025302Y-73178811D01*
X65280000Y-73348995D01*
X65280000Y-74961354D01*
X65228200Y-74982757D01*
X64824176Y-75386077D01*
X64605250Y-75913309D01*
X64604752Y-76484187D01*
X51510000Y-76484187D01*
X51510000Y-60960000D01*
X51712426Y-60960000D01*
X52014075Y-62476493D01*
X52873099Y-63762114D01*
X54158720Y-64621138D01*
X55675213Y-64922787D01*
X57191706Y-64621138D01*
X58477327Y-63762114D01*
X59336351Y-62476493D01*
X59638000Y-60960000D01*
X59336351Y-59443507D01*
X58477327Y-58157886D01*
X57191706Y-57298862D01*
X55675213Y-56997213D01*
X54158720Y-57298862D01*
X52873099Y-58157886D01*
X52014075Y-59443507D01*
X51712426Y-60960000D01*
X51510000Y-60960000D01*
X51510000Y-56590000D01*
X112725732Y-56590000D01*
X112472200Y-56694757D01*
M02*
