G04 #@! TF.FileFunction,Legend,Top*
%FSLAX46Y46*%
G04 Gerber Fmt 4.6, Leading zero omitted, Abs format (unit mm)*
G04 Created by KiCad (PCBNEW 4.0.5) date 05/18/17 14:57:18*
%MOMM*%
%LPD*%
G01*
G04 APERTURE LIST*
%ADD10C,0.100000*%
%ADD11C,0.300000*%
%ADD12C,0.120000*%
%ADD13C,0.150000*%
G04 APERTURE END LIST*
D10*
D11*
X204485029Y-119753771D02*
X204485029Y-118253771D01*
X205056458Y-118753771D02*
X205413601Y-119753771D01*
X205770743Y-118753771D01*
X206985029Y-119753771D02*
X206985029Y-118968057D01*
X206913600Y-118825200D01*
X206770743Y-118753771D01*
X206485029Y-118753771D01*
X206342172Y-118825200D01*
X206985029Y-119682343D02*
X206842172Y-119753771D01*
X206485029Y-119753771D01*
X206342172Y-119682343D01*
X206270743Y-119539486D01*
X206270743Y-119396629D01*
X206342172Y-119253771D01*
X206485029Y-119182343D01*
X206842172Y-119182343D01*
X206985029Y-119110914D01*
X207699315Y-119753771D02*
X207699315Y-118753771D01*
X207699315Y-119039486D02*
X207770743Y-118896629D01*
X207842172Y-118825200D01*
X207985029Y-118753771D01*
X208127886Y-118753771D01*
X208556457Y-119682343D02*
X208699314Y-119753771D01*
X208985029Y-119753771D01*
X209127886Y-119682343D01*
X209199314Y-119539486D01*
X209199314Y-119468057D01*
X209127886Y-119325200D01*
X208985029Y-119253771D01*
X208770743Y-119253771D01*
X208627886Y-119182343D01*
X208556457Y-119039486D01*
X208556457Y-118968057D01*
X208627886Y-118825200D01*
X208770743Y-118753771D01*
X208985029Y-118753771D01*
X209127886Y-118825200D01*
X212199315Y-119753771D02*
X212127886Y-119753771D01*
X211985029Y-119682343D01*
X211770743Y-119468057D01*
X211413600Y-119039486D01*
X211270743Y-118825200D01*
X211199315Y-118610914D01*
X211199315Y-118468057D01*
X211270743Y-118325200D01*
X211413600Y-118253771D01*
X211485029Y-118253771D01*
X211627886Y-118325200D01*
X211699315Y-118468057D01*
X211699315Y-118539486D01*
X211627886Y-118682343D01*
X211556457Y-118753771D01*
X211127886Y-119039486D01*
X211056457Y-119110914D01*
X210985029Y-119253771D01*
X210985029Y-119468057D01*
X211056457Y-119610914D01*
X211127886Y-119682343D01*
X211270743Y-119753771D01*
X211485029Y-119753771D01*
X211627886Y-119682343D01*
X211699315Y-119610914D01*
X211913600Y-119325200D01*
X211985029Y-119110914D01*
X211985029Y-118968057D01*
X213985029Y-119753771D02*
X213985029Y-118253771D01*
X214842172Y-119753771D02*
X214199315Y-118896629D01*
X214842172Y-118253771D02*
X213985029Y-119110914D01*
X215770743Y-118253771D02*
X216056457Y-118253771D01*
X216199315Y-118325200D01*
X216342172Y-118468057D01*
X216413600Y-118753771D01*
X216413600Y-119253771D01*
X216342172Y-119539486D01*
X216199315Y-119682343D01*
X216056457Y-119753771D01*
X215770743Y-119753771D01*
X215627886Y-119682343D01*
X215485029Y-119539486D01*
X215413600Y-119253771D01*
X215413600Y-118753771D01*
X215485029Y-118468057D01*
X215627886Y-118325200D01*
X215770743Y-118253771D01*
D12*
X199771000Y-111315200D02*
X199771000Y-109815200D01*
X199021000Y-110565200D02*
X200521000Y-110565200D01*
X197461000Y-112825200D02*
X202081000Y-112825200D01*
X197461000Y-102705200D02*
X202081000Y-102705200D01*
X197461000Y-112825200D02*
X197461000Y-111325200D01*
X197461000Y-111325200D02*
X198211000Y-110575200D01*
X198211000Y-110575200D02*
X197461000Y-109825200D01*
X197461000Y-109825200D02*
X197461000Y-102705200D01*
X202081000Y-112825200D02*
X202081000Y-111325200D01*
X202081000Y-111325200D02*
X201331000Y-110575200D01*
X201331000Y-110575200D02*
X202081000Y-109825200D01*
X202081000Y-109825200D02*
X202081000Y-102705200D01*
X199771000Y-114085200D02*
X199771000Y-112825200D01*
X199771000Y-101445200D02*
X199771000Y-102705200D01*
X215520000Y-100330000D02*
X214020000Y-100330000D01*
X214770000Y-101080000D02*
X214770000Y-99580000D01*
X217030000Y-102640000D02*
X217030000Y-98020000D01*
X206910000Y-102640000D02*
X206910000Y-98020000D01*
X217030000Y-102640000D02*
X215530000Y-102640000D01*
X215530000Y-102640000D02*
X214780000Y-101890000D01*
X214780000Y-101890000D02*
X214030000Y-102640000D01*
X214030000Y-102640000D02*
X206910000Y-102640000D01*
X217030000Y-98020000D02*
X215530000Y-98020000D01*
X215530000Y-98020000D02*
X214780000Y-98770000D01*
X214780000Y-98770000D02*
X214030000Y-98020000D01*
X214030000Y-98020000D02*
X206910000Y-98020000D01*
X218290000Y-100330000D02*
X217030000Y-100330000D01*
X205650000Y-100330000D02*
X206910000Y-100330000D01*
X229793800Y-104280000D02*
X229793800Y-105780000D01*
X230543800Y-105030000D02*
X229043800Y-105030000D01*
X232103800Y-102770000D02*
X227483800Y-102770000D01*
X232103800Y-112890000D02*
X227483800Y-112890000D01*
X232103800Y-102770000D02*
X232103800Y-104270000D01*
X232103800Y-104270000D02*
X231353800Y-105020000D01*
X231353800Y-105020000D02*
X232103800Y-105770000D01*
X232103800Y-105770000D02*
X232103800Y-112890000D01*
X227483800Y-102770000D02*
X227483800Y-104270000D01*
X227483800Y-104270000D02*
X228233800Y-105020000D01*
X228233800Y-105020000D02*
X227483800Y-105770000D01*
X227483800Y-105770000D02*
X227483800Y-112890000D01*
X229793800Y-101510000D02*
X229793800Y-102770000D01*
X229793800Y-114150000D02*
X229793800Y-112890000D01*
X197637400Y-115214400D02*
G75*
G03X197637400Y-115214400I-2286000J0D01*
G01*
X197866000Y-123190000D02*
G75*
G03X197866000Y-123190000I-2286000J0D01*
G01*
X244144800Y-100330000D02*
G75*
G03X244144800Y-100330000I-2286000J0D01*
G01*
X244221000Y-106908600D02*
G75*
G03X244221000Y-106908600I-2286000J0D01*
G01*
X208870000Y-105076200D02*
X205150000Y-105076200D01*
X208870000Y-103356200D02*
X205150000Y-103356200D01*
X208946200Y-108962400D02*
X205226200Y-108962400D01*
X208946200Y-107242400D02*
X205226200Y-107242400D01*
D11*
X223293800Y-125490000D02*
X223293800Y-119690000D01*
X246293800Y-125490000D02*
X246293800Y-119690000D01*
X246293800Y-119690000D02*
X223293800Y-119690000D01*
X246293800Y-125490000D02*
X223293800Y-125490000D01*
D13*
X219867680Y-103762140D02*
G75*
G03X219867680Y-103762140I-400000J0D01*
G01*
X223467680Y-108562140D02*
G75*
G03X223467680Y-108562140I-4000000J0D01*
G01*
X225067680Y-108562140D02*
G75*
G03X225067680Y-108562140I-5600000J0D01*
G01*
X196818143Y-107931866D02*
X196865762Y-107979485D01*
X196913381Y-108122342D01*
X196913381Y-108217580D01*
X196865762Y-108360438D01*
X196770524Y-108455676D01*
X196675286Y-108503295D01*
X196484810Y-108550914D01*
X196341952Y-108550914D01*
X196151476Y-108503295D01*
X196056238Y-108455676D01*
X195961000Y-108360438D01*
X195913381Y-108217580D01*
X195913381Y-108122342D01*
X195961000Y-107979485D01*
X196008619Y-107931866D01*
X196913381Y-106979485D02*
X196913381Y-107550914D01*
X196913381Y-107265200D02*
X195913381Y-107265200D01*
X196056238Y-107360438D01*
X196151476Y-107455676D01*
X196199095Y-107550914D01*
X212304334Y-103709743D02*
X212256715Y-103757362D01*
X212113858Y-103804981D01*
X212018620Y-103804981D01*
X211875762Y-103757362D01*
X211780524Y-103662124D01*
X211732905Y-103566886D01*
X211685286Y-103376410D01*
X211685286Y-103233552D01*
X211732905Y-103043076D01*
X211780524Y-102947838D01*
X211875762Y-102852600D01*
X212018620Y-102804981D01*
X212113858Y-102804981D01*
X212256715Y-102852600D01*
X212304334Y-102900219D01*
X212685286Y-102900219D02*
X212732905Y-102852600D01*
X212828143Y-102804981D01*
X213066239Y-102804981D01*
X213161477Y-102852600D01*
X213209096Y-102900219D01*
X213256715Y-102995457D01*
X213256715Y-103090695D01*
X213209096Y-103233552D01*
X212637667Y-103804981D01*
X213256715Y-103804981D01*
X232937134Y-108187143D02*
X232889515Y-108234762D01*
X232746658Y-108282381D01*
X232651420Y-108282381D01*
X232508562Y-108234762D01*
X232413324Y-108139524D01*
X232365705Y-108044286D01*
X232318086Y-107853810D01*
X232318086Y-107710952D01*
X232365705Y-107520476D01*
X232413324Y-107425238D01*
X232508562Y-107330000D01*
X232651420Y-107282381D01*
X232746658Y-107282381D01*
X232889515Y-107330000D01*
X232937134Y-107377619D01*
X233270467Y-107282381D02*
X233889515Y-107282381D01*
X233556181Y-107663333D01*
X233699039Y-107663333D01*
X233794277Y-107710952D01*
X233841896Y-107758571D01*
X233889515Y-107853810D01*
X233889515Y-108091905D01*
X233841896Y-108187143D01*
X233794277Y-108234762D01*
X233699039Y-108282381D01*
X233413324Y-108282381D01*
X233318086Y-108234762D01*
X233270467Y-108187143D01*
X191316385Y-115549941D02*
X191316385Y-114549941D01*
X191697338Y-114549941D01*
X191792576Y-114597560D01*
X191840195Y-114645179D01*
X191887814Y-114740417D01*
X191887814Y-114883274D01*
X191840195Y-114978512D01*
X191792576Y-115026131D01*
X191697338Y-115073750D01*
X191316385Y-115073750D01*
X192840195Y-115549941D02*
X192268766Y-115549941D01*
X192554480Y-115549941D02*
X192554480Y-114549941D01*
X192459242Y-114692798D01*
X192364004Y-114788036D01*
X192268766Y-114835655D01*
X191341785Y-123624601D02*
X191341785Y-122624601D01*
X191722738Y-122624601D01*
X191817976Y-122672220D01*
X191865595Y-122719839D01*
X191913214Y-122815077D01*
X191913214Y-122957934D01*
X191865595Y-123053172D01*
X191817976Y-123100791D01*
X191722738Y-123148410D01*
X191341785Y-123148410D01*
X192294166Y-122719839D02*
X192341785Y-122672220D01*
X192437023Y-122624601D01*
X192675119Y-122624601D01*
X192770357Y-122672220D01*
X192817976Y-122719839D01*
X192865595Y-122815077D01*
X192865595Y-122910315D01*
X192817976Y-123053172D01*
X192246547Y-123624601D01*
X192865595Y-123624601D01*
X244818945Y-101247201D02*
X244818945Y-100247201D01*
X245199898Y-100247201D01*
X245295136Y-100294820D01*
X245342755Y-100342439D01*
X245390374Y-100437677D01*
X245390374Y-100580534D01*
X245342755Y-100675772D01*
X245295136Y-100723391D01*
X245199898Y-100771010D01*
X244818945Y-100771010D01*
X245723707Y-100247201D02*
X246342755Y-100247201D01*
X246009421Y-100628153D01*
X246152279Y-100628153D01*
X246247517Y-100675772D01*
X246295136Y-100723391D01*
X246342755Y-100818630D01*
X246342755Y-101056725D01*
X246295136Y-101151963D01*
X246247517Y-101199582D01*
X246152279Y-101247201D01*
X245866564Y-101247201D01*
X245771326Y-101199582D01*
X245723707Y-101151963D01*
X245141525Y-107802941D02*
X245141525Y-106802941D01*
X245522478Y-106802941D01*
X245617716Y-106850560D01*
X245665335Y-106898179D01*
X245712954Y-106993417D01*
X245712954Y-107136274D01*
X245665335Y-107231512D01*
X245617716Y-107279131D01*
X245522478Y-107326750D01*
X245141525Y-107326750D01*
X246570097Y-107136274D02*
X246570097Y-107802941D01*
X246332001Y-106755322D02*
X246093906Y-107469608D01*
X246712954Y-107469608D01*
X206843334Y-106528581D02*
X206510000Y-106052390D01*
X206271905Y-106528581D02*
X206271905Y-105528581D01*
X206652858Y-105528581D01*
X206748096Y-105576200D01*
X206795715Y-105623819D01*
X206843334Y-105719057D01*
X206843334Y-105861914D01*
X206795715Y-105957152D01*
X206748096Y-106004771D01*
X206652858Y-106052390D01*
X206271905Y-106052390D01*
X207795715Y-106528581D02*
X207224286Y-106528581D01*
X207510000Y-106528581D02*
X207510000Y-105528581D01*
X207414762Y-105671438D01*
X207319524Y-105766676D01*
X207224286Y-105814295D01*
X207538581Y-110129066D02*
X207062390Y-110462400D01*
X207538581Y-110700495D02*
X206538581Y-110700495D01*
X206538581Y-110319542D01*
X206586200Y-110224304D01*
X206633819Y-110176685D01*
X206729057Y-110129066D01*
X206871914Y-110129066D01*
X206967152Y-110176685D01*
X207014771Y-110224304D01*
X207062390Y-110319542D01*
X207062390Y-110700495D01*
X206633819Y-109748114D02*
X206586200Y-109700495D01*
X206538581Y-109605257D01*
X206538581Y-109367161D01*
X206586200Y-109271923D01*
X206633819Y-109224304D01*
X206729057Y-109176685D01*
X206824295Y-109176685D01*
X206967152Y-109224304D01*
X207538581Y-109795733D01*
X207538581Y-109176685D01*
X235281886Y-126217371D02*
X235424743Y-126264990D01*
X235472362Y-126312610D01*
X235519981Y-126407848D01*
X235519981Y-126550705D01*
X235472362Y-126645943D01*
X235424743Y-126693562D01*
X235329505Y-126741181D01*
X234948552Y-126741181D01*
X234948552Y-125741181D01*
X235281886Y-125741181D01*
X235377124Y-125788800D01*
X235424743Y-125836419D01*
X235472362Y-125931657D01*
X235472362Y-126026895D01*
X235424743Y-126122133D01*
X235377124Y-126169752D01*
X235281886Y-126217371D01*
X234948552Y-126217371D01*
X235805695Y-125741181D02*
X236377124Y-125741181D01*
X236091409Y-126741181D02*
X236091409Y-125741181D01*
X237234267Y-126741181D02*
X236662838Y-126741181D01*
X236948552Y-126741181D02*
X236948552Y-125741181D01*
X236853314Y-125884038D01*
X236758076Y-125979276D01*
X236662838Y-126026895D01*
X227115299Y-108657378D02*
X227067680Y-108752616D01*
X226972442Y-108847854D01*
X226829585Y-108990711D01*
X226781966Y-109085950D01*
X226781966Y-109181188D01*
X227020061Y-109133569D02*
X226972442Y-109228807D01*
X226877204Y-109324045D01*
X226686728Y-109371664D01*
X226353394Y-109371664D01*
X226162918Y-109324045D01*
X226067680Y-109228807D01*
X226020061Y-109133569D01*
X226020061Y-108943092D01*
X226067680Y-108847854D01*
X226162918Y-108752616D01*
X226353394Y-108704997D01*
X226686728Y-108704997D01*
X226877204Y-108752616D01*
X226972442Y-108847854D01*
X227020061Y-108943092D01*
X227020061Y-109133569D01*
X227020061Y-107752616D02*
X227020061Y-108324045D01*
X227020061Y-108038331D02*
X226020061Y-108038331D01*
X226162918Y-108133569D01*
X226258156Y-108228807D01*
X226305775Y-108324045D01*
M02*
