G04 #@! TF.FileFunction,Copper,L2,Bot,Signal*
%FSLAX46Y46*%
G04 Gerber Fmt 4.6, Leading zero omitted, Abs format (unit mm)*
G04 Created by KiCad (PCBNEW 4.0.5) date 05/18/17 11:10:43*
%MOMM*%
%LPD*%
G01*
G04 APERTURE LIST*
%ADD10C,0.100000*%
%ADD11R,2.000000X2.000000*%
%ADD12O,2.000000X2.000000*%
%ADD13C,4.064000*%
%ADD14O,2.500000X1.400000*%
%ADD15O,1.400000X2.500000*%
%ADD16C,1.400000*%
%ADD17O,1.400000X1.400000*%
%ADD18C,0.254000*%
G04 APERTURE END LIST*
D10*
D11*
X199771000Y-115265200D03*
D12*
X199771000Y-100265200D03*
D11*
X219470000Y-100330000D03*
D12*
X204470000Y-100330000D03*
D11*
X229793800Y-100330000D03*
D12*
X229793800Y-115330000D03*
D13*
X195351400Y-115214400D03*
X195580000Y-123190000D03*
X241858800Y-100330000D03*
X241935000Y-106908600D03*
D14*
X221481400Y-108559600D03*
D15*
X219481400Y-106559600D03*
X219481400Y-110559600D03*
D16*
X209550000Y-104216200D03*
D17*
X204470000Y-104216200D03*
D16*
X209626200Y-108102400D03*
D17*
X204546200Y-108102400D03*
D18*
G36*
X239599145Y-98817293D02*
X239255452Y-99645000D01*
X231441240Y-99645000D01*
X231441240Y-99330000D01*
X231396962Y-99094683D01*
X231257890Y-98878559D01*
X231045690Y-98733569D01*
X230793800Y-98682560D01*
X228793800Y-98682560D01*
X228558483Y-98726838D01*
X228342359Y-98865910D01*
X228197369Y-99078110D01*
X228146360Y-99330000D01*
X228146360Y-99645000D01*
X221117440Y-99645000D01*
X221117440Y-99330000D01*
X221073162Y-99094683D01*
X220934090Y-98878559D01*
X220721890Y-98733569D01*
X220470000Y-98682560D01*
X218470000Y-98682560D01*
X218234683Y-98726838D01*
X218018559Y-98865910D01*
X217873569Y-99078110D01*
X217822560Y-99330000D01*
X217822560Y-101330000D01*
X217866838Y-101565317D01*
X218005910Y-101781441D01*
X218218110Y-101926431D01*
X218470000Y-101977440D01*
X220470000Y-101977440D01*
X220705317Y-101933162D01*
X220921441Y-101794090D01*
X221066431Y-101581890D01*
X221117440Y-101330000D01*
X221117440Y-101015000D01*
X228146360Y-101015000D01*
X228146360Y-101330000D01*
X228190638Y-101565317D01*
X228329710Y-101781441D01*
X228541910Y-101926431D01*
X228793800Y-101977440D01*
X230793800Y-101977440D01*
X231029117Y-101933162D01*
X231245241Y-101794090D01*
X231390231Y-101581890D01*
X231441240Y-101330000D01*
X231441240Y-101015000D01*
X239256138Y-101015000D01*
X239596509Y-101838761D01*
X240346093Y-102589655D01*
X241325973Y-102996536D01*
X242386972Y-102997462D01*
X243367561Y-102592291D01*
X244118455Y-101842707D01*
X244525336Y-100862827D01*
X244526262Y-99801828D01*
X244121091Y-98821239D01*
X243807930Y-98507531D01*
X245020995Y-98748824D01*
X246022196Y-99417804D01*
X246691175Y-100419005D01*
X246940000Y-101669931D01*
X246940000Y-123120069D01*
X246691175Y-124370995D01*
X246022196Y-125372196D01*
X245020995Y-126041176D01*
X243770069Y-126290000D01*
X194379931Y-126290000D01*
X193129005Y-126041175D01*
X192127804Y-125372196D01*
X191937992Y-125088121D01*
X193861484Y-125088121D01*
X194086154Y-125462168D01*
X195069388Y-125860880D01*
X196130357Y-125852975D01*
X197073846Y-125462168D01*
X197298516Y-125088121D01*
X195580000Y-123369605D01*
X193861484Y-125088121D01*
X191937992Y-125088121D01*
X191458824Y-124370995D01*
X191210000Y-123120069D01*
X191210000Y-122679388D01*
X192909120Y-122679388D01*
X192917025Y-123740357D01*
X193307832Y-124683846D01*
X193681879Y-124908516D01*
X195400395Y-123190000D01*
X195759605Y-123190000D01*
X197478121Y-124908516D01*
X197852168Y-124683846D01*
X198063978Y-124161517D01*
X229001888Y-124161517D01*
X229069877Y-124402460D01*
X229588971Y-124587201D01*
X230139248Y-124559230D01*
X230517723Y-124402460D01*
X230585712Y-124161517D01*
X229793800Y-123369605D01*
X229001888Y-124161517D01*
X198063978Y-124161517D01*
X198250880Y-123700612D01*
X198245550Y-122985171D01*
X228396599Y-122985171D01*
X228424570Y-123535448D01*
X228581340Y-123913923D01*
X228822283Y-123981912D01*
X229614195Y-123190000D01*
X229973405Y-123190000D01*
X230765317Y-123981912D01*
X231006260Y-123913923D01*
X231166282Y-123464285D01*
X238408560Y-123464285D01*
X238618969Y-123973515D01*
X239008236Y-124363461D01*
X239517098Y-124574759D01*
X240068085Y-124575240D01*
X240577315Y-124364831D01*
X240967261Y-123975564D01*
X241178559Y-123466702D01*
X241179040Y-122915715D01*
X240968631Y-122406485D01*
X240579364Y-122016539D01*
X240070502Y-121805241D01*
X239519515Y-121804760D01*
X239010285Y-122015169D01*
X238620339Y-122404436D01*
X238409041Y-122913298D01*
X238408560Y-123464285D01*
X231166282Y-123464285D01*
X231191001Y-123394829D01*
X231163030Y-122844552D01*
X231006260Y-122466077D01*
X230765317Y-122398088D01*
X229973405Y-123190000D01*
X229614195Y-123190000D01*
X228822283Y-122398088D01*
X228581340Y-122466077D01*
X228396599Y-122985171D01*
X198245550Y-122985171D01*
X198242975Y-122639643D01*
X198068525Y-122218483D01*
X229001888Y-122218483D01*
X229793800Y-123010395D01*
X230585712Y-122218483D01*
X230517723Y-121977540D01*
X230199494Y-121864285D01*
X233408560Y-121864285D01*
X233618969Y-122373515D01*
X234008236Y-122763461D01*
X234517098Y-122974759D01*
X235068085Y-122975240D01*
X235577315Y-122764831D01*
X235967261Y-122375564D01*
X236178559Y-121866702D01*
X236179040Y-121315715D01*
X236137458Y-121215078D01*
X242419368Y-114933168D01*
X242567857Y-114710938D01*
X242620000Y-114448800D01*
X242620000Y-109511262D01*
X243443761Y-109170891D01*
X244194655Y-108421307D01*
X244601536Y-107441427D01*
X244602462Y-106380428D01*
X244197291Y-105399839D01*
X243447707Y-104648945D01*
X242467827Y-104242064D01*
X241406828Y-104241138D01*
X240426239Y-104646309D01*
X239675345Y-105395893D01*
X239268464Y-106375773D01*
X239267538Y-107436772D01*
X239672709Y-108417361D01*
X240422293Y-109168255D01*
X241250000Y-109511948D01*
X241250000Y-114165064D01*
X235168946Y-120246118D01*
X235070502Y-120205241D01*
X234519515Y-120204760D01*
X234010285Y-120415169D01*
X233620339Y-120804436D01*
X233409041Y-121313298D01*
X233408560Y-121864285D01*
X230199494Y-121864285D01*
X229998629Y-121792799D01*
X229448352Y-121820770D01*
X229069877Y-121977540D01*
X229001888Y-122218483D01*
X198068525Y-122218483D01*
X197852168Y-121696154D01*
X197478121Y-121471484D01*
X195759605Y-123190000D01*
X195400395Y-123190000D01*
X193681879Y-121471484D01*
X193307832Y-121696154D01*
X192909120Y-122679388D01*
X191210000Y-122679388D01*
X191210000Y-121291879D01*
X193861484Y-121291879D01*
X195580000Y-123010395D01*
X197298516Y-121291879D01*
X197073846Y-120917832D01*
X196090612Y-120519120D01*
X195029643Y-120527025D01*
X194086154Y-120917832D01*
X193861484Y-121291879D01*
X191210000Y-121291879D01*
X191210000Y-115742572D01*
X192683938Y-115742572D01*
X193089109Y-116723161D01*
X193838693Y-117474055D01*
X194818573Y-117880936D01*
X195879572Y-117881862D01*
X196860161Y-117476691D01*
X197611055Y-116727107D01*
X197933654Y-115950200D01*
X198123560Y-115950200D01*
X198123560Y-116265200D01*
X198167838Y-116500517D01*
X198306910Y-116716641D01*
X198519110Y-116861631D01*
X198771000Y-116912640D01*
X200771000Y-116912640D01*
X201006317Y-116868362D01*
X201222441Y-116729290D01*
X201367431Y-116517090D01*
X201418440Y-116265200D01*
X201418440Y-115710435D01*
X228203667Y-115710435D01*
X228470295Y-116289994D01*
X228938415Y-116723402D01*
X229413366Y-116920124D01*
X229666800Y-116800777D01*
X229666800Y-115457000D01*
X229920800Y-115457000D01*
X229920800Y-116800777D01*
X230174234Y-116920124D01*
X230649185Y-116723402D01*
X231117305Y-116289994D01*
X231383933Y-115710435D01*
X231265119Y-115457000D01*
X229920800Y-115457000D01*
X229666800Y-115457000D01*
X228322481Y-115457000D01*
X228203667Y-115710435D01*
X201418440Y-115710435D01*
X201418440Y-114949565D01*
X228203667Y-114949565D01*
X228322481Y-115203000D01*
X229666800Y-115203000D01*
X229666800Y-113859223D01*
X229920800Y-113859223D01*
X229920800Y-115203000D01*
X231265119Y-115203000D01*
X231383933Y-114949565D01*
X231117305Y-114370006D01*
X230649185Y-113936598D01*
X230174234Y-113739876D01*
X229920800Y-113859223D01*
X229666800Y-113859223D01*
X229413366Y-113739876D01*
X228938415Y-113936598D01*
X228470295Y-114370006D01*
X228203667Y-114949565D01*
X201418440Y-114949565D01*
X201418440Y-114265200D01*
X201374162Y-114029883D01*
X201235090Y-113813759D01*
X201022890Y-113668769D01*
X200771000Y-113617760D01*
X198771000Y-113617760D01*
X198535683Y-113662038D01*
X198319559Y-113801110D01*
X198174569Y-114013310D01*
X198123560Y-114265200D01*
X198123560Y-114580200D01*
X197975052Y-114580200D01*
X197613691Y-113705639D01*
X196864107Y-112954745D01*
X195884227Y-112547864D01*
X194823228Y-112546938D01*
X193842639Y-112952109D01*
X193091745Y-113701693D01*
X192684864Y-114681573D01*
X192683938Y-115742572D01*
X191210000Y-115742572D01*
X191210000Y-108435729D01*
X203253484Y-108435729D01*
X203396403Y-108780796D01*
X203743537Y-109169164D01*
X204212869Y-109395127D01*
X204419200Y-109272606D01*
X204419200Y-108229400D01*
X204673200Y-108229400D01*
X204673200Y-109272606D01*
X204879531Y-109395127D01*
X205348863Y-109169164D01*
X205695997Y-108780796D01*
X205838916Y-108435729D01*
X205715574Y-108229400D01*
X204673200Y-108229400D01*
X204419200Y-108229400D01*
X203376826Y-108229400D01*
X203253484Y-108435729D01*
X191210000Y-108435729D01*
X191210000Y-107769071D01*
X203253484Y-107769071D01*
X203376826Y-107975400D01*
X204419200Y-107975400D01*
X204419200Y-106932194D01*
X204673200Y-106932194D01*
X204673200Y-107975400D01*
X205715574Y-107975400D01*
X205838916Y-107769071D01*
X205695997Y-107424004D01*
X205348863Y-107035636D01*
X204879531Y-106809673D01*
X204673200Y-106932194D01*
X204419200Y-106932194D01*
X204212869Y-106809673D01*
X203743537Y-107035636D01*
X203396403Y-107424004D01*
X203253484Y-107769071D01*
X191210000Y-107769071D01*
X191210000Y-101669931D01*
X191458824Y-100419005D01*
X191582996Y-100233168D01*
X198136000Y-100233168D01*
X198136000Y-100297232D01*
X198260457Y-100922919D01*
X198614880Y-101453352D01*
X199145313Y-101807775D01*
X199771000Y-101932232D01*
X200396687Y-101807775D01*
X200927120Y-101453352D01*
X201220017Y-101015000D01*
X202967057Y-101015000D01*
X203281848Y-101486120D01*
X203785000Y-101822314D01*
X203785000Y-103081687D01*
X203499858Y-103272212D01*
X203210467Y-103705318D01*
X203108846Y-104216200D01*
X203210467Y-104727082D01*
X203499858Y-105160188D01*
X203932964Y-105449579D01*
X204443846Y-105551200D01*
X204496154Y-105551200D01*
X204779836Y-105494772D01*
X205763632Y-106478568D01*
X205985862Y-106627057D01*
X206248000Y-106679200D01*
X209712262Y-106679200D01*
X209800614Y-106767552D01*
X209361817Y-106767169D01*
X208870971Y-106969982D01*
X208495102Y-107345196D01*
X208291432Y-107835687D01*
X208290969Y-108366783D01*
X208493782Y-108857629D01*
X208868996Y-109233498D01*
X209359487Y-109437168D01*
X209890583Y-109437631D01*
X210381429Y-109234818D01*
X210708240Y-108908576D01*
X212843632Y-111043968D01*
X213065862Y-111192457D01*
X213328000Y-111244600D01*
X218165908Y-111244600D01*
X218248021Y-111657411D01*
X218537412Y-112090517D01*
X218970518Y-112379908D01*
X219481400Y-112481529D01*
X219992282Y-112379908D01*
X220425388Y-112090517D01*
X220714779Y-111657411D01*
X220816400Y-111146529D01*
X220816400Y-109972671D01*
X220797015Y-109875215D01*
X220894471Y-109894600D01*
X222068329Y-109894600D01*
X222579211Y-109792979D01*
X223012317Y-109503588D01*
X223301708Y-109070482D01*
X223403329Y-108559600D01*
X223301708Y-108048718D01*
X223012317Y-107615612D01*
X222579211Y-107326221D01*
X222068329Y-107224600D01*
X220894471Y-107224600D01*
X220797015Y-107243985D01*
X220816400Y-107146529D01*
X220816400Y-105972671D01*
X220714779Y-105461789D01*
X220425388Y-105028683D01*
X219992282Y-104739292D01*
X219481400Y-104637671D01*
X218970518Y-104739292D01*
X218537412Y-105028683D01*
X218248021Y-105461789D01*
X218165908Y-105874600D01*
X213904336Y-105874600D01*
X211761568Y-103731832D01*
X211539338Y-103583343D01*
X211277200Y-103531200D01*
X210711436Y-103531200D01*
X210682418Y-103460971D01*
X210307204Y-103085102D01*
X209816713Y-102881432D01*
X209285617Y-102880969D01*
X208794771Y-103083782D01*
X208418902Y-103458996D01*
X208215232Y-103949487D01*
X208214769Y-104480583D01*
X208417582Y-104971429D01*
X208754764Y-105309200D01*
X206531736Y-105309200D01*
X205766048Y-104543512D01*
X205831154Y-104216200D01*
X205729533Y-103705318D01*
X205440142Y-103272212D01*
X205155000Y-103081687D01*
X205155000Y-101822314D01*
X205658152Y-101486120D01*
X206012575Y-100955687D01*
X206137032Y-100330000D01*
X206012575Y-99704313D01*
X205658152Y-99173880D01*
X205127719Y-98819457D01*
X204502032Y-98695000D01*
X204437968Y-98695000D01*
X203812281Y-98819457D01*
X203281848Y-99173880D01*
X202967057Y-99645000D01*
X201289006Y-99645000D01*
X201281543Y-99607481D01*
X200927120Y-99077048D01*
X200396687Y-98722625D01*
X199771000Y-98598168D01*
X199145313Y-98722625D01*
X198614880Y-99077048D01*
X198260457Y-99607481D01*
X198136000Y-100233168D01*
X191582996Y-100233168D01*
X192127804Y-99417804D01*
X193129005Y-98748825D01*
X194379931Y-98500000D01*
X239916993Y-98500000D01*
X239599145Y-98817293D01*
X239599145Y-98817293D01*
G37*
X239599145Y-98817293D02*
X239255452Y-99645000D01*
X231441240Y-99645000D01*
X231441240Y-99330000D01*
X231396962Y-99094683D01*
X231257890Y-98878559D01*
X231045690Y-98733569D01*
X230793800Y-98682560D01*
X228793800Y-98682560D01*
X228558483Y-98726838D01*
X228342359Y-98865910D01*
X228197369Y-99078110D01*
X228146360Y-99330000D01*
X228146360Y-99645000D01*
X221117440Y-99645000D01*
X221117440Y-99330000D01*
X221073162Y-99094683D01*
X220934090Y-98878559D01*
X220721890Y-98733569D01*
X220470000Y-98682560D01*
X218470000Y-98682560D01*
X218234683Y-98726838D01*
X218018559Y-98865910D01*
X217873569Y-99078110D01*
X217822560Y-99330000D01*
X217822560Y-101330000D01*
X217866838Y-101565317D01*
X218005910Y-101781441D01*
X218218110Y-101926431D01*
X218470000Y-101977440D01*
X220470000Y-101977440D01*
X220705317Y-101933162D01*
X220921441Y-101794090D01*
X221066431Y-101581890D01*
X221117440Y-101330000D01*
X221117440Y-101015000D01*
X228146360Y-101015000D01*
X228146360Y-101330000D01*
X228190638Y-101565317D01*
X228329710Y-101781441D01*
X228541910Y-101926431D01*
X228793800Y-101977440D01*
X230793800Y-101977440D01*
X231029117Y-101933162D01*
X231245241Y-101794090D01*
X231390231Y-101581890D01*
X231441240Y-101330000D01*
X231441240Y-101015000D01*
X239256138Y-101015000D01*
X239596509Y-101838761D01*
X240346093Y-102589655D01*
X241325973Y-102996536D01*
X242386972Y-102997462D01*
X243367561Y-102592291D01*
X244118455Y-101842707D01*
X244525336Y-100862827D01*
X244526262Y-99801828D01*
X244121091Y-98821239D01*
X243807930Y-98507531D01*
X245020995Y-98748824D01*
X246022196Y-99417804D01*
X246691175Y-100419005D01*
X246940000Y-101669931D01*
X246940000Y-123120069D01*
X246691175Y-124370995D01*
X246022196Y-125372196D01*
X245020995Y-126041176D01*
X243770069Y-126290000D01*
X194379931Y-126290000D01*
X193129005Y-126041175D01*
X192127804Y-125372196D01*
X191937992Y-125088121D01*
X193861484Y-125088121D01*
X194086154Y-125462168D01*
X195069388Y-125860880D01*
X196130357Y-125852975D01*
X197073846Y-125462168D01*
X197298516Y-125088121D01*
X195580000Y-123369605D01*
X193861484Y-125088121D01*
X191937992Y-125088121D01*
X191458824Y-124370995D01*
X191210000Y-123120069D01*
X191210000Y-122679388D01*
X192909120Y-122679388D01*
X192917025Y-123740357D01*
X193307832Y-124683846D01*
X193681879Y-124908516D01*
X195400395Y-123190000D01*
X195759605Y-123190000D01*
X197478121Y-124908516D01*
X197852168Y-124683846D01*
X198063978Y-124161517D01*
X229001888Y-124161517D01*
X229069877Y-124402460D01*
X229588971Y-124587201D01*
X230139248Y-124559230D01*
X230517723Y-124402460D01*
X230585712Y-124161517D01*
X229793800Y-123369605D01*
X229001888Y-124161517D01*
X198063978Y-124161517D01*
X198250880Y-123700612D01*
X198245550Y-122985171D01*
X228396599Y-122985171D01*
X228424570Y-123535448D01*
X228581340Y-123913923D01*
X228822283Y-123981912D01*
X229614195Y-123190000D01*
X229973405Y-123190000D01*
X230765317Y-123981912D01*
X231006260Y-123913923D01*
X231166282Y-123464285D01*
X238408560Y-123464285D01*
X238618969Y-123973515D01*
X239008236Y-124363461D01*
X239517098Y-124574759D01*
X240068085Y-124575240D01*
X240577315Y-124364831D01*
X240967261Y-123975564D01*
X241178559Y-123466702D01*
X241179040Y-122915715D01*
X240968631Y-122406485D01*
X240579364Y-122016539D01*
X240070502Y-121805241D01*
X239519515Y-121804760D01*
X239010285Y-122015169D01*
X238620339Y-122404436D01*
X238409041Y-122913298D01*
X238408560Y-123464285D01*
X231166282Y-123464285D01*
X231191001Y-123394829D01*
X231163030Y-122844552D01*
X231006260Y-122466077D01*
X230765317Y-122398088D01*
X229973405Y-123190000D01*
X229614195Y-123190000D01*
X228822283Y-122398088D01*
X228581340Y-122466077D01*
X228396599Y-122985171D01*
X198245550Y-122985171D01*
X198242975Y-122639643D01*
X198068525Y-122218483D01*
X229001888Y-122218483D01*
X229793800Y-123010395D01*
X230585712Y-122218483D01*
X230517723Y-121977540D01*
X230199494Y-121864285D01*
X233408560Y-121864285D01*
X233618969Y-122373515D01*
X234008236Y-122763461D01*
X234517098Y-122974759D01*
X235068085Y-122975240D01*
X235577315Y-122764831D01*
X235967261Y-122375564D01*
X236178559Y-121866702D01*
X236179040Y-121315715D01*
X236137458Y-121215078D01*
X242419368Y-114933168D01*
X242567857Y-114710938D01*
X242620000Y-114448800D01*
X242620000Y-109511262D01*
X243443761Y-109170891D01*
X244194655Y-108421307D01*
X244601536Y-107441427D01*
X244602462Y-106380428D01*
X244197291Y-105399839D01*
X243447707Y-104648945D01*
X242467827Y-104242064D01*
X241406828Y-104241138D01*
X240426239Y-104646309D01*
X239675345Y-105395893D01*
X239268464Y-106375773D01*
X239267538Y-107436772D01*
X239672709Y-108417361D01*
X240422293Y-109168255D01*
X241250000Y-109511948D01*
X241250000Y-114165064D01*
X235168946Y-120246118D01*
X235070502Y-120205241D01*
X234519515Y-120204760D01*
X234010285Y-120415169D01*
X233620339Y-120804436D01*
X233409041Y-121313298D01*
X233408560Y-121864285D01*
X230199494Y-121864285D01*
X229998629Y-121792799D01*
X229448352Y-121820770D01*
X229069877Y-121977540D01*
X229001888Y-122218483D01*
X198068525Y-122218483D01*
X197852168Y-121696154D01*
X197478121Y-121471484D01*
X195759605Y-123190000D01*
X195400395Y-123190000D01*
X193681879Y-121471484D01*
X193307832Y-121696154D01*
X192909120Y-122679388D01*
X191210000Y-122679388D01*
X191210000Y-121291879D01*
X193861484Y-121291879D01*
X195580000Y-123010395D01*
X197298516Y-121291879D01*
X197073846Y-120917832D01*
X196090612Y-120519120D01*
X195029643Y-120527025D01*
X194086154Y-120917832D01*
X193861484Y-121291879D01*
X191210000Y-121291879D01*
X191210000Y-115742572D01*
X192683938Y-115742572D01*
X193089109Y-116723161D01*
X193838693Y-117474055D01*
X194818573Y-117880936D01*
X195879572Y-117881862D01*
X196860161Y-117476691D01*
X197611055Y-116727107D01*
X197933654Y-115950200D01*
X198123560Y-115950200D01*
X198123560Y-116265200D01*
X198167838Y-116500517D01*
X198306910Y-116716641D01*
X198519110Y-116861631D01*
X198771000Y-116912640D01*
X200771000Y-116912640D01*
X201006317Y-116868362D01*
X201222441Y-116729290D01*
X201367431Y-116517090D01*
X201418440Y-116265200D01*
X201418440Y-115710435D01*
X228203667Y-115710435D01*
X228470295Y-116289994D01*
X228938415Y-116723402D01*
X229413366Y-116920124D01*
X229666800Y-116800777D01*
X229666800Y-115457000D01*
X229920800Y-115457000D01*
X229920800Y-116800777D01*
X230174234Y-116920124D01*
X230649185Y-116723402D01*
X231117305Y-116289994D01*
X231383933Y-115710435D01*
X231265119Y-115457000D01*
X229920800Y-115457000D01*
X229666800Y-115457000D01*
X228322481Y-115457000D01*
X228203667Y-115710435D01*
X201418440Y-115710435D01*
X201418440Y-114949565D01*
X228203667Y-114949565D01*
X228322481Y-115203000D01*
X229666800Y-115203000D01*
X229666800Y-113859223D01*
X229920800Y-113859223D01*
X229920800Y-115203000D01*
X231265119Y-115203000D01*
X231383933Y-114949565D01*
X231117305Y-114370006D01*
X230649185Y-113936598D01*
X230174234Y-113739876D01*
X229920800Y-113859223D01*
X229666800Y-113859223D01*
X229413366Y-113739876D01*
X228938415Y-113936598D01*
X228470295Y-114370006D01*
X228203667Y-114949565D01*
X201418440Y-114949565D01*
X201418440Y-114265200D01*
X201374162Y-114029883D01*
X201235090Y-113813759D01*
X201022890Y-113668769D01*
X200771000Y-113617760D01*
X198771000Y-113617760D01*
X198535683Y-113662038D01*
X198319559Y-113801110D01*
X198174569Y-114013310D01*
X198123560Y-114265200D01*
X198123560Y-114580200D01*
X197975052Y-114580200D01*
X197613691Y-113705639D01*
X196864107Y-112954745D01*
X195884227Y-112547864D01*
X194823228Y-112546938D01*
X193842639Y-112952109D01*
X193091745Y-113701693D01*
X192684864Y-114681573D01*
X192683938Y-115742572D01*
X191210000Y-115742572D01*
X191210000Y-108435729D01*
X203253484Y-108435729D01*
X203396403Y-108780796D01*
X203743537Y-109169164D01*
X204212869Y-109395127D01*
X204419200Y-109272606D01*
X204419200Y-108229400D01*
X204673200Y-108229400D01*
X204673200Y-109272606D01*
X204879531Y-109395127D01*
X205348863Y-109169164D01*
X205695997Y-108780796D01*
X205838916Y-108435729D01*
X205715574Y-108229400D01*
X204673200Y-108229400D01*
X204419200Y-108229400D01*
X203376826Y-108229400D01*
X203253484Y-108435729D01*
X191210000Y-108435729D01*
X191210000Y-107769071D01*
X203253484Y-107769071D01*
X203376826Y-107975400D01*
X204419200Y-107975400D01*
X204419200Y-106932194D01*
X204673200Y-106932194D01*
X204673200Y-107975400D01*
X205715574Y-107975400D01*
X205838916Y-107769071D01*
X205695997Y-107424004D01*
X205348863Y-107035636D01*
X204879531Y-106809673D01*
X204673200Y-106932194D01*
X204419200Y-106932194D01*
X204212869Y-106809673D01*
X203743537Y-107035636D01*
X203396403Y-107424004D01*
X203253484Y-107769071D01*
X191210000Y-107769071D01*
X191210000Y-101669931D01*
X191458824Y-100419005D01*
X191582996Y-100233168D01*
X198136000Y-100233168D01*
X198136000Y-100297232D01*
X198260457Y-100922919D01*
X198614880Y-101453352D01*
X199145313Y-101807775D01*
X199771000Y-101932232D01*
X200396687Y-101807775D01*
X200927120Y-101453352D01*
X201220017Y-101015000D01*
X202967057Y-101015000D01*
X203281848Y-101486120D01*
X203785000Y-101822314D01*
X203785000Y-103081687D01*
X203499858Y-103272212D01*
X203210467Y-103705318D01*
X203108846Y-104216200D01*
X203210467Y-104727082D01*
X203499858Y-105160188D01*
X203932964Y-105449579D01*
X204443846Y-105551200D01*
X204496154Y-105551200D01*
X204779836Y-105494772D01*
X205763632Y-106478568D01*
X205985862Y-106627057D01*
X206248000Y-106679200D01*
X209712262Y-106679200D01*
X209800614Y-106767552D01*
X209361817Y-106767169D01*
X208870971Y-106969982D01*
X208495102Y-107345196D01*
X208291432Y-107835687D01*
X208290969Y-108366783D01*
X208493782Y-108857629D01*
X208868996Y-109233498D01*
X209359487Y-109437168D01*
X209890583Y-109437631D01*
X210381429Y-109234818D01*
X210708240Y-108908576D01*
X212843632Y-111043968D01*
X213065862Y-111192457D01*
X213328000Y-111244600D01*
X218165908Y-111244600D01*
X218248021Y-111657411D01*
X218537412Y-112090517D01*
X218970518Y-112379908D01*
X219481400Y-112481529D01*
X219992282Y-112379908D01*
X220425388Y-112090517D01*
X220714779Y-111657411D01*
X220816400Y-111146529D01*
X220816400Y-109972671D01*
X220797015Y-109875215D01*
X220894471Y-109894600D01*
X222068329Y-109894600D01*
X222579211Y-109792979D01*
X223012317Y-109503588D01*
X223301708Y-109070482D01*
X223403329Y-108559600D01*
X223301708Y-108048718D01*
X223012317Y-107615612D01*
X222579211Y-107326221D01*
X222068329Y-107224600D01*
X220894471Y-107224600D01*
X220797015Y-107243985D01*
X220816400Y-107146529D01*
X220816400Y-105972671D01*
X220714779Y-105461789D01*
X220425388Y-105028683D01*
X219992282Y-104739292D01*
X219481400Y-104637671D01*
X218970518Y-104739292D01*
X218537412Y-105028683D01*
X218248021Y-105461789D01*
X218165908Y-105874600D01*
X213904336Y-105874600D01*
X211761568Y-103731832D01*
X211539338Y-103583343D01*
X211277200Y-103531200D01*
X210711436Y-103531200D01*
X210682418Y-103460971D01*
X210307204Y-103085102D01*
X209816713Y-102881432D01*
X209285617Y-102880969D01*
X208794771Y-103083782D01*
X208418902Y-103458996D01*
X208215232Y-103949487D01*
X208214769Y-104480583D01*
X208417582Y-104971429D01*
X208754764Y-105309200D01*
X206531736Y-105309200D01*
X205766048Y-104543512D01*
X205831154Y-104216200D01*
X205729533Y-103705318D01*
X205440142Y-103272212D01*
X205155000Y-103081687D01*
X205155000Y-101822314D01*
X205658152Y-101486120D01*
X206012575Y-100955687D01*
X206137032Y-100330000D01*
X206012575Y-99704313D01*
X205658152Y-99173880D01*
X205127719Y-98819457D01*
X204502032Y-98695000D01*
X204437968Y-98695000D01*
X203812281Y-98819457D01*
X203281848Y-99173880D01*
X202967057Y-99645000D01*
X201289006Y-99645000D01*
X201281543Y-99607481D01*
X200927120Y-99077048D01*
X200396687Y-98722625D01*
X199771000Y-98598168D01*
X199145313Y-98722625D01*
X198614880Y-99077048D01*
X198260457Y-99607481D01*
X198136000Y-100233168D01*
X191582996Y-100233168D01*
X192127804Y-99417804D01*
X193129005Y-98748825D01*
X194379931Y-98500000D01*
X239916993Y-98500000D01*
X239599145Y-98817293D01*
M02*
