M48
;DRILL file {KiCad 4.0.5} date 05/18/17 11:10:56
;FORMAT={-:-/ absolute / inch / decimal}
FMAT,2
INCH,TZ
T1C0.028
T2C0.031
T3C0.035
T4C0.039
T5C0.120
%
G90
G05
M72
T1
X8.05Y-4.103
X8.053Y-4.256
X8.25Y-4.103
X8.253Y-4.256
T2
X8.641Y-4.1953
X8.641Y-4.3527
X8.7197Y-4.274
T3
X9.047Y-4.85
X9.2439Y-4.787
X9.4407Y-4.85
T4
X7.865Y-3.9474
X7.865Y-4.538
X8.05Y-3.95
X8.6406Y-3.95
X9.047Y-3.95
X9.047Y-4.5406
T5
X7.691Y-4.536
X7.7Y-4.85
X9.522Y-3.95
X9.525Y-4.209
T0
M30
