G04 #@! TF.FileFunction,Copper,L1,Top,Signal*
%FSLAX46Y46*%
G04 Gerber Fmt 4.6, Leading zero omitted, Abs format (unit mm)*
G04 Created by KiCad (PCBNEW 4.0.5) date 05/18/17 11:10:43*
%MOMM*%
%LPD*%
G01*
G04 APERTURE LIST*
%ADD10C,0.100000*%
%ADD11R,2.000000X2.000000*%
%ADD12O,2.000000X2.000000*%
%ADD13C,4.064000*%
%ADD14O,2.500000X1.400000*%
%ADD15O,1.400000X2.500000*%
%ADD16C,1.400000*%
%ADD17O,1.400000X1.400000*%
%ADD18C,1.500000*%
G04 APERTURE END LIST*
D10*
D11*
X199771000Y-115265200D03*
D12*
X199771000Y-100265200D03*
D11*
X219470000Y-100330000D03*
D12*
X204470000Y-100330000D03*
D11*
X229793800Y-100330000D03*
D12*
X229793800Y-115330000D03*
D13*
X195351400Y-115214400D03*
X195580000Y-123190000D03*
X241858800Y-100330000D03*
X241935000Y-106908600D03*
D14*
X221481400Y-108559600D03*
D15*
X219481400Y-106559600D03*
X219481400Y-110559600D03*
D16*
X209550000Y-104216200D03*
D17*
X204470000Y-104216200D03*
D16*
X209626200Y-108102400D03*
D17*
X204546200Y-108102400D03*
D18*
X234793800Y-121590000D03*
X229793800Y-123190000D03*
X239793800Y-123190000D03*
D10*
X199771000Y-115265200D02*
X195402200Y-115265200D01*
X195402200Y-115265200D02*
X195351400Y-115214400D01*
X221481400Y-108559600D02*
X212561398Y-108559600D01*
X212561398Y-108559600D02*
X209995998Y-105994200D01*
X209995998Y-105994200D02*
X206248000Y-105994200D01*
X206248000Y-105994200D02*
X204470000Y-104216200D01*
X204470000Y-100330000D02*
X204470000Y-101744213D01*
X204470000Y-101744213D02*
X204470000Y-104216200D01*
X204470000Y-100330000D02*
X199835800Y-100330000D01*
X199835800Y-100330000D02*
X199771000Y-100265200D01*
X211277200Y-104216200D02*
X213620600Y-106559600D01*
X213620600Y-106559600D02*
X219481400Y-106559600D01*
X209550000Y-104216200D02*
X211277200Y-104216200D01*
X219470000Y-100330000D02*
X229793800Y-100330000D01*
X241858800Y-100330000D02*
X238985119Y-100330000D01*
X238985119Y-100330000D02*
X229793800Y-100330000D01*
X229793800Y-123190000D02*
X229793800Y-122129340D01*
X229793800Y-122129340D02*
X229793800Y-115330000D01*
X229793800Y-115330000D02*
X228379587Y-115330000D01*
X228379587Y-115330000D02*
X227273387Y-114223800D01*
X227273387Y-114223800D02*
X204546200Y-114223800D01*
X195580000Y-123190000D02*
X204546200Y-114223800D01*
X204546200Y-114223800D02*
X204546200Y-108102400D01*
X234793800Y-121590000D02*
X241935000Y-114448800D01*
X241935000Y-114448800D02*
X241935000Y-106908600D01*
X210870800Y-108102400D02*
X213328000Y-110559600D01*
X213328000Y-110559600D02*
X219481400Y-110559600D01*
X209626200Y-108102400D02*
X210870800Y-108102400D01*
M02*
